0
SECTION
2
HEADER
0
ENDSEC
0
SECTION
2
TABLES
0
TABLE
2
LTYPE
0
LTYPE
72
65
70
64
2
CONTINUOUS
3
______
73
0
40
0
0
ENDTAB
0
TABLE
2
LAYER
0
ENDTAB
0
ENDSEC
0
SECTION
2
ENTITIES
0
CIRCLE
8
0
10
0
20
0
40
2
0
CIRCLE
8
0
10
0
20
0
40
2
0
LINE
8
layer0
10
31.0661396
20
10.2955003
11
30.5961396
21
9.6350824
0
LINE
8
layer0
10
30.5961396
20
9.6350824
11
30.127251
21
9.0314198
0
LINE
8
layer0
10
30.127251
20
9.0314198
11
29.6626603
21
8.4823935
0
LINE
8
layer0
10
29.6626603
20
8.4823935
11
29.2068161
21
7.9873055
0
LINE
8
layer0
10
29.2068161
20
7.9873055
11
28.7627722
21
7.5438104
0
LINE
8
layer0
10
28.7627722
20
7.5438104
11
28.3346511
21
7.150584
0
LINE
8
layer0
10
28.3346511
20
7.150584
11
27.9234354
21
6.803494
0
LINE
8
layer0
10
27.9234354
20
6.803494
11
27.5370052
21
6.5040925
0
LINE
8
layer0
10
27.5370052
20
6.5040925
11
27.1725297
21
6.245341
0
LINE
8
layer0
10
27.1725297
20
6.245341
11
26.8375966
21
6.02809
0
LINE
8
layer0
10
26.8375966
20
6.02809
11
26.5603701
21
5.8618038
0
LINE
8
layer0
10
26.5603701
20
5.8618038
11
26.3595985
21
5.7134666
0
LINE
8
layer0
10
26.3595985
20
5.7134666
11
26.2812906
21
5.6373827
0
LINE
8
layer0
10
26.2812906
20
5.6373827
11
26.2177232
21
5.5608009
0
LINE
8
layer0
10
26.2177232
20
5.5608009
11
26.1688545
21
5.4843028
0
LINE
8
layer0
10
26.1688545
20
5.4843028
11
26.1346627
21
5.4084734
0
LINE
8
layer0
10
26.1346627
20
5.4084734
11
26.1150962
21
5.3338927
0
LINE
8
layer0
10
26.1150962
20
5.3338927
11
26.1100643
21
5.2611335
0
LINE
8
layer0
10
26.1100643
20
5.2611335
11
26.1364977
21
5.103448
0
LINE
8
layer0
10
26.1364977
20
5.103448
11
26.2254305
21
4.624251
0
LINE
8
layer0
10
26.2254305
20
4.624251
11
26.305756
21
4.1435362
0
LINE
8
layer0
10
26.305756
20
4.1435362
11
26.3348484
21
3.9863196
0
LINE
8
layer0
10
26.3348484
20
3.9863196
11
26.364462
21
3.9196694
0
LINE
8
layer0
10
26.364462
20
3.9196694
11
26.4083565
21
3.8562785
0
LINE
8
layer0
10
26.4083565
20
3.8562785
11
26.4664215
21
3.7967165
0
LINE
8
layer0
10
26.4664215
20
3.7967165
11
26.5385069
21
3.7415459
0
LINE
8
layer0
10
26.5385069
20
3.7415459
11
26.6244333
21
3.6913238
0
LINE
8
layer0
10
26.6244333
20
3.6913238
11
26.7240408
21
3.6466112
0
LINE
8
layer0
10
26.7240408
20
3.6466112
11
26.9634388
21
3.5758878
0
LINE
8
layer0
10
26.9634388
20
3.5758878
11
27.2808196
21
3.514447
0
LINE
8
layer0
10
27.2808196
20
3.514447
11
27.6698581
21
3.4248516
0
LINE
8
layer0
10
27.6698581
20
3.4248516
11
28.1008512
21
3.3063627
0
LINE
8
layer0
10
28.1008512
20
3.3063627
11
28.5663782
21
3.1571842
0
LINE
8
layer0
10
28.5663782
20
3.1571842
11
29.0715063
21
2.9716705
0
LINE
8
layer0
10
29.0715063
20
2.9716705
11
29.6082999
21
2.7485845
0
LINE
8
layer0
10
29.6082999
20
2.7485845
11
30.177249
21
2.4837074
0
LINE
8
layer0
10
30.177249
20
2.4837074
11
30.7749324
21
2.1743847
0
LINE
8
layer0
10
30.7749324
20
2.1743847
11
31.399283
21
1.8173682
0
LINE
8
layer0
10
31.399283
20
1.8173682
11
32.0463589
21
1.4104802
0
LINE
8
layer0
10
32.0463589
20
1.4104802
11
32.7138906
21
0.9506398
0
LINE
8
layer0
10
32.7138906
20
0.9506398
11
33.3465853
21
0.4758805
0
ARC
8
layer0
10
-0.0000193
20
1e-7
40
33.35
50
359.1824027
51
360.8175971
0
LINE
8
layer0
10
33.3465853
20
-0.4758805
11
32.7138906
21
-0.9506398
0
LINE
8
layer0
10
32.7138906
20
-0.9506398
11
32.0463589
21
-1.4104802
0
LINE
8
layer0
10
32.0463589
20
-1.4104802
11
31.399283
21
-1.8173682
0
LINE
8
layer0
10
31.399283
20
-1.8173682
11
30.7749324
21
-2.1743847
0
LINE
8
layer0
10
30.7749324
20
-2.1743847
11
30.177249
21
-2.4837074
0
LINE
8
layer0
10
30.177249
20
-2.4837074
11
29.6082999
21
-2.7485845
0
LINE
8
layer0
10
29.6082999
20
-2.7485845
11
29.0715063
21
-2.9716705
0
LINE
8
layer0
10
29.0715063
20
-2.9716705
11
28.5663782
21
-3.1571842
0
LINE
8
layer0
10
28.5663782
20
-3.1571842
11
28.1008512
21
-3.3063627
0
LINE
8
layer0
10
28.1008512
20
-3.3063627
11
27.6698581
21
-3.4248516
0
LINE
8
layer0
10
27.6698581
20
-3.4248516
11
27.2808196
21
-3.514447
0
LINE
8
layer0
10
27.2808196
20
-3.514447
11
26.9634388
21
-3.5758878
0
LINE
8
layer0
10
26.9634388
20
-3.5758878
11
26.7240408
21
-3.6466112
0
LINE
8
layer0
10
26.7240408
20
-3.6466112
11
26.6244333
21
-3.6913238
0
LINE
8
layer0
10
26.6244333
20
-3.6913238
11
26.5385069
21
-3.7415459
0
LINE
8
layer0
10
26.5385069
20
-3.7415459
11
26.4664215
21
-3.7967165
0
LINE
8
layer0
10
26.4664215
20
-3.7967165
11
26.4083565
21
-3.8562785
0
LINE
8
layer0
10
26.4083565
20
-3.8562785
11
26.364462
21
-3.9196694
0
LINE
8
layer0
10
26.364462
20
-3.9196694
11
26.3348484
21
-3.9863196
0
LINE
8
layer0
10
26.3348484
20
-3.9863196
11
26.305756
21
-4.1435362
0
LINE
8
layer0
10
26.305756
20
-4.1435362
11
26.2254305
21
-4.624251
0
LINE
8
layer0
10
26.2254305
20
-4.624251
11
26.1364977
21
-5.103448
0
LINE
8
layer0
10
26.1364977
20
-5.103448
11
26.1100643
21
-5.2611335
0
LINE
8
layer0
10
26.1100643
20
-5.2611335
11
26.1150962
21
-5.3338927
0
LINE
8
layer0
10
26.1150962
20
-5.3338927
11
26.1346627
21
-5.4084734
0
LINE
8
layer0
10
26.1346627
20
-5.4084734
11
26.1688545
21
-5.4843028
0
LINE
8
layer0
10
26.1688545
20
-5.4843028
11
26.2177232
21
-5.5608009
0
LINE
8
layer0
10
26.2177232
20
-5.5608009
11
26.2812906
21
-5.6373827
0
LINE
8
layer0
10
26.2812906
20
-5.6373827
11
26.3595985
21
-5.7134666
0
LINE
8
layer0
10
26.3595985
20
-5.7134666
11
26.5603701
21
-5.8618038
0
LINE
8
layer0
10
26.5603701
20
-5.8618038
11
26.8375966
21
-6.02809
0
LINE
8
layer0
10
26.8375966
20
-6.02809
11
27.1725297
21
-6.245341
0
LINE
8
layer0
10
27.1725297
20
-6.245341
11
27.5370052
21
-6.5040925
0
LINE
8
layer0
10
27.5370052
20
-6.5040925
11
27.9234354
21
-6.803494
0
LINE
8
layer0
10
27.9234354
20
-6.803494
11
28.3346511
21
-7.150584
0
LINE
8
layer0
10
28.3346511
20
-7.150584
11
28.7627722
21
-7.5438104
0
LINE
8
layer0
10
28.7627722
20
-7.5438104
11
29.2068161
21
-7.9873055
0
LINE
8
layer0
10
29.2068161
20
-7.9873055
11
29.6626603
21
-8.4823935
0
LINE
8
layer0
10
29.6626603
20
-8.4823935
11
30.127251
21
-9.0314198
0
LINE
8
layer0
10
30.127251
20
-9.0314198
11
30.5961396
21
-9.6350824
0
LINE
8
layer0
10
30.5961396
20
-9.6350824
11
31.0661396
21
-10.2955003
0
LINE
8
layer0
10
31.0661396
20
-10.2955003
11
31.4983008
21
-10.9580225
0
ARC
8
layer0
10
-0.0000182
20
0.0000066
40
33.35
50
339.1824029
51
340.8175973
0
LINE
8
layer0
10
31.1727794
20
-11.8523852
11
30.4158636
21
-12.0821188
0
LINE
8
layer0
10
30.4158636
20
-12.0821188
11
29.6313143
21
-12.2859181
0
LINE
8
layer0
10
29.6313143
20
-12.2859181
11
28.884098
21
-12.4469547
0
LINE
8
layer0
10
28.884098
20
-12.4469547
11
28.1752935
21
-12.5689001
0
LINE
8
layer0
10
28.1752935
20
-12.5689001
11
27.5078602
21
-12.6551485
0
LINE
8
layer0
10
27.5078602
20
-12.6551485
11
26.8826297
21
-12.7094596
0
LINE
8
layer0
10
26.8826297
20
-12.7094596
11
26.3019088
21
-12.7354976
0
LINE
8
layer0
10
26.3019088
20
-12.7354976
11
25.7637942
21
-12.7370595
0
LINE
8
layer0
10
25.7637942
20
-12.7370595
11
25.2753199
21
-12.7180218
0
LINE
8
layer0
10
25.2753199
20
-12.7180218
11
24.8297932
21
-12.6819566
0
LINE
8
layer0
10
24.8297932
20
-12.6819566
11
24.4335733
21
-12.6330897
0
LINE
8
layer0
10
24.4335733
20
-12.6330897
11
24.1143188
21
-12.5822746
0
LINE
8
layer0
10
24.1143188
20
-12.5822746
11
23.8651695
21
-12.5668539
0
LINE
8
layer0
10
23.8651695
20
-12.5668539
11
23.7562764
21
-12.5748023
0
LINE
8
layer0
10
23.7562764
20
-12.5748023
11
23.6583551
21
-12.592607
0
LINE
8
layer0
10
23.6583551
20
-12.592607
11
23.5717475
21
-12.6197958
0
LINE
8
layer0
10
23.5717475
20
-12.6197958
11
23.4968128
21
-12.6559064
0
LINE
8
layer0
10
23.4968128
20
-12.6559064
11
23.4338845
21
-12.7004614
0
LINE
8
layer0
10
23.4338845
20
-12.7004614
11
23.3832611
21
-12.7529637
0
LINE
8
layer0
10
23.3832611
20
-12.7529637
11
23.302152
21
-12.8907489
0
LINE
8
layer0
10
23.302152
20
-12.8907489
11
23.0622565
21
-13.315
0
LINE
8
layer0
10
23.0622565
20
-13.315
11
22.814792
21
-13.7348811
0
LINE
8
layer0
10
22.814792
20
-13.7348811
11
22.7360211
21
-13.8740163
0
LINE
8
layer0
10
22.7360211
20
-13.8740163
11
22.7158645
21
-13.9441086
0
LINE
8
layer0
10
22.7158645
20
-13.9441086
11
22.7087428
21
-14.0208836
0
LINE
8
layer0
10
22.7087428
20
-14.0208836
11
22.7149375
21
-14.1038342
0
LINE
8
layer0
10
22.7149375
20
-14.1038342
11
22.7346951
21
-14.192433
0
LINE
8
layer0
10
22.7346951
20
-14.192433
11
22.7682364
21
-14.2861377
0
LINE
8
layer0
10
22.7682364
20
-14.2861377
11
22.8157995
21
-14.3844161
0
LINE
8
layer0
10
22.8157995
20
-14.3844161
11
22.9537288
21
-14.5924754
0
LINE
8
layer0
10
22.9537288
20
-14.5924754
11
23.1573633
21
-14.8435503
0
LINE
8
layer0
10
23.1573633
20
-14.8435503
11
23.3977932
21
-15.1622534
0
LINE
8
layer0
10
23.3977932
20
-15.1622534
11
23.6517899
21
-15.5300582
0
LINE
8
layer0
10
23.6517899
20
-15.5300582
11
23.9125142
21
-15.9435705
0
LINE
8
layer0
10
23.9125142
20
-15.9435705
11
24.1802188
21
-16.4103724
0
LINE
8
layer0
10
24.1802188
20
-16.4103724
11
24.4480297
21
-16.9263104
0
LINE
8
layer0
10
24.4480297
20
-16.9263104
11
24.7136102
21
-17.4949315
0
LINE
8
layer0
10
24.7136102
20
-17.4949315
11
24.9726335
21
-18.1160699
0
LINE
8
layer0
10
24.9726335
20
-18.1160699
11
25.221428
21
-18.7908853
0
LINE
8
layer0
10
25.221428
20
-18.7908853
11
25.4555743
21
-19.5185119
0
LINE
8
layer0
10
25.4555743
20
-19.5185119
11
25.6713536
21
-20.2998512
0
LINE
8
layer0
10
25.6713536
20
-20.2998512
11
25.8508564
21
-21.0702263
0
ARC
8
layer0
10
-0.0000158
20
0.0000112
40
33.35
50
319.1824054
51
320.8175999
0
LINE
8
layer0
10
25.2390763
20
-21.7993174
11
24.4492346
21
-21.7563159
0
LINE
8
layer0
10
24.4492346
20
-21.7563159
11
23.642296
21
-21.6794929
0
LINE
8
layer0
10
23.642296
20
-21.6794929
11
22.8850645
21
-21.5752549
0
LINE
8
layer0
10
22.8850645
20
-21.5752549
11
22.1772984
21
-21.4474206
0
LINE
8
layer0
10
22.1772984
20
-21.4474206
11
21.5206175
21
-21.300192
0
LINE
8
layer0
10
21.5206175
20
-21.300192
11
20.9145176
21
-21.1373862
0
LINE
8
layer0
10
20.9145176
20
-21.1373862
11
20.3599129
21
-20.9632357
0
LINE
8
layer0
10
20.3599129
20
-20.9632357
11
19.8537164
21
-20.7806574
0
LINE
8
layer0
10
19.8537164
20
-20.7806574
11
19.401212
21
-20.5956997
0
LINE
8
layer0
10
19.401212
20
-20.5956997
11
18.9948888
21
-20.4094305
0
LINE
8
layer0
10
18.9948888
20
-20.4094305
11
18.6392773
21
-20.2279954
0
LINE
8
layer0
10
18.6392773
20
-20.2279954
11
18.3566561
21
-20.0710534
0
LINE
8
layer0
10
18.3566561
20
-20.0710534
11
18.1278065
21
-19.9713486
0
LINE
8
layer0
10
18.1278065
20
-19.9713486
11
18.022762
21
-19.941574
0
LINE
8
layer0
10
18.022762
20
-19.941574
11
17.9246564
21
-19.9248138
0
LINE
8
layer0
10
17.9246564
20
-19.9248138
11
17.8339728
21
-19.9207414
0
LINE
8
layer0
10
17.8339728
20
-19.9207414
11
17.7512067
21
-19.9290451
0
LINE
8
layer0
10
17.7512067
20
-19.9290451
11
17.6768347
21
-19.9493904
0
LINE
8
layer0
10
17.6768347
20
-19.9493904
11
17.6113074
21
-19.9814122
0
LINE
8
layer0
10
17.6113074
20
-19.9814122
11
17.4879645
21
-20.0831469
0
LINE
8
layer0
10
17.4879645
20
-20.0831469
11
17.117434
21
-20.3997635
0
LINE
8
layer0
10
17.117434
20
-20.3997635
11
16.7412856
21
-20.7096849
0
LINE
8
layer0
10
16.7412856
20
-20.7096849
11
16.6196782
21
-20.8134879
0
LINE
8
layer0
10
16.6196782
20
-20.8134879
11
16.5767642
21
-20.8724591
0
LINE
8
layer0
10
16.5767642
20
-20.8724591
11
16.5438134
21
-20.9421684
0
LINE
8
layer0
10
16.5438134
20
-20.9421684
11
16.5212637
21
-21.0222351
0
LINE
8
layer0
10
16.5212637
20
-21.0222351
11
16.5095272
21
-21.1122483
0
LINE
8
layer0
10
16.5095272
20
-21.1122483
11
16.5089969
21
-21.2117737
0
LINE
8
layer0
10
16.5089969
20
-21.2117737
11
16.5200784
21
-21.3203927
0
LINE
8
layer0
10
16.5200784
20
-21.3203927
11
16.5785291
21
-21.5630791
0
LINE
8
layer0
10
16.5785291
20
-21.5630791
11
16.6840102
21
-21.8686594
0
LINE
8
layer0
10
16.6840102
20
-21.8686594
11
16.8009375
21
-22.2503742
0
LINE
8
layer0
10
16.8009375
20
-22.2503742
11
16.9138197
21
-22.6828697
0
LINE
8
layer0
10
16.9138197
20
-22.6828697
11
17.0173908
21
-23.1606171
0
LINE
8
layer0
10
17.0173908
20
-23.1606171
11
17.1092953
21
-23.6908278
0
LINE
8
layer0
10
17.1092953
20
-23.6908278
11
17.184494
21
-24.2672476
0
LINE
8
layer0
10
17.184494
20
-24.2672476
11
17.2395782
21
-24.8924105
0
LINE
8
layer0
10
17.2395782
20
-24.8924105
11
17.2705386
21
-25.5646809
0
LINE
8
layer0
10
17.2705386
20
-25.5646809
11
17.2735285
21
-26.2838926
0
LINE
8
layer0
10
17.2735285
20
-26.2838926
11
17.2446911
21
-27.0477208
0
LINE
8
layer0
10
17.2446911
20
-27.0477208
11
17.1802236
21
-27.8557404
0
LINE
8
layer0
10
17.1802236
20
-27.8557404
11
17.0854172
21
-28.6410498
0
ARC
8
layer0
10
-0.0000112
20
0.0000157
40
33.35
50
299.1824059
51
300.8176003
0
LINE
8
layer0
10
16.2611681
20
-29.1169302
11
15.5336671
21
-28.8063803
0
LINE
8
layer0
10
15.5336671
20
-28.8063803
11
14.8016678
21
-28.458201
0
LINE
8
layer0
10
14.8016678
20
-28.458201
11
14.1257545
21
-28.1012608
0
LINE
8
layer0
10
14.1257545
20
-28.1012608
11
13.5043938
21
-27.7390656
0
LINE
8
layer0
10
13.5043938
20
-27.7390656
11
12.9376708
21
-27.3761179
0
LINE
8
layer0
10
12.9376708
20
-27.3761179
11
12.423806
21
-27.0158321
0
LINE
8
layer0
10
12.423806
20
-27.0158321
11
11.9622111
21
-26.6624982
0
LINE
8
layer0
10
11.9622111
20
-26.6624982
11
11.5489873
21
-26.3178013
0
LINE
8
layer0
10
11.5489873
20
-26.3178013
11
11.1870315
21
-25.9892324
0
LINE
8
layer0
10
11.1870315
20
-25.9892324
11
10.8689205
21
-25.6752258
0
LINE
8
layer0
10
10.8689205
20
-25.6752258
11
10.5968095
21
-25.3831063
0
LINE
8
layer0
10
10.5968095
20
-25.3831063
11
10.3849097
21
-25.1389669
0
LINE
8
layer0
10
10.3849097
20
-25.1389669
11
10.2039625
21
-24.9670039
0
LINE
8
layer0
10
10.2039625
20
-24.9670039
11
10.1154364
21
-24.9030975
0
LINE
8
layer0
10
10.1154364
20
-24.9030975
11
10.0289797
21
-24.8537941
0
LINE
8
layer0
10
10.0289797
20
-24.8537941
11
9.9451578
21
-24.8189516
0
LINE
8
layer0
10
9.9451578
20
-24.8189516
11
9.8645431
21
-24.7984469
0
LINE
8
layer0
10
9.8645431
20
-24.7984469
11
9.7876977
21
-24.7921285
0
LINE
8
layer0
10
9.7876977
20
-24.7921285
11
9.7151702
21
-24.7998075
0
LINE
8
layer0
10
9.7151702
20
-24.7998075
11
9.5644704
21
-24.8532211
0
LINE
8
layer0
10
9.5644704
20
-24.8532211
11
9.1079964
21
-25.0240145
0
LINE
8
layer0
10
9.1079964
20
-25.0240145
11
8.6485332
21
-25.186595
0
LINE
8
layer0
10
8.6485332
20
-25.186595
11
8.4987569
21
-25.2425457
0
LINE
8
layer0
10
8.4987569
20
-25.2425457
11
8.4382616
21
-25.2832831
0
LINE
8
layer0
10
8.4382616
20
-25.2832831
11
8.383456
21
-25.3375185
0
LINE
8
layer0
10
8.383456
20
-25.3375185
11
8.3348817
21
-25.4050442
0
LINE
8
layer0
10
8.3348817
20
-25.4050442
11
8.2930667
21
-25.4856148
0
LINE
8
layer0
10
8.2930667
20
-25.4856148
11
8.2585287
21
-25.5789567
0
LINE
8
layer0
10
8.2585287
20
-25.5789567
11
8.231792
21
-25.6848152
0
LINE
8
layer0
10
8.231792
20
-25.6848152
11
8.203714
21
-25.9328572
0
LINE
8
layer0
10
8.203714
20
-25.9328572
11
8.1983192
21
-26.2560854
0
LINE
8
layer0
10
8.1983192
20
-26.2560854
11
8.1776409
21
-26.6547715
0
LINE
8
layer0
10
8.1776409
20
-26.6547715
11
8.1357932
21
-27.0997923
0
LINE
8
layer0
10
8.1357932
20
-27.0997923
11
8.069719
21
-27.5841514
0
LINE
8
layer0
10
8.069719
20
-27.5841514
11
7.9747382
21
-28.1138197
0
LINE
8
layer0
10
7.9747382
20
-28.1138197
11
7.8482546
21
-28.6811966
0
LINE
8
layer0
10
7.8482546
20
-28.6811966
11
7.6861986
21
-29.2874975
0
LINE
8
layer0
10
7.6861986
20
-29.2874975
11
7.4853619
21
-29.9298141
0
LINE
8
layer0
10
7.4853619
20
-29.9298141
11
7.2421865
21
-30.6066747
0
LINE
8
layer0
10
7.2421865
20
-30.6066747
11
6.9538436
21
-31.3145754
0
LINE
8
layer0
10
6.9538436
20
-31.3145754
11
6.616905
21
-32.0518162
0
LINE
8
layer0
10
6.616905
20
-32.0518162
11
6.2592245
21
-32.75734
0
ARC
8
layer0
10
-0.0000019
20
0.0000192
40
33.35
50
279.1824003
51
280.8175946
0
LINE
8
layer0
10
5.321923
20
-32.9226115
11
4.74451
21
-32.38197
0
LINE
8
layer0
10
4.74451
20
-32.38197
11
4.17574
21
-31.80443
0
LINE
8
layer0
10
4.17574
20
-31.80443
11
3.66267
21
-31.23784
0
LINE
8
layer0
10
3.66267
20
-31.23784
11
3.20266
21
-30.68497
0
LINE
8
layer0
10
3.20266
20
-30.68497
11
2.79425
21
-30.15008
0
LINE
8
layer0
10
2.79425
20
-30.15008
11
2.4346
21
-29.63577
0
LINE
8
layer0
10
2.4346
20
-29.63577
11
2.12169
21
-29.14587
0
LINE
8
layer0
10
2.12169
20
-29.14587
11
1.85128
21
-28.68063
0
LINE
8
layer0
10
1.85128
20
-28.68063
11
1.62353
21
-28.24808
0
LINE
8
layer0
10
1.62353
20
-28.24808
11
1.432
21
-27.84421
0
LINE
8
layer0
10
1.432
20
-27.84421
11
1.27621
21
-27.47664
0
LINE
8
layer0
10
1.27621
20
-27.47664
11
1.16059
21
-27.17475
0
LINE
8
layer0
10
1.16059
20
-27.17475
11
1.04937
21
-26.95127
0
LINE
8
layer0
10
1.04937
20
-26.95127
11
0.98804
21
-26.86094
0
LINE
8
layer0
10
0.98804
20
-26.86094
11
0.92366
21
-26.78504
0
LINE
8
layer0
10
0.92366
20
-26.78504
11
0.85681
21
-26.72363
0
LINE
8
layer0
10
0.85681
20
-26.72363
11
0.78807
21
-26.67679
0
LINE
8
layer0
10
0.78807
20
-26.67679
11
0.71802
21
-26.64457
0
LINE
8
layer0
10
0.71802
20
-26.64457
11
0.64724
21
-26.62698
0
LINE
8
layer0
10
0.64724
20
-26.62698
11
0.48736
21
-26.62563
0
LINE
8
layer0
10
0.48736
20
-26.62563
11
0
21
-26.63
0
LINE
8
layer0
10
0
20
-26.63
11
-0.48736
21
-26.62563
0
LINE
8
layer0
10
-0.48736
20
-26.62563
11
-0.64724
21
-26.62698
0
LINE
8
layer0
10
-0.64724
20
-26.62698
11
-0.71802
21
-26.64457
0
LINE
8
layer0
10
-0.71802
20
-26.64457
11
-0.78807
21
-26.67679
0
LINE
8
layer0
10
-0.78807
20
-26.67679
11
-0.85681
21
-26.72363
0
LINE
8
layer0
10
-0.85681
20
-26.72363
11
-0.92366
21
-26.78504
0
LINE
8
layer0
10
-0.92366
20
-26.78504
11
-0.98804
21
-26.86094
0
LINE
8
layer0
10
-0.98804
20
-26.86094
11
-1.04937
21
-26.95127
0
LINE
8
layer0
10
-1.04937
20
-26.95127
11
-1.16059
21
-27.17475
0
LINE
8
layer0
10
-1.16059
20
-27.17475
11
-1.27621
21
-27.47664
0
LINE
8
layer0
10
-1.27621
20
-27.47664
11
-1.432
21
-27.84421
0
LINE
8
layer0
10
-1.432
20
-27.84421
11
-1.62353
21
-28.24808
0
LINE
8
layer0
10
-1.62353
20
-28.24808
11
-1.85128
21
-28.68063
0
LINE
8
layer0
10
-1.85128
20
-28.68063
11
-2.12169
21
-29.14587
0
LINE
8
layer0
10
-2.12169
20
-29.14587
11
-2.4346
21
-29.63577
0
LINE
8
layer0
10
-2.4346
20
-29.63577
11
-2.79425
21
-30.15008
0
LINE
8
layer0
10
-2.79425
20
-30.15008
11
-3.20266
21
-30.68497
0
LINE
8
layer0
10
-3.20266
20
-30.68497
11
-3.66267
21
-31.23784
0
LINE
8
layer0
10
-3.66267
20
-31.23784
11
-4.17574
21
-31.80443
0
LINE
8
layer0
10
-4.17574
20
-31.80443
11
-4.74451
21
-32.38197
0
LINE
8
layer0
10
-4.74451
20
-32.38197
11
-5.321923
21
-32.9226115
0
ARC
8
layer0
10
0.0000019
20
0.0000193
40
33.35
50
259.1824054
51
260.8175998
0
LINE
8
layer0
10
-6.2592245
20
-32.75734
11
-6.616905
21
-32.0518162
0
LINE
8
layer0
10
-6.616905
20
-32.0518162
11
-6.9538436
21
-31.3145754
0
LINE
8
layer0
10
-6.9538436
20
-31.3145754
11
-7.2421865
21
-30.6066747
0
LINE
8
layer0
10
-7.2421865
20
-30.6066747
11
-7.4853619
21
-29.9298141
0
LINE
8
layer0
10
-7.4853619
20
-29.9298141
11
-7.6861986
21
-29.2874975
0
LINE
8
layer0
10
-7.6861986
20
-29.2874975
11
-7.8482546
21
-28.6811966
0
LINE
8
layer0
10
-7.8482546
20
-28.6811966
11
-7.9747382
21
-28.1138197
0
LINE
8
layer0
10
-7.9747382
20
-28.1138197
11
-8.069719
21
-27.5841514
0
LINE
8
layer0
10
-8.069719
20
-27.5841514
11
-8.1357932
21
-27.0997923
0
LINE
8
layer0
10
-8.1357932
20
-27.0997923
11
-8.1776409
21
-26.6547715
0
LINE
8
layer0
10
-8.1776409
20
-26.6547715
11
-8.1983192
21
-26.2560854
0
LINE
8
layer0
10
-8.1983192
20
-26.2560854
11
-8.203714
21
-25.9328572
0
LINE
8
layer0
10
-8.203714
20
-25.9328572
11
-8.231792
21
-25.6848152
0
LINE
8
layer0
10
-8.231792
20
-25.6848152
11
-8.2585287
21
-25.5789567
0
LINE
8
layer0
10
-8.2585287
20
-25.5789567
11
-8.2930667
21
-25.4856148
0
LINE
8
layer0
10
-8.2930667
20
-25.4856148
11
-8.3348817
21
-25.4050442
0
LINE
8
layer0
10
-8.3348817
20
-25.4050442
11
-8.383456
21
-25.3375185
0
LINE
8
layer0
10
-8.383456
20
-25.3375185
11
-8.4382616
21
-25.2832831
0
LINE
8
layer0
10
-8.4382616
20
-25.2832831
11
-8.4987569
21
-25.2425457
0
LINE
8
layer0
10
-8.4987569
20
-25.2425457
11
-8.6485332
21
-25.186595
0
LINE
8
layer0
10
-8.6485332
20
-25.186595
11
-9.1079964
21
-25.0240145
0
LINE
8
layer0
10
-9.1079964
20
-25.0240145
11
-9.5644704
21
-24.8532211
0
LINE
8
layer0
10
-9.5644704
20
-24.8532211
11
-9.7151702
21
-24.7998075
0
LINE
8
layer0
10
-9.7151702
20
-24.7998075
11
-9.7876977
21
-24.7921285
0
LINE
8
layer0
10
-9.7876977
20
-24.7921285
11
-9.8645431
21
-24.7984469
0
LINE
8
layer0
10
-9.8645431
20
-24.7984469
11
-9.9451578
21
-24.8189516
0
LINE
8
layer0
10
-9.9451578
20
-24.8189516
11
-10.0289797
21
-24.8537941
0
LINE
8
layer0
10
-10.0289797
20
-24.8537941
11
-10.1154364
21
-24.9030975
0
LINE
8
layer0
10
-10.1154364
20
-24.9030975
11
-10.2039625
21
-24.9670039
0
LINE
8
layer0
10
-10.2039625
20
-24.9670039
11
-10.3849097
21
-25.1389669
0
LINE
8
layer0
10
-10.3849097
20
-25.1389669
11
-10.5968095
21
-25.3831063
0
LINE
8
layer0
10
-10.5968095
20
-25.3831063
11
-10.8689205
21
-25.6752258
0
LINE
8
layer0
10
-10.8689205
20
-25.6752258
11
-11.1870315
21
-25.9892324
0
LINE
8
layer0
10
-11.1870315
20
-25.9892324
11
-11.5489873
21
-26.3178013
0
LINE
8
layer0
10
-11.5489873
20
-26.3178013
11
-11.9622111
21
-26.6624982
0
LINE
8
layer0
10
-11.9622111
20
-26.6624982
11
-12.423806
21
-27.0158321
0
LINE
8
layer0
10
-12.423806
20
-27.0158321
11
-12.9376708
21
-27.3761179
0
LINE
8
layer0
10
-12.9376708
20
-27.3761179
11
-13.5043938
21
-27.7390656
0
LINE
8
layer0
10
-13.5043938
20
-27.7390656
11
-14.1257545
21
-28.1012608
0
LINE
8
layer0
10
-14.1257545
20
-28.1012608
11
-14.8016678
21
-28.458201
0
LINE
8
layer0
10
-14.8016678
20
-28.458201
11
-15.5336671
21
-28.8063803
0
LINE
8
layer0
10
-15.5336671
20
-28.8063803
11
-16.2611681
21
-29.1169302
0
ARC
8
layer0
10
0.0000112
20
0.0000158
40
33.35
50
239.1823997
51
240.8175941
0
LINE
8
layer0
10
-17.0854172
20
-28.6410498
11
-17.1802236
21
-27.8557404
0
LINE
8
layer0
10
-17.1802236
20
-27.8557404
11
-17.2446911
21
-27.0477208
0
LINE
8
layer0
10
-17.2446911
20
-27.0477208
11
-17.2735285
21
-26.2838926
0
LINE
8
layer0
10
-17.2735285
20
-26.2838926
11
-17.2705386
21
-25.5646809
0
LINE
8
layer0
10
-17.2705386
20
-25.5646809
11
-17.2395782
21
-24.8924105
0
LINE
8
layer0
10
-17.2395782
20
-24.8924105
11
-17.184494
21
-24.2672476
0
LINE
8
layer0
10
-17.184494
20
-24.2672476
11
-17.1092953
21
-23.6908278
0
LINE
8
layer0
10
-17.1092953
20
-23.6908278
11
-17.0173908
21
-23.1606171
0
LINE
8
layer0
10
-17.0173908
20
-23.1606171
11
-16.9138197
21
-22.6828697
0
LINE
8
layer0
10
-16.9138197
20
-22.6828697
11
-16.8009375
21
-22.2503742
0
LINE
8
layer0
10
-16.8009375
20
-22.2503742
11
-16.6840102
21
-21.8686594
0
LINE
8
layer0
10
-16.6840102
20
-21.8686594
11
-16.5785291
21
-21.5630791
0
LINE
8
layer0
10
-16.5785291
20
-21.5630791
11
-16.5200784
21
-21.3203927
0
LINE
8
layer0
10
-16.5200784
20
-21.3203927
11
-16.5089969
21
-21.2117737
0
LINE
8
layer0
10
-16.5089969
20
-21.2117737
11
-16.5095272
21
-21.1122483
0
LINE
8
layer0
10
-16.5095272
20
-21.1122483
11
-16.5212637
21
-21.0222351
0
LINE
8
layer0
10
-16.5212637
20
-21.0222351
11
-16.5438134
21
-20.9421684
0
LINE
8
layer0
10
-16.5438134
20
-20.9421684
11
-16.5767642
21
-20.8724591
0
LINE
8
layer0
10
-16.5767642
20
-20.8724591
11
-16.6196782
21
-20.8134879
0
LINE
8
layer0
10
-16.6196782
20
-20.8134879
11
-16.7412856
21
-20.7096849
0
LINE
8
layer0
10
-16.7412856
20
-20.7096849
11
-17.117434
21
-20.3997635
0
LINE
8
layer0
10
-17.117434
20
-20.3997635
11
-17.4879645
21
-20.0831469
0
LINE
8
layer0
10
-17.4879645
20
-20.0831469
11
-17.6113074
21
-19.9814122
0
LINE
8
layer0
10
-17.6113074
20
-19.9814122
11
-17.6768347
21
-19.9493904
0
LINE
8
layer0
10
-17.6768347
20
-19.9493904
11
-17.7512067
21
-19.9290451
0
LINE
8
layer0
10
-17.7512067
20
-19.9290451
11
-17.8339728
21
-19.9207414
0
LINE
8
layer0
10
-17.8339728
20
-19.9207414
11
-17.9246564
21
-19.9248138
0
LINE
8
layer0
10
-17.9246564
20
-19.9248138
11
-18.022762
21
-19.941574
0
LINE
8
layer0
10
-18.022762
20
-19.941574
11
-18.1278065
21
-19.9713486
0
LINE
8
layer0
10
-18.1278065
20
-19.9713486
11
-18.3566561
21
-20.0710534
0
LINE
8
layer0
10
-18.3566561
20
-20.0710534
11
-18.6392773
21
-20.2279954
0
LINE
8
layer0
10
-18.6392773
20
-20.2279954
11
-18.9948888
21
-20.4094305
0
LINE
8
layer0
10
-18.9948888
20
-20.4094305
11
-19.401212
21
-20.5956997
0
LINE
8
layer0
10
-19.401212
20
-20.5956997
11
-19.8537164
21
-20.7806574
0
LINE
8
layer0
10
-19.8537164
20
-20.7806574
11
-20.3599129
21
-20.9632357
0
LINE
8
layer0
10
-20.3599129
20
-20.9632357
11
-20.9145176
21
-21.1373862
0
LINE
8
layer0
10
-20.9145176
20
-21.1373862
11
-21.5206175
21
-21.300192
0
LINE
8
layer0
10
-21.5206175
20
-21.300192
11
-22.1772984
21
-21.4474206
0
LINE
8
layer0
10
-22.1772984
20
-21.4474206
11
-22.8850645
21
-21.5752549
0
LINE
8
layer0
10
-22.8850645
20
-21.5752549
11
-23.642296
21
-21.6794929
0
LINE
8
layer0
10
-23.642296
20
-21.6794929
11
-24.4492346
21
-21.7563159
0
LINE
8
layer0
10
-24.4492346
20
-21.7563159
11
-25.2390763
21
-21.7993174
0
ARC
8
layer0
10
0.0000158
20
0.0000113
40
33.35
50
219.1824001
51
220.8175946
0
LINE
8
layer0
10
-25.8508564
20
-21.0702263
11
-25.6713536
21
-20.2998512
0
LINE
8
layer0
10
-25.6713536
20
-20.2998512
11
-25.4555743
21
-19.5185119
0
LINE
8
layer0
10
-25.4555743
20
-19.5185119
11
-25.221428
21
-18.7908853
0
LINE
8
layer0
10
-25.221428
20
-18.7908853
11
-24.9726335
21
-18.1160699
0
LINE
8
layer0
10
-24.9726335
20
-18.1160699
11
-24.7136102
21
-17.4949315
0
LINE
8
layer0
10
-24.7136102
20
-17.4949315
11
-24.4480297
21
-16.9263104
0
LINE
8
layer0
10
-24.4480297
20
-16.9263104
11
-24.1802188
21
-16.4103724
0
LINE
8
layer0
10
-24.1802188
20
-16.4103724
11
-23.9125142
21
-15.9435705
0
LINE
8
layer0
10
-23.9125142
20
-15.9435705
11
-23.6517899
21
-15.5300582
0
LINE
8
layer0
10
-23.6517899
20
-15.5300582
11
-23.3977932
21
-15.1622534
0
LINE
8
layer0
10
-23.3977932
20
-15.1622534
11
-23.1573633
21
-14.8435503
0
LINE
8
layer0
10
-23.1573633
20
-14.8435503
11
-22.9537288
21
-14.5924754
0
LINE
8
layer0
10
-22.9537288
20
-14.5924754
11
-22.8157995
21
-14.3844161
0
LINE
8
layer0
10
-22.8157995
20
-14.3844161
11
-22.7682364
21
-14.2861377
0
LINE
8
layer0
10
-22.7682364
20
-14.2861377
11
-22.7346951
21
-14.192433
0
LINE
8
layer0
10
-22.7346951
20
-14.192433
11
-22.7149375
21
-14.1038342
0
LINE
8
layer0
10
-22.7149375
20
-14.1038342
11
-22.7087428
21
-14.0208836
0
LINE
8
layer0
10
-22.7087428
20
-14.0208836
11
-22.7158645
21
-13.9441086
0
LINE
8
layer0
10
-22.7158645
20
-13.9441086
11
-22.7360211
21
-13.8740163
0
LINE
8
layer0
10
-22.7360211
20
-13.8740163
11
-22.814792
21
-13.7348811
0
LINE
8
layer0
10
-22.814792
20
-13.7348811
11
-23.0622565
21
-13.315
0
LINE
8
layer0
10
-23.0622565
20
-13.315
11
-23.302152
21
-12.8907489
0
LINE
8
layer0
10
-23.302152
20
-12.8907489
11
-23.3832611
21
-12.7529637
0
LINE
8
layer0
10
-23.3832611
20
-12.7529637
11
-23.4338845
21
-12.7004614
0
LINE
8
layer0
10
-23.4338845
20
-12.7004614
11
-23.4968128
21
-12.6559064
0
LINE
8
layer0
10
-23.4968128
20
-12.6559064
11
-23.5717475
21
-12.6197958
0
LINE
8
layer0
10
-23.5717475
20
-12.6197958
11
-23.6583551
21
-12.592607
0
LINE
8
layer0
10
-23.6583551
20
-12.592607
11
-23.7562764
21
-12.5748023
0
LINE
8
layer0
10
-23.7562764
20
-12.5748023
11
-23.8651695
21
-12.5668539
0
LINE
8
layer0
10
-23.8651695
20
-12.5668539
11
-24.1143188
21
-12.5822746
0
LINE
8
layer0
10
-24.1143188
20
-12.5822746
11
-24.4335733
21
-12.6330897
0
LINE
8
layer0
10
-24.4335733
20
-12.6330897
11
-24.8297932
21
-12.6819566
0
LINE
8
layer0
10
-24.8297932
20
-12.6819566
11
-25.2753199
21
-12.7180218
0
LINE
8
layer0
10
-25.2753199
20
-12.7180218
11
-25.7637942
21
-12.7370595
0
LINE
8
layer0
10
-25.7637942
20
-12.7370595
11
-26.3019088
21
-12.7354976
0
LINE
8
layer0
10
-26.3019088
20
-12.7354976
11
-26.8826297
21
-12.7094596
0
LINE
8
layer0
10
-26.8826297
20
-12.7094596
11
-27.5078602
21
-12.6551485
0
LINE
8
layer0
10
-27.5078602
20
-12.6551485
11
-28.1752935
21
-12.5689001
0
LINE
8
layer0
10
-28.1752935
20
-12.5689001
11
-28.884098
21
-12.4469547
0
LINE
8
layer0
10
-28.884098
20
-12.4469547
11
-29.6313143
21
-12.2859181
0
LINE
8
layer0
10
-29.6313143
20
-12.2859181
11
-30.4158636
21
-12.0821188
0
LINE
8
layer0
10
-30.4158636
20
-12.0821188
11
-31.1727794
21
-11.8523852
0
ARC
8
layer0
10
0.0000182
20
0.0000066
40
33.35
50
199.1824027
51
200.8175971
0
LINE
8
layer0
10
-31.4983008
20
-10.9580225
11
-31.0661396
21
-10.2955003
0
LINE
8
layer0
10
-31.0661396
20
-10.2955003
11
-30.5961396
21
-9.6350824
0
LINE
8
layer0
10
-30.5961396
20
-9.6350824
11
-30.127251
21
-9.0314198
0
LINE
8
layer0
10
-30.127251
20
-9.0314198
11
-29.6626603
21
-8.4823935
0
LINE
8
layer0
10
-29.6626603
20
-8.4823935
11
-29.2068161
21
-7.9873055
0
LINE
8
layer0
10
-29.2068161
20
-7.9873055
11
-28.7627722
21
-7.5438104
0
LINE
8
layer0
10
-28.7627722
20
-7.5438104
11
-28.3346511
21
-7.150584
0
LINE
8
layer0
10
-28.3346511
20
-7.150584
11
-27.9234354
21
-6.803494
0
LINE
8
layer0
10
-27.9234354
20
-6.803494
11
-27.5370052
21
-6.5040925
0
LINE
8
layer0
10
-27.5370052
20
-6.5040925
11
-27.1725297
21
-6.245341
0
LINE
8
layer0
10
-27.1725297
20
-6.245341
11
-26.8375966
21
-6.02809
0
LINE
8
layer0
10
-26.8375966
20
-6.02809
11
-26.5603701
21
-5.8618038
0
LINE
8
layer0
10
-26.5603701
20
-5.8618038
11
-26.3595985
21
-5.7134666
0
LINE
8
layer0
10
-26.3595985
20
-5.7134666
11
-26.2812906
21
-5.6373827
0
LINE
8
layer0
10
-26.2812906
20
-5.6373827
11
-26.2177232
21
-5.5608009
0
LINE
8
layer0
10
-26.2177232
20
-5.5608009
11
-26.1688545
21
-5.4843028
0
LINE
8
layer0
10
-26.1688545
20
-5.4843028
11
-26.1346627
21
-5.4084734
0
LINE
8
layer0
10
-26.1346627
20
-5.4084734
11
-26.1150962
21
-5.3338927
0
LINE
8
layer0
10
-26.1150962
20
-5.3338927
11
-26.1100643
21
-5.2611335
0
LINE
8
layer0
10
-26.1100643
20
-5.2611335
11
-26.1364977
21
-5.103448
0
LINE
8
layer0
10
-26.1364977
20
-5.103448
11
-26.2254305
21
-4.624251
0
LINE
8
layer0
10
-26.2254305
20
-4.624251
11
-26.305756
21
-4.1435362
0
LINE
8
layer0
10
-26.305756
20
-4.1435362
11
-26.3348484
21
-3.9863196
0
LINE
8
layer0
10
-26.3348484
20
-3.9863196
11
-26.364462
21
-3.9196694
0
LINE
8
layer0
10
-26.364462
20
-3.9196694
11
-26.4083565
21
-3.8562785
0
LINE
8
layer0
10
-26.4083565
20
-3.8562785
11
-26.4664215
21
-3.7967165
0
LINE
8
layer0
10
-26.4664215
20
-3.7967165
11
-26.5385069
21
-3.7415459
0
LINE
8
layer0
10
-26.5385069
20
-3.7415459
11
-26.6244333
21
-3.6913238
0
LINE
8
layer0
10
-26.6244333
20
-3.6913238
11
-26.7240408
21
-3.6466112
0
LINE
8
layer0
10
-26.7240408
20
-3.6466112
11
-26.9634388
21
-3.5758878
0
LINE
8
layer0
10
-26.9634388
20
-3.5758878
11
-27.2808196
21
-3.514447
0
LINE
8
layer0
10
-27.2808196
20
-3.514447
11
-27.6698581
21
-3.4248516
0
LINE
8
layer0
10
-27.6698581
20
-3.4248516
11
-28.1008512
21
-3.3063627
0
LINE
8
layer0
10
-28.1008512
20
-3.3063627
11
-28.5663782
21
-3.1571842
0
LINE
8
layer0
10
-28.5663782
20
-3.1571842
11
-29.0715063
21
-2.9716705
0
LINE
8
layer0
10
-29.0715063
20
-2.9716705
11
-29.6082999
21
-2.7485845
0
LINE
8
layer0
10
-29.6082999
20
-2.7485845
11
-30.177249
21
-2.4837074
0
LINE
8
layer0
10
-30.177249
20
-2.4837074
11
-30.7749324
21
-2.1743847
0
LINE
8
layer0
10
-30.7749324
20
-2.1743847
11
-31.399283
21
-1.8173682
0
LINE
8
layer0
10
-31.399283
20
-1.8173682
11
-32.0463589
21
-1.4104802
0
LINE
8
layer0
10
-32.0463589
20
-1.4104802
11
-32.7138906
21
-0.9506398
0
LINE
8
layer0
10
-32.7138906
20
-0.9506398
11
-33.3465853
21
-0.4758805
0
ARC
8
layer0
10
0.0000193
20
-1e-7
40
33.35
50
179.1824027
51
180.8175971
0
LINE
8
layer0
10
-33.3465853
20
0.4758805
11
-32.7138906
21
0.9506398
0
LINE
8
layer0
10
-32.7138906
20
0.9506398
11
-32.0463589
21
1.4104802
0
LINE
8
layer0
10
-32.0463589
20
1.4104802
11
-31.399283
21
1.8173682
0
LINE
8
layer0
10
-31.399283
20
1.8173682
11
-30.7749324
21
2.1743847
0
LINE
8
layer0
10
-30.7749324
20
2.1743847
11
-30.177249
21
2.4837074
0
LINE
8
layer0
10
-30.177249
20
2.4837074
11
-29.6082999
21
2.7485845
0
LINE
8
layer0
10
-29.6082999
20
2.7485845
11
-29.0715063
21
2.9716705
0
LINE
8
layer0
10
-29.0715063
20
2.9716705
11
-28.5663782
21
3.1571842
0
LINE
8
layer0
10
-28.5663782
20
3.1571842
11
-28.1008512
21
3.3063627
0
LINE
8
layer0
10
-28.1008512
20
3.3063627
11
-27.6698581
21
3.4248516
0
LINE
8
layer0
10
-27.6698581
20
3.4248516
11
-27.2808196
21
3.514447
0
LINE
8
layer0
10
-27.2808196
20
3.514447
11
-26.9634388
21
3.5758878
0
LINE
8
layer0
10
-26.9634388
20
3.5758878
11
-26.7240408
21
3.6466112
0
LINE
8
layer0
10
-26.7240408
20
3.6466112
11
-26.6244333
21
3.6913238
0
LINE
8
layer0
10
-26.6244333
20
3.6913238
11
-26.5385069
21
3.7415459
0
LINE
8
layer0
10
-26.5385069
20
3.7415459
11
-26.4664215
21
3.7967165
0
LINE
8
layer0
10
-26.4664215
20
3.7967165
11
-26.4083565
21
3.8562785
0
LINE
8
layer0
10
-26.4083565
20
3.8562785
11
-26.364462
21
3.9196694
0
LINE
8
layer0
10
-26.364462
20
3.9196694
11
-26.3348484
21
3.9863196
0
LINE
8
layer0
10
-26.3348484
20
3.9863196
11
-26.305756
21
4.1435362
0
LINE
8
layer0
10
-26.305756
20
4.1435362
11
-26.2254305
21
4.624251
0
LINE
8
layer0
10
-26.2254305
20
4.624251
11
-26.1364977
21
5.103448
0
LINE
8
layer0
10
-26.1364977
20
5.103448
11
-26.1100643
21
5.2611335
0
LINE
8
layer0
10
-26.1100643
20
5.2611335
11
-26.1150962
21
5.3338927
0
LINE
8
layer0
10
-26.1150962
20
5.3338927
11
-26.1346627
21
5.4084734
0
LINE
8
layer0
10
-26.1346627
20
5.4084734
11
-26.1688545
21
5.4843028
0
LINE
8
layer0
10
-26.1688545
20
5.4843028
11
-26.2177232
21
5.5608009
0
LINE
8
layer0
10
-26.2177232
20
5.5608009
11
-26.2812906
21
5.6373827
0
LINE
8
layer0
10
-26.2812906
20
5.6373827
11
-26.3595985
21
5.7134666
0
LINE
8
layer0
10
-26.3595985
20
5.7134666
11
-26.5603701
21
5.8618038
0
LINE
8
layer0
10
-26.5603701
20
5.8618038
11
-26.8375966
21
6.02809
0
LINE
8
layer0
10
-26.8375966
20
6.02809
11
-27.1725297
21
6.245341
0
LINE
8
layer0
10
-27.1725297
20
6.245341
11
-27.5370052
21
6.5040925
0
LINE
8
layer0
10
-27.5370052
20
6.5040925
11
-27.9234354
21
6.803494
0
LINE
8
layer0
10
-27.9234354
20
6.803494
11
-28.3346511
21
7.150584
0
LINE
8
layer0
10
-28.3346511
20
7.150584
11
-28.7627722
21
7.5438104
0
LINE
8
layer0
10
-28.7627722
20
7.5438104
11
-29.2068161
21
7.9873055
0
LINE
8
layer0
10
-29.2068161
20
7.9873055
11
-29.6626603
21
8.4823935
0
LINE
8
layer0
10
-29.6626603
20
8.4823935
11
-30.127251
21
9.0314198
0
LINE
8
layer0
10
-30.127251
20
9.0314198
11
-30.5961396
21
9.6350824
0
LINE
8
layer0
10
-30.5961396
20
9.6350824
11
-31.0661396
21
10.2955003
0
LINE
8
layer0
10
-31.0661396
20
10.2955003
11
-31.4983008
21
10.9580225
0
ARC
8
layer0
10
0.0000182
20
-0.0000066
40
33.35
50
159.1824029
51
160.8175973
0
LINE
8
layer0
10
-31.1727794
20
11.8523852
11
-30.4158636
21
12.0821188
0
LINE
8
layer0
10
-30.4158636
20
12.0821188
11
-29.6313143
21
12.2859181
0
LINE
8
layer0
10
-29.6313143
20
12.2859181
11
-28.884098
21
12.4469547
0
LINE
8
layer0
10
-28.884098
20
12.4469547
11
-28.1752935
21
12.5689001
0
LINE
8
layer0
10
-28.1752935
20
12.5689001
11
-27.5078602
21
12.6551485
0
LINE
8
layer0
10
-27.5078602
20
12.6551485
11
-26.8826297
21
12.7094596
0
LINE
8
layer0
10
-26.8826297
20
12.7094596
11
-26.3019088
21
12.7354976
0
LINE
8
layer0
10
-26.3019088
20
12.7354976
11
-25.7637942
21
12.7370595
0
LINE
8
layer0
10
-25.7637942
20
12.7370595
11
-25.2753199
21
12.7180218
0
LINE
8
layer0
10
-25.2753199
20
12.7180218
11
-24.8297932
21
12.6819566
0
LINE
8
layer0
10
-24.8297932
20
12.6819566
11
-24.4335733
21
12.6330897
0
LINE
8
layer0
10
-24.4335733
20
12.6330897
11
-24.1143188
21
12.5822746
0
LINE
8
layer0
10
-24.1143188
20
12.5822746
11
-23.8651695
21
12.5668539
0
LINE
8
layer0
10
-23.8651695
20
12.5668539
11
-23.7562764
21
12.5748023
0
LINE
8
layer0
10
-23.7562764
20
12.5748023
11
-23.6583551
21
12.592607
0
LINE
8
layer0
10
-23.6583551
20
12.592607
11
-23.5717475
21
12.6197958
0
LINE
8
layer0
10
-23.5717475
20
12.6197958
11
-23.4968128
21
12.6559064
0
LINE
8
layer0
10
-23.4968128
20
12.6559064
11
-23.4338845
21
12.7004614
0
LINE
8
layer0
10
-23.4338845
20
12.7004614
11
-23.3832611
21
12.7529637
0
LINE
8
layer0
10
-23.3832611
20
12.7529637
11
-23.302152
21
12.8907489
0
LINE
8
layer0
10
-23.302152
20
12.8907489
11
-23.0622565
21
13.315
0
LINE
8
layer0
10
-23.0622565
20
13.315
11
-22.814792
21
13.7348811
0
LINE
8
layer0
10
-22.814792
20
13.7348811
11
-22.7360211
21
13.8740163
0
LINE
8
layer0
10
-22.7360211
20
13.8740163
11
-22.7158645
21
13.9441086
0
LINE
8
layer0
10
-22.7158645
20
13.9441086
11
-22.7087428
21
14.0208836
0
LINE
8
layer0
10
-22.7087428
20
14.0208836
11
-22.7149375
21
14.1038342
0
LINE
8
layer0
10
-22.7149375
20
14.1038342
11
-22.7346951
21
14.192433
0
LINE
8
layer0
10
-22.7346951
20
14.192433
11
-22.7682364
21
14.2861377
0
LINE
8
layer0
10
-22.7682364
20
14.2861377
11
-22.8157995
21
14.3844161
0
LINE
8
layer0
10
-22.8157995
20
14.3844161
11
-22.9537288
21
14.5924754
0
LINE
8
layer0
10
-22.9537288
20
14.5924754
11
-23.1573633
21
14.8435503
0
LINE
8
layer0
10
-23.1573633
20
14.8435503
11
-23.3977932
21
15.1622534
0
LINE
8
layer0
10
-23.3977932
20
15.1622534
11
-23.6517899
21
15.5300582
0
LINE
8
layer0
10
-23.6517899
20
15.5300582
11
-23.9125142
21
15.9435705
0
LINE
8
layer0
10
-23.9125142
20
15.9435705
11
-24.1802188
21
16.4103724
0
LINE
8
layer0
10
-24.1802188
20
16.4103724
11
-24.4480297
21
16.9263104
0
LINE
8
layer0
10
-24.4480297
20
16.9263104
11
-24.7136102
21
17.4949315
0
LINE
8
layer0
10
-24.7136102
20
17.4949315
11
-24.9726335
21
18.1160699
0
LINE
8
layer0
10
-24.9726335
20
18.1160699
11
-25.221428
21
18.7908853
0
LINE
8
layer0
10
-25.221428
20
18.7908853
11
-25.4555743
21
19.5185119
0
LINE
8
layer0
10
-25.4555743
20
19.5185119
11
-25.6713536
21
20.2998512
0
LINE
8
layer0
10
-25.6713536
20
20.2998512
11
-25.8508564
21
21.0702263
0
ARC
8
layer0
10
0.0000158
20
-0.0000112
40
33.35
50
139.1824054
51
140.8175999
0
LINE
8
layer0
10
-25.2390763
20
21.7993174
11
-24.4492346
21
21.7563159
0
LINE
8
layer0
10
-24.4492346
20
21.7563159
11
-23.642296
21
21.6794929
0
LINE
8
layer0
10
-23.642296
20
21.6794929
11
-22.8850645
21
21.5752549
0
LINE
8
layer0
10
-22.8850645
20
21.5752549
11
-22.1772984
21
21.4474206
0
LINE
8
layer0
10
-22.1772984
20
21.4474206
11
-21.5206175
21
21.300192
0
LINE
8
layer0
10
-21.5206175
20
21.300192
11
-20.9145176
21
21.1373862
0
LINE
8
layer0
10
-20.9145176
20
21.1373862
11
-20.3599129
21
20.9632357
0
LINE
8
layer0
10
-20.3599129
20
20.9632357
11
-19.8537164
21
20.7806574
0
LINE
8
layer0
10
-19.8537164
20
20.7806574
11
-19.401212
21
20.5956997
0
LINE
8
layer0
10
-19.401212
20
20.5956997
11
-18.9948888
21
20.4094305
0
LINE
8
layer0
10
-18.9948888
20
20.4094305
11
-18.6392773
21
20.2279954
0
LINE
8
layer0
10
-18.6392773
20
20.2279954
11
-18.3566561
21
20.0710534
0
LINE
8
layer0
10
-18.3566561
20
20.0710534
11
-18.1278065
21
19.9713486
0
LINE
8
layer0
10
-18.1278065
20
19.9713486
11
-18.022762
21
19.941574
0
LINE
8
layer0
10
-18.022762
20
19.941574
11
-17.9246564
21
19.9248138
0
LINE
8
layer0
10
-17.9246564
20
19.9248138
11
-17.8339728
21
19.9207414
0
LINE
8
layer0
10
-17.8339728
20
19.9207414
11
-17.7512067
21
19.9290451
0
LINE
8
layer0
10
-17.7512067
20
19.9290451
11
-17.6768347
21
19.9493904
0
LINE
8
layer0
10
-17.6768347
20
19.9493904
11
-17.6113074
21
19.9814122
0
LINE
8
layer0
10
-17.6113074
20
19.9814122
11
-17.4879645
21
20.0831469
0
LINE
8
layer0
10
-17.4879645
20
20.0831469
11
-17.117434
21
20.3997635
0
LINE
8
layer0
10
-17.117434
20
20.3997635
11
-16.7412856
21
20.7096849
0
LINE
8
layer0
10
-16.7412856
20
20.7096849
11
-16.6196782
21
20.8134879
0
LINE
8
layer0
10
-16.6196782
20
20.8134879
11
-16.5767642
21
20.8724591
0
LINE
8
layer0
10
-16.5767642
20
20.8724591
11
-16.5438134
21
20.9421684
0
LINE
8
layer0
10
-16.5438134
20
20.9421684
11
-16.5212637
21
21.0222351
0
LINE
8
layer0
10
-16.5212637
20
21.0222351
11
-16.5095272
21
21.1122483
0
LINE
8
layer0
10
-16.5095272
20
21.1122483
11
-16.5089969
21
21.2117737
0
LINE
8
layer0
10
-16.5089969
20
21.2117737
11
-16.5200784
21
21.3203927
0
LINE
8
layer0
10
-16.5200784
20
21.3203927
11
-16.5785291
21
21.5630791
0
LINE
8
layer0
10
-16.5785291
20
21.5630791
11
-16.6840102
21
21.8686594
0
LINE
8
layer0
10
-16.6840102
20
21.8686594
11
-16.8009375
21
22.2503742
0
LINE
8
layer0
10
-16.8009375
20
22.2503742
11
-16.9138197
21
22.6828697
0
LINE
8
layer0
10
-16.9138197
20
22.6828697
11
-17.0173908
21
23.1606171
0
LINE
8
layer0
10
-17.0173908
20
23.1606171
11
-17.1092953
21
23.6908278
0
LINE
8
layer0
10
-17.1092953
20
23.6908278
11
-17.184494
21
24.2672476
0
LINE
8
layer0
10
-17.184494
20
24.2672476
11
-17.2395782
21
24.8924105
0
LINE
8
layer0
10
-17.2395782
20
24.8924105
11
-17.2705386
21
25.5646809
0
LINE
8
layer0
10
-17.2705386
20
25.5646809
11
-17.2735285
21
26.2838926
0
LINE
8
layer0
10
-17.2735285
20
26.2838926
11
-17.2446911
21
27.0477208
0
LINE
8
layer0
10
-17.2446911
20
27.0477208
11
-17.1802236
21
27.8557404
0
LINE
8
layer0
10
-17.1802236
20
27.8557404
11
-17.0854172
21
28.6410498
0
ARC
8
layer0
10
0.0000112
20
-0.0000157
40
33.35
50
119.1824059
51
120.8176003
0
LINE
8
layer0
10
-16.2611681
20
29.1169302
11
-15.5336671
21
28.8063803
0
LINE
8
layer0
10
-15.5336671
20
28.8063803
11
-14.8016678
21
28.458201
0
LINE
8
layer0
10
-14.8016678
20
28.458201
11
-14.1257545
21
28.1012608
0
LINE
8
layer0
10
-14.1257545
20
28.1012608
11
-13.5043938
21
27.7390656
0
LINE
8
layer0
10
-13.5043938
20
27.7390656
11
-12.9376708
21
27.3761179
0
LINE
8
layer0
10
-12.9376708
20
27.3761179
11
-12.423806
21
27.0158321
0
LINE
8
layer0
10
-12.423806
20
27.0158321
11
-11.9622111
21
26.6624982
0
LINE
8
layer0
10
-11.9622111
20
26.6624982
11
-11.5489873
21
26.3178013
0
LINE
8
layer0
10
-11.5489873
20
26.3178013
11
-11.1870315
21
25.9892324
0
LINE
8
layer0
10
-11.1870315
20
25.9892324
11
-10.8689205
21
25.6752258
0
LINE
8
layer0
10
-10.8689205
20
25.6752258
11
-10.5968095
21
25.3831063
0
LINE
8
layer0
10
-10.5968095
20
25.3831063
11
-10.3849097
21
25.1389669
0
LINE
8
layer0
10
-10.3849097
20
25.1389669
11
-10.2039625
21
24.9670039
0
LINE
8
layer0
10
-10.2039625
20
24.9670039
11
-10.1154364
21
24.9030975
0
LINE
8
layer0
10
-10.1154364
20
24.9030975
11
-10.0289797
21
24.8537941
0
LINE
8
layer0
10
-10.0289797
20
24.8537941
11
-9.9451578
21
24.8189516
0
LINE
8
layer0
10
-9.9451578
20
24.8189516
11
-9.8645431
21
24.7984469
0
LINE
8
layer0
10
-9.8645431
20
24.7984469
11
-9.7876977
21
24.7921285
0
LINE
8
layer0
10
-9.7876977
20
24.7921285
11
-9.7151702
21
24.7998075
0
LINE
8
layer0
10
-9.7151702
20
24.7998075
11
-9.5644704
21
24.8532211
0
LINE
8
layer0
10
-9.5644704
20
24.8532211
11
-9.1079964
21
25.0240145
0
LINE
8
layer0
10
-9.1079964
20
25.0240145
11
-8.6485332
21
25.186595
0
LINE
8
layer0
10
-8.6485332
20
25.186595
11
-8.4987569
21
25.2425457
0
LINE
8
layer0
10
-8.4987569
20
25.2425457
11
-8.4382616
21
25.2832831
0
LINE
8
layer0
10
-8.4382616
20
25.2832831
11
-8.383456
21
25.3375185
0
LINE
8
layer0
10
-8.383456
20
25.3375185
11
-8.3348817
21
25.4050442
0
LINE
8
layer0
10
-8.3348817
20
25.4050442
11
-8.2930667
21
25.4856148
0
LINE
8
layer0
10
-8.2930667
20
25.4856148
11
-8.2585287
21
25.5789567
0
LINE
8
layer0
10
-8.2585287
20
25.5789567
11
-8.231792
21
25.6848152
0
LINE
8
layer0
10
-8.231792
20
25.6848152
11
-8.203714
21
25.9328572
0
LINE
8
layer0
10
-8.203714
20
25.9328572
11
-8.1983192
21
26.2560854
0
LINE
8
layer0
10
-8.1983192
20
26.2560854
11
-8.1776409
21
26.6547715
0
LINE
8
layer0
10
-8.1776409
20
26.6547715
11
-8.1357932
21
27.0997923
0
LINE
8
layer0
10
-8.1357932
20
27.0997923
11
-8.069719
21
27.5841514
0
LINE
8
layer0
10
-8.069719
20
27.5841514
11
-7.9747382
21
28.1138197
0
LINE
8
layer0
10
-7.9747382
20
28.1138197
11
-7.8482546
21
28.6811966
0
LINE
8
layer0
10
-7.8482546
20
28.6811966
11
-7.6861986
21
29.2874975
0
LINE
8
layer0
10
-7.6861986
20
29.2874975
11
-7.4853619
21
29.9298141
0
LINE
8
layer0
10
-7.4853619
20
29.9298141
11
-7.2421865
21
30.6066747
0
LINE
8
layer0
10
-7.2421865
20
30.6066747
11
-6.9538436
21
31.3145754
0
LINE
8
layer0
10
-6.9538436
20
31.3145754
11
-6.616905
21
32.0518162
0
LINE
8
layer0
10
-6.616905
20
32.0518162
11
-6.2592245
21
32.75734
0
ARC
8
layer0
10
0.0000019
20
-0.0000192
40
33.35
50
99.1824003
51
100.8175946
0
LINE
8
layer0
10
-5.321923
20
32.9226115
11
-4.74451
21
32.38197
0
LINE
8
layer0
10
-4.74451
20
32.38197
11
-4.17574
21
31.80443
0
LINE
8
layer0
10
-4.17574
20
31.80443
11
-3.66267
21
31.23784
0
LINE
8
layer0
10
-3.66267
20
31.23784
11
-3.20266
21
30.68497
0
LINE
8
layer0
10
-3.20266
20
30.68497
11
-2.79425
21
30.15008
0
LINE
8
layer0
10
-2.79425
20
30.15008
11
-2.4346
21
29.63577
0
LINE
8
layer0
10
-2.4346
20
29.63577
11
-2.12169
21
29.14587
0
LINE
8
layer0
10
-2.12169
20
29.14587
11
-1.85128
21
28.68063
0
LINE
8
layer0
10
-1.85128
20
28.68063
11
-1.62353
21
28.24808
0
LINE
8
layer0
10
-1.62353
20
28.24808
11
-1.432
21
27.84421
0
LINE
8
layer0
10
-1.432
20
27.84421
11
-1.27621
21
27.47664
0
LINE
8
layer0
10
-1.27621
20
27.47664
11
-1.16059
21
27.17475
0
LINE
8
layer0
10
-1.16059
20
27.17475
11
-1.04937
21
26.95127
0
LINE
8
layer0
10
-1.04937
20
26.95127
11
-0.98804
21
26.86094
0
LINE
8
layer0
10
-0.98804
20
26.86094
11
-0.92366
21
26.78504
0
LINE
8
layer0
10
-0.92366
20
26.78504
11
-0.85681
21
26.72363
0
LINE
8
layer0
10
-0.85681
20
26.72363
11
-0.78807
21
26.67679
0
LINE
8
layer0
10
-0.78807
20
26.67679
11
-0.71802
21
26.64457
0
LINE
8
layer0
10
-0.71802
20
26.64457
11
-0.64724
21
26.62698
0
LINE
8
layer0
10
-0.64724
20
26.62698
11
-0.48736
21
26.62563
0
LINE
8
layer0
10
-0.48736
20
26.62563
11
0
21
26.63
0
LINE
8
layer0
10
0
20
26.63
11
0.48736
21
26.62563
0
LINE
8
layer0
10
0.48736
20
26.62563
11
0.64724
21
26.62698
0
LINE
8
layer0
10
0.64724
20
26.62698
11
0.71802
21
26.64457
0
LINE
8
layer0
10
0.71802
20
26.64457
11
0.78807
21
26.67679
0
LINE
8
layer0
10
0.78807
20
26.67679
11
0.85681
21
26.72363
0
LINE
8
layer0
10
0.85681
20
26.72363
11
0.92366
21
26.78504
0
LINE
8
layer0
10
0.92366
20
26.78504
11
0.98804
21
26.86094
0
LINE
8
layer0
10
0.98804
20
26.86094
11
1.04937
21
26.95127
0
LINE
8
layer0
10
1.04937
20
26.95127
11
1.16059
21
27.17475
0
LINE
8
layer0
10
1.16059
20
27.17475
11
1.27621
21
27.47664
0
LINE
8
layer0
10
1.27621
20
27.47664
11
1.432
21
27.84421
0
LINE
8
layer0
10
1.432
20
27.84421
11
1.62353
21
28.24808
0
LINE
8
layer0
10
1.62353
20
28.24808
11
1.85128
21
28.68063
0
LINE
8
layer0
10
1.85128
20
28.68063
11
2.12169
21
29.14587
0
LINE
8
layer0
10
2.12169
20
29.14587
11
2.4346
21
29.63577
0
LINE
8
layer0
10
2.4346
20
29.63577
11
2.79425
21
30.15008
0
LINE
8
layer0
10
2.79425
20
30.15008
11
3.20266
21
30.68497
0
LINE
8
layer0
10
3.20266
20
30.68497
11
3.66267
21
31.23784
0
LINE
8
layer0
10
3.66267
20
31.23784
11
4.17574
21
31.80443
0
LINE
8
layer0
10
4.17574
20
31.80443
11
4.74451
21
32.38197
0
LINE
8
layer0
10
4.74451
20
32.38197
11
5.321923
21
32.9226115
0
ARC
8
layer0
10
-0.0000019
20
-0.0000193
40
33.35
50
79.1824054
51
80.8175998
0
LINE
8
layer0
10
6.2592245
20
32.75734
11
6.616905
21
32.0518162
0
LINE
8
layer0
10
6.616905
20
32.0518162
11
6.9538436
21
31.3145754
0
LINE
8
layer0
10
6.9538436
20
31.3145754
11
7.2421865
21
30.6066747
0
LINE
8
layer0
10
7.2421865
20
30.6066747
11
7.4853619
21
29.9298141
0
LINE
8
layer0
10
7.4853619
20
29.9298141
11
7.6861986
21
29.2874975
0
LINE
8
layer0
10
7.6861986
20
29.2874975
11
7.8482546
21
28.6811966
0
LINE
8
layer0
10
7.8482546
20
28.6811966
11
7.9747382
21
28.1138197
0
LINE
8
layer0
10
7.9747382
20
28.1138197
11
8.069719
21
27.5841514
0
LINE
8
layer0
10
8.069719
20
27.5841514
11
8.1357932
21
27.0997923
0
LINE
8
layer0
10
8.1357932
20
27.0997923
11
8.1776409
21
26.6547715
0
LINE
8
layer0
10
8.1776409
20
26.6547715
11
8.1983192
21
26.2560854
0
LINE
8
layer0
10
8.1983192
20
26.2560854
11
8.203714
21
25.9328572
0
LINE
8
layer0
10
8.203714
20
25.9328572
11
8.231792
21
25.6848152
0
LINE
8
layer0
10
8.231792
20
25.6848152
11
8.2585287
21
25.5789567
0
LINE
8
layer0
10
8.2585287
20
25.5789567
11
8.2930667
21
25.4856148
0
LINE
8
layer0
10
8.2930667
20
25.4856148
11
8.3348817
21
25.4050442
0
LINE
8
layer0
10
8.3348817
20
25.4050442
11
8.383456
21
25.3375185
0
LINE
8
layer0
10
8.383456
20
25.3375185
11
8.4382616
21
25.2832831
0
LINE
8
layer0
10
8.4382616
20
25.2832831
11
8.4987569
21
25.2425457
0
LINE
8
layer0
10
8.4987569
20
25.2425457
11
8.6485332
21
25.186595
0
LINE
8
layer0
10
8.6485332
20
25.186595
11
9.1079964
21
25.0240145
0
LINE
8
layer0
10
9.1079964
20
25.0240145
11
9.5644704
21
24.8532211
0
LINE
8
layer0
10
9.5644704
20
24.8532211
11
9.7151702
21
24.7998075
0
LINE
8
layer0
10
9.7151702
20
24.7998075
11
9.7876977
21
24.7921285
0
LINE
8
layer0
10
9.7876977
20
24.7921285
11
9.8645431
21
24.7984469
0
LINE
8
layer0
10
9.8645431
20
24.7984469
11
9.9451578
21
24.8189516
0
LINE
8
layer0
10
9.9451578
20
24.8189516
11
10.0289797
21
24.8537941
0
LINE
8
layer0
10
10.0289797
20
24.8537941
11
10.1154364
21
24.9030975
0
LINE
8
layer0
10
10.1154364
20
24.9030975
11
10.2039625
21
24.9670039
0
LINE
8
layer0
10
10.2039625
20
24.9670039
11
10.3849097
21
25.1389669
0
LINE
8
layer0
10
10.3849097
20
25.1389669
11
10.5968095
21
25.3831063
0
LINE
8
layer0
10
10.5968095
20
25.3831063
11
10.8689205
21
25.6752258
0
LINE
8
layer0
10
10.8689205
20
25.6752258
11
11.1870315
21
25.9892324
0
LINE
8
layer0
10
11.1870315
20
25.9892324
11
11.5489873
21
26.3178013
0
LINE
8
layer0
10
11.5489873
20
26.3178013
11
11.9622111
21
26.6624982
0
LINE
8
layer0
10
11.9622111
20
26.6624982
11
12.423806
21
27.0158321
0
LINE
8
layer0
10
12.423806
20
27.0158321
11
12.9376708
21
27.3761179
0
LINE
8
layer0
10
12.9376708
20
27.3761179
11
13.5043938
21
27.7390656
0
LINE
8
layer0
10
13.5043938
20
27.7390656
11
14.1257545
21
28.1012608
0
LINE
8
layer0
10
14.1257545
20
28.1012608
11
14.8016678
21
28.458201
0
LINE
8
layer0
10
14.8016678
20
28.458201
11
15.5336671
21
28.8063803
0
LINE
8
layer0
10
15.5336671
20
28.8063803
11
16.2611681
21
29.1169302
0
ARC
8
layer0
10
-0.0000112
20
-0.0000158
40
33.35
50
59.1823997
51
60.8175941
0
LINE
8
layer0
10
17.0854172
20
28.6410498
11
17.1802236
21
27.8557404
0
LINE
8
layer0
10
17.1802236
20
27.8557404
11
17.2446911
21
27.0477208
0
LINE
8
layer0
10
17.2446911
20
27.0477208
11
17.2735285
21
26.2838926
0
LINE
8
layer0
10
17.2735285
20
26.2838926
11
17.2705386
21
25.5646809
0
LINE
8
layer0
10
17.2705386
20
25.5646809
11
17.2395782
21
24.8924105
0
LINE
8
layer0
10
17.2395782
20
24.8924105
11
17.184494
21
24.2672476
0
LINE
8
layer0
10
17.184494
20
24.2672476
11
17.1092953
21
23.6908278
0
LINE
8
layer0
10
17.1092953
20
23.6908278
11
17.0173908
21
23.1606171
0
LINE
8
layer0
10
17.0173908
20
23.1606171
11
16.9138197
21
22.6828697
0
LINE
8
layer0
10
16.9138197
20
22.6828697
11
16.8009375
21
22.2503742
0
LINE
8
layer0
10
16.8009375
20
22.2503742
11
16.6840102
21
21.8686594
0
LINE
8
layer0
10
16.6840102
20
21.8686594
11
16.5785291
21
21.5630791
0
LINE
8
layer0
10
16.5785291
20
21.5630791
11
16.5200784
21
21.3203927
0
LINE
8
layer0
10
16.5200784
20
21.3203927
11
16.5089969
21
21.2117737
0
LINE
8
layer0
10
16.5089969
20
21.2117737
11
16.5095272
21
21.1122483
0
LINE
8
layer0
10
16.5095272
20
21.1122483
11
16.5212637
21
21.0222351
0
LINE
8
layer0
10
16.5212637
20
21.0222351
11
16.5438134
21
20.9421684
0
LINE
8
layer0
10
16.5438134
20
20.9421684
11
16.5767642
21
20.8724591
0
LINE
8
layer0
10
16.5767642
20
20.8724591
11
16.6196782
21
20.8134879
0
LINE
8
layer0
10
16.6196782
20
20.8134879
11
16.7412856
21
20.7096849
0
LINE
8
layer0
10
16.7412856
20
20.7096849
11
17.117434
21
20.3997635
0
LINE
8
layer0
10
17.117434
20
20.3997635
11
17.4879645
21
20.0831469
0
LINE
8
layer0
10
17.4879645
20
20.0831469
11
17.6113074
21
19.9814122
0
LINE
8
layer0
10
17.6113074
20
19.9814122
11
17.6768347
21
19.9493904
0
LINE
8
layer0
10
17.6768347
20
19.9493904
11
17.7512067
21
19.9290451
0
LINE
8
layer0
10
17.7512067
20
19.9290451
11
17.8339728
21
19.9207414
0
LINE
8
layer0
10
17.8339728
20
19.9207414
11
17.9246564
21
19.9248138
0
LINE
8
layer0
10
17.9246564
20
19.9248138
11
18.022762
21
19.941574
0
LINE
8
layer0
10
18.022762
20
19.941574
11
18.1278065
21
19.9713486
0
LINE
8
layer0
10
18.1278065
20
19.9713486
11
18.3566561
21
20.0710534
0
LINE
8
layer0
10
18.3566561
20
20.0710534
11
18.6392773
21
20.2279954
0
LINE
8
layer0
10
18.6392773
20
20.2279954
11
18.9948888
21
20.4094305
0
LINE
8
layer0
10
18.9948888
20
20.4094305
11
19.401212
21
20.5956997
0
LINE
8
layer0
10
19.401212
20
20.5956997
11
19.8537164
21
20.7806574
0
LINE
8
layer0
10
19.8537164
20
20.7806574
11
20.3599129
21
20.9632357
0
LINE
8
layer0
10
20.3599129
20
20.9632357
11
20.9145176
21
21.1373862
0
LINE
8
layer0
10
20.9145176
20
21.1373862
11
21.5206175
21
21.300192
0
LINE
8
layer0
10
21.5206175
20
21.300192
11
22.1772984
21
21.4474206
0
LINE
8
layer0
10
22.1772984
20
21.4474206
11
22.8850645
21
21.5752549
0
LINE
8
layer0
10
22.8850645
20
21.5752549
11
23.642296
21
21.6794929
0
LINE
8
layer0
10
23.642296
20
21.6794929
11
24.4492346
21
21.7563159
0
LINE
8
layer0
10
24.4492346
20
21.7563159
11
25.2390763
21
21.7993174
0
ARC
8
layer0
10
-0.0000158
20
-0.0000113
40
33.35
50
39.1824001
51
40.8175946
0
LINE
8
layer0
10
25.8508564
20
21.0702263
11
25.6713536
21
20.2998512
0
LINE
8
layer0
10
25.6713536
20
20.2998512
11
25.4555743
21
19.5185119
0
LINE
8
layer0
10
25.4555743
20
19.5185119
11
25.221428
21
18.7908853
0
LINE
8
layer0
10
25.221428
20
18.7908853
11
24.9726335
21
18.1160699
0
LINE
8
layer0
10
24.9726335
20
18.1160699
11
24.7136102
21
17.4949315
0
LINE
8
layer0
10
24.7136102
20
17.4949315
11
24.4480297
21
16.9263104
0
LINE
8
layer0
10
24.4480297
20
16.9263104
11
24.1802188
21
16.4103724
0
LINE
8
layer0
10
24.1802188
20
16.4103724
11
23.9125142
21
15.9435705
0
LINE
8
layer0
10
23.9125142
20
15.9435705
11
23.6517899
21
15.5300582
0
LINE
8
layer0
10
23.6517899
20
15.5300582
11
23.3977932
21
15.1622534
0
LINE
8
layer0
10
23.3977932
20
15.1622534
11
23.1573633
21
14.8435503
0
LINE
8
layer0
10
23.1573633
20
14.8435503
11
22.9537288
21
14.5924754
0
LINE
8
layer0
10
22.9537288
20
14.5924754
11
22.8157995
21
14.3844161
0
LINE
8
layer0
10
22.8157995
20
14.3844161
11
22.7682364
21
14.2861377
0
LINE
8
layer0
10
22.7682364
20
14.2861377
11
22.7346951
21
14.192433
0
LINE
8
layer0
10
22.7346951
20
14.192433
11
22.7149375
21
14.1038342
0
LINE
8
layer0
10
22.7149375
20
14.1038342
11
22.7087428
21
14.0208836
0
LINE
8
layer0
10
22.7087428
20
14.0208836
11
22.7158645
21
13.9441086
0
LINE
8
layer0
10
22.7158645
20
13.9441086
11
22.7360211
21
13.8740163
0
LINE
8
layer0
10
22.7360211
20
13.8740163
11
22.814792
21
13.7348811
0
LINE
8
layer0
10
22.814792
20
13.7348811
11
23.0622565
21
13.315
0
LINE
8
layer0
10
23.0622565
20
13.315
11
23.302152
21
12.8907489
0
LINE
8
layer0
10
23.302152
20
12.8907489
11
23.3832611
21
12.7529637
0
LINE
8
layer0
10
23.3832611
20
12.7529637
11
23.4338845
21
12.7004614
0
LINE
8
layer0
10
23.4338845
20
12.7004614
11
23.4968128
21
12.6559064
0
LINE
8
layer0
10
23.4968128
20
12.6559064
11
23.5717475
21
12.6197958
0
LINE
8
layer0
10
23.5717475
20
12.6197958
11
23.6583551
21
12.592607
0
LINE
8
layer0
10
23.6583551
20
12.592607
11
23.7562764
21
12.5748023
0
LINE
8
layer0
10
23.7562764
20
12.5748023
11
23.8651695
21
12.5668539
0
LINE
8
layer0
10
23.8651695
20
12.5668539
11
24.1143188
21
12.5822746
0
LINE
8
layer0
10
24.1143188
20
12.5822746
11
24.4335733
21
12.6330897
0
LINE
8
layer0
10
24.4335733
20
12.6330897
11
24.8297932
21
12.6819566
0
LINE
8
layer0
10
24.8297932
20
12.6819566
11
25.2753199
21
12.7180218
0
LINE
8
layer0
10
25.2753199
20
12.7180218
11
25.7637942
21
12.7370595
0
LINE
8
layer0
10
25.7637942
20
12.7370595
11
26.3019088
21
12.7354976
0
LINE
8
layer0
10
26.3019088
20
12.7354976
11
26.8826297
21
12.7094596
0
LINE
8
layer0
10
26.8826297
20
12.7094596
11
27.5078602
21
12.6551485
0
LINE
8
layer0
10
27.5078602
20
12.6551485
11
28.1752935
21
12.5689001
0
LINE
8
layer0
10
28.1752935
20
12.5689001
11
28.884098
21
12.4469547
0
LINE
8
layer0
10
28.884098
20
12.4469547
11
29.6313143
21
12.2859181
0
LINE
8
layer0
10
29.6313143
20
12.2859181
11
30.4158636
21
12.0821188
0
LINE
8
layer0
10
30.4158636
20
12.0821188
11
31.1727794
21
11.8523852
0
ARC
8
layer0
10
-0.0000182
20
-0.0000066
40
33.35
50
19.1824027
51
20.8175971
0
LINE
8
layer0
10
31.4983008
20
10.9580225
11
31.0661396
21
10.2955003
0
LINE
8
layer1
10
31.0661396
20
10.2955003
11
30.5961396
21
9.6350824
0
LINE
8
layer1
10
30.5961396
20
9.6350824
11
30.127251
21
9.0314198
0
LINE
8
layer1
10
30.127251
20
9.0314198
11
29.6626603
21
8.4823935
0
LINE
8
layer1
10
29.6626603
20
8.4823935
11
29.2068161
21
7.9873055
0
LINE
8
layer1
10
29.2068161
20
7.9873055
11
28.7627722
21
7.5438104
0
LINE
8
layer1
10
28.7627722
20
7.5438104
11
28.3346511
21
7.150584
0
LINE
8
layer1
10
28.3346511
20
7.150584
11
27.9234354
21
6.803494
0
LINE
8
layer1
10
27.9234354
20
6.803494
11
27.5370052
21
6.5040925
0
LINE
8
layer1
10
27.5370052
20
6.5040925
11
27.1725297
21
6.245341
0
LINE
8
layer1
10
27.1725297
20
6.245341
11
26.8375966
21
6.02809
0
LINE
8
layer1
10
26.8375966
20
6.02809
11
26.5603701
21
5.8618038
0
LINE
8
layer1
10
26.5603701
20
5.8618038
11
26.3595985
21
5.7134666
0
LINE
8
layer1
10
26.3595985
20
5.7134666
11
26.2812906
21
5.6373827
0
LINE
8
layer1
10
26.2812906
20
5.6373827
11
26.2177232
21
5.5608009
0
LINE
8
layer1
10
26.2177232
20
5.5608009
11
26.1688545
21
5.4843028
0
LINE
8
layer1
10
26.1688545
20
5.4843028
11
26.1346627
21
5.4084734
0
LINE
8
layer1
10
26.1346627
20
5.4084734
11
26.1150962
21
5.3338927
0
LINE
8
layer1
10
26.1150962
20
5.3338927
11
26.1100643
21
5.2611335
0
LINE
8
layer1
10
26.1100643
20
5.2611335
11
26.1364977
21
5.103448
0
LINE
8
layer1
10
26.1364977
20
5.103448
11
26.2254305
21
4.624251
0
LINE
8
layer1
10
26.2254305
20
4.624251
11
26.305756
21
4.1435362
0
LINE
8
layer1
10
26.305756
20
4.1435362
11
26.3348484
21
3.9863196
0
LINE
8
layer1
10
26.3348484
20
3.9863196
11
26.364462
21
3.9196694
0
LINE
8
layer1
10
26.364462
20
3.9196694
11
26.4083565
21
3.8562785
0
LINE
8
layer1
10
26.4083565
20
3.8562785
11
26.4664215
21
3.7967165
0
LINE
8
layer1
10
26.4664215
20
3.7967165
11
26.5385069
21
3.7415459
0
LINE
8
layer1
10
26.5385069
20
3.7415459
11
26.6244333
21
3.6913238
0
LINE
8
layer1
10
26.6244333
20
3.6913238
11
26.7240408
21
3.6466112
0
LINE
8
layer1
10
26.7240408
20
3.6466112
11
26.9634388
21
3.5758878
0
LINE
8
layer1
10
26.9634388
20
3.5758878
11
27.2808196
21
3.514447
0
LINE
8
layer1
10
27.2808196
20
3.514447
11
27.6698581
21
3.4248516
0
LINE
8
layer1
10
27.6698581
20
3.4248516
11
28.1008512
21
3.3063627
0
LINE
8
layer1
10
28.1008512
20
3.3063627
11
28.5663782
21
3.1571842
0
LINE
8
layer1
10
28.5663782
20
3.1571842
11
29.0715063
21
2.9716705
0
LINE
8
layer1
10
29.0715063
20
2.9716705
11
29.6082999
21
2.7485845
0
LINE
8
layer1
10
29.6082999
20
2.7485845
11
30.177249
21
2.4837074
0
LINE
8
layer1
10
30.177249
20
2.4837074
11
30.7749324
21
2.1743847
0
LINE
8
layer1
10
30.7749324
20
2.1743847
11
31.399283
21
1.8173682
0
LINE
8
layer1
10
31.399283
20
1.8173682
11
32.0463589
21
1.4104802
0
LINE
8
layer1
10
32.0463589
20
1.4104802
11
32.7138906
21
0.9506398
0
LINE
8
layer1
10
32.7138906
20
0.9506398
11
33.3465853
21
0.4758805
0
ARC
8
layer1
10
-0.0000193
20
1e-7
40
33.35
50
359.1824027
51
360.8175971
0
LINE
8
layer1
10
33.3465853
20
-0.4758805
11
32.7138906
21
-0.9506398
0
LINE
8
layer1
10
32.7138906
20
-0.9506398
11
32.0463589
21
-1.4104802
0
LINE
8
layer1
10
32.0463589
20
-1.4104802
11
31.399283
21
-1.8173682
0
LINE
8
layer1
10
31.399283
20
-1.8173682
11
30.7749324
21
-2.1743847
0
LINE
8
layer1
10
30.7749324
20
-2.1743847
11
30.177249
21
-2.4837074
0
LINE
8
layer1
10
30.177249
20
-2.4837074
11
29.6082999
21
-2.7485845
0
LINE
8
layer1
10
29.6082999
20
-2.7485845
11
29.0715063
21
-2.9716705
0
LINE
8
layer1
10
29.0715063
20
-2.9716705
11
28.5663782
21
-3.1571842
0
LINE
8
layer1
10
28.5663782
20
-3.1571842
11
28.1008512
21
-3.3063627
0
LINE
8
layer1
10
28.1008512
20
-3.3063627
11
27.6698581
21
-3.4248516
0
LINE
8
layer1
10
27.6698581
20
-3.4248516
11
27.2808196
21
-3.514447
0
LINE
8
layer1
10
27.2808196
20
-3.514447
11
26.9634388
21
-3.5758878
0
LINE
8
layer1
10
26.9634388
20
-3.5758878
11
26.7240408
21
-3.6466112
0
LINE
8
layer1
10
26.7240408
20
-3.6466112
11
26.6244333
21
-3.6913238
0
LINE
8
layer1
10
26.6244333
20
-3.6913238
11
26.5385069
21
-3.7415459
0
LINE
8
layer1
10
26.5385069
20
-3.7415459
11
26.4664215
21
-3.7967165
0
LINE
8
layer1
10
26.4664215
20
-3.7967165
11
26.4083565
21
-3.8562785
0
LINE
8
layer1
10
26.4083565
20
-3.8562785
11
26.364462
21
-3.9196694
0
LINE
8
layer1
10
26.364462
20
-3.9196694
11
26.3348484
21
-3.9863196
0
LINE
8
layer1
10
26.3348484
20
-3.9863196
11
26.305756
21
-4.1435362
0
LINE
8
layer1
10
26.305756
20
-4.1435362
11
26.2254305
21
-4.624251
0
LINE
8
layer1
10
26.2254305
20
-4.624251
11
26.1364977
21
-5.103448
0
LINE
8
layer1
10
26.1364977
20
-5.103448
11
26.1100643
21
-5.2611335
0
LINE
8
layer1
10
26.1100643
20
-5.2611335
11
26.1150962
21
-5.3338927
0
LINE
8
layer1
10
26.1150962
20
-5.3338927
11
26.1346627
21
-5.4084734
0
LINE
8
layer1
10
26.1346627
20
-5.4084734
11
26.1688545
21
-5.4843028
0
LINE
8
layer1
10
26.1688545
20
-5.4843028
11
26.2177232
21
-5.5608009
0
LINE
8
layer1
10
26.2177232
20
-5.5608009
11
26.2812906
21
-5.6373827
0
LINE
8
layer1
10
26.2812906
20
-5.6373827
11
26.3595985
21
-5.7134666
0
LINE
8
layer1
10
26.3595985
20
-5.7134666
11
26.5603701
21
-5.8618038
0
LINE
8
layer1
10
26.5603701
20
-5.8618038
11
26.8375966
21
-6.02809
0
LINE
8
layer1
10
26.8375966
20
-6.02809
11
27.1725297
21
-6.245341
0
LINE
8
layer1
10
27.1725297
20
-6.245341
11
27.5370052
21
-6.5040925
0
LINE
8
layer1
10
27.5370052
20
-6.5040925
11
27.9234354
21
-6.803494
0
LINE
8
layer1
10
27.9234354
20
-6.803494
11
28.3346511
21
-7.150584
0
LINE
8
layer1
10
28.3346511
20
-7.150584
11
28.7627722
21
-7.5438104
0
LINE
8
layer1
10
28.7627722
20
-7.5438104
11
29.2068161
21
-7.9873055
0
LINE
8
layer1
10
29.2068161
20
-7.9873055
11
29.6626603
21
-8.4823935
0
LINE
8
layer1
10
29.6626603
20
-8.4823935
11
30.127251
21
-9.0314198
0
LINE
8
layer1
10
30.127251
20
-9.0314198
11
30.5961396
21
-9.6350824
0
LINE
8
layer1
10
30.5961396
20
-9.6350824
11
31.0661396
21
-10.2955003
0
LINE
8
layer1
10
31.0661396
20
-10.2955003
11
31.4983008
21
-10.9580225
0
ARC
8
layer1
10
-0.0000182
20
0.0000066
40
33.35
50
339.1824029
51
340.8175973
0
LINE
8
layer1
10
31.1727794
20
-11.8523852
11
30.4158636
21
-12.0821188
0
LINE
8
layer1
10
30.4158636
20
-12.0821188
11
29.6313143
21
-12.2859181
0
LINE
8
layer1
10
29.6313143
20
-12.2859181
11
28.884098
21
-12.4469547
0
LINE
8
layer1
10
28.884098
20
-12.4469547
11
28.1752935
21
-12.5689001
0
LINE
8
layer1
10
28.1752935
20
-12.5689001
11
27.5078602
21
-12.6551485
0
LINE
8
layer1
10
27.5078602
20
-12.6551485
11
26.8826297
21
-12.7094596
0
LINE
8
layer1
10
26.8826297
20
-12.7094596
11
26.3019088
21
-12.7354976
0
LINE
8
layer1
10
26.3019088
20
-12.7354976
11
25.7637942
21
-12.7370595
0
LINE
8
layer1
10
25.7637942
20
-12.7370595
11
25.2753199
21
-12.7180218
0
LINE
8
layer1
10
25.2753199
20
-12.7180218
11
24.8297932
21
-12.6819566
0
LINE
8
layer1
10
24.8297932
20
-12.6819566
11
24.4335733
21
-12.6330897
0
LINE
8
layer1
10
24.4335733
20
-12.6330897
11
24.1143188
21
-12.5822746
0
LINE
8
layer1
10
24.1143188
20
-12.5822746
11
23.8651695
21
-12.5668539
0
LINE
8
layer1
10
23.8651695
20
-12.5668539
11
23.7562764
21
-12.5748023
0
LINE
8
layer1
10
23.7562764
20
-12.5748023
11
23.6583551
21
-12.592607
0
LINE
8
layer1
10
23.6583551
20
-12.592607
11
23.5717475
21
-12.6197958
0
LINE
8
layer1
10
23.5717475
20
-12.6197958
11
23.4968128
21
-12.6559064
0
LINE
8
layer1
10
23.4968128
20
-12.6559064
11
23.4338845
21
-12.7004614
0
LINE
8
layer1
10
23.4338845
20
-12.7004614
11
23.3832611
21
-12.7529637
0
LINE
8
layer1
10
23.3832611
20
-12.7529637
11
23.302152
21
-12.8907489
0
LINE
8
layer1
10
23.302152
20
-12.8907489
11
23.0622565
21
-13.315
0
LINE
8
layer1
10
23.0622565
20
-13.315
11
22.814792
21
-13.7348811
0
LINE
8
layer1
10
22.814792
20
-13.7348811
11
22.7360211
21
-13.8740163
0
LINE
8
layer1
10
22.7360211
20
-13.8740163
11
22.7158645
21
-13.9441086
0
LINE
8
layer1
10
22.7158645
20
-13.9441086
11
22.7087428
21
-14.0208836
0
LINE
8
layer1
10
22.7087428
20
-14.0208836
11
22.7149375
21
-14.1038342
0
LINE
8
layer1
10
22.7149375
20
-14.1038342
11
22.7346951
21
-14.192433
0
LINE
8
layer1
10
22.7346951
20
-14.192433
11
22.7682364
21
-14.2861377
0
LINE
8
layer1
10
22.7682364
20
-14.2861377
11
22.8157995
21
-14.3844161
0
LINE
8
layer1
10
22.8157995
20
-14.3844161
11
22.9537288
21
-14.5924754
0
LINE
8
layer1
10
22.9537288
20
-14.5924754
11
23.1573633
21
-14.8435503
0
LINE
8
layer1
10
23.1573633
20
-14.8435503
11
23.3977932
21
-15.1622534
0
LINE
8
layer1
10
23.3977932
20
-15.1622534
11
23.6517899
21
-15.5300582
0
LINE
8
layer1
10
23.6517899
20
-15.5300582
11
23.9125142
21
-15.9435705
0
LINE
8
layer1
10
23.9125142
20
-15.9435705
11
24.1802188
21
-16.4103724
0
LINE
8
layer1
10
24.1802188
20
-16.4103724
11
24.4480297
21
-16.9263104
0
LINE
8
layer1
10
24.4480297
20
-16.9263104
11
24.7136102
21
-17.4949315
0
LINE
8
layer1
10
24.7136102
20
-17.4949315
11
24.9726335
21
-18.1160699
0
LINE
8
layer1
10
24.9726335
20
-18.1160699
11
25.221428
21
-18.7908853
0
LINE
8
layer1
10
25.221428
20
-18.7908853
11
25.4555743
21
-19.5185119
0
LINE
8
layer1
10
25.4555743
20
-19.5185119
11
25.6713536
21
-20.2998512
0
LINE
8
layer1
10
25.6713536
20
-20.2998512
11
25.8508564
21
-21.0702263
0
ARC
8
layer1
10
-0.0000158
20
0.0000112
40
33.35
50
319.1824054
51
320.8175999
0
LINE
8
layer1
10
25.2390763
20
-21.7993174
11
24.4492346
21
-21.7563159
0
LINE
8
layer1
10
24.4492346
20
-21.7563159
11
23.642296
21
-21.6794929
0
LINE
8
layer1
10
23.642296
20
-21.6794929
11
22.8850645
21
-21.5752549
0
LINE
8
layer1
10
22.8850645
20
-21.5752549
11
22.1772984
21
-21.4474206
0
LINE
8
layer1
10
22.1772984
20
-21.4474206
11
21.5206175
21
-21.300192
0
LINE
8
layer1
10
21.5206175
20
-21.300192
11
20.9145176
21
-21.1373862
0
LINE
8
layer1
10
20.9145176
20
-21.1373862
11
20.3599129
21
-20.9632357
0
LINE
8
layer1
10
20.3599129
20
-20.9632357
11
19.8537164
21
-20.7806574
0
LINE
8
layer1
10
19.8537164
20
-20.7806574
11
19.401212
21
-20.5956997
0
LINE
8
layer1
10
19.401212
20
-20.5956997
11
18.9948888
21
-20.4094305
0
LINE
8
layer1
10
18.9948888
20
-20.4094305
11
18.6392773
21
-20.2279954
0
LINE
8
layer1
10
18.6392773
20
-20.2279954
11
18.3566561
21
-20.0710534
0
LINE
8
layer1
10
18.3566561
20
-20.0710534
11
18.1278065
21
-19.9713486
0
LINE
8
layer1
10
18.1278065
20
-19.9713486
11
18.022762
21
-19.941574
0
LINE
8
layer1
10
18.022762
20
-19.941574
11
17.9246564
21
-19.9248138
0
LINE
8
layer1
10
17.9246564
20
-19.9248138
11
17.8339728
21
-19.9207414
0
LINE
8
layer1
10
17.8339728
20
-19.9207414
11
17.7512067
21
-19.9290451
0
LINE
8
layer1
10
17.7512067
20
-19.9290451
11
17.6768347
21
-19.9493904
0
LINE
8
layer1
10
17.6768347
20
-19.9493904
11
17.6113074
21
-19.9814122
0
LINE
8
layer1
10
17.6113074
20
-19.9814122
11
17.4879645
21
-20.0831469
0
LINE
8
layer1
10
17.4879645
20
-20.0831469
11
17.117434
21
-20.3997635
0
LINE
8
layer1
10
17.117434
20
-20.3997635
11
16.7412856
21
-20.7096849
0
LINE
8
layer1
10
16.7412856
20
-20.7096849
11
16.6196782
21
-20.8134879
0
LINE
8
layer1
10
16.6196782
20
-20.8134879
11
16.5767642
21
-20.8724591
0
LINE
8
layer1
10
16.5767642
20
-20.8724591
11
16.5438134
21
-20.9421684
0
LINE
8
layer1
10
16.5438134
20
-20.9421684
11
16.5212637
21
-21.0222351
0
LINE
8
layer1
10
16.5212637
20
-21.0222351
11
16.5095272
21
-21.1122483
0
LINE
8
layer1
10
16.5095272
20
-21.1122483
11
16.5089969
21
-21.2117737
0
LINE
8
layer1
10
16.5089969
20
-21.2117737
11
16.5200784
21
-21.3203927
0
LINE
8
layer1
10
16.5200784
20
-21.3203927
11
16.5785291
21
-21.5630791
0
LINE
8
layer1
10
16.5785291
20
-21.5630791
11
16.6840102
21
-21.8686594
0
LINE
8
layer1
10
16.6840102
20
-21.8686594
11
16.8009375
21
-22.2503742
0
LINE
8
layer1
10
16.8009375
20
-22.2503742
11
16.9138197
21
-22.6828697
0
LINE
8
layer1
10
16.9138197
20
-22.6828697
11
17.0173908
21
-23.1606171
0
LINE
8
layer1
10
17.0173908
20
-23.1606171
11
17.1092953
21
-23.6908278
0
LINE
8
layer1
10
17.1092953
20
-23.6908278
11
17.184494
21
-24.2672476
0
LINE
8
layer1
10
17.184494
20
-24.2672476
11
17.2395782
21
-24.8924105
0
LINE
8
layer1
10
17.2395782
20
-24.8924105
11
17.2705386
21
-25.5646809
0
LINE
8
layer1
10
17.2705386
20
-25.5646809
11
17.2735285
21
-26.2838926
0
LINE
8
layer1
10
17.2735285
20
-26.2838926
11
17.2446911
21
-27.0477208
0
LINE
8
layer1
10
17.2446911
20
-27.0477208
11
17.1802236
21
-27.8557404
0
LINE
8
layer1
10
17.1802236
20
-27.8557404
11
17.0854172
21
-28.6410498
0
ARC
8
layer1
10
-0.0000112
20
0.0000157
40
33.35
50
299.1824059
51
300.8176003
0
LINE
8
layer1
10
16.2611681
20
-29.1169302
11
15.5336671
21
-28.8063803
0
LINE
8
layer1
10
15.5336671
20
-28.8063803
11
14.8016678
21
-28.458201
0
LINE
8
layer1
10
14.8016678
20
-28.458201
11
14.1257545
21
-28.1012608
0
LINE
8
layer1
10
14.1257545
20
-28.1012608
11
13.5043938
21
-27.7390656
0
LINE
8
layer1
10
13.5043938
20
-27.7390656
11
12.9376708
21
-27.3761179
0
LINE
8
layer1
10
12.9376708
20
-27.3761179
11
12.423806
21
-27.0158321
0
LINE
8
layer1
10
12.423806
20
-27.0158321
11
11.9622111
21
-26.6624982
0
LINE
8
layer1
10
11.9622111
20
-26.6624982
11
11.5489873
21
-26.3178013
0
LINE
8
layer1
10
11.5489873
20
-26.3178013
11
11.1870315
21
-25.9892324
0
LINE
8
layer1
10
11.1870315
20
-25.9892324
11
10.8689205
21
-25.6752258
0
LINE
8
layer1
10
10.8689205
20
-25.6752258
11
10.5968095
21
-25.3831063
0
LINE
8
layer1
10
10.5968095
20
-25.3831063
11
10.3849097
21
-25.1389669
0
LINE
8
layer1
10
10.3849097
20
-25.1389669
11
10.2039625
21
-24.9670039
0
LINE
8
layer1
10
10.2039625
20
-24.9670039
11
10.1154364
21
-24.9030975
0
LINE
8
layer1
10
10.1154364
20
-24.9030975
11
10.0289797
21
-24.8537941
0
LINE
8
layer1
10
10.0289797
20
-24.8537941
11
9.9451578
21
-24.8189516
0
LINE
8
layer1
10
9.9451578
20
-24.8189516
11
9.8645431
21
-24.7984469
0
LINE
8
layer1
10
9.8645431
20
-24.7984469
11
9.7876977
21
-24.7921285
0
LINE
8
layer1
10
9.7876977
20
-24.7921285
11
9.7151702
21
-24.7998075
0
LINE
8
layer1
10
9.7151702
20
-24.7998075
11
9.5644704
21
-24.8532211
0
LINE
8
layer1
10
9.5644704
20
-24.8532211
11
9.1079964
21
-25.0240145
0
LINE
8
layer1
10
9.1079964
20
-25.0240145
11
8.6485332
21
-25.186595
0
LINE
8
layer1
10
8.6485332
20
-25.186595
11
8.4987569
21
-25.2425457
0
LINE
8
layer1
10
8.4987569
20
-25.2425457
11
8.4382616
21
-25.2832831
0
LINE
8
layer1
10
8.4382616
20
-25.2832831
11
8.383456
21
-25.3375185
0
LINE
8
layer1
10
8.383456
20
-25.3375185
11
8.3348817
21
-25.4050442
0
LINE
8
layer1
10
8.3348817
20
-25.4050442
11
8.2930667
21
-25.4856148
0
LINE
8
layer1
10
8.2930667
20
-25.4856148
11
8.2585287
21
-25.5789567
0
LINE
8
layer1
10
8.2585287
20
-25.5789567
11
8.231792
21
-25.6848152
0
LINE
8
layer1
10
8.231792
20
-25.6848152
11
8.203714
21
-25.9328572
0
LINE
8
layer1
10
8.203714
20
-25.9328572
11
8.1983192
21
-26.2560854
0
LINE
8
layer1
10
8.1983192
20
-26.2560854
11
8.1776409
21
-26.6547715
0
LINE
8
layer1
10
8.1776409
20
-26.6547715
11
8.1357932
21
-27.0997923
0
LINE
8
layer1
10
8.1357932
20
-27.0997923
11
8.069719
21
-27.5841514
0
LINE
8
layer1
10
8.069719
20
-27.5841514
11
7.9747382
21
-28.1138197
0
LINE
8
layer1
10
7.9747382
20
-28.1138197
11
7.8482546
21
-28.6811966
0
LINE
8
layer1
10
7.8482546
20
-28.6811966
11
7.6861986
21
-29.2874975
0
LINE
8
layer1
10
7.6861986
20
-29.2874975
11
7.4853619
21
-29.9298141
0
LINE
8
layer1
10
7.4853619
20
-29.9298141
11
7.2421865
21
-30.6066747
0
LINE
8
layer1
10
7.2421865
20
-30.6066747
11
6.9538436
21
-31.3145754
0
LINE
8
layer1
10
6.9538436
20
-31.3145754
11
6.616905
21
-32.0518162
0
LINE
8
layer1
10
6.616905
20
-32.0518162
11
6.2592245
21
-32.75734
0
ARC
8
layer1
10
-0.0000019
20
0.0000192
40
33.35
50
279.1824003
51
280.8175946
0
LINE
8
layer1
10
5.321923
20
-32.9226115
11
4.74451
21
-32.38197
0
LINE
8
layer1
10
4.74451
20
-32.38197
11
4.17574
21
-31.80443
0
LINE
8
layer1
10
4.17574
20
-31.80443
11
3.66267
21
-31.23784
0
LINE
8
layer1
10
3.66267
20
-31.23784
11
3.20266
21
-30.68497
0
LINE
8
layer1
10
3.20266
20
-30.68497
11
2.79425
21
-30.15008
0
LINE
8
layer1
10
2.79425
20
-30.15008
11
2.4346
21
-29.63577
0
LINE
8
layer1
10
2.4346
20
-29.63577
11
2.12169
21
-29.14587
0
LINE
8
layer1
10
2.12169
20
-29.14587
11
1.85128
21
-28.68063
0
LINE
8
layer1
10
1.85128
20
-28.68063
11
1.62353
21
-28.24808
0
LINE
8
layer1
10
1.62353
20
-28.24808
11
1.432
21
-27.84421
0
LINE
8
layer1
10
1.432
20
-27.84421
11
1.27621
21
-27.47664
0
LINE
8
layer1
10
1.27621
20
-27.47664
11
1.16059
21
-27.17475
0
LINE
8
layer1
10
1.16059
20
-27.17475
11
1.04937
21
-26.95127
0
LINE
8
layer1
10
1.04937
20
-26.95127
11
0.98804
21
-26.86094
0
LINE
8
layer1
10
0.98804
20
-26.86094
11
0.92366
21
-26.78504
0
LINE
8
layer1
10
0.92366
20
-26.78504
11
0.85681
21
-26.72363
0
LINE
8
layer1
10
0.85681
20
-26.72363
11
0.78807
21
-26.67679
0
LINE
8
layer1
10
0.78807
20
-26.67679
11
0.71802
21
-26.64457
0
LINE
8
layer1
10
0.71802
20
-26.64457
11
0.64724
21
-26.62698
0
LINE
8
layer1
10
0.64724
20
-26.62698
11
0.48736
21
-26.62563
0
LINE
8
layer1
10
0.48736
20
-26.62563
11
0
21
-26.63
0
LINE
8
layer1
10
0
20
-26.63
11
-0.48736
21
-26.62563
0
LINE
8
layer1
10
-0.48736
20
-26.62563
11
-0.64724
21
-26.62698
0
LINE
8
layer1
10
-0.64724
20
-26.62698
11
-0.71802
21
-26.64457
0
LINE
8
layer1
10
-0.71802
20
-26.64457
11
-0.78807
21
-26.67679
0
LINE
8
layer1
10
-0.78807
20
-26.67679
11
-0.85681
21
-26.72363
0
LINE
8
layer1
10
-0.85681
20
-26.72363
11
-0.92366
21
-26.78504
0
LINE
8
layer1
10
-0.92366
20
-26.78504
11
-0.98804
21
-26.86094
0
LINE
8
layer1
10
-0.98804
20
-26.86094
11
-1.04937
21
-26.95127
0
LINE
8
layer1
10
-1.04937
20
-26.95127
11
-1.16059
21
-27.17475
0
LINE
8
layer1
10
-1.16059
20
-27.17475
11
-1.27621
21
-27.47664
0
LINE
8
layer1
10
-1.27621
20
-27.47664
11
-1.432
21
-27.84421
0
LINE
8
layer1
10
-1.432
20
-27.84421
11
-1.62353
21
-28.24808
0
LINE
8
layer1
10
-1.62353
20
-28.24808
11
-1.85128
21
-28.68063
0
LINE
8
layer1
10
-1.85128
20
-28.68063
11
-2.12169
21
-29.14587
0
LINE
8
layer1
10
-2.12169
20
-29.14587
11
-2.4346
21
-29.63577
0
LINE
8
layer1
10
-2.4346
20
-29.63577
11
-2.79425
21
-30.15008
0
LINE
8
layer1
10
-2.79425
20
-30.15008
11
-3.20266
21
-30.68497
0
LINE
8
layer1
10
-3.20266
20
-30.68497
11
-3.66267
21
-31.23784
0
LINE
8
layer1
10
-3.66267
20
-31.23784
11
-4.17574
21
-31.80443
0
LINE
8
layer1
10
-4.17574
20
-31.80443
11
-4.74451
21
-32.38197
0
LINE
8
layer1
10
-4.74451
20
-32.38197
11
-5.321923
21
-32.9226115
0
ARC
8
layer1
10
0.0000019
20
0.0000193
40
33.35
50
259.1824054
51
260.8175998
0
LINE
8
layer1
10
-6.2592245
20
-32.75734
11
-6.616905
21
-32.0518162
0
LINE
8
layer1
10
-6.616905
20
-32.0518162
11
-6.9538436
21
-31.3145754
0
LINE
8
layer1
10
-6.9538436
20
-31.3145754
11
-7.2421865
21
-30.6066747
0
LINE
8
layer1
10
-7.2421865
20
-30.6066747
11
-7.4853619
21
-29.9298141
0
LINE
8
layer1
10
-7.4853619
20
-29.9298141
11
-7.6861986
21
-29.2874975
0
LINE
8
layer1
10
-7.6861986
20
-29.2874975
11
-7.8482546
21
-28.6811966
0
LINE
8
layer1
10
-7.8482546
20
-28.6811966
11
-7.9747382
21
-28.1138197
0
LINE
8
layer1
10
-7.9747382
20
-28.1138197
11
-8.069719
21
-27.5841514
0
LINE
8
layer1
10
-8.069719
20
-27.5841514
11
-8.1357932
21
-27.0997923
0
LINE
8
layer1
10
-8.1357932
20
-27.0997923
11
-8.1776409
21
-26.6547715
0
LINE
8
layer1
10
-8.1776409
20
-26.6547715
11
-8.1983192
21
-26.2560854
0
LINE
8
layer1
10
-8.1983192
20
-26.2560854
11
-8.203714
21
-25.9328572
0
LINE
8
layer1
10
-8.203714
20
-25.9328572
11
-8.231792
21
-25.6848152
0
LINE
8
layer1
10
-8.231792
20
-25.6848152
11
-8.2585287
21
-25.5789567
0
LINE
8
layer1
10
-8.2585287
20
-25.5789567
11
-8.2930667
21
-25.4856148
0
LINE
8
layer1
10
-8.2930667
20
-25.4856148
11
-8.3348817
21
-25.4050442
0
LINE
8
layer1
10
-8.3348817
20
-25.4050442
11
-8.383456
21
-25.3375185
0
LINE
8
layer1
10
-8.383456
20
-25.3375185
11
-8.4382616
21
-25.2832831
0
LINE
8
layer1
10
-8.4382616
20
-25.2832831
11
-8.4987569
21
-25.2425457
0
LINE
8
layer1
10
-8.4987569
20
-25.2425457
11
-8.6485332
21
-25.186595
0
LINE
8
layer1
10
-8.6485332
20
-25.186595
11
-9.1079964
21
-25.0240145
0
LINE
8
layer1
10
-9.1079964
20
-25.0240145
11
-9.5644704
21
-24.8532211
0
LINE
8
layer1
10
-9.5644704
20
-24.8532211
11
-9.7151702
21
-24.7998075
0
LINE
8
layer1
10
-9.7151702
20
-24.7998075
11
-9.7876977
21
-24.7921285
0
LINE
8
layer1
10
-9.7876977
20
-24.7921285
11
-9.8645431
21
-24.7984469
0
LINE
8
layer1
10
-9.8645431
20
-24.7984469
11
-9.9451578
21
-24.8189516
0
LINE
8
layer1
10
-9.9451578
20
-24.8189516
11
-10.0289797
21
-24.8537941
0
LINE
8
layer1
10
-10.0289797
20
-24.8537941
11
-10.1154364
21
-24.9030975
0
LINE
8
layer1
10
-10.1154364
20
-24.9030975
11
-10.2039625
21
-24.9670039
0
LINE
8
layer1
10
-10.2039625
20
-24.9670039
11
-10.3849097
21
-25.1389669
0
LINE
8
layer1
10
-10.3849097
20
-25.1389669
11
-10.5968095
21
-25.3831063
0
LINE
8
layer1
10
-10.5968095
20
-25.3831063
11
-10.8689205
21
-25.6752258
0
LINE
8
layer1
10
-10.8689205
20
-25.6752258
11
-11.1870315
21
-25.9892324
0
LINE
8
layer1
10
-11.1870315
20
-25.9892324
11
-11.5489873
21
-26.3178013
0
LINE
8
layer1
10
-11.5489873
20
-26.3178013
11
-11.9622111
21
-26.6624982
0
LINE
8
layer1
10
-11.9622111
20
-26.6624982
11
-12.423806
21
-27.0158321
0
LINE
8
layer1
10
-12.423806
20
-27.0158321
11
-12.9376708
21
-27.3761179
0
LINE
8
layer1
10
-12.9376708
20
-27.3761179
11
-13.5043938
21
-27.7390656
0
LINE
8
layer1
10
-13.5043938
20
-27.7390656
11
-14.1257545
21
-28.1012608
0
LINE
8
layer1
10
-14.1257545
20
-28.1012608
11
-14.8016678
21
-28.458201
0
LINE
8
layer1
10
-14.8016678
20
-28.458201
11
-15.5336671
21
-28.8063803
0
LINE
8
layer1
10
-15.5336671
20
-28.8063803
11
-16.2611681
21
-29.1169302
0
ARC
8
layer1
10
0.0000112
20
0.0000158
40
33.35
50
239.1823997
51
240.8175941
0
LINE
8
layer1
10
-17.0854172
20
-28.6410498
11
-17.1802236
21
-27.8557404
0
LINE
8
layer1
10
-17.1802236
20
-27.8557404
11
-17.2446911
21
-27.0477208
0
LINE
8
layer1
10
-17.2446911
20
-27.0477208
11
-17.2735285
21
-26.2838926
0
LINE
8
layer1
10
-17.2735285
20
-26.2838926
11
-17.2705386
21
-25.5646809
0
LINE
8
layer1
10
-17.2705386
20
-25.5646809
11
-17.2395782
21
-24.8924105
0
LINE
8
layer1
10
-17.2395782
20
-24.8924105
11
-17.184494
21
-24.2672476
0
LINE
8
layer1
10
-17.184494
20
-24.2672476
11
-17.1092953
21
-23.6908278
0
LINE
8
layer1
10
-17.1092953
20
-23.6908278
11
-17.0173908
21
-23.1606171
0
LINE
8
layer1
10
-17.0173908
20
-23.1606171
11
-16.9138197
21
-22.6828697
0
LINE
8
layer1
10
-16.9138197
20
-22.6828697
11
-16.8009375
21
-22.2503742
0
LINE
8
layer1
10
-16.8009375
20
-22.2503742
11
-16.6840102
21
-21.8686594
0
LINE
8
layer1
10
-16.6840102
20
-21.8686594
11
-16.5785291
21
-21.5630791
0
LINE
8
layer1
10
-16.5785291
20
-21.5630791
11
-16.5200784
21
-21.3203927
0
LINE
8
layer1
10
-16.5200784
20
-21.3203927
11
-16.5089969
21
-21.2117737
0
LINE
8
layer1
10
-16.5089969
20
-21.2117737
11
-16.5095272
21
-21.1122483
0
LINE
8
layer1
10
-16.5095272
20
-21.1122483
11
-16.5212637
21
-21.0222351
0
LINE
8
layer1
10
-16.5212637
20
-21.0222351
11
-16.5438134
21
-20.9421684
0
LINE
8
layer1
10
-16.5438134
20
-20.9421684
11
-16.5767642
21
-20.8724591
0
LINE
8
layer1
10
-16.5767642
20
-20.8724591
11
-16.6196782
21
-20.8134879
0
LINE
8
layer1
10
-16.6196782
20
-20.8134879
11
-16.7412856
21
-20.7096849
0
LINE
8
layer1
10
-16.7412856
20
-20.7096849
11
-17.117434
21
-20.3997635
0
LINE
8
layer1
10
-17.117434
20
-20.3997635
11
-17.4879645
21
-20.0831469
0
LINE
8
layer1
10
-17.4879645
20
-20.0831469
11
-17.6113074
21
-19.9814122
0
LINE
8
layer1
10
-17.6113074
20
-19.9814122
11
-17.6768347
21
-19.9493904
0
LINE
8
layer1
10
-17.6768347
20
-19.9493904
11
-17.7512067
21
-19.9290451
0
LINE
8
layer1
10
-17.7512067
20
-19.9290451
11
-17.8339728
21
-19.9207414
0
LINE
8
layer1
10
-17.8339728
20
-19.9207414
11
-17.9246564
21
-19.9248138
0
LINE
8
layer1
10
-17.9246564
20
-19.9248138
11
-18.022762
21
-19.941574
0
LINE
8
layer1
10
-18.022762
20
-19.941574
11
-18.1278065
21
-19.9713486
0
LINE
8
layer1
10
-18.1278065
20
-19.9713486
11
-18.3566561
21
-20.0710534
0
LINE
8
layer1
10
-18.3566561
20
-20.0710534
11
-18.6392773
21
-20.2279954
0
LINE
8
layer1
10
-18.6392773
20
-20.2279954
11
-18.9948888
21
-20.4094305
0
LINE
8
layer1
10
-18.9948888
20
-20.4094305
11
-19.401212
21
-20.5956997
0
LINE
8
layer1
10
-19.401212
20
-20.5956997
11
-19.8537164
21
-20.7806574
0
LINE
8
layer1
10
-19.8537164
20
-20.7806574
11
-20.3599129
21
-20.9632357
0
LINE
8
layer1
10
-20.3599129
20
-20.9632357
11
-20.9145176
21
-21.1373862
0
LINE
8
layer1
10
-20.9145176
20
-21.1373862
11
-21.5206175
21
-21.300192
0
LINE
8
layer1
10
-21.5206175
20
-21.300192
11
-22.1772984
21
-21.4474206
0
LINE
8
layer1
10
-22.1772984
20
-21.4474206
11
-22.8850645
21
-21.5752549
0
LINE
8
layer1
10
-22.8850645
20
-21.5752549
11
-23.642296
21
-21.6794929
0
LINE
8
layer1
10
-23.642296
20
-21.6794929
11
-24.4492346
21
-21.7563159
0
LINE
8
layer1
10
-24.4492346
20
-21.7563159
11
-25.2390763
21
-21.7993174
0
ARC
8
layer1
10
0.0000158
20
0.0000113
40
33.35
50
219.1824001
51
220.8175946
0
LINE
8
layer1
10
-25.8508564
20
-21.0702263
11
-25.6713536
21
-20.2998512
0
LINE
8
layer1
10
-25.6713536
20
-20.2998512
11
-25.4555743
21
-19.5185119
0
LINE
8
layer1
10
-25.4555743
20
-19.5185119
11
-25.221428
21
-18.7908853
0
LINE
8
layer1
10
-25.221428
20
-18.7908853
11
-24.9726335
21
-18.1160699
0
LINE
8
layer1
10
-24.9726335
20
-18.1160699
11
-24.7136102
21
-17.4949315
0
LINE
8
layer1
10
-24.7136102
20
-17.4949315
11
-24.4480297
21
-16.9263104
0
LINE
8
layer1
10
-24.4480297
20
-16.9263104
11
-24.1802188
21
-16.4103724
0
LINE
8
layer1
10
-24.1802188
20
-16.4103724
11
-23.9125142
21
-15.9435705
0
LINE
8
layer1
10
-23.9125142
20
-15.9435705
11
-23.6517899
21
-15.5300582
0
LINE
8
layer1
10
-23.6517899
20
-15.5300582
11
-23.3977932
21
-15.1622534
0
LINE
8
layer1
10
-23.3977932
20
-15.1622534
11
-23.1573633
21
-14.8435503
0
LINE
8
layer1
10
-23.1573633
20
-14.8435503
11
-22.9537288
21
-14.5924754
0
LINE
8
layer1
10
-22.9537288
20
-14.5924754
11
-22.8157995
21
-14.3844161
0
LINE
8
layer1
10
-22.8157995
20
-14.3844161
11
-22.7682364
21
-14.2861377
0
LINE
8
layer1
10
-22.7682364
20
-14.2861377
11
-22.7346951
21
-14.192433
0
LINE
8
layer1
10
-22.7346951
20
-14.192433
11
-22.7149375
21
-14.1038342
0
LINE
8
layer1
10
-22.7149375
20
-14.1038342
11
-22.7087428
21
-14.0208836
0
LINE
8
layer1
10
-22.7087428
20
-14.0208836
11
-22.7158645
21
-13.9441086
0
LINE
8
layer1
10
-22.7158645
20
-13.9441086
11
-22.7360211
21
-13.8740163
0
LINE
8
layer1
10
-22.7360211
20
-13.8740163
11
-22.814792
21
-13.7348811
0
LINE
8
layer1
10
-22.814792
20
-13.7348811
11
-23.0622565
21
-13.315
0
LINE
8
layer1
10
-23.0622565
20
-13.315
11
-23.302152
21
-12.8907489
0
LINE
8
layer1
10
-23.302152
20
-12.8907489
11
-23.3832611
21
-12.7529637
0
LINE
8
layer1
10
-23.3832611
20
-12.7529637
11
-23.4338845
21
-12.7004614
0
LINE
8
layer1
10
-23.4338845
20
-12.7004614
11
-23.4968128
21
-12.6559064
0
LINE
8
layer1
10
-23.4968128
20
-12.6559064
11
-23.5717475
21
-12.6197958
0
LINE
8
layer1
10
-23.5717475
20
-12.6197958
11
-23.6583551
21
-12.592607
0
LINE
8
layer1
10
-23.6583551
20
-12.592607
11
-23.7562764
21
-12.5748023
0
LINE
8
layer1
10
-23.7562764
20
-12.5748023
11
-23.8651695
21
-12.5668539
0
LINE
8
layer1
10
-23.8651695
20
-12.5668539
11
-24.1143188
21
-12.5822746
0
LINE
8
layer1
10
-24.1143188
20
-12.5822746
11
-24.4335733
21
-12.6330897
0
LINE
8
layer1
10
-24.4335733
20
-12.6330897
11
-24.8297932
21
-12.6819566
0
LINE
8
layer1
10
-24.8297932
20
-12.6819566
11
-25.2753199
21
-12.7180218
0
LINE
8
layer1
10
-25.2753199
20
-12.7180218
11
-25.7637942
21
-12.7370595
0
LINE
8
layer1
10
-25.7637942
20
-12.7370595
11
-26.3019088
21
-12.7354976
0
LINE
8
layer1
10
-26.3019088
20
-12.7354976
11
-26.8826297
21
-12.7094596
0
LINE
8
layer1
10
-26.8826297
20
-12.7094596
11
-27.5078602
21
-12.6551485
0
LINE
8
layer1
10
-27.5078602
20
-12.6551485
11
-28.1752935
21
-12.5689001
0
LINE
8
layer1
10
-28.1752935
20
-12.5689001
11
-28.884098
21
-12.4469547
0
LINE
8
layer1
10
-28.884098
20
-12.4469547
11
-29.6313143
21
-12.2859181
0
LINE
8
layer1
10
-29.6313143
20
-12.2859181
11
-30.4158636
21
-12.0821188
0
LINE
8
layer1
10
-30.4158636
20
-12.0821188
11
-31.1727794
21
-11.8523852
0
ARC
8
layer1
10
0.0000182
20
0.0000066
40
33.35
50
199.1824027
51
200.8175971
0
LINE
8
layer1
10
-31.4983008
20
-10.9580225
11
-31.0661396
21
-10.2955003
0
LINE
8
layer1
10
-31.0661396
20
-10.2955003
11
-30.5961396
21
-9.6350824
0
LINE
8
layer1
10
-30.5961396
20
-9.6350824
11
-30.127251
21
-9.0314198
0
LINE
8
layer1
10
-30.127251
20
-9.0314198
11
-29.6626603
21
-8.4823935
0
LINE
8
layer1
10
-29.6626603
20
-8.4823935
11
-29.2068161
21
-7.9873055
0
LINE
8
layer1
10
-29.2068161
20
-7.9873055
11
-28.7627722
21
-7.5438104
0
LINE
8
layer1
10
-28.7627722
20
-7.5438104
11
-28.3346511
21
-7.150584
0
LINE
8
layer1
10
-28.3346511
20
-7.150584
11
-27.9234354
21
-6.803494
0
LINE
8
layer1
10
-27.9234354
20
-6.803494
11
-27.5370052
21
-6.5040925
0
LINE
8
layer1
10
-27.5370052
20
-6.5040925
11
-27.1725297
21
-6.245341
0
LINE
8
layer1
10
-27.1725297
20
-6.245341
11
-26.8375966
21
-6.02809
0
LINE
8
layer1
10
-26.8375966
20
-6.02809
11
-26.5603701
21
-5.8618038
0
LINE
8
layer1
10
-26.5603701
20
-5.8618038
11
-26.3595985
21
-5.7134666
0
LINE
8
layer1
10
-26.3595985
20
-5.7134666
11
-26.2812906
21
-5.6373827
0
LINE
8
layer1
10
-26.2812906
20
-5.6373827
11
-26.2177232
21
-5.5608009
0
LINE
8
layer1
10
-26.2177232
20
-5.5608009
11
-26.1688545
21
-5.4843028
0
LINE
8
layer1
10
-26.1688545
20
-5.4843028
11
-26.1346627
21
-5.4084734
0
LINE
8
layer1
10
-26.1346627
20
-5.4084734
11
-26.1150962
21
-5.3338927
0
LINE
8
layer1
10
-26.1150962
20
-5.3338927
11
-26.1100643
21
-5.2611335
0
LINE
8
layer1
10
-26.1100643
20
-5.2611335
11
-26.1364977
21
-5.103448
0
LINE
8
layer1
10
-26.1364977
20
-5.103448
11
-26.2254305
21
-4.624251
0
LINE
8
layer1
10
-26.2254305
20
-4.624251
11
-26.305756
21
-4.1435362
0
LINE
8
layer1
10
-26.305756
20
-4.1435362
11
-26.3348484
21
-3.9863196
0
LINE
8
layer1
10
-26.3348484
20
-3.9863196
11
-26.364462
21
-3.9196694
0
LINE
8
layer1
10
-26.364462
20
-3.9196694
11
-26.4083565
21
-3.8562785
0
LINE
8
layer1
10
-26.4083565
20
-3.8562785
11
-26.4664215
21
-3.7967165
0
LINE
8
layer1
10
-26.4664215
20
-3.7967165
11
-26.5385069
21
-3.7415459
0
LINE
8
layer1
10
-26.5385069
20
-3.7415459
11
-26.6244333
21
-3.6913238
0
LINE
8
layer1
10
-26.6244333
20
-3.6913238
11
-26.7240408
21
-3.6466112
0
LINE
8
layer1
10
-26.7240408
20
-3.6466112
11
-26.9634388
21
-3.5758878
0
LINE
8
layer1
10
-26.9634388
20
-3.5758878
11
-27.2808196
21
-3.514447
0
LINE
8
layer1
10
-27.2808196
20
-3.514447
11
-27.6698581
21
-3.4248516
0
LINE
8
layer1
10
-27.6698581
20
-3.4248516
11
-28.1008512
21
-3.3063627
0
LINE
8
layer1
10
-28.1008512
20
-3.3063627
11
-28.5663782
21
-3.1571842
0
LINE
8
layer1
10
-28.5663782
20
-3.1571842
11
-29.0715063
21
-2.9716705
0
LINE
8
layer1
10
-29.0715063
20
-2.9716705
11
-29.6082999
21
-2.7485845
0
LINE
8
layer1
10
-29.6082999
20
-2.7485845
11
-30.177249
21
-2.4837074
0
LINE
8
layer1
10
-30.177249
20
-2.4837074
11
-30.7749324
21
-2.1743847
0
LINE
8
layer1
10
-30.7749324
20
-2.1743847
11
-31.399283
21
-1.8173682
0
LINE
8
layer1
10
-31.399283
20
-1.8173682
11
-32.0463589
21
-1.4104802
0
LINE
8
layer1
10
-32.0463589
20
-1.4104802
11
-32.7138906
21
-0.9506398
0
LINE
8
layer1
10
-32.7138906
20
-0.9506398
11
-33.3465853
21
-0.4758805
0
ARC
8
layer1
10
0.0000193
20
-1e-7
40
33.35
50
179.1824027
51
180.8175971
0
LINE
8
layer1
10
-33.3465853
20
0.4758805
11
-32.7138906
21
0.9506398
0
LINE
8
layer1
10
-32.7138906
20
0.9506398
11
-32.0463589
21
1.4104802
0
LINE
8
layer1
10
-32.0463589
20
1.4104802
11
-31.399283
21
1.8173682
0
LINE
8
layer1
10
-31.399283
20
1.8173682
11
-30.7749324
21
2.1743847
0
LINE
8
layer1
10
-30.7749324
20
2.1743847
11
-30.177249
21
2.4837074
0
LINE
8
layer1
10
-30.177249
20
2.4837074
11
-29.6082999
21
2.7485845
0
LINE
8
layer1
10
-29.6082999
20
2.7485845
11
-29.0715063
21
2.9716705
0
LINE
8
layer1
10
-29.0715063
20
2.9716705
11
-28.5663782
21
3.1571842
0
LINE
8
layer1
10
-28.5663782
20
3.1571842
11
-28.1008512
21
3.3063627
0
LINE
8
layer1
10
-28.1008512
20
3.3063627
11
-27.6698581
21
3.4248516
0
LINE
8
layer1
10
-27.6698581
20
3.4248516
11
-27.2808196
21
3.514447
0
LINE
8
layer1
10
-27.2808196
20
3.514447
11
-26.9634388
21
3.5758878
0
LINE
8
layer1
10
-26.9634388
20
3.5758878
11
-26.7240408
21
3.6466112
0
LINE
8
layer1
10
-26.7240408
20
3.6466112
11
-26.6244333
21
3.6913238
0
LINE
8
layer1
10
-26.6244333
20
3.6913238
11
-26.5385069
21
3.7415459
0
LINE
8
layer1
10
-26.5385069
20
3.7415459
11
-26.4664215
21
3.7967165
0
LINE
8
layer1
10
-26.4664215
20
3.7967165
11
-26.4083565
21
3.8562785
0
LINE
8
layer1
10
-26.4083565
20
3.8562785
11
-26.364462
21
3.9196694
0
LINE
8
layer1
10
-26.364462
20
3.9196694
11
-26.3348484
21
3.9863196
0
LINE
8
layer1
10
-26.3348484
20
3.9863196
11
-26.305756
21
4.1435362
0
LINE
8
layer1
10
-26.305756
20
4.1435362
11
-26.2254305
21
4.624251
0
LINE
8
layer1
10
-26.2254305
20
4.624251
11
-26.1364977
21
5.103448
0
LINE
8
layer1
10
-26.1364977
20
5.103448
11
-26.1100643
21
5.2611335
0
LINE
8
layer1
10
-26.1100643
20
5.2611335
11
-26.1150962
21
5.3338927
0
LINE
8
layer1
10
-26.1150962
20
5.3338927
11
-26.1346627
21
5.4084734
0
LINE
8
layer1
10
-26.1346627
20
5.4084734
11
-26.1688545
21
5.4843028
0
LINE
8
layer1
10
-26.1688545
20
5.4843028
11
-26.2177232
21
5.5608009
0
LINE
8
layer1
10
-26.2177232
20
5.5608009
11
-26.2812906
21
5.6373827
0
LINE
8
layer1
10
-26.2812906
20
5.6373827
11
-26.3595985
21
5.7134666
0
LINE
8
layer1
10
-26.3595985
20
5.7134666
11
-26.5603701
21
5.8618038
0
LINE
8
layer1
10
-26.5603701
20
5.8618038
11
-26.8375966
21
6.02809
0
LINE
8
layer1
10
-26.8375966
20
6.02809
11
-27.1725297
21
6.245341
0
LINE
8
layer1
10
-27.1725297
20
6.245341
11
-27.5370052
21
6.5040925
0
LINE
8
layer1
10
-27.5370052
20
6.5040925
11
-27.9234354
21
6.803494
0
LINE
8
layer1
10
-27.9234354
20
6.803494
11
-28.3346511
21
7.150584
0
LINE
8
layer1
10
-28.3346511
20
7.150584
11
-28.7627722
21
7.5438104
0
LINE
8
layer1
10
-28.7627722
20
7.5438104
11
-29.2068161
21
7.9873055
0
LINE
8
layer1
10
-29.2068161
20
7.9873055
11
-29.6626603
21
8.4823935
0
LINE
8
layer1
10
-29.6626603
20
8.4823935
11
-30.127251
21
9.0314198
0
LINE
8
layer1
10
-30.127251
20
9.0314198
11
-30.5961396
21
9.6350824
0
LINE
8
layer1
10
-30.5961396
20
9.6350824
11
-31.0661396
21
10.2955003
0
LINE
8
layer1
10
-31.0661396
20
10.2955003
11
-31.4983008
21
10.9580225
0
ARC
8
layer1
10
0.0000182
20
-0.0000066
40
33.35
50
159.1824029
51
160.8175973
0
LINE
8
layer1
10
-31.1727794
20
11.8523852
11
-30.4158636
21
12.0821188
0
LINE
8
layer1
10
-30.4158636
20
12.0821188
11
-29.6313143
21
12.2859181
0
LINE
8
layer1
10
-29.6313143
20
12.2859181
11
-28.884098
21
12.4469547
0
LINE
8
layer1
10
-28.884098
20
12.4469547
11
-28.1752935
21
12.5689001
0
LINE
8
layer1
10
-28.1752935
20
12.5689001
11
-27.5078602
21
12.6551485
0
LINE
8
layer1
10
-27.5078602
20
12.6551485
11
-26.8826297
21
12.7094596
0
LINE
8
layer1
10
-26.8826297
20
12.7094596
11
-26.3019088
21
12.7354976
0
LINE
8
layer1
10
-26.3019088
20
12.7354976
11
-25.7637942
21
12.7370595
0
LINE
8
layer1
10
-25.7637942
20
12.7370595
11
-25.2753199
21
12.7180218
0
LINE
8
layer1
10
-25.2753199
20
12.7180218
11
-24.8297932
21
12.6819566
0
LINE
8
layer1
10
-24.8297932
20
12.6819566
11
-24.4335733
21
12.6330897
0
LINE
8
layer1
10
-24.4335733
20
12.6330897
11
-24.1143188
21
12.5822746
0
LINE
8
layer1
10
-24.1143188
20
12.5822746
11
-23.8651695
21
12.5668539
0
LINE
8
layer1
10
-23.8651695
20
12.5668539
11
-23.7562764
21
12.5748023
0
LINE
8
layer1
10
-23.7562764
20
12.5748023
11
-23.6583551
21
12.592607
0
LINE
8
layer1
10
-23.6583551
20
12.592607
11
-23.5717475
21
12.6197958
0
LINE
8
layer1
10
-23.5717475
20
12.6197958
11
-23.4968128
21
12.6559064
0
LINE
8
layer1
10
-23.4968128
20
12.6559064
11
-23.4338845
21
12.7004614
0
LINE
8
layer1
10
-23.4338845
20
12.7004614
11
-23.3832611
21
12.7529637
0
LINE
8
layer1
10
-23.3832611
20
12.7529637
11
-23.302152
21
12.8907489
0
LINE
8
layer1
10
-23.302152
20
12.8907489
11
-23.0622565
21
13.315
0
LINE
8
layer1
10
-23.0622565
20
13.315
11
-22.814792
21
13.7348811
0
LINE
8
layer1
10
-22.814792
20
13.7348811
11
-22.7360211
21
13.8740163
0
LINE
8
layer1
10
-22.7360211
20
13.8740163
11
-22.7158645
21
13.9441086
0
LINE
8
layer1
10
-22.7158645
20
13.9441086
11
-22.7087428
21
14.0208836
0
LINE
8
layer1
10
-22.7087428
20
14.0208836
11
-22.7149375
21
14.1038342
0
LINE
8
layer1
10
-22.7149375
20
14.1038342
11
-22.7346951
21
14.192433
0
LINE
8
layer1
10
-22.7346951
20
14.192433
11
-22.7682364
21
14.2861377
0
LINE
8
layer1
10
-22.7682364
20
14.2861377
11
-22.8157995
21
14.3844161
0
LINE
8
layer1
10
-22.8157995
20
14.3844161
11
-22.9537288
21
14.5924754
0
LINE
8
layer1
10
-22.9537288
20
14.5924754
11
-23.1573633
21
14.8435503
0
LINE
8
layer1
10
-23.1573633
20
14.8435503
11
-23.3977932
21
15.1622534
0
LINE
8
layer1
10
-23.3977932
20
15.1622534
11
-23.6517899
21
15.5300582
0
LINE
8
layer1
10
-23.6517899
20
15.5300582
11
-23.9125142
21
15.9435705
0
LINE
8
layer1
10
-23.9125142
20
15.9435705
11
-24.1802188
21
16.4103724
0
LINE
8
layer1
10
-24.1802188
20
16.4103724
11
-24.4480297
21
16.9263104
0
LINE
8
layer1
10
-24.4480297
20
16.9263104
11
-24.7136102
21
17.4949315
0
LINE
8
layer1
10
-24.7136102
20
17.4949315
11
-24.9726335
21
18.1160699
0
LINE
8
layer1
10
-24.9726335
20
18.1160699
11
-25.221428
21
18.7908853
0
LINE
8
layer1
10
-25.221428
20
18.7908853
11
-25.4555743
21
19.5185119
0
LINE
8
layer1
10
-25.4555743
20
19.5185119
11
-25.6713536
21
20.2998512
0
LINE
8
layer1
10
-25.6713536
20
20.2998512
11
-25.8508564
21
21.0702263
0
ARC
8
layer1
10
0.0000158
20
-0.0000112
40
33.35
50
139.1824054
51
140.8175999
0
LINE
8
layer1
10
-25.2390763
20
21.7993174
11
-24.4492346
21
21.7563159
0
LINE
8
layer1
10
-24.4492346
20
21.7563159
11
-23.642296
21
21.6794929
0
LINE
8
layer1
10
-23.642296
20
21.6794929
11
-22.8850645
21
21.5752549
0
LINE
8
layer1
10
-22.8850645
20
21.5752549
11
-22.1772984
21
21.4474206
0
LINE
8
layer1
10
-22.1772984
20
21.4474206
11
-21.5206175
21
21.300192
0
LINE
8
layer1
10
-21.5206175
20
21.300192
11
-20.9145176
21
21.1373862
0
LINE
8
layer1
10
-20.9145176
20
21.1373862
11
-20.3599129
21
20.9632357
0
LINE
8
layer1
10
-20.3599129
20
20.9632357
11
-19.8537164
21
20.7806574
0
LINE
8
layer1
10
-19.8537164
20
20.7806574
11
-19.401212
21
20.5956997
0
LINE
8
layer1
10
-19.401212
20
20.5956997
11
-18.9948888
21
20.4094305
0
LINE
8
layer1
10
-18.9948888
20
20.4094305
11
-18.6392773
21
20.2279954
0
LINE
8
layer1
10
-18.6392773
20
20.2279954
11
-18.3566561
21
20.0710534
0
LINE
8
layer1
10
-18.3566561
20
20.0710534
11
-18.1278065
21
19.9713486
0
LINE
8
layer1
10
-18.1278065
20
19.9713486
11
-18.022762
21
19.941574
0
LINE
8
layer1
10
-18.022762
20
19.941574
11
-17.9246564
21
19.9248138
0
LINE
8
layer1
10
-17.9246564
20
19.9248138
11
-17.8339728
21
19.9207414
0
LINE
8
layer1
10
-17.8339728
20
19.9207414
11
-17.7512067
21
19.9290451
0
LINE
8
layer1
10
-17.7512067
20
19.9290451
11
-17.6768347
21
19.9493904
0
LINE
8
layer1
10
-17.6768347
20
19.9493904
11
-17.6113074
21
19.9814122
0
LINE
8
layer1
10
-17.6113074
20
19.9814122
11
-17.4879645
21
20.0831469
0
LINE
8
layer1
10
-17.4879645
20
20.0831469
11
-17.117434
21
20.3997635
0
LINE
8
layer1
10
-17.117434
20
20.3997635
11
-16.7412856
21
20.7096849
0
LINE
8
layer1
10
-16.7412856
20
20.7096849
11
-16.6196782
21
20.8134879
0
LINE
8
layer1
10
-16.6196782
20
20.8134879
11
-16.5767642
21
20.8724591
0
LINE
8
layer1
10
-16.5767642
20
20.8724591
11
-16.5438134
21
20.9421684
0
LINE
8
layer1
10
-16.5438134
20
20.9421684
11
-16.5212637
21
21.0222351
0
LINE
8
layer1
10
-16.5212637
20
21.0222351
11
-16.5095272
21
21.1122483
0
LINE
8
layer1
10
-16.5095272
20
21.1122483
11
-16.5089969
21
21.2117737
0
LINE
8
layer1
10
-16.5089969
20
21.2117737
11
-16.5200784
21
21.3203927
0
LINE
8
layer1
10
-16.5200784
20
21.3203927
11
-16.5785291
21
21.5630791
0
LINE
8
layer1
10
-16.5785291
20
21.5630791
11
-16.6840102
21
21.8686594
0
LINE
8
layer1
10
-16.6840102
20
21.8686594
11
-16.8009375
21
22.2503742
0
LINE
8
layer1
10
-16.8009375
20
22.2503742
11
-16.9138197
21
22.6828697
0
LINE
8
layer1
10
-16.9138197
20
22.6828697
11
-17.0173908
21
23.1606171
0
LINE
8
layer1
10
-17.0173908
20
23.1606171
11
-17.1092953
21
23.6908278
0
LINE
8
layer1
10
-17.1092953
20
23.6908278
11
-17.184494
21
24.2672476
0
LINE
8
layer1
10
-17.184494
20
24.2672476
11
-17.2395782
21
24.8924105
0
LINE
8
layer1
10
-17.2395782
20
24.8924105
11
-17.2705386
21
25.5646809
0
LINE
8
layer1
10
-17.2705386
20
25.5646809
11
-17.2735285
21
26.2838926
0
LINE
8
layer1
10
-17.2735285
20
26.2838926
11
-17.2446911
21
27.0477208
0
LINE
8
layer1
10
-17.2446911
20
27.0477208
11
-17.1802236
21
27.8557404
0
LINE
8
layer1
10
-17.1802236
20
27.8557404
11
-17.0854172
21
28.6410498
0
ARC
8
layer1
10
0.0000112
20
-0.0000157
40
33.35
50
119.1824059
51
120.8176003
0
LINE
8
layer1
10
-16.2611681
20
29.1169302
11
-15.5336671
21
28.8063803
0
LINE
8
layer1
10
-15.5336671
20
28.8063803
11
-14.8016678
21
28.458201
0
LINE
8
layer1
10
-14.8016678
20
28.458201
11
-14.1257545
21
28.1012608
0
LINE
8
layer1
10
-14.1257545
20
28.1012608
11
-13.5043938
21
27.7390656
0
LINE
8
layer1
10
-13.5043938
20
27.7390656
11
-12.9376708
21
27.3761179
0
LINE
8
layer1
10
-12.9376708
20
27.3761179
11
-12.423806
21
27.0158321
0
LINE
8
layer1
10
-12.423806
20
27.0158321
11
-11.9622111
21
26.6624982
0
LINE
8
layer1
10
-11.9622111
20
26.6624982
11
-11.5489873
21
26.3178013
0
LINE
8
layer1
10
-11.5489873
20
26.3178013
11
-11.1870315
21
25.9892324
0
LINE
8
layer1
10
-11.1870315
20
25.9892324
11
-10.8689205
21
25.6752258
0
LINE
8
layer1
10
-10.8689205
20
25.6752258
11
-10.5968095
21
25.3831063
0
LINE
8
layer1
10
-10.5968095
20
25.3831063
11
-10.3849097
21
25.1389669
0
LINE
8
layer1
10
-10.3849097
20
25.1389669
11
-10.2039625
21
24.9670039
0
LINE
8
layer1
10
-10.2039625
20
24.9670039
11
-10.1154364
21
24.9030975
0
LINE
8
layer1
10
-10.1154364
20
24.9030975
11
-10.0289797
21
24.8537941
0
LINE
8
layer1
10
-10.0289797
20
24.8537941
11
-9.9451578
21
24.8189516
0
LINE
8
layer1
10
-9.9451578
20
24.8189516
11
-9.8645431
21
24.7984469
0
LINE
8
layer1
10
-9.8645431
20
24.7984469
11
-9.7876977
21
24.7921285
0
LINE
8
layer1
10
-9.7876977
20
24.7921285
11
-9.7151702
21
24.7998075
0
LINE
8
layer1
10
-9.7151702
20
24.7998075
11
-9.5644704
21
24.8532211
0
LINE
8
layer1
10
-9.5644704
20
24.8532211
11
-9.1079964
21
25.0240145
0
LINE
8
layer1
10
-9.1079964
20
25.0240145
11
-8.6485332
21
25.186595
0
LINE
8
layer1
10
-8.6485332
20
25.186595
11
-8.4987569
21
25.2425457
0
LINE
8
layer1
10
-8.4987569
20
25.2425457
11
-8.4382616
21
25.2832831
0
LINE
8
layer1
10
-8.4382616
20
25.2832831
11
-8.383456
21
25.3375185
0
LINE
8
layer1
10
-8.383456
20
25.3375185
11
-8.3348817
21
25.4050442
0
LINE
8
layer1
10
-8.3348817
20
25.4050442
11
-8.2930667
21
25.4856148
0
LINE
8
layer1
10
-8.2930667
20
25.4856148
11
-8.2585287
21
25.5789567
0
LINE
8
layer1
10
-8.2585287
20
25.5789567
11
-8.231792
21
25.6848152
0
LINE
8
layer1
10
-8.231792
20
25.6848152
11
-8.203714
21
25.9328572
0
LINE
8
layer1
10
-8.203714
20
25.9328572
11
-8.1983192
21
26.2560854
0
LINE
8
layer1
10
-8.1983192
20
26.2560854
11
-8.1776409
21
26.6547715
0
LINE
8
layer1
10
-8.1776409
20
26.6547715
11
-8.1357932
21
27.0997923
0
LINE
8
layer1
10
-8.1357932
20
27.0997923
11
-8.069719
21
27.5841514
0
LINE
8
layer1
10
-8.069719
20
27.5841514
11
-7.9747382
21
28.1138197
0
LINE
8
layer1
10
-7.9747382
20
28.1138197
11
-7.8482546
21
28.6811966
0
LINE
8
layer1
10
-7.8482546
20
28.6811966
11
-7.6861986
21
29.2874975
0
LINE
8
layer1
10
-7.6861986
20
29.2874975
11
-7.4853619
21
29.9298141
0
LINE
8
layer1
10
-7.4853619
20
29.9298141
11
-7.2421865
21
30.6066747
0
LINE
8
layer1
10
-7.2421865
20
30.6066747
11
-6.9538436
21
31.3145754
0
LINE
8
layer1
10
-6.9538436
20
31.3145754
11
-6.616905
21
32.0518162
0
LINE
8
layer1
10
-6.616905
20
32.0518162
11
-6.2592245
21
32.75734
0
ARC
8
layer1
10
0.0000019
20
-0.0000192
40
33.35
50
99.1824003
51
100.8175946
0
LINE
8
layer1
10
-5.321923
20
32.9226115
11
-4.74451
21
32.38197
0
LINE
8
layer1
10
-4.74451
20
32.38197
11
-4.17574
21
31.80443
0
LINE
8
layer1
10
-4.17574
20
31.80443
11
-3.66267
21
31.23784
0
LINE
8
layer1
10
-3.66267
20
31.23784
11
-3.20266
21
30.68497
0
LINE
8
layer1
10
-3.20266
20
30.68497
11
-2.79425
21
30.15008
0
LINE
8
layer1
10
-2.79425
20
30.15008
11
-2.4346
21
29.63577
0
LINE
8
layer1
10
-2.4346
20
29.63577
11
-2.12169
21
29.14587
0
LINE
8
layer1
10
-2.12169
20
29.14587
11
-1.85128
21
28.68063
0
LINE
8
layer1
10
-1.85128
20
28.68063
11
-1.62353
21
28.24808
0
LINE
8
layer1
10
-1.62353
20
28.24808
11
-1.432
21
27.84421
0
LINE
8
layer1
10
-1.432
20
27.84421
11
-1.27621
21
27.47664
0
LINE
8
layer1
10
-1.27621
20
27.47664
11
-1.16059
21
27.17475
0
LINE
8
layer1
10
-1.16059
20
27.17475
11
-1.04937
21
26.95127
0
LINE
8
layer1
10
-1.04937
20
26.95127
11
-0.98804
21
26.86094
0
LINE
8
layer1
10
-0.98804
20
26.86094
11
-0.92366
21
26.78504
0
LINE
8
layer1
10
-0.92366
20
26.78504
11
-0.85681
21
26.72363
0
LINE
8
layer1
10
-0.85681
20
26.72363
11
-0.78807
21
26.67679
0
LINE
8
layer1
10
-0.78807
20
26.67679
11
-0.71802
21
26.64457
0
LINE
8
layer1
10
-0.71802
20
26.64457
11
-0.64724
21
26.62698
0
LINE
8
layer1
10
-0.64724
20
26.62698
11
-0.48736
21
26.62563
0
LINE
8
layer1
10
-0.48736
20
26.62563
11
0
21
26.63
0
LINE
8
layer1
10
0
20
26.63
11
0.48736
21
26.62563
0
LINE
8
layer1
10
0.48736
20
26.62563
11
0.64724
21
26.62698
0
LINE
8
layer1
10
0.64724
20
26.62698
11
0.71802
21
26.64457
0
LINE
8
layer1
10
0.71802
20
26.64457
11
0.78807
21
26.67679
0
LINE
8
layer1
10
0.78807
20
26.67679
11
0.85681
21
26.72363
0
LINE
8
layer1
10
0.85681
20
26.72363
11
0.92366
21
26.78504
0
LINE
8
layer1
10
0.92366
20
26.78504
11
0.98804
21
26.86094
0
LINE
8
layer1
10
0.98804
20
26.86094
11
1.04937
21
26.95127
0
LINE
8
layer1
10
1.04937
20
26.95127
11
1.16059
21
27.17475
0
LINE
8
layer1
10
1.16059
20
27.17475
11
1.27621
21
27.47664
0
LINE
8
layer1
10
1.27621
20
27.47664
11
1.432
21
27.84421
0
LINE
8
layer1
10
1.432
20
27.84421
11
1.62353
21
28.24808
0
LINE
8
layer1
10
1.62353
20
28.24808
11
1.85128
21
28.68063
0
LINE
8
layer1
10
1.85128
20
28.68063
11
2.12169
21
29.14587
0
LINE
8
layer1
10
2.12169
20
29.14587
11
2.4346
21
29.63577
0
LINE
8
layer1
10
2.4346
20
29.63577
11
2.79425
21
30.15008
0
LINE
8
layer1
10
2.79425
20
30.15008
11
3.20266
21
30.68497
0
LINE
8
layer1
10
3.20266
20
30.68497
11
3.66267
21
31.23784
0
LINE
8
layer1
10
3.66267
20
31.23784
11
4.17574
21
31.80443
0
LINE
8
layer1
10
4.17574
20
31.80443
11
4.74451
21
32.38197
0
LINE
8
layer1
10
4.74451
20
32.38197
11
5.321923
21
32.9226115
0
ARC
8
layer1
10
-0.0000019
20
-0.0000193
40
33.35
50
79.1824054
51
80.8175998
0
LINE
8
layer1
10
6.2592245
20
32.75734
11
6.616905
21
32.0518162
0
LINE
8
layer1
10
6.616905
20
32.0518162
11
6.9538436
21
31.3145754
0
LINE
8
layer1
10
6.9538436
20
31.3145754
11
7.2421865
21
30.6066747
0
LINE
8
layer1
10
7.2421865
20
30.6066747
11
7.4853619
21
29.9298141
0
LINE
8
layer1
10
7.4853619
20
29.9298141
11
7.6861986
21
29.2874975
0
LINE
8
layer1
10
7.6861986
20
29.2874975
11
7.8482546
21
28.6811966
0
LINE
8
layer1
10
7.8482546
20
28.6811966
11
7.9747382
21
28.1138197
0
LINE
8
layer1
10
7.9747382
20
28.1138197
11
8.069719
21
27.5841514
0
LINE
8
layer1
10
8.069719
20
27.5841514
11
8.1357932
21
27.0997923
0
LINE
8
layer1
10
8.1357932
20
27.0997923
11
8.1776409
21
26.6547715
0
LINE
8
layer1
10
8.1776409
20
26.6547715
11
8.1983192
21
26.2560854
0
LINE
8
layer1
10
8.1983192
20
26.2560854
11
8.203714
21
25.9328572
0
LINE
8
layer1
10
8.203714
20
25.9328572
11
8.231792
21
25.6848152
0
LINE
8
layer1
10
8.231792
20
25.6848152
11
8.2585287
21
25.5789567
0
LINE
8
layer1
10
8.2585287
20
25.5789567
11
8.2930667
21
25.4856148
0
LINE
8
layer1
10
8.2930667
20
25.4856148
11
8.3348817
21
25.4050442
0
LINE
8
layer1
10
8.3348817
20
25.4050442
11
8.383456
21
25.3375185
0
LINE
8
layer1
10
8.383456
20
25.3375185
11
8.4382616
21
25.2832831
0
LINE
8
layer1
10
8.4382616
20
25.2832831
11
8.4987569
21
25.2425457
0
LINE
8
layer1
10
8.4987569
20
25.2425457
11
8.6485332
21
25.186595
0
LINE
8
layer1
10
8.6485332
20
25.186595
11
9.1079964
21
25.0240145
0
LINE
8
layer1
10
9.1079964
20
25.0240145
11
9.5644704
21
24.8532211
0
LINE
8
layer1
10
9.5644704
20
24.8532211
11
9.7151702
21
24.7998075
0
LINE
8
layer1
10
9.7151702
20
24.7998075
11
9.7876977
21
24.7921285
0
LINE
8
layer1
10
9.7876977
20
24.7921285
11
9.8645431
21
24.7984469
0
LINE
8
layer1
10
9.8645431
20
24.7984469
11
9.9451578
21
24.8189516
0
LINE
8
layer1
10
9.9451578
20
24.8189516
11
10.0289797
21
24.8537941
0
LINE
8
layer1
10
10.0289797
20
24.8537941
11
10.1154364
21
24.9030975
0
LINE
8
layer1
10
10.1154364
20
24.9030975
11
10.2039625
21
24.9670039
0
LINE
8
layer1
10
10.2039625
20
24.9670039
11
10.3849097
21
25.1389669
0
LINE
8
layer1
10
10.3849097
20
25.1389669
11
10.5968095
21
25.3831063
0
LINE
8
layer1
10
10.5968095
20
25.3831063
11
10.8689205
21
25.6752258
0
LINE
8
layer1
10
10.8689205
20
25.6752258
11
11.1870315
21
25.9892324
0
LINE
8
layer1
10
11.1870315
20
25.9892324
11
11.5489873
21
26.3178013
0
LINE
8
layer1
10
11.5489873
20
26.3178013
11
11.9622111
21
26.6624982
0
LINE
8
layer1
10
11.9622111
20
26.6624982
11
12.423806
21
27.0158321
0
LINE
8
layer1
10
12.423806
20
27.0158321
11
12.9376708
21
27.3761179
0
LINE
8
layer1
10
12.9376708
20
27.3761179
11
13.5043938
21
27.7390656
0
LINE
8
layer1
10
13.5043938
20
27.7390656
11
14.1257545
21
28.1012608
0
LINE
8
layer1
10
14.1257545
20
28.1012608
11
14.8016678
21
28.458201
0
LINE
8
layer1
10
14.8016678
20
28.458201
11
15.5336671
21
28.8063803
0
LINE
8
layer1
10
15.5336671
20
28.8063803
11
16.2611681
21
29.1169302
0
ARC
8
layer1
10
-0.0000112
20
-0.0000158
40
33.35
50
59.1823997
51
60.8175941
0
LINE
8
layer1
10
17.0854172
20
28.6410498
11
17.1802236
21
27.8557404
0
LINE
8
layer1
10
17.1802236
20
27.8557404
11
17.2446911
21
27.0477208
0
LINE
8
layer1
10
17.2446911
20
27.0477208
11
17.2735285
21
26.2838926
0
LINE
8
layer1
10
17.2735285
20
26.2838926
11
17.2705386
21
25.5646809
0
LINE
8
layer1
10
17.2705386
20
25.5646809
11
17.2395782
21
24.8924105
0
LINE
8
layer1
10
17.2395782
20
24.8924105
11
17.184494
21
24.2672476
0
LINE
8
layer1
10
17.184494
20
24.2672476
11
17.1092953
21
23.6908278
0
LINE
8
layer1
10
17.1092953
20
23.6908278
11
17.0173908
21
23.1606171
0
LINE
8
layer1
10
17.0173908
20
23.1606171
11
16.9138197
21
22.6828697
0
LINE
8
layer1
10
16.9138197
20
22.6828697
11
16.8009375
21
22.2503742
0
LINE
8
layer1
10
16.8009375
20
22.2503742
11
16.6840102
21
21.8686594
0
LINE
8
layer1
10
16.6840102
20
21.8686594
11
16.5785291
21
21.5630791
0
LINE
8
layer1
10
16.5785291
20
21.5630791
11
16.5200784
21
21.3203927
0
LINE
8
layer1
10
16.5200784
20
21.3203927
11
16.5089969
21
21.2117737
0
LINE
8
layer1
10
16.5089969
20
21.2117737
11
16.5095272
21
21.1122483
0
LINE
8
layer1
10
16.5095272
20
21.1122483
11
16.5212637
21
21.0222351
0
LINE
8
layer1
10
16.5212637
20
21.0222351
11
16.5438134
21
20.9421684
0
LINE
8
layer1
10
16.5438134
20
20.9421684
11
16.5767642
21
20.8724591
0
LINE
8
layer1
10
16.5767642
20
20.8724591
11
16.6196782
21
20.8134879
0
LINE
8
layer1
10
16.6196782
20
20.8134879
11
16.7412856
21
20.7096849
0
LINE
8
layer1
10
16.7412856
20
20.7096849
11
17.117434
21
20.3997635
0
LINE
8
layer1
10
17.117434
20
20.3997635
11
17.4879645
21
20.0831469
0
LINE
8
layer1
10
17.4879645
20
20.0831469
11
17.6113074
21
19.9814122
0
LINE
8
layer1
10
17.6113074
20
19.9814122
11
17.6768347
21
19.9493904
0
LINE
8
layer1
10
17.6768347
20
19.9493904
11
17.7512067
21
19.9290451
0
LINE
8
layer1
10
17.7512067
20
19.9290451
11
17.8339728
21
19.9207414
0
LINE
8
layer1
10
17.8339728
20
19.9207414
11
17.9246564
21
19.9248138
0
LINE
8
layer1
10
17.9246564
20
19.9248138
11
18.022762
21
19.941574
0
LINE
8
layer1
10
18.022762
20
19.941574
11
18.1278065
21
19.9713486
0
LINE
8
layer1
10
18.1278065
20
19.9713486
11
18.3566561
21
20.0710534
0
LINE
8
layer1
10
18.3566561
20
20.0710534
11
18.6392773
21
20.2279954
0
LINE
8
layer1
10
18.6392773
20
20.2279954
11
18.9948888
21
20.4094305
0
LINE
8
layer1
10
18.9948888
20
20.4094305
11
19.401212
21
20.5956997
0
LINE
8
layer1
10
19.401212
20
20.5956997
11
19.8537164
21
20.7806574
0
LINE
8
layer1
10
19.8537164
20
20.7806574
11
20.3599129
21
20.9632357
0
LINE
8
layer1
10
20.3599129
20
20.9632357
11
20.9145176
21
21.1373862
0
LINE
8
layer1
10
20.9145176
20
21.1373862
11
21.5206175
21
21.300192
0
LINE
8
layer1
10
21.5206175
20
21.300192
11
22.1772984
21
21.4474206
0
LINE
8
layer1
10
22.1772984
20
21.4474206
11
22.8850645
21
21.5752549
0
LINE
8
layer1
10
22.8850645
20
21.5752549
11
23.642296
21
21.6794929
0
LINE
8
layer1
10
23.642296
20
21.6794929
11
24.4492346
21
21.7563159
0
LINE
8
layer1
10
24.4492346
20
21.7563159
11
25.2390763
21
21.7993174
0
ARC
8
layer1
10
-0.0000158
20
-0.0000113
40
33.35
50
39.1824001
51
40.8175946
0
LINE
8
layer1
10
25.8508564
20
21.0702263
11
25.6713536
21
20.2998512
0
LINE
8
layer1
10
25.6713536
20
20.2998512
11
25.4555743
21
19.5185119
0
LINE
8
layer1
10
25.4555743
20
19.5185119
11
25.221428
21
18.7908853
0
LINE
8
layer1
10
25.221428
20
18.7908853
11
24.9726335
21
18.1160699
0
LINE
8
layer1
10
24.9726335
20
18.1160699
11
24.7136102
21
17.4949315
0
LINE
8
layer1
10
24.7136102
20
17.4949315
11
24.4480297
21
16.9263104
0
LINE
8
layer1
10
24.4480297
20
16.9263104
11
24.1802188
21
16.4103724
0
LINE
8
layer1
10
24.1802188
20
16.4103724
11
23.9125142
21
15.9435705
0
LINE
8
layer1
10
23.9125142
20
15.9435705
11
23.6517899
21
15.5300582
0
LINE
8
layer1
10
23.6517899
20
15.5300582
11
23.3977932
21
15.1622534
0
LINE
8
layer1
10
23.3977932
20
15.1622534
11
23.1573633
21
14.8435503
0
LINE
8
layer1
10
23.1573633
20
14.8435503
11
22.9537288
21
14.5924754
0
LINE
8
layer1
10
22.9537288
20
14.5924754
11
22.8157995
21
14.3844161
0
LINE
8
layer1
10
22.8157995
20
14.3844161
11
22.7682364
21
14.2861377
0
LINE
8
layer1
10
22.7682364
20
14.2861377
11
22.7346951
21
14.192433
0
LINE
8
layer1
10
22.7346951
20
14.192433
11
22.7149375
21
14.1038342
0
LINE
8
layer1
10
22.7149375
20
14.1038342
11
22.7087428
21
14.0208836
0
LINE
8
layer1
10
22.7087428
20
14.0208836
11
22.7158645
21
13.9441086
0
LINE
8
layer1
10
22.7158645
20
13.9441086
11
22.7360211
21
13.8740163
0
LINE
8
layer1
10
22.7360211
20
13.8740163
11
22.814792
21
13.7348811
0
LINE
8
layer1
10
22.814792
20
13.7348811
11
23.0622565
21
13.315
0
LINE
8
layer1
10
23.0622565
20
13.315
11
23.302152
21
12.8907489
0
LINE
8
layer1
10
23.302152
20
12.8907489
11
23.3832611
21
12.7529637
0
LINE
8
layer1
10
23.3832611
20
12.7529637
11
23.4338845
21
12.7004614
0
LINE
8
layer1
10
23.4338845
20
12.7004614
11
23.4968128
21
12.6559064
0
LINE
8
layer1
10
23.4968128
20
12.6559064
11
23.5717475
21
12.6197958
0
LINE
8
layer1
10
23.5717475
20
12.6197958
11
23.6583551
21
12.592607
0
LINE
8
layer1
10
23.6583551
20
12.592607
11
23.7562764
21
12.5748023
0
LINE
8
layer1
10
23.7562764
20
12.5748023
11
23.8651695
21
12.5668539
0
LINE
8
layer1
10
23.8651695
20
12.5668539
11
24.1143188
21
12.5822746
0
LINE
8
layer1
10
24.1143188
20
12.5822746
11
24.4335733
21
12.6330897
0
LINE
8
layer1
10
24.4335733
20
12.6330897
11
24.8297932
21
12.6819566
0
LINE
8
layer1
10
24.8297932
20
12.6819566
11
25.2753199
21
12.7180218
0
LINE
8
layer1
10
25.2753199
20
12.7180218
11
25.7637942
21
12.7370595
0
LINE
8
layer1
10
25.7637942
20
12.7370595
11
26.3019088
21
12.7354976
0
LINE
8
layer1
10
26.3019088
20
12.7354976
11
26.8826297
21
12.7094596
0
LINE
8
layer1
10
26.8826297
20
12.7094596
11
27.5078602
21
12.6551485
0
LINE
8
layer1
10
27.5078602
20
12.6551485
11
28.1752935
21
12.5689001
0
LINE
8
layer1
10
28.1752935
20
12.5689001
11
28.884098
21
12.4469547
0
LINE
8
layer1
10
28.884098
20
12.4469547
11
29.6313143
21
12.2859181
0
LINE
8
layer1
10
29.6313143
20
12.2859181
11
30.4158636
21
12.0821188
0
LINE
8
layer1
10
30.4158636
20
12.0821188
11
31.1727794
21
11.8523852
0
ARC
8
layer1
10
-0.0000182
20
-0.0000066
40
33.35
50
19.1824027
51
20.8175971
0
LINE
8
layer1
10
31.4983008
20
10.9580225
11
31.0661396
21
10.2955003
0
ENDSEC
0
EOF