<?xml version="1.0" encoding="UTF-8"?>
<svg viewBox="-38.01899999999999 -38.01899999999999 102.71799999999999 76.03799999999998" height="76.03799999999998mm" width="102.71799999999999mm" xmlns:svgjs="http://svgjs.com/svgjs" xmlns:xlink="http://www.w3.org/1999/xlink" version="1.1" xmlns="http://www.w3.org/2000/svg" id="SvgjsSvg1355">
  <defs id="SvgjsDefs1356">
  </defs>
  <defs id="SvgjsDefs1356">
  </defs>
  <g id="SvgjsG1357">
    <g transform="matrix(1,0,0,1,0,0)" id="SvgjsG1358">
      <g fill="none" stroke-width="0.04" stroke="blue" id="SvgjsG1359">
      </g>
      <g fill="none" stroke-width="0.1" stroke="black" id="SvgjsG1360">
        <circle cy="0" cx="0" r="2" id="SvgjsCircle1361">
        </circle>
        <path d="M31.066139598386204 -10.295500312009159  L30.596139602723152 -9.635082437798646 L30.127251048459534 -9.031419802976366 L29.66266028426024 -8.482393520526504 L29.206816117492494 -7.9873055123665235 L28.762772209138696 -7.543810409739805 L28.334651142211772 -7.150583973505725 L27.923435386923288 -6.803494030835932 L27.537005165821505 -6.504092545837571 L27.172529694081007 -6.2453410273887995 L26.837596557905044 -6.028089966881994 L26.560370147650037 -5.861803846122853 L26.359598461326986 -5.71346663308783 L26.281290619733703 -5.637382733706937 L26.217723180958274 -5.5608009138830905 L26.16885451752283 -5.484302781003699 L26.134662698104567 -5.408473415419721 L26.11509624714808 -5.333892688036787 L26.110064296787858 -5.261133523833421 L26.136497676966684 -5.103448035241979 L26.2254304627151 -4.624250971270354 L26.30575602870219 -4.1435362222259196 L26.334848389814145 -3.9863195837141783 L26.3644619762049 -3.9196693624011356 L26.40835653685252 -3.8562785235870596 L26.466421507736435 -3.7967165192869192 L26.538506932525948 -3.741545855588578 L26.62443331065777 -3.6913238291345722 L26.72404083772368 -3.646611209530988 L26.963438824686964 -3.5758877859859757 L27.28081963954567 -3.5144469619385736 L27.669858074919098 -3.424851622761836 L28.100851217596684 -3.306362683341751 L28.56637818362576 -3.157184236843051 L29.07150634636007 -2.971670450528782 L29.608299915834515 -2.7485844987727615 L30.177248958384133 -2.4837073846577993 L30.774932429633786 -2.1743847240023486 L31.399282990250207 -1.817368177525918 L32.04635888554497 -1.4104801846722506 L32.71389062923126 -0.9506398475212556 L33.346585291960665 -0.47588045508428856 A33.349999999999994 33.349999999999994 0 0 1 33.34658529196067 0.4758804550842921 L32.71389062923126 0.9506398475212601 L32.04635888554497 1.4104801846722541 L31.399282990250207 1.8173681775259216 L30.774932429633786 2.174384724002352 L30.177248958384133 2.483707384657803 L29.608299915834515 2.748584498772765 L29.07150634636007 2.9716704505287854 L28.56637818362576 3.1571842368430545 L28.100851217596684 3.306362683341754 L27.669858074919098 3.424851622761839 L27.28081963954567 3.514446961938577 L26.963438824686964 3.5758877859859783 L26.72404083772368 3.646611209530991 L26.62443331065777 3.691323829134576 L26.538506932525948 3.7415458555885817 L26.466421507736435 3.796716519286922 L26.40835653685252 3.8562785235870622 L26.3644619762049 3.9196693624011383 L26.334848389814145 3.986319583714181 L26.30575602870219 4.143536222225923 L26.2254304627151 4.624250971270357 L26.136497676966684 5.103448035241983 L26.110064296787858 5.261133523833424 L26.11509624714808 5.33389268803679 L26.134662698104567 5.408473415419723 L26.16885451752283 5.484302781003701 L26.217723180958274 5.560800913883094 L26.281290619733703 5.63738273370694 L26.359598461326986 5.713466633087832 L26.560370147650037 5.861803846122855 L26.837596557905044 6.028089966881997 L27.172529694081007 6.245341027388802 L27.537005165821505 6.504092545837573 L27.923435386923288 6.803494030835935 L28.334651142211772 7.150583973505729 L28.762772209138696 7.543810409739809 L29.206816117492494 7.987305512366527 L29.66266028426024 8.482393520526507 L30.127251048459534 9.03141980297637 L30.596139602723152 9.63508243779865 L31.066139598386204 10.295500312009164 L31.49830082871716 10.95802252895908 A33.349999999999994 33.349999999999994 0 0 1 31.172779425809537 11.85238523299697 L30.41586364458558 12.082118811490691 L29.631314332883914 12.285918080401164 L28.88409799935369 12.446954734320846 L28.175293534363387 12.568900080315727 L27.507860206133127 12.655148515475329 L26.882629680712753 12.709459551946402 L26.30190883539876 12.735497561044589 L25.76379417654209 12.737059490481942 L25.27531988813513 12.718021776193847 L24.829793208308708 12.68195662178068 L24.433573250639657 12.633089719436258 L24.114318841491176 12.582274576621815 L23.86516948425343 12.56685392203072 L23.75627640952958 12.57480226004482 L23.65835508138234 12.59260697554046 L23.571747461335942 12.619795773783451 L23.496812831422677 12.655906360039594 L23.433884492912746 12.700461439574696 L23.38326110606017 12.752963717654556 L23.302151971765067 12.890748859211612 L23.0622565027796 13.314999999999996 L22.814791971765064 13.734881140788382 L22.736021106060175 13.874016282345437 L22.715864492912743 13.944108560425299 L22.70874283142268 14.020883639960399 L22.71493746133594 14.103834226216541 L22.73469508138234 14.19243302445953 L22.76823640952958 14.286137739955173 L22.815799484253432 14.384416077969274 L22.953728841491177 14.592475423378177 L23.15736325063966 14.843550280563734 L23.397793208308705 15.162253378219313 L23.651789888135127 15.530058223806147 L23.912514176542086 15.943570509518052 L24.180218835398758 16.410372438955402 L24.448029680712757 16.92631044805359 L24.71361020613313 17.494931484524663 L24.972633534363386 18.116069919684268 L25.22142799935369 18.790885265679144 L25.455574332883916 19.51851191959883 L25.671353644585583 20.299851188509304 L25.85085642011969 21.070226272821454 A33.349999999999994 33.349999999999994 0 0 1 25.239076299679343 21.79931742923396 L24.449234614063652 21.75631593371157 L23.642295960052504 21.679492934794048 L22.88506450584915 21.57525485266914 L22.177298415802596 21.447420589733852 L21.52061754024314 21.300191965226023 L20.914517560737515 21.137386211509266 L20.35991294405572 20.96323570977229 L19.853716358661355 20.78065739059096 L19.401211956171093 20.595699744825954 L18.99488883205641 20.409430486466754 L18.639277326570426 20.227995412222576 L18.35665611656874 20.071053358721347 L18.1278064785923 19.971348584522456 L18.022761968112825 19.94157395407759 L17.924656447289617 19.92481384715648 L17.833972789156267 19.920741409612088 L17.75120672249855 19.92904510818625 L17.676834692473964 19.9493904282875 L17.611307432735618 19.981412213546648 L17.48796448389668 20.083146936585123 L17.117434045952542 20.399763520258382 L16.741285644299747 20.709684875498787 L16.619678222006964 20.81348791853368 L16.57676423037739 20.87245914730176 L16.543813433921002 20.942168371317592 L16.521263710538722 21.022235113323138 L16.509527226627068 21.11224825428262 L16.508996864954277 21.21177369382697 L16.520078364040774 21.320392652475984 L16.578529076089833 21.56307910257355 L16.68401016906468 21.868659362938693 L16.80093754696366 22.250374200609002 L16.913819686697185 22.68286968073473 L17.01739084534675 23.16061708271195 L17.109295275013512 23.69082779696396 L17.18449395830259 24.267247640594967 L17.239578169872733 24.892410521959246 L17.270538623403745 25.564680921811238 L17.273528504891978 26.283892641410333 L17.244691114233223 27.04772080133899 L17.180223572418807 27.855740417779337 L17.085417209247833 28.641049764760318 A33.349999999999994 33.349999999999994 0 0 1 16.261168082712842 29.116930219844605 L15.533667056812458 28.806380265300593 L14.801667771311749 28.45820098601124 L14.12575448535823 28.10126081893625 L13.504393806230043 27.73906564581359 L12.937670788511403 27.376117906617047 L12.423805957531927 27.015832139367724 L11.962211071346564 26.662498247492742 L11.548987338279012 26.317801319555002 L11.187031530899503 25.989232364076482 L10.86892052795544 25.67522582337084 L10.596809470480988 25.383106324877268 L10.384909748597135 25.138966888559523 L10.203962473682905 24.96700386200697 L10.115436445703498 24.90309752296154 L10.028979705898882 24.853794109871195 L9.945157797197716 24.81895163261006 L9.864543102931519 24.79844689490465 L9.787697745827511 24.792128509702895 L9.715170167807187 24.79980750224786 L9.564470384402446 24.853221097724706 L9.107996416762559 25.02401449152874 L8.648533193070007 25.186594971827105 L8.498756864052243 25.24254573738007 L8.438261554674117 25.283283116324288 L8.383455975606017 25.337518523605972 L8.334881728366568 25.40504419061579 L8.293066733668658 25.48561476103957 L8.258528651620882 25.57895668778453 L8.23179198273469 25.684815217610286 L8.2037140310813 25.932857204844197 L8.198319231334619 26.25608537910457 L8.177640862024598 26.654771513855554 L8.135793209650412 27.099792290663526 L8.06971902826194 27.58415142142689 L7.9747381981560554 28.113819683278017 L7.848254648401182 28.68119662124907 L7.686198577249355 29.287497477592545 L7.48536186845765 29.92981411026036 L7.242186542610385 30.606674655645502 L6.953843642670652 31.314575372592696 L6.616904984322557 32.05181624572073 L6.25922452903782 32.757339958193036 A33.349999999999994 33.349999999999994 0 0 1 5.321923005689847 32.92261150581843 L4.74451 32.38197 L4.17574 31.80443 L3.66267 31.23784 L3.20266 30.68497 L2.79425 30.15008 L2.4346 29.63577 L2.12169 29.14587 L1.85128 28.68063 L1.62353 28.24808 L1.432 27.84421 L1.27621 27.47664 L1.16059 27.17475 L1.04937 26.95127 L0.98804 26.86094 L0.92366 26.78504 L0.85681 26.72363 L0.78807 26.67679 L0.71802 26.64457 L0.64724 26.62698 L0.48736 26.62563 L0 26.63 L-0.48736 26.62563 L-0.64724 26.62698 L-0.71802 26.64457 L-0.78807 26.67679 L-0.85681 26.72363 L-0.92366 26.78504 L-0.98804 26.86094 L-1.04937 26.95127 L-1.16059 27.17475 L-1.27621 27.47664 L-1.432 27.84421 L-1.62353 28.24808 L-1.85128 28.68063 L-2.12169 29.14587 L-2.4346 29.63577 L-2.79425 30.15008 L-3.20266 30.68497 L-3.66267 31.23784 L-4.17574 31.80443 L-4.74451 32.38197 L-5.321923005689847 32.92261150581843 A33.349999999999994 33.349999999999994 0 0 1 -6.259224529037812 32.757339958193036 L-6.61690498432255 32.05181624572074 L-6.953843642670644 31.3145753725927 L-7.242186542610378 30.606674655645506 L-7.485361868457642 29.929814110260363 L-7.686198577249347 29.28749747759255 L-7.848254648401175 28.681196621249075 L-7.974738198156048 28.11381968327802 L-8.069719028261932 27.584151421426892 L-8.135793209650407 27.099792290663526 L-8.177640862024592 26.654771513855557 L-8.198319231334613 26.256085379104572 L-8.203714031081294 25.9328572048442 L-8.231791982734684 25.68481521761029 L-8.258528651620875 25.578956687784533 L-8.293066733668653 25.485614761039574 L-8.334881728366561 25.40504419061579 L-8.38345597560601 25.337518523605976 L-8.438261554674112 25.28328311632429 L-8.498756864052238 25.242545737380073 L-8.648533193070001 25.186594971827105 L-9.107996416762553 25.02401449152874 L-9.56447038440244 24.853221097724713 L-9.715170167807182 24.799807502247862 L-9.787697745827506 24.7921285097029 L-9.864543102931512 24.798446894904654 L-9.945157797197709 24.81895163261006 L-10.028979705898877 24.8537941098712 L-10.11543644570349 24.903097522961545 L-10.2039624736829 24.967003862006973 L-10.384909748597128 25.138966888559526 L-10.596809470480983 25.38310632487727 L-10.868920527955435 25.675225823370845 L-11.187031530899498 25.989232364076482 L-11.548987338279005 26.317801319555006 L-11.962211071346557 26.662498247492746 L-12.42380595753192 27.015832139367728 L-12.937670788511397 27.37611790661705 L-13.504393806230038 27.739065645813593 L-14.125754485358224 28.101260818936254 L-14.801667771311742 28.458200986011242 L-15.533667056812451 28.8063802653006 L-16.261168082712835 29.11693021984461 A33.349999999999994 33.349999999999994 0 0 1 -17.08541720924783 28.64104976476032 L-17.180223572418804 27.855740417779337 L-17.24469111423322 27.047720801338993 L-17.273528504891974 26.283892641410336 L-17.27053862340374 25.56468092181124 L-17.23957816987273 24.89241052195925 L-17.184493958302586 24.26724764059497 L-17.10929527501351 23.690827796963962 L-17.017390845346746 23.160617082711955 L-16.91381968669718 22.682869680734733 L-16.800937546963656 22.250374200609006 L-16.68401016906468 21.868659362938697 L-16.57852907608983 21.563079102573553 L-16.52007836404077 21.320392652475988 L-16.508996864954277 21.211773693826974 L-16.509527226627064 21.112248254282623 L-16.52126371053872 21.02223511332314 L-16.543813433921 20.942168371317596 L-16.576764230377385 20.87245914730176 L-16.61967822200696 20.813487918533685 L-16.741285644299744 20.70968487549879 L-17.11743404595254 20.399763520258386 L-17.487964483896675 20.083146936585127 L-17.611307432735614 19.98141221354665 L-17.67683469247396 19.9493904282875 L-17.751206722498548 19.929045108186255 L-17.833972789156263 19.92074140961209 L-17.924656447289614 19.924813847156482 L-18.022761968112825 19.941573954077594 L-18.127806478592298 19.97134858452246 L-18.356656116568736 20.07105335872135 L-18.639277326570426 20.22799541222258 L-18.994888832056407 20.409430486466757 L-19.40121195617109 20.595699744825957 L-19.85371635866135 20.780657390590964 L-20.359912944055715 20.963235709772295 L-20.91451756073751 21.13738621150927 L-21.520617540243137 21.300191965226027 L-22.177298415802593 21.447420589733856 L-22.885064505849147 21.575254852669143 L-23.6422959600525 21.67949293479405 L-24.44923461406365 21.756315933711576 L-25.23907629967934 21.799317429233962 A33.349999999999994 33.349999999999994 0 0 1 -25.850856420119687 21.07022627282146 L-25.67135364458558 20.29985118850931 L-25.455574332883913 19.518511919598836 L-25.221427999353686 18.79088526567915 L-24.972633534363386 18.116069919684275 L-24.713610206133126 17.49493148452467 L-24.44802968071275 16.9263104480536 L-24.180218835398755 16.41037243895541 L-23.912514176542082 15.943570509518059 L-23.651789888135124 15.530058223806154 L-23.397793208308702 15.16225337821932 L-23.15736325063966 14.843550280563742 L-22.953728841491174 14.592475423378184 L-22.815799484253425 14.38441607796928 L-22.768236409529578 14.28613773995518 L-22.734695081382338 14.192433024459538 L-22.714937461335936 14.103834226216549 L-22.708742831422676 14.020883639960406 L-22.71586449291274 13.944108560425306 L-22.736021106060168 13.874016282345444 L-22.81479197176506 13.734881140788389 L-23.0622565027796 13.315000000000003 L-23.302151971765063 12.89074885921162 L-23.38326110606017 12.752963717654563 L-23.433884492912743 12.700461439574703 L-23.496812831422673 12.655906360039602 L-23.57174746133594 12.619795773783459 L-23.658355081382336 12.592606975540468 L-23.756276409529576 12.574802260044827 L-23.86516948425343 12.566853922030727 L-24.114318841491173 12.582274576621822 L-24.433573250639657 12.633089719436265 L-24.829793208308704 12.681956621780687 L-25.275319888135126 12.718021776193854 L-25.763794176542085 12.737059490481949 L-26.301908835398756 12.735497561044598 L-26.882629680712753 12.70945955194641 L-27.507860206133124 12.655148515475336 L-28.175293534363387 12.568900080315734 L-28.884097999353685 12.446954734320853 L-29.63131433288391 12.28591808040117 L-30.415863644585578 12.082118811490698 L-31.172779425809534 11.852385232996976 A33.349999999999994 33.349999999999994 0 0 1 -31.49830082871716 10.95802252895908 L-31.066139598386204 10.295500312009164 L-30.596139602723152 9.63508243779865 L-30.127251048459534 9.03141980297637 L-29.66266028426024 8.482393520526507 L-29.206816117492494 7.987305512366527 L-28.762772209138696 7.543810409739809 L-28.334651142211772 7.150583973505729 L-27.923435386923288 6.803494030835935 L-27.537005165821505 6.504092545837573 L-27.172529694081007 6.245341027388802 L-26.837596557905044 6.028089966881997 L-26.560370147650037 5.861803846122855 L-26.359598461326986 5.713466633087832 L-26.281290619733703 5.63738273370694 L-26.217723180958274 5.560800913883094 L-26.16885451752283 5.484302781003701 L-26.134662698104567 5.408473415419723 L-26.11509624714808 5.33389268803679 L-26.110064296787858 5.261133523833424 L-26.136497676966684 5.103448035241983 L-26.2254304627151 4.624250971270357 L-26.30575602870219 4.143536222225923 L-26.334848389814145 3.986319583714181 L-26.3644619762049 3.9196693624011383 L-26.40835653685252 3.8562785235870622 L-26.466421507736435 3.796716519286922 L-26.538506932525948 3.7415458555885817 L-26.62443331065777 3.691323829134576 L-26.72404083772368 3.646611209530991 L-26.963438824686964 3.5758877859859783 L-27.28081963954567 3.514446961938577 L-27.669858074919098 3.424851622761839 L-28.100851217596684 3.306362683341754 L-28.56637818362576 3.1571842368430545 L-29.07150634636007 2.9716704505287854 L-29.608299915834515 2.748584498772765 L-30.177248958384133 2.483707384657803 L-30.774932429633786 2.174384724002352 L-31.399282990250207 1.8173681775259216 L-32.04635888554497 1.4104801846722541 L-32.71389062923126 0.9506398475212601 L-33.34658529196067 0.4758804550842921 A33.349999999999994 33.349999999999994 0 0 1 -33.346585291960665 -0.47588045508428856 L-32.71389062923126 -0.9506398475212556 L-32.04635888554497 -1.4104801846722506 L-31.399282990250207 -1.817368177525918 L-30.774932429633786 -2.1743847240023486 L-30.177248958384133 -2.4837073846577993 L-29.608299915834515 -2.7485844987727615 L-29.07150634636007 -2.971670450528782 L-28.56637818362576 -3.157184236843051 L-28.100851217596684 -3.306362683341751 L-27.669858074919098 -3.424851622761836 L-27.28081963954567 -3.5144469619385736 L-26.963438824686964 -3.5758877859859757 L-26.72404083772368 -3.646611209530988 L-26.62443331065777 -3.6913238291345722 L-26.538506932525948 -3.741545855588578 L-26.466421507736435 -3.7967165192869192 L-26.40835653685252 -3.8562785235870596 L-26.3644619762049 -3.9196693624011356 L-26.334848389814145 -3.9863195837141783 L-26.30575602870219 -4.1435362222259196 L-26.2254304627151 -4.624250971270354 L-26.136497676966684 -5.103448035241979 L-26.110064296787858 -5.261133523833421 L-26.11509624714808 -5.333892688036787 L-26.134662698104567 -5.408473415419721 L-26.16885451752283 -5.484302781003699 L-26.217723180958274 -5.5608009138830905 L-26.281290619733703 -5.637382733706937 L-26.359598461326986 -5.71346663308783 L-26.560370147650037 -5.861803846122853 L-26.837596557905044 -6.028089966881994 L-27.172529694081007 -6.2453410273887995 L-27.537005165821505 -6.504092545837571 L-27.923435386923288 -6.803494030835932 L-28.334651142211772 -7.150583973505725 L-28.762772209138696 -7.543810409739805 L-29.206816117492494 -7.9873055123665235 L-29.66266028426024 -8.482393520526504 L-30.127251048459534 -9.031419802976366 L-30.596139602723152 -9.635082437798646 L-31.066139598386204 -10.295500312009159 L-31.49830082871716 -10.958022528959077 A33.349999999999994 33.349999999999994 0 0 1 -31.17277942580953 -11.85238523299698 L-30.415863644585578 -12.082118811490702 L-29.63131433288391 -12.285918080401176 L-28.88409799935368 -12.446954734320858 L-28.175293534363384 -12.568900080315737 L-27.50786020613312 -12.65514851547534 L-26.88262968071275 -12.709459551946413 L-26.301908835398752 -12.735497561044602 L-25.76379417654208 -12.737059490481952 L-25.275319888135122 -12.718021776193858 L-24.8297932083087 -12.681956621780689 L-24.433573250639654 -12.633089719436267 L-24.11431884149117 -12.582274576621824 L-23.865169484253425 -12.56685392203073 L-23.756276409529573 -12.574802260044828 L-23.658355081382336 -12.59260697554047 L-23.571747461335935 -12.61979577378346 L-23.49681283142267 -12.655906360039603 L-23.43388449291274 -12.700461439574704 L-23.383261106060168 -12.752963717654564 L-23.30215197176506 -12.890748859211621 L-23.062256502779597 -13.315000000000005 L-22.814791971765057 -13.73488114078839 L-22.736021106060164 -13.874016282345446 L-22.715864492912736 -13.944108560425308 L-22.708742831422672 -14.020883639960408 L-22.714937461335932 -14.10383422621655 L-22.734695081382338 -14.19243302445954 L-22.768236409529575 -14.286137739955182 L-22.81579948425342 -14.384416077969282 L-22.95372884149117 -14.592475423378186 L-23.157363250639655 -14.843550280563743 L-23.3977932083087 -15.162253378219322 L-23.65178988813512 -15.530058223806158 L-23.91251417654208 -15.943570509518063 L-24.18021883539875 -16.410372438955413 L-24.448029680712747 -16.926310448053602 L-24.713610206133122 -17.494931484524674 L-24.972633534363382 -18.11606991968428 L-25.221427999353683 -18.790885265679155 L-25.455574332883906 -19.51851191959884 L-25.671353644585572 -20.299851188509315 L-25.850856420119683 -21.070226272821465 A33.349999999999994 33.349999999999994 0 0 1 -25.239076299679347 -21.799317429233955 L-24.449234614063656 -21.756315933711566 L-23.642295960052508 -21.679492934794045 L-22.885064505849154 -21.575254852669136 L-22.1772984158026 -21.44742058973385 L-21.520617540243144 -21.30019196522602 L-20.91451756073752 -21.137386211509263 L-20.359912944055722 -20.96323570977229 L-19.85371635866136 -20.780657390590957 L-19.401211956171096 -20.59569974482595 L-18.994888832056414 -20.40943048646675 L-18.63927732657043 -20.227995412222572 L-18.356656116568743 -20.071053358721343 L-18.127806478592305 -19.971348584522453 L-18.022761968112828 -19.941573954077587 L-17.92465644728962 -19.924813847156475 L-17.83397278915627 -19.920741409612088 L-17.751206722498555 -19.929045108186248 L-17.676834692473967 -19.949390428287497 L-17.611307432735618 -19.981412213546644 L-17.487964483896683 -20.08314693658512 L-17.117434045952546 -20.399763520258382 L-16.74128564429975 -20.709684875498784 L-16.619678222006964 -20.813487918533678 L-16.576764230377393 -20.872459147301758 L-16.543813433921006 -20.94216837131759 L-16.521263710538726 -21.022235113323138 L-16.50952722662707 -21.112248254282616 L-16.50899686495428 -21.211773693826967 L-16.520078364040778 -21.32039265247598 L-16.578529076089836 -21.563079102573546 L-16.684010169064685 -21.86865936293869 L-16.800937546963663 -22.250374200609 L-16.913819686697188 -22.682869680734726 L-17.017390845346753 -23.160617082711948 L-17.109295275013515 -23.69082779696396 L-17.184493958302593 -24.267247640594963 L-17.239578169872736 -24.892410521959242 L-17.27053862340375 -25.564680921811235 L-17.27352850489198 -26.28389264141033 L-17.244691114233227 -27.047720801338986 L-17.18022357241881 -27.855740417779334 L-17.085417209247836 -28.641049764760314 A33.349999999999994 33.349999999999994 0 0 1 -16.261168082712835 -29.116930219844612 L-15.533667056812448 -28.8063802653006 L-14.801667771311742 -28.458200986011242 L-14.125754485358222 -28.101260818936254 L-13.504393806230034 -27.739065645813593 L-12.937670788511394 -27.37611790661705 L-12.423805957531918 -27.015832139367728 L-11.962211071346555 -26.662498247492746 L-11.548987338279003 -26.317801319555006 L-11.187031530899496 -25.989232364076482 L-10.868920527955433 -25.675225823370845 L-10.59680947048098 -25.38310632487727 L-10.384909748597126 -25.138966888559526 L-10.2039624736829 -24.967003862006973 L-10.11543644570349 -24.903097522961545 L-10.028979705898875 -24.8537941098712 L-9.945157797197709 -24.81895163261006 L-9.864543102931512 -24.798446894904654 L-9.787697745827504 -24.7921285097029 L-9.71517016780718 -24.799807502247862 L-9.564470384402439 -24.853221097724713 L-9.107996416762552 -25.02401449152874 L-8.64853319307 -25.186594971827105 L-8.498756864052236 -25.242545737380073 L-8.43826155467411 -25.28328311632429 L-8.38345597560601 -25.337518523605976 L-8.334881728366561 -25.40504419061579 L-8.29306673366865 -25.485614761039574 L-8.258528651620871 -25.578956687784533 L-8.23179198273468 -25.68481521761029 L-8.203714031081292 -25.9328572048442 L-8.198319231334612 -26.256085379104572 L-8.17764086202459 -26.654771513855557 L-8.135793209650405 -27.099792290663526 L-8.06971902826193 -27.584151421426892 L-7.974738198156047 -28.11381968327802 L-7.8482546484011735 -28.681196621249075 L-7.686198577249345 -29.28749747759255 L-7.48536186845764 -29.929814110260363 L-7.242186542610376 -30.606674655645506 L-6.953843642670642 -31.3145753725927 L-6.616904984322548 -32.05181624572074 L-6.259224529037811 -32.757339958193036 A33.349999999999994 33.349999999999994 0 0 1 -5.321923005689851 -32.92261150581843 L-4.744510000000004 -32.38197 L-4.175740000000004 -31.80443 L-3.662670000000004 -31.23784 L-3.2026600000000034 -30.68497 L-2.7942500000000035 -30.15008 L-2.4346000000000037 -29.63577 L-2.1216900000000036 -29.14587 L-1.8512800000000036 -28.68063 L-1.6235300000000035 -28.24808 L-1.4320000000000033 -27.84421 L-1.2762100000000034 -27.47664 L-1.1605900000000033 -27.17475 L-1.0493700000000032 -26.95127 L-0.9880400000000034 -26.86094 L-0.9236600000000034 -26.78504 L-0.8568100000000032 -26.72363 L-0.7880700000000033 -26.67679 L-0.7180200000000032 -26.64457 L-0.6472400000000033 -26.62698 L-0.4873600000000033 -26.62563 L-3.2612344261294014e-15 -26.63 L0.48735999999999674 -26.62563 L0.6472399999999968 -26.62698 L0.7180199999999968 -26.64457 L0.7880699999999968 -26.67679 L0.8568099999999967 -26.72363 L0.9236599999999967 -26.78504 L0.9880399999999967 -26.86094 L1.0493699999999966 -26.95127 L1.1605899999999967 -27.17475 L1.2762099999999967 -27.47664 L1.4319999999999966 -27.84421 L1.6235299999999964 -28.24808 L1.8512799999999965 -28.68063 L2.1216899999999965 -29.14587 L2.4345999999999965 -29.63577 L2.7942499999999963 -30.15008 L3.2026599999999963 -30.68497 L3.662669999999996 -31.23784 L4.175739999999997 -31.80443 L4.7445099999999965 -32.38197 L5.321923005689842 -32.92261150581843 A33.349999999999994 33.349999999999994 0 0 1 6.259224529037829 -32.757339958193036 L6.616904984322566 -32.05181624572073 L6.953843642670661 -31.314575372592696 L7.242186542610394 -30.606674655645506 L7.485361868457659 -29.929814110260363 L7.686198577249364 -29.287497477592545 L7.848254648401191 -28.68119662124907 L7.9747381981560626 -28.113819683278017 L8.069719028261947 -27.58415142142689 L8.135793209650421 -27.099792290663526 L8.177640862024607 -26.654771513855554 L8.198319231334626 -26.25608537910457 L8.203714031081308 -25.932857204844197 L8.231791982734697 -25.684815217610286 L8.258528651620889 -25.57895668778453 L8.293066733668665 -25.48561476103957 L8.334881728366575 -25.40504419061579 L8.383455975606024 -25.337518523605972 L8.438261554674126 -25.283283116324288 L8.49875686405225 -25.24254573738007 L8.648533193070014 -25.186594971827105 L9.107996416762566 -25.02401449152874 L9.564470384402453 -24.853221097724706 L9.715170167807194 -24.79980750224786 L9.78769774582752 -24.792128509702895 L9.864543102931526 -24.79844689490465 L9.945157797197723 -24.81895163261006 L10.02897970589889 -24.853794109871195 L10.115436445703505 -24.90309752296154 L10.203962473682912 -24.96700386200697 L10.384909748597142 -25.138966888559523 L10.596809470480995 -25.383106324877268 L10.86892052795545 -25.67522582337084 L11.187031530899512 -25.989232364076482 L11.54898733827902 -26.317801319555002 L11.962211071346571 -26.662498247492742 L12.423805957531936 -27.015832139367724 L12.937670788511412 -27.376117906617047 L13.504393806230052 -27.739065645813586 L14.12575448535824 -28.101260818936247 L14.801667771311758 -28.45820098601124 L15.533667056812465 -28.806380265300593 L16.26116808271285 -29.116930219844605 A33.349999999999994 33.349999999999994 0 0 1 17.08541720924783 -28.641049764760318 L17.180223572418804 -27.855740417779337 L17.24469111423322 -27.04772080133899 L17.273528504891974 -26.283892641410333 L17.27053862340374 -25.564680921811238 L17.23957816987273 -24.892410521959246 L17.184493958302586 -24.267247640594967 L17.10929527501351 -23.69082779696396 L17.017390845346746 -23.16061708271195 L16.91381968669718 -22.68286968073473 L16.800937546963656 -22.250374200609002 L16.68401016906468 -21.868659362938693 L16.57852907608983 -21.56307910257355 L16.52007836404077 -21.320392652475984 L16.508996864954277 -21.21177369382697 L16.509527226627064 -21.11224825428262 L16.52126371053872 -21.022235113323138 L16.543813433921 -20.942168371317592 L16.576764230377385 -20.87245914730176 L16.61967822200696 -20.81348791853368 L16.741285644299744 -20.709684875498787 L17.11743404595254 -20.399763520258382 L17.487964483896675 -20.083146936585123 L17.611307432735614 -19.981412213546648 L17.67683469247396 -19.9493904282875 L17.751206722498548 -19.92904510818625 L17.833972789156263 -19.920741409612088 L17.924656447289614 -19.92481384715648 L18.022761968112825 -19.94157395407759 L18.127806478592298 -19.971348584522456 L18.356656116568736 -20.071053358721347 L18.639277326570426 -20.227995412222576 L18.994888832056407 -20.409430486466754 L19.40121195617109 -20.595699744825954 L19.85371635866135 -20.78065739059096 L20.359912944055715 -20.96323570977229 L20.91451756073751 -21.137386211509266 L21.520617540243137 -21.300191965226023 L22.177298415802593 -21.447420589733852 L22.885064505849147 -21.57525485266914 L23.6422959600525 -21.679492934794048 L24.44923461406365 -21.75631593371157 L25.23907629967934 -21.79931742923396 A33.349999999999994 33.349999999999994 0 0 1 25.850856420119676 -21.070226272821472 L25.67135364458557 -20.299851188509322 L25.455574332883902 -19.518511919598843 L25.221427999353676 -18.79088526567916 L24.97263353436338 -18.116069919684282 L24.713610206133115 -17.49493148452468 L24.448029680712743 -16.926310448053606 L24.180218835398748 -16.410372438955417 L23.912514176542075 -15.943570509518068 L23.651789888135117 -15.530058223806162 L23.397793208308695 -15.162253378219328 L23.15736325063965 -14.84355028056375 L22.953728841491166 -14.592475423378193 L22.815799484253418 -14.38441607796929 L22.76823640952957 -14.286137739955189 L22.734695081382334 -14.192433024459547 L22.71493746133593 -14.103834226216557 L22.70874283142267 -14.020883639960415 L22.715864492912733 -13.944108560425315 L22.736021106060164 -13.874016282345453 L22.814791971765054 -13.734881140788398 L23.062256502779594 -13.315000000000012 L23.302151971765056 -12.890748859211628 L23.383261106060168 -12.752963717654572 L23.433884492912735 -12.700461439574712 L23.496812831422666 -12.65590636003961 L23.57174746133593 -12.619795773783467 L23.658355081382332 -12.592606975540477 L23.75627640952957 -12.574802260044835 L23.86516948425342 -12.566853922030736 L24.114318841491166 -12.582274576621831 L24.43357325063965 -12.633089719436274 L24.829793208308697 -12.681956621780698 L25.27531988813512 -12.718021776193865 L25.763794176542078 -12.737059490481958 L26.30190883539875 -12.735497561044607 L26.882629680712746 -12.70945955194642 L27.50786020613312 -12.655148515475346 L28.17529353436338 -12.568900080315744 L28.88409799935368 -12.446954734320865 L29.631314332883907 -12.285918080401183 L30.415863644585574 -12.082118811490709 L31.17277942580953 -11.852385232996987 A33.349999999999994 33.349999999999994 0 0 1 31.49830082871716 -10.958022528959077 Z" id="SvgjsPath1362">
        </path>
      </g>
    </g>
  </g>
</svg>
