0
SECTION
2
HEADER
0
ENDSEC
0
SECTION
2
TABLES
0
TABLE
2
LTYPE
0
LTYPE
72
65
70
64
2
CONTINUOUS
3
______
73
0
40
0
0
ENDTAB
0
TABLE
2
LAYER
0
ENDTAB
0
ENDSEC
0
SECTION
2
ENTITIES
0
CIRCLE
8
0
10
0
20
0
40
1.5
0
CIRCLE
8
0
10
0
20
0
40
1.5
0
LINE
8
layer0
10
16.5556415
20
8.0109479
11
16.3490117
21
7.5736408
0
LINE
8
layer0
10
16.3490117
20
7.5736408
11
16.1357003
21
7.1671605
0
LINE
8
layer0
10
16.1357003
20
7.1671605
11
15.9181579
21
6.7917195
0
LINE
8
layer0
10
15.9181579
20
6.7917195
11
15.698173
21
6.4462449
0
LINE
8
layer0
10
15.698173
20
6.4462449
11
15.4773232
21
6.1295598
0
LINE
8
layer0
10
15.4773232
20
6.1295598
11
15.259958
21
5.8441164
0
LINE
8
layer0
10
15.259958
20
5.8441164
11
15.0449529
21
5.5850338
0
LINE
8
layer0
10
15.0449529
20
5.5850338
11
14.8366392
21
5.3544199
0
LINE
8
layer0
10
14.8366392
20
5.3544199
11
14.6358317
21
5.1500138
0
LINE
8
layer0
10
14.6358317
20
5.1500138
11
14.4457277
21
4.9720476
0
LINE
8
layer0
10
14.4457277
20
4.9720476
11
14.2665318
21
4.8178114
0
LINE
8
layer0
10
14.2665318
20
4.8178114
11
14.1005723
21
4.6866329
0
LINE
8
layer0
10
14.1005723
20
4.6866329
11
13.8122755
21
4.4861842
0
LINE
8
layer0
10
13.8122755
20
4.4861842
11
13.5285491
21
4.3058025
0
LINE
8
layer0
10
13.5285491
20
4.3058025
11
13.393878
21
4.1902972
0
LINE
8
layer0
10
13.393878
20
4.1902972
11
13.2925207
21
4.0722609
0
LINE
8
layer0
10
13.2925207
20
4.0722609
11
13.2243886
21
3.9542672
0
LINE
8
layer0
10
13.2243886
20
3.9542672
11
13.18926
21
3.8388876
0
LINE
8
layer0
10
13.18926
20
3.8388876
11
13.183957
21
3.7829738
0
LINE
8
layer0
10
13.183957
20
3.7829738
11
13.186743
21
3.7286726
0
LINE
8
layer0
10
13.186743
20
3.7286726
11
13.197544
21
3.6762852
0
LINE
8
layer0
10
13.197544
20
3.6762852
11
13.3019029
21
3.2786246
0
LINE
8
layer0
10
13.3019029
20
3.2786246
11
13.3942998
21
2.8780157
0
LINE
8
layer0
10
13.3942998
20
2.8780157
11
13.4090816
21
2.8266094
0
LINE
8
layer0
10
13.4090816
20
2.8266094
11
13.4318497
21
2.7772334
0
LINE
8
layer0
10
13.4318497
20
2.7772334
11
13.4625298
21
2.7301886
0
LINE
8
layer0
10
13.4625298
20
2.7301886
11
13.5472542
21
2.6443501
0
LINE
8
layer0
10
13.5472542
20
2.6443501
11
13.6624165
21
2.5715344
0
LINE
8
layer0
10
13.6624165
20
2.5715344
11
13.8070182
21
2.5141215
0
LINE
8
layer0
10
13.8070182
20
2.5141215
11
13.9799415
21
2.4744315
0
LINE
8
layer0
10
13.9799415
20
2.4744315
11
14.3149963
21
2.4465656
0
LINE
8
layer0
10
14.3149963
20
2.4465656
11
14.6634236
21
2.4030554
0
LINE
8
layer0
10
14.6634236
20
2.4030554
11
14.8713351
21
2.3640278
0
LINE
8
layer0
10
14.8713351
20
2.3640278
11
15.1016824
21
2.3107349
0
LINE
8
layer0
10
15.1016824
20
2.3107349
11
15.3527161
21
2.2414994
0
LINE
8
layer0
10
15.3527161
20
2.2414994
11
15.6255146
21
2.1538267
0
LINE
8
layer0
10
15.6255146
20
2.1538267
11
15.9171388
21
2.0464364
0
LINE
8
layer0
10
15.9171388
20
2.0464364
11
16.2279181
21
1.916948
0
LINE
8
layer0
10
16.2279181
20
1.916948
11
16.5530376
21
1.7652151
0
LINE
8
layer0
10
16.5530376
20
1.7652151
11
16.8957612
21
1.5874384
0
LINE
8
layer0
10
16.8957612
20
1.5874384
11
17.2510982
21
1.3837678
0
LINE
8
layer0
10
17.2510982
20
1.3837678
11
17.6181987
21
1.1524284
0
LINE
8
layer0
10
17.6181987
20
1.1524284
11
17.9959773
21
0.8916387
0
LINE
8
layer0
10
17.9959773
20
0.8916387
11
18.3821657
21
0.6004481
0
LINE
8
layer0
10
18.3821657
20
0.6004481
11
18.7475688
21
0.3008803
0
ARC
8
layer0
10
-0.0000169
20
0
40
18.75
50
359.0805378
51
360.9194619
0
LINE
8
layer0
10
18.7475688
20
-0.3008803
11
18.3821657
21
-0.6004481
0
LINE
8
layer0
10
18.3821657
20
-0.6004481
11
17.9959773
21
-0.8916387
0
LINE
8
layer0
10
17.9959773
20
-0.8916387
11
17.6181987
21
-1.1524284
0
LINE
8
layer0
10
17.6181987
20
-1.1524284
11
17.2510982
21
-1.3837678
0
LINE
8
layer0
10
17.2510982
20
-1.3837678
11
16.8957612
21
-1.5874384
0
LINE
8
layer0
10
16.8957612
20
-1.5874384
11
16.5530376
21
-1.7652151
0
LINE
8
layer0
10
16.5530376
20
-1.7652151
11
16.2279181
21
-1.916948
0
LINE
8
layer0
10
16.2279181
20
-1.916948
11
15.9171388
21
-2.0464364
0
LINE
8
layer0
10
15.9171388
20
-2.0464364
11
15.6255146
21
-2.1538267
0
LINE
8
layer0
10
15.6255146
20
-2.1538267
11
15.3527161
21
-2.2414994
0
LINE
8
layer0
10
15.3527161
20
-2.2414994
11
15.1016824
21
-2.3107349
0
LINE
8
layer0
10
15.1016824
20
-2.3107349
11
14.8713351
21
-2.3640278
0
LINE
8
layer0
10
14.8713351
20
-2.3640278
11
14.6634236
21
-2.4030554
0
LINE
8
layer0
10
14.6634236
20
-2.4030554
11
14.3149963
21
-2.4465656
0
LINE
8
layer0
10
14.3149963
20
-2.4465656
11
13.9799415
21
-2.4744315
0
LINE
8
layer0
10
13.9799415
20
-2.4744315
11
13.8070182
21
-2.5141215
0
LINE
8
layer0
10
13.8070182
20
-2.5141215
11
13.6624165
21
-2.5715344
0
LINE
8
layer0
10
13.6624165
20
-2.5715344
11
13.5472542
21
-2.6443501
0
LINE
8
layer0
10
13.5472542
20
-2.6443501
11
13.4625298
21
-2.7301886
0
LINE
8
layer0
10
13.4625298
20
-2.7301886
11
13.4318497
21
-2.7772334
0
LINE
8
layer0
10
13.4318497
20
-2.7772334
11
13.4090816
21
-2.8266094
0
LINE
8
layer0
10
13.4090816
20
-2.8266094
11
13.3942998
21
-2.8780157
0
LINE
8
layer0
10
13.3942998
20
-2.8780157
11
13.3019029
21
-3.2786246
0
LINE
8
layer0
10
13.3019029
20
-3.2786246
11
13.197544
21
-3.6762852
0
LINE
8
layer0
10
13.197544
20
-3.6762852
11
13.186743
21
-3.7286726
0
LINE
8
layer0
10
13.186743
20
-3.7286726
11
13.183957
21
-3.7829738
0
LINE
8
layer0
10
13.183957
20
-3.7829738
11
13.18926
21
-3.8388876
0
LINE
8
layer0
10
13.18926
20
-3.8388876
11
13.2243886
21
-3.9542672
0
LINE
8
layer0
10
13.2243886
20
-3.9542672
11
13.2925207
21
-4.0722609
0
LINE
8
layer0
10
13.2925207
20
-4.0722609
11
13.393878
21
-4.1902972
0
LINE
8
layer0
10
13.393878
20
-4.1902972
11
13.5285491
21
-4.3058025
0
LINE
8
layer0
10
13.5285491
20
-4.3058025
11
13.8122755
21
-4.4861842
0
LINE
8
layer0
10
13.8122755
20
-4.4861842
11
14.1005723
21
-4.6866329
0
LINE
8
layer0
10
14.1005723
20
-4.6866329
11
14.2665318
21
-4.8178114
0
LINE
8
layer0
10
14.2665318
20
-4.8178114
11
14.4457277
21
-4.9720476
0
LINE
8
layer0
10
14.4457277
20
-4.9720476
11
14.6358317
21
-5.1500138
0
LINE
8
layer0
10
14.6358317
20
-5.1500138
11
14.8366392
21
-5.3544199
0
LINE
8
layer0
10
14.8366392
20
-5.3544199
11
15.0449529
21
-5.5850338
0
LINE
8
layer0
10
15.0449529
20
-5.5850338
11
15.259958
21
-5.8441164
0
LINE
8
layer0
10
15.259958
20
-5.8441164
11
15.4773232
21
-6.1295598
0
LINE
8
layer0
10
15.4773232
20
-6.1295598
11
15.698173
21
-6.4462449
0
LINE
8
layer0
10
15.698173
20
-6.4462449
11
15.9181579
21
-6.7917195
0
LINE
8
layer0
10
15.9181579
20
-6.7917195
11
16.1357003
21
-7.1671605
0
LINE
8
layer0
10
16.1357003
20
-7.1671605
11
16.3490117
21
-7.5736408
0
LINE
8
layer0
10
16.3490117
20
-7.5736408
11
16.5556415
21
-8.0109479
0
LINE
8
layer0
10
16.5556415
20
-8.0109479
11
16.7399739
21
-8.4460134
0
ARC
8
layer0
10
-0.0000152
20
0.0000073
40
18.75
50
331.3882321
51
333.2271561
0
LINE
8
layer0
10
16.4603217
20
-8.978846
11
15.9975572
21
-9.0742888
0
LINE
8
layer0
10
15.9975572
20
-9.0742888
11
15.5202814
21
-9.1526545
0
LINE
8
layer0
10
15.5202814
20
-9.1526545
11
15.06458
21
-9.2080098
0
LINE
8
layer0
10
15.06458
20
-9.2080098
11
14.6320199
21
-9.2422506
0
LINE
8
layer0
10
14.6320199
20
-9.2422506
11
14.2227342
21
-9.2574587
0
LINE
8
layer0
10
14.2227342
20
-9.2574587
11
13.8366505
21
-9.2556005
0
LINE
8
layer0
10
13.8366505
20
-9.2556005
11
13.4782577
21
-9.2388628
0
LINE
8
layer0
10
13.4782577
20
-9.2388628
11
13.1429001
21
-9.2090927
0
LINE
8
layer0
10
13.1429001
20
-9.2090927
11
12.8347729
21
-9.1686575
0
LINE
8
layer0
10
12.8347729
20
-9.1686575
11
12.5524783
21
-9.119512
0
LINE
8
layer0
10
12.5524783
20
-9.119512
11
12.2980236
21
-9.0641559
0
LINE
8
layer0
10
12.2980236
20
-9.0641559
11
12.0692948
21
-9.0042967
0
LINE
8
layer0
10
12.0692948
20
-9.0042967
11
11.8670613
21
-8.9422326
0
LINE
8
layer0
10
11.8670613
20
-8.9422326
11
11.538324
21
-8.8188367
0
LINE
8
layer0
10
11.538324
20
-8.8188367
11
11.2286978
21
-8.687803
0
LINE
8
layer0
10
11.2286978
20
-8.687803
11
11.0571369
21
-8.6425854
0
LINE
8
layer0
10
11.0571369
20
-8.6425854
11
10.9024174
21
-8.6262222
0
LINE
8
layer0
10
10.9024174
20
-8.6262222
11
10.7666071
21
-8.6371787
0
LINE
8
layer0
10
10.7666071
20
-8.6371787
11
10.6516962
21
-8.6738115
0
LINE
8
layer0
10
10.6516962
20
-8.6738115
11
10.6026675
21
-8.7012098
0
LINE
8
layer0
10
10.6026675
20
-8.7012098
11
10.5595612
21
-8.7343493
0
LINE
8
layer0
10
10.5595612
20
-8.7343493
11
10.5225829
21
-8.7729978
0
LINE
8
layer0
10
10.5225829
20
-8.7729978
11
10.2545972
21
-9.0847804
0
LINE
8
layer0
10
10.2545972
20
-9.0847804
11
9.97739
21
-9.3883934
0
LINE
8
layer0
10
9.97739
20
-9.3883934
11
9.9434805
21
-9.4297607
0
LINE
8
layer0
10
9.9434805
20
-9.4297607
11
9.9157786
21
-9.4765472
0
LINE
8
layer0
10
9.9157786
20
-9.4765472
11
9.8944897
21
-9.5285209
0
LINE
8
layer0
10
9.8944897
20
-9.5285209
11
9.871975
21
-9.6470095
0
LINE
8
layer0
10
9.871975
20
-9.6470095
11
9.8774685
21
-9.7831503
0
LINE
8
layer0
10
9.8774685
20
-9.7831503
11
9.9123617
21
-9.9347694
0
LINE
8
layer0
10
9.9123617
20
-9.9347694
11
9.9779291
21
-10.099629
0
LINE
8
layer0
10
9.9779291
20
-10.099629
11
10.1453288
21
-10.3912033
0
LINE
8
layer0
10
10.1453288
20
-10.3912033
11
10.3074499
21
-10.70267
0
LINE
8
layer0
10
10.3074499
20
-10.70267
11
10.3934379
21
-10.895948
0
LINE
8
layer0
10
10.3934379
20
-10.895948
11
10.4804309
21
-11.1157939
0
LINE
8
layer0
10
10.4804309
20
-11.1157939
11
10.5660546
21
-11.3617209
0
LINE
8
layer0
10
10.5660546
20
-11.3617209
11
10.6488686
21
-11.6360334
0
LINE
8
layer0
10
10.6488686
20
-11.6360334
11
10.7261496
21
-11.9370401
0
LINE
8
layer0
10
10.7261496
20
-11.9370401
11
10.7961255
21
-12.2663642
0
LINE
8
layer0
10
10.7961255
20
-12.2663642
11
10.8559407
21
-12.6201264
0
LINE
8
layer0
10
10.8559407
20
-12.6201264
11
10.9043225
21
-13.0031711
0
LINE
8
layer0
10
10.9043225
20
-13.0031711
11
10.9385593
21
-13.4113058
0
LINE
8
layer0
10
10.9385593
20
-13.4113058
11
10.9567075
21
-13.8448393
0
LINE
8
layer0
10
10.9567075
20
-13.8448393
11
10.9566845
21
-14.3038905
0
LINE
8
layer0
10
10.9566845
20
-14.3038905
11
10.9364194
21
-14.7871324
0
LINE
8
layer0
10
10.9364194
20
-14.7871324
11
10.8974526
21
-15.2580272
0
ARC
8
layer0
10
-0.0000094
20
0.000014
40
18.75
50
303.6959219
51
305.5348459
0
LINE
8
layer0
10
10.4022133
20
-15.5998662
11
9.9481012
21
-15.4693192
0
LINE
8
layer0
10
9.9481012
20
-15.4693192
11
9.4890761
21
-15.3169075
0
LINE
8
layer0
10
9.4890761
20
-15.3169075
11
9.0598476
21
-15.1541472
0
LINE
8
layer0
10
9.0598476
20
-15.1541472
11
8.6609222
21
-14.9834452
0
LINE
8
layer0
10
8.6609222
20
-14.9834452
11
8.2914501
21
-14.8067067
0
LINE
8
layer0
10
8.2914501
20
-14.8067067
11
7.9504535
21
-14.6256393
0
LINE
8
layer0
10
7.9504535
20
-14.6256393
11
7.6408909
21
-14.4442654
0
LINE
8
layer0
10
7.6408909
20
-14.4442654
11
7.3577813
21
-14.2620568
0
LINE
8
layer0
10
7.3577813
20
-14.2620568
11
7.1037394
21
-14.0830594
0
LINE
8
layer0
10
7.1037394
20
-14.0830594
11
6.876619
21
-13.9083544
0
LINE
8
layer0
10
6.876619
20
-13.9083544
11
6.6770358
21
-13.741088
0
LINE
8
layer0
10
6.6770358
20
-13.741088
11
6.5023245
21
-13.5817897
0
LINE
8
layer0
10
6.5023245
20
-13.5817897
11
6.3520982
21
-13.4328521
0
LINE
8
layer0
10
6.3520982
20
-13.4328521
11
6.1183607
21
-13.1708187
0
LINE
8
layer0
10
6.1183607
20
-13.1708187
11
5.9050947
21
-12.9109036
0
LINE
8
layer0
10
5.9050947
20
-12.9109036
11
5.7741988
21
-12.791137
0
LINE
8
layer0
10
5.7741988
20
-12.791137
11
5.6448059
21
-12.7047464
0
LINE
8
layer0
10
5.6448059
20
-12.7047464
11
5.51946
21
-12.6513337
0
LINE
8
layer0
10
5.51946
20
-12.6513337
11
5.4006874
21
-12.6303687
0
LINE
8
layer0
10
5.4006874
20
-12.6303687
11
5.344542
21
-12.631844
0
LINE
8
layer0
10
5.344542
20
-12.631844
11
5.2909726
21
-12.641155
0
LINE
8
layer0
10
5.2909726
20
-12.641155
11
5.2402691
21
-12.6581918
0
LINE
8
layer0
10
5.2402691
20
-12.6581918
11
4.858087
21
-12.8097225
0
LINE
8
layer0
10
4.858087
20
-12.8097225
11
4.4715361
21
-12.9497338
0
LINE
8
layer0
10
4.4715361
20
-12.9497338
11
4.4222864
21
-12.9706042
0
LINE
8
layer0
10
4.4222864
20
-12.9706042
11
4.3760148
21
-12.9991579
0
LINE
8
layer0
10
4.3760148
20
-12.9991579
11
4.3330111
21
-13.0352849
0
LINE
8
layer0
10
4.3330111
20
-13.0352849
11
4.2580109
21
-13.1297383
0
LINE
8
layer0
10
4.2580109
20
-13.1297383
11
4.1996074
21
-13.2528379
0
LINE
8
layer0
10
4.1996074
20
-13.2528379
11
4.1600429
21
-13.4033056
0
LINE
8
layer0
10
4.1600429
20
-13.4033056
11
4.1414858
21
-13.5797522
0
LINE
8
layer0
10
4.1414858
20
-13.5797522
11
4.1542095
21
-13.915723
0
LINE
8
layer0
10
4.1542095
20
-13.915723
11
4.1530148
21
-14.2668545
0
LINE
8
layer0
10
4.1530148
20
-14.2668545
11
4.1393327
21
-14.4779543
0
LINE
8
layer0
10
4.1393327
20
-14.4779543
11
4.1141937
21
-14.7130458
0
LINE
8
layer0
10
4.1141937
20
-14.7130458
11
4.0757217
21
-14.9705946
0
LINE
8
layer0
10
4.0757217
20
-14.9705946
11
4.0215705
21
-15.2519719
0
LINE
8
layer0
10
4.0215705
20
-15.2519719
11
3.9501146
21
-15.5544143
0
LINE
8
layer0
10
3.9501146
20
-15.5544143
11
3.8590307
21
-15.8785358
0
LINE
8
layer0
10
3.8590307
20
-15.8785358
11
3.7475929
21
-16.2195741
0
LINE
8
layer0
10
3.7475929
20
-16.2195741
11
3.6124232
21
-16.5812276
0
LINE
8
layer0
10
3.6124232
20
-16.5812276
11
3.4530687
21
-16.9585235
0
LINE
8
layer0
10
3.4530687
20
-16.9585235
11
3.2676651
21
-17.3508323
0
LINE
8
layer0
10
3.2676651
20
-17.3508323
11
3.054313
21
-17.7572912
0
LINE
8
layer0
10
3.054313
20
-17.7572912
11
2.8117954
21
-18.175763
0
LINE
8
layer0
10
2.8117954
20
-18.175763
11
2.5584563
21
-18.5746108
0
ARC
8
layer0
10
-9e-7
20
0.000017
40
18.75
50
276.0036113
51
277.8425355
0
LINE
8
layer0
10
1.9610831
20
-18.6471451
11
1.619655
21
-18.320515
0
LINE
8
layer0
10
1.619655
20
-18.320515
11
1.2840378
21
-17.9722415
0
LINE
8
layer0
10
1.2840378
20
-17.9722415
11
0.9796133
21
-17.6286521
0
LINE
8
layer0
10
0.9796133
20
-17.6286521
11
0.7057115
21
-17.2921131
0
LINE
8
layer0
10
0.7057115
20
-17.2921131
11
0.4606948
21
-16.9639167
0
LINE
8
layer0
10
0.4606948
20
-16.9639167
11
0.2429035
21
-16.6451204
0
LINE
8
layer0
10
0.2429035
20
-16.6451204
11
0.0530881
21
-16.3406609
0
LINE
8
layer0
10
0.0530881
20
-16.3406609
11
-0.1129165
21
-16.0477556
0
LINE
8
layer0
10
-0.1129165
20
-16.0477556
11
-0.2546752
21
-15.7712021
0
LINE
8
layer0
10
-0.2546752
20
-15.7712021
11
-0.3745909
21
-15.5109604
0
LINE
8
layer0
10
-0.3745909
20
-15.5109604
11
-0.4735804
21
-15.2701024
0
LINE
8
layer0
10
-0.4735804
20
-15.2701024
11
-0.55425
21
-15.0478584
0
LINE
8
layer0
10
-0.55425
20
-15.0478584
11
-0.618054
21
-14.8461671
0
LINE
8
layer0
10
-0.618054
20
-14.8461671
11
-0.7032452
21
-14.5055248
0
LINE
8
layer0
10
-0.7032452
20
-14.5055248
11
-0.7712943
21
-14.1762717
0
LINE
8
layer0
10
-0.7712943
20
-14.1762717
11
-0.8315386
21
-14.0093933
0
LINE
8
layer0
10
-0.8315386
20
-14.0093933
11
-0.9059627
21
-13.8727664
0
LINE
8
layer0
10
-0.9059627
20
-13.8727664
11
-0.9921288
21
-13.7672206
0
LINE
8
layer0
10
-0.9921288
20
-13.7672206
11
-1.0875538
21
-13.6934606
0
LINE
8
layer0
10
-1.0875538
20
-13.6934606
11
-1.1379537
21
-13.6686749
0
LINE
8
layer0
10
-1.1379537
20
-13.6686749
11
-1.1897141
21
-13.6520244
0
LINE
8
layer0
10
-1.1897141
20
-13.6520244
11
-1.2425272
21
-13.6435467
0
LINE
8
layer0
10
-1.2425272
20
-13.6435467
11
-1.6513525
21
-13.6001116
0
LINE
8
layer0
10
-1.6513525
20
-13.6001116
11
-2.0586928
21
-13.5444463
0
LINE
8
layer0
10
-2.0586928
20
-13.5444463
11
-2.1120002
21
-13.5400386
0
LINE
8
layer0
10
-2.1120002
20
-13.5400386
11
-2.1662412
21
-13.5438182
0
LINE
8
layer0
10
-2.1662412
20
-13.5438182
11
-2.2211082
21
-13.5558222
0
LINE
8
layer0
10
-2.2211082
20
-13.5558222
11
-2.3314122
21
-13.6046022
0
LINE
8
layer0
10
-2.3314122
20
-13.6046022
11
-2.4403332
21
-13.68646
0
LINE
8
layer0
10
-2.4403332
20
-13.68646
11
-2.5452917
21
-13.8013061
0
LINE
8
layer0
10
-2.5452917
20
-13.8013061
11
-2.643722
21
-13.9489178
0
LINE
8
layer0
10
-2.643722
20
-13.9489178
11
-2.7885891
21
-14.2523182
0
LINE
8
layer0
10
-2.7885891
20
-14.2523182
11
-2.9528259
21
-14.5626745
0
LINE
8
layer0
10
-2.9528259
20
-14.5626745
11
-3.0630437
21
-14.7432357
0
LINE
8
layer0
10
-3.0630437
20
-14.7432357
11
-3.1945557
21
-14.9397162
0
LINE
8
layer0
10
-3.1945557
20
-14.9397162
11
-3.3483099
21
-15.1498856
0
LINE
8
layer0
10
-3.3483099
20
-15.1498856
11
-3.5270209
21
-15.3738674
0
LINE
8
layer0
10
-3.5270209
20
-15.3738674
11
-3.730844
21
-15.6084597
0
LINE
8
layer0
10
-3.730844
20
-15.6084597
11
-3.9621215
21
-15.8531262
0
LINE
8
layer0
10
-3.9621215
20
-15.8531262
11
-4.2192832
21
-16.1033129
0
LINE
8
layer0
10
-4.2192832
20
-16.1033129
11
-4.5070388
21
-16.3607246
0
LINE
8
layer0
10
-4.5070388
20
-16.3607246
11
-4.8234784
21
-16.6207479
0
LINE
8
layer0
10
-4.8234784
20
-16.6207479
11
-5.1699601
21
-16.8819587
0
LINE
8
layer0
10
-5.1699601
20
-16.8819587
11
-5.5477649
21
-17.1427105
0
LINE
8
layer0
10
-5.5477649
20
-17.1427105
11
-5.956977
21
-17.4005453
0
LINE
8
layer0
10
-5.956977
20
-17.4005453
11
-6.3666515
21
-17.635975
0
ARC
8
layer0
10
0.0000067
20
0.0000156
40
18.75
50
248.311305
51
250.1502291
0
LINE
8
layer0
10
-6.9293075
20
-17.4225877
11
-7.0798345
21
-16.9747017
0
LINE
8
layer0
10
-7.0798345
20
-16.9747017
11
-7.2151581
21
-16.5103516
0
LINE
8
layer0
10
-7.2151581
20
-16.5103516
11
-7.3250386
21
-16.0646452
0
LINE
8
layer0
10
-7.3250386
20
-16.0646452
11
-7.4111691
21
-15.6393662
0
LINE
8
layer0
10
-7.4111691
20
-15.6393662
11
-7.4756002
21
-15.2348978
0
LINE
8
layer0
10
-7.4756002
20
-15.2348978
11
-7.5202928
21
-14.8514051
0
LINE
8
layer0
10
-7.5202928
20
-14.8514051
11
-7.5468766
21
-14.4936079
0
LINE
8
layer0
10
-7.5468766
20
-14.4936079
11
-7.5577465
21
-14.157107
0
LINE
8
layer0
10
-7.5577465
20
-14.157107
11
-7.5547468
21
-13.8463525
0
LINE
8
layer0
10
-7.5547468
20
-13.8463525
11
-7.5399865
21
-13.5601923
0
LINE
8
layer0
10
-7.5399865
20
-13.5601923
11
-7.515705
21
-13.3009204
0
LINE
8
layer0
10
-7.515705
20
-13.3009204
11
-7.4838525
21
-13.0666441
0
LINE
8
layer0
10
-7.4838525
20
-13.0666441
11
-7.4466175
21
-12.8584041
0
LINE
8
layer0
10
-7.4466175
20
-12.8584041
11
-7.3637462
21
-12.5171899
0
LINE
8
layer0
10
-7.3637462
20
-12.5171899
11
-7.2709892
21
-12.1940269
0
LINE
8
layer0
10
-7.2709892
20
-12.1940269
11
-7.2467806
21
-12.0182665
0
LINE
8
layer0
10
-7.2467806
20
-12.0182665
11
-7.2491861
21
-11.8627027
0
LINE
8
layer0
10
-7.2491861
20
-11.8627027
11
-7.2764329
21
-11.7292032
0
LINE
8
layer0
10
-7.2764329
20
-11.7292032
11
-7.3266495
21
-11.6195458
0
LINE
8
layer0
10
-7.3266495
20
-11.6195458
11
-7.3597579
21
-11.5741771
0
LINE
8
layer0
10
-7.3597579
20
-11.5741771
11
-7.3978516
21
-11.5353796
0
LINE
8
layer0
10
-7.3978516
20
-11.5353796
11
-7.4406755
21
-11.5033294
0
LINE
8
layer0
10
-7.4406755
20
-11.5033294
11
-7.782487
21
-11.274879
0
LINE
8
layer0
10
-7.782487
20
-11.274879
11
-8.1173
21
-11.0362893
0
LINE
8
layer0
10
-8.1173
20
-11.0362893
11
-8.162453
21
-11.0076134
0
LINE
8
layer0
10
-8.162453
20
-11.0076134
11
-8.2122375
21
-10.9857529
0
LINE
8
layer0
10
-8.2122375
20
-10.9857529
11
-8.2663983
21
-10.970884
0
LINE
8
layer0
10
-8.2663983
20
-10.970884
11
-8.3867369
21
-10.9628157
0
LINE
8
layer0
10
-8.3867369
20
-10.9628157
11
-8.5212229
21
-10.9846791
0
LINE
8
layer0
10
-8.5212229
20
-10.9846791
11
-8.6675306
21
-11.0375936
0
LINE
8
layer0
10
-8.6675306
20
-11.0375936
11
-8.8232849
21
-11.1225545
0
LINE
8
layer0
10
-8.8232849
20
-11.1225545
11
-9.0925555
21
-11.323879
0
LINE
8
layer0
10
-9.0925555
20
-11.323879
11
-9.3822097
21
-11.5223613
0
LINE
8
layer0
10
-9.3822097
20
-11.5223613
11
-9.5637138
21
-11.6310195
0
LINE
8
layer0
10
-9.5637138
20
-11.6310195
11
-9.7714709
21
-11.7438777
0
LINE
8
layer0
10
-9.7714709
20
-11.7438777
11
-10.005284
21
-11.8585203
0
LINE
8
layer0
10
-10.005284
20
-11.8585203
11
-10.2676143
21
-11.9737952
0
LINE
8
layer0
10
-10.2676143
20
-11.9737952
11
-10.5571112
21
-12.086795
0
LINE
8
layer0
10
-10.5571112
20
-12.086795
11
-10.8755995
21
-12.1959564
0
LINE
8
layer0
10
-10.8755995
20
-12.1959564
11
-11.2195724
21
-12.2979768
0
LINE
8
layer0
10
-11.2195724
20
-12.2979768
11
-11.5939925
21
-12.3921768
0
LINE
8
layer0
10
-11.5939925
20
-12.3921768
11
-11.9950247
21
-12.4753592
0
LINE
8
layer0
10
-11.9950247
20
-12.4753592
11
-12.4232097
21
-12.5456318
0
LINE
8
layer0
10
-12.4232097
20
-12.5456318
11
-12.8789166
21
-12.6009414
0
LINE
8
layer0
10
-12.8789166
20
-12.6009414
11
-13.3610778
21
-12.6390724
0
LINE
8
layer0
10
-13.3610778
20
-12.6390724
11
-13.8332362
21
-12.6571499
0
ARC
8
layer0
10
0.0000128
20
0.000011
40
18.75
50
220.618999
51
222.4579229
0
LINE
8
layer0
10
-14.2322774
20
-12.2067255
11
-14.1574193
21
-11.7401887
0
LINE
8
layer0
10
-14.1574193
20
-11.7401887
11
-14.0614482
21
-11.2661392
0
LINE
8
layer0
10
-14.0614482
20
-11.2661392
11
-13.9516124
21
-10.8204217
0
LINE
8
layer0
10
-13.9516124
20
-10.8204217
11
-13.8302402
21
-10.403829
0
LINE
8
layer0
10
-13.8302402
20
-10.403829
11
-13.6993253
21
-10.0157474
0
LINE
8
layer0
10
-13.6993253
20
-10.0157474
11
-13.5606807
21
-9.6554118
0
LINE
8
layer0
10
-13.5606807
20
-9.6554118
11
-13.4179428
21
-9.326244
0
LINE
8
layer0
10
-13.4179428
20
-9.326244
11
-13.2711878
21
-9.0232358
0
LINE
8
layer0
10
-13.2711878
20
-9.0232358
11
-13.1241169
21
-8.7494703
0
LINE
8
layer0
10
-13.1241169
20
-8.7494703
11
-12.978062
21
-8.5029476
0
LINE
8
layer0
10
-12.978062
20
-8.5029476
11
-12.8360723
21
-8.2846579
0
LINE
8
layer0
10
-12.8360723
20
-8.2846579
11
-12.6989945
21
-8.092019
0
LINE
8
layer0
10
-12.6989945
20
-8.092019
11
-12.5692507
21
-7.9249357
0
LINE
8
layer0
10
-12.5692507
20
-7.9249357
11
-12.3373017
21
-7.6613178
0
LINE
8
layer0
10
-12.3373017
20
-7.6613178
11
-12.104988
21
-7.4182774
0
LINE
8
layer0
10
-12.104988
20
-7.4182774
11
-12.0018725
21
-7.2738996
0
LINE
8
layer0
10
-12.0018725
20
-7.2738996
11
-11.9317083
21
-7.1350368
0
LINE
8
layer0
10
-11.9317083
20
-7.1350368
11
-11.8937939
21
-7.0041667
0
LINE
8
layer0
10
-11.8937939
20
-7.0041667
11
-11.8872981
21
-6.883733
0
LINE
8
layer0
10
-11.8872981
20
-6.883733
11
-11.8955302
21
-6.8281748
0
LINE
8
layer0
10
-11.8955302
20
-6.8281748
11
-11.9112305
21
-6.7761183
0
LINE
8
layer0
10
-11.9112305
20
-6.7761183
11
-11.9342547
21
-6.727838
0
LINE
8
layer0
10
-11.9342547
20
-6.727838
11
-12.1307476
21
-6.3667075
0
LINE
8
layer0
10
-12.1307476
20
-6.3667075
11
-12.3163315
21
-5.9998515
0
LINE
8
layer0
10
-12.3163315
20
-5.9998515
11
-12.3429862
21
-5.9534766
0
LINE
8
layer0
10
-12.3429862
20
-5.9534766
11
-12.3769091
21
-5.9109841
0
LINE
8
layer0
10
-12.3769091
20
-5.9109841
11
-12.4179562
21
-5.8726485
0
LINE
8
layer0
10
-12.4179562
20
-5.8726485
11
-12.5207612
21
-5.8095803
0
LINE
8
layer0
10
-12.5207612
20
-5.8095803
11
-12.6500031
21
-5.7664406
0
LINE
8
layer0
10
-12.6500031
20
-5.7664406
11
-12.8041427
21
-5.7453015
0
LINE
8
layer0
10
-12.8041427
20
-5.7453015
11
-12.9815396
21
-5.748148
0
LINE
8
layer0
10
-12.9815396
20
-5.748148
11
-13.3135271
21
-5.8012757
0
LINE
8
layer0
10
-13.3135271
20
-5.8012757
11
-13.6622424
21
-5.8424139
0
LINE
8
layer0
10
-13.6622424
20
-5.8424139
11
-13.8734522
21
-5.8542769
0
LINE
8
layer0
10
-13.8734522
20
-5.8542769
11
-14.1098599
21
-5.8576583
0
LINE
8
layer0
10
-14.1098599
20
-5.8576583
11
-14.3701682
21
-5.8505109
0
LINE
8
layer0
10
-14.3701682
20
-5.8505109
11
-14.6560211
21
-5.8306708
0
LINE
8
layer0
10
-14.6560211
20
-5.8306708
11
-14.9648714
21
-5.7961913
0
LINE
8
layer0
10
-14.9648714
20
-5.7961913
11
-15.2976086
21
-5.74484
0
LINE
8
layer0
10
-15.2976086
20
-5.74484
11
-15.6495927
21
-5.6753224
0
LINE
8
layer0
10
-15.6495927
20
-5.6753224
11
-16.0249022
21
-5.5847306
0
LINE
8
layer0
10
-16.0249022
20
-5.5847306
11
-16.4186554
21
-5.4720161
0
LINE
8
layer0
10
-16.4186554
20
-5.4720161
11
-16.8304517
21
-5.3352518
0
LINE
8
layer0
10
-16.8304517
20
-5.3352518
11
-17.2596638
21
-5.1724485
0
LINE
8
layer0
10
-17.2596638
20
-5.1724485
11
-17.7043167
21
-4.9821404
0
LINE
8
layer0
10
-17.7043167
20
-4.9821404
11
-18.1307932
21
-4.7787242
0
ARC
8
layer0
10
0.000016
20
0.0000054
40
18.75
50
192.9266961
51
194.7656202
0
LINE
8
layer0
10
-18.2748039
20
-4.1944496
11
-17.99171
21
-3.81614
0
LINE
8
layer0
10
-17.99171
20
-3.81614
11
-17.68643
21
-3.44099
0
LINE
8
layer0
10
-17.68643
20
-3.44099
11
-17.38204
21
-3.09737
0
LINE
8
layer0
10
-17.38204
20
-3.09737
11
-17.08097
21
-2.7849
0
LINE
8
layer0
10
-17.08097
20
-2.7849
11
-16.7847
21
-2.50211
0
LINE
8
layer0
10
-16.7847
20
-2.50211
11
-16.49448
21
-2.24748
0
LINE
8
layer0
10
-16.49448
20
-2.24748
11
-16.21512
21
-2.02235
0
LINE
8
layer0
10
-16.21512
20
-2.02235
11
-15.94436
21
-1.82225
0
LINE
8
layer0
10
-15.94436
20
-1.82225
11
-15.68691
21
-1.64819
0
LINE
8
layer0
10
-15.68691
20
-1.64819
11
-15.44302
21
-1.49778
0
LINE
8
layer0
10
-15.44302
20
-1.49778
11
-15.21585
21
-1.37048
0
LINE
8
layer0
10
-15.21585
20
-1.37048
11
-15.00495
21
-1.26361
0
LINE
8
layer0
10
-15.00495
20
-1.26361
11
-14.81242
21
-1.17596
0
LINE
8
layer0
10
-14.81242
20
-1.17596
11
-14.48453
21
-1.05033
0
LINE
8
layer0
10
-14.48453
20
-1.05033
11
-14.16588
21
-0.94309
0
LINE
8
layer0
10
-14.16588
20
-0.94309
11
-14.00748
21
-0.86317
0
LINE
8
layer0
10
-14.00748
20
-0.86317
11
-13.88082
21
-0.77282
0
LINE
8
layer0
10
-13.88082
20
-0.77282
11
-13.78643
21
-0.67456
0
LINE
8
layer0
10
-13.78643
20
-0.67456
11
-13.72471
21
-0.57094
0
LINE
8
layer0
10
-13.72471
20
-0.57094
11
-13.70618
21
-0.51792
0
LINE
8
layer0
10
-13.70618
20
-0.51792
11
-13.69589
21
-0.46453
0
LINE
8
layer0
10
-13.69589
20
-0.46453
11
-13.69384
21
-0.41108
0
LINE
8
layer0
10
-13.69384
20
-0.41108
11
-13.7
21
0
0
LINE
8
layer0
10
-13.7
20
0
11
-13.69384
21
0.41108
0
LINE
8
layer0
10
-13.69384
20
0.41108
11
-13.69589
21
0.46453
0
LINE
8
layer0
10
-13.69589
20
0.46453
11
-13.70618
21
0.51792
0
LINE
8
layer0
10
-13.70618
20
0.51792
11
-13.72471
21
0.57094
0
LINE
8
layer0
10
-13.72471
20
0.57094
11
-13.78643
21
0.67456
0
LINE
8
layer0
10
-13.78643
20
0.67456
11
-13.88082
21
0.77282
0
LINE
8
layer0
10
-13.88082
20
0.77282
11
-14.00748
21
0.86317
0
LINE
8
layer0
10
-14.00748
20
0.86317
11
-14.16588
21
0.94309
0
LINE
8
layer0
10
-14.16588
20
0.94309
11
-14.48453
21
1.05033
0
LINE
8
layer0
10
-14.48453
20
1.05033
11
-14.81242
21
1.17596
0
LINE
8
layer0
10
-14.81242
20
1.17596
11
-15.00495
21
1.26361
0
LINE
8
layer0
10
-15.00495
20
1.26361
11
-15.21585
21
1.37048
0
LINE
8
layer0
10
-15.21585
20
1.37048
11
-15.44302
21
1.49778
0
LINE
8
layer0
10
-15.44302
20
1.49778
11
-15.68691
21
1.64819
0
LINE
8
layer0
10
-15.68691
20
1.64819
11
-15.94436
21
1.82225
0
LINE
8
layer0
10
-15.94436
20
1.82225
11
-16.21512
21
2.02235
0
LINE
8
layer0
10
-16.21512
20
2.02235
11
-16.49448
21
2.24748
0
LINE
8
layer0
10
-16.49448
20
2.24748
11
-16.7847
21
2.50211
0
LINE
8
layer0
10
-16.7847
20
2.50211
11
-17.08097
21
2.7849
0
LINE
8
layer0
10
-17.08097
20
2.7849
11
-17.38204
21
3.09737
0
LINE
8
layer0
10
-17.38204
20
3.09737
11
-17.68643
21
3.44099
0
LINE
8
layer0
10
-17.68643
20
3.44099
11
-17.99171
21
3.81614
0
LINE
8
layer0
10
-17.99171
20
3.81614
11
-18.2748039
21
4.1944496
0
ARC
8
layer0
10
0.0000161
20
-0.0000054
40
18.75
50
165.2343798
51
167.0733039
0
LINE
8
layer0
10
-18.1307932
20
4.7787242
11
-17.7043167
21
4.9821404
0
LINE
8
layer0
10
-17.7043167
20
4.9821404
11
-17.2596638
21
5.1724485
0
LINE
8
layer0
10
-17.2596638
20
5.1724485
11
-16.8304517
21
5.3352518
0
LINE
8
layer0
10
-16.8304517
20
5.3352518
11
-16.4186554
21
5.4720161
0
LINE
8
layer0
10
-16.4186554
20
5.4720161
11
-16.0249022
21
5.5847306
0
LINE
8
layer0
10
-16.0249022
20
5.5847306
11
-15.6495927
21
5.6753224
0
LINE
8
layer0
10
-15.6495927
20
5.6753224
11
-15.2976086
21
5.74484
0
LINE
8
layer0
10
-15.2976086
20
5.74484
11
-14.9648714
21
5.7961913
0
LINE
8
layer0
10
-14.9648714
20
5.7961913
11
-14.6560211
21
5.8306708
0
LINE
8
layer0
10
-14.6560211
20
5.8306708
11
-14.3701682
21
5.8505109
0
LINE
8
layer0
10
-14.3701682
20
5.8505109
11
-14.1098599
21
5.8576583
0
LINE
8
layer0
10
-14.1098599
20
5.8576583
11
-13.8734522
21
5.8542769
0
LINE
8
layer0
10
-13.8734522
20
5.8542769
11
-13.6622424
21
5.8424139
0
LINE
8
layer0
10
-13.6622424
20
5.8424139
11
-13.3135271
21
5.8012757
0
LINE
8
layer0
10
-13.3135271
20
5.8012757
11
-12.9815396
21
5.748148
0
LINE
8
layer0
10
-12.9815396
20
5.748148
11
-12.8041427
21
5.7453015
0
LINE
8
layer0
10
-12.8041427
20
5.7453015
11
-12.6500031
21
5.7664406
0
LINE
8
layer0
10
-12.6500031
20
5.7664406
11
-12.5207612
21
5.8095803
0
LINE
8
layer0
10
-12.5207612
20
5.8095803
11
-12.4179562
21
5.8726485
0
LINE
8
layer0
10
-12.4179562
20
5.8726485
11
-12.3769091
21
5.9109841
0
LINE
8
layer0
10
-12.3769091
20
5.9109841
11
-12.3429862
21
5.9534766
0
LINE
8
layer0
10
-12.3429862
20
5.9534766
11
-12.3163315
21
5.9998515
0
LINE
8
layer0
10
-12.3163315
20
5.9998515
11
-12.1307476
21
6.3667075
0
LINE
8
layer0
10
-12.1307476
20
6.3667075
11
-11.9342547
21
6.727838
0
LINE
8
layer0
10
-11.9342547
20
6.727838
11
-11.9112305
21
6.7761183
0
LINE
8
layer0
10
-11.9112305
20
6.7761183
11
-11.8955302
21
6.8281748
0
LINE
8
layer0
10
-11.8955302
20
6.8281748
11
-11.8872981
21
6.883733
0
LINE
8
layer0
10
-11.8872981
20
6.883733
11
-11.8937939
21
7.0041667
0
LINE
8
layer0
10
-11.8937939
20
7.0041667
11
-11.9317083
21
7.1350368
0
LINE
8
layer0
10
-11.9317083
20
7.1350368
11
-12.0018725
21
7.2738996
0
LINE
8
layer0
10
-12.0018725
20
7.2738996
11
-12.104988
21
7.4182774
0
LINE
8
layer0
10
-12.104988
20
7.4182774
11
-12.3373017
21
7.6613178
0
LINE
8
layer0
10
-12.3373017
20
7.6613178
11
-12.5692507
21
7.9249357
0
LINE
8
layer0
10
-12.5692507
20
7.9249357
11
-12.6989945
21
8.092019
0
LINE
8
layer0
10
-12.6989945
20
8.092019
11
-12.8360723
21
8.2846579
0
LINE
8
layer0
10
-12.8360723
20
8.2846579
11
-12.978062
21
8.5029476
0
LINE
8
layer0
10
-12.978062
20
8.5029476
11
-13.1241169
21
8.7494703
0
LINE
8
layer0
10
-13.1241169
20
8.7494703
11
-13.2711878
21
9.0232358
0
LINE
8
layer0
10
-13.2711878
20
9.0232358
11
-13.4179428
21
9.326244
0
LINE
8
layer0
10
-13.4179428
20
9.326244
11
-13.5606807
21
9.6554118
0
LINE
8
layer0
10
-13.5606807
20
9.6554118
11
-13.6993253
21
10.0157474
0
LINE
8
layer0
10
-13.6993253
20
10.0157474
11
-13.8302402
21
10.403829
0
LINE
8
layer0
10
-13.8302402
20
10.403829
11
-13.9516124
21
10.8204217
0
LINE
8
layer0
10
-13.9516124
20
10.8204217
11
-14.0614482
21
11.2661392
0
LINE
8
layer0
10
-14.0614482
20
11.2661392
11
-14.1574193
21
11.7401887
0
LINE
8
layer0
10
-14.1574193
20
11.7401887
11
-14.2322774
21
12.2067255
0
ARC
8
layer0
10
0.0000127
20
-0.0000111
40
18.75
50
137.5420771
51
139.381001
0
LINE
8
layer0
10
-13.8332362
20
12.6571499
11
-13.3610778
21
12.6390724
0
LINE
8
layer0
10
-13.3610778
20
12.6390724
11
-12.8789166
21
12.6009414
0
LINE
8
layer0
10
-12.8789166
20
12.6009414
11
-12.4232097
21
12.5456318
0
LINE
8
layer0
10
-12.4232097
20
12.5456318
11
-11.9950247
21
12.4753592
0
LINE
8
layer0
10
-11.9950247
20
12.4753592
11
-11.5939925
21
12.3921768
0
LINE
8
layer0
10
-11.5939925
20
12.3921768
11
-11.2195724
21
12.2979768
0
LINE
8
layer0
10
-11.2195724
20
12.2979768
11
-10.8755995
21
12.1959564
0
LINE
8
layer0
10
-10.8755995
20
12.1959564
11
-10.5571112
21
12.086795
0
LINE
8
layer0
10
-10.5571112
20
12.086795
11
-10.2676143
21
11.9737952
0
LINE
8
layer0
10
-10.2676143
20
11.9737952
11
-10.005284
21
11.8585203
0
LINE
8
layer0
10
-10.005284
20
11.8585203
11
-9.7714709
21
11.7438777
0
LINE
8
layer0
10
-9.7714709
20
11.7438777
11
-9.5637138
21
11.6310195
0
LINE
8
layer0
10
-9.5637138
20
11.6310195
11
-9.3822097
21
11.5223613
0
LINE
8
layer0
10
-9.3822097
20
11.5223613
11
-9.0925555
21
11.323879
0
LINE
8
layer0
10
-9.0925555
20
11.323879
11
-8.8232849
21
11.1225545
0
LINE
8
layer0
10
-8.8232849
20
11.1225545
11
-8.6675306
21
11.0375936
0
LINE
8
layer0
10
-8.6675306
20
11.0375936
11
-8.5212229
21
10.9846791
0
LINE
8
layer0
10
-8.5212229
20
10.9846791
11
-8.3867369
21
10.9628157
0
LINE
8
layer0
10
-8.3867369
20
10.9628157
11
-8.2663983
21
10.970884
0
LINE
8
layer0
10
-8.2663983
20
10.970884
11
-8.2122375
21
10.9857529
0
LINE
8
layer0
10
-8.2122375
20
10.9857529
11
-8.162453
21
11.0076134
0
LINE
8
layer0
10
-8.162453
20
11.0076134
11
-8.1173
21
11.0362893
0
LINE
8
layer0
10
-8.1173
20
11.0362893
11
-7.782487
21
11.274879
0
LINE
8
layer0
10
-7.782487
20
11.274879
11
-7.4406755
21
11.5033294
0
LINE
8
layer0
10
-7.4406755
20
11.5033294
11
-7.3978516
21
11.5353796
0
LINE
8
layer0
10
-7.3978516
20
11.5353796
11
-7.3597579
21
11.5741771
0
LINE
8
layer0
10
-7.3597579
20
11.5741771
11
-7.3266495
21
11.6195458
0
LINE
8
layer0
10
-7.3266495
20
11.6195458
11
-7.2764329
21
11.7292032
0
LINE
8
layer0
10
-7.2764329
20
11.7292032
11
-7.2491861
21
11.8627027
0
LINE
8
layer0
10
-7.2491861
20
11.8627027
11
-7.2467806
21
12.0182665
0
LINE
8
layer0
10
-7.2467806
20
12.0182665
11
-7.2709892
21
12.1940269
0
LINE
8
layer0
10
-7.2709892
20
12.1940269
11
-7.3637462
21
12.5171899
0
LINE
8
layer0
10
-7.3637462
20
12.5171899
11
-7.4466175
21
12.8584041
0
LINE
8
layer0
10
-7.4466175
20
12.8584041
11
-7.4838525
21
13.0666441
0
LINE
8
layer0
10
-7.4838525
20
13.0666441
11
-7.515705
21
13.3009204
0
LINE
8
layer0
10
-7.515705
20
13.3009204
11
-7.5399865
21
13.5601923
0
LINE
8
layer0
10
-7.5399865
20
13.5601923
11
-7.5547468
21
13.8463525
0
LINE
8
layer0
10
-7.5547468
20
13.8463525
11
-7.5577465
21
14.157107
0
LINE
8
layer0
10
-7.5577465
20
14.157107
11
-7.5468766
21
14.4936079
0
LINE
8
layer0
10
-7.5468766
20
14.4936079
11
-7.5202928
21
14.8514051
0
LINE
8
layer0
10
-7.5202928
20
14.8514051
11
-7.4756002
21
15.2348978
0
LINE
8
layer0
10
-7.4756002
20
15.2348978
11
-7.4111691
21
15.6393662
0
LINE
8
layer0
10
-7.4111691
20
15.6393662
11
-7.3250386
21
16.0646452
0
LINE
8
layer0
10
-7.3250386
20
16.0646452
11
-7.2151581
21
16.5103516
0
LINE
8
layer0
10
-7.2151581
20
16.5103516
11
-7.0798345
21
16.9747017
0
LINE
8
layer0
10
-7.0798345
20
16.9747017
11
-6.9293075
21
17.4225877
0
ARC
8
layer0
10
0.0000067
20
-0.0000156
40
18.75
50
109.8497709
51
111.688695
0
LINE
8
layer0
10
-6.3666515
20
17.635975
11
-5.956977
21
17.4005453
0
LINE
8
layer0
10
-5.956977
20
17.4005453
11
-5.5477649
21
17.1427105
0
LINE
8
layer0
10
-5.5477649
20
17.1427105
11
-5.1699601
21
16.8819587
0
LINE
8
layer0
10
-5.1699601
20
16.8819587
11
-4.8234784
21
16.6207479
0
LINE
8
layer0
10
-4.8234784
20
16.6207479
11
-4.5070388
21
16.3607246
0
LINE
8
layer0
10
-4.5070388
20
16.3607246
11
-4.2192832
21
16.1033129
0
LINE
8
layer0
10
-4.2192832
20
16.1033129
11
-3.9621215
21
15.8531262
0
LINE
8
layer0
10
-3.9621215
20
15.8531262
11
-3.730844
21
15.6084597
0
LINE
8
layer0
10
-3.730844
20
15.6084597
11
-3.5270209
21
15.3738674
0
LINE
8
layer0
10
-3.5270209
20
15.3738674
11
-3.3483099
21
15.1498856
0
LINE
8
layer0
10
-3.3483099
20
15.1498856
11
-3.1945557
21
14.9397162
0
LINE
8
layer0
10
-3.1945557
20
14.9397162
11
-3.0630437
21
14.7432357
0
LINE
8
layer0
10
-3.0630437
20
14.7432357
11
-2.9528259
21
14.5626745
0
LINE
8
layer0
10
-2.9528259
20
14.5626745
11
-2.7885891
21
14.2523182
0
LINE
8
layer0
10
-2.7885891
20
14.2523182
11
-2.643722
21
13.9489178
0
LINE
8
layer0
10
-2.643722
20
13.9489178
11
-2.5452917
21
13.8013061
0
LINE
8
layer0
10
-2.5452917
20
13.8013061
11
-2.4403332
21
13.68646
0
LINE
8
layer0
10
-2.4403332
20
13.68646
11
-2.3314122
21
13.6046022
0
LINE
8
layer0
10
-2.3314122
20
13.6046022
11
-2.2211082
21
13.5558222
0
LINE
8
layer0
10
-2.2211082
20
13.5558222
11
-2.1662412
21
13.5438182
0
LINE
8
layer0
10
-2.1662412
20
13.5438182
11
-2.1120002
21
13.5400386
0
LINE
8
layer0
10
-2.1120002
20
13.5400386
11
-2.0586928
21
13.5444463
0
LINE
8
layer0
10
-2.0586928
20
13.5444463
11
-1.6513525
21
13.6001116
0
LINE
8
layer0
10
-1.6513525
20
13.6001116
11
-1.2425272
21
13.6435467
0
LINE
8
layer0
10
-1.2425272
20
13.6435467
11
-1.1897141
21
13.6520244
0
LINE
8
layer0
10
-1.1897141
20
13.6520244
11
-1.1379537
21
13.6686749
0
LINE
8
layer0
10
-1.1379537
20
13.6686749
11
-1.0875538
21
13.6934606
0
LINE
8
layer0
10
-1.0875538
20
13.6934606
11
-0.9921288
21
13.7672206
0
LINE
8
layer0
10
-0.9921288
20
13.7672206
11
-0.9059627
21
13.8727664
0
LINE
8
layer0
10
-0.9059627
20
13.8727664
11
-0.8315386
21
14.0093933
0
LINE
8
layer0
10
-0.8315386
20
14.0093933
11
-0.7712943
21
14.1762717
0
LINE
8
layer0
10
-0.7712943
20
14.1762717
11
-0.7032452
21
14.5055248
0
LINE
8
layer0
10
-0.7032452
20
14.5055248
11
-0.618054
21
14.8461671
0
LINE
8
layer0
10
-0.618054
20
14.8461671
11
-0.55425
21
15.0478584
0
LINE
8
layer0
10
-0.55425
20
15.0478584
11
-0.4735804
21
15.2701024
0
LINE
8
layer0
10
-0.4735804
20
15.2701024
11
-0.3745909
21
15.5109604
0
LINE
8
layer0
10
-0.3745909
20
15.5109604
11
-0.2546752
21
15.7712021
0
LINE
8
layer0
10
-0.2546752
20
15.7712021
11
-0.1129165
21
16.0477556
0
LINE
8
layer0
10
-0.1129165
20
16.0477556
11
0.0530881
21
16.3406609
0
LINE
8
layer0
10
0.0530881
20
16.3406609
11
0.2429035
21
16.6451204
0
LINE
8
layer0
10
0.2429035
20
16.6451204
11
0.4606948
21
16.9639167
0
LINE
8
layer0
10
0.4606948
20
16.9639167
11
0.7057115
21
17.2921131
0
LINE
8
layer0
10
0.7057115
20
17.2921131
11
0.9796133
21
17.6286521
0
LINE
8
layer0
10
0.9796133
20
17.6286521
11
1.2840378
21
17.9722415
0
LINE
8
layer0
10
1.2840378
20
17.9722415
11
1.619655
21
18.320515
0
LINE
8
layer0
10
1.619655
20
18.320515
11
1.9610831
21
18.6471451
0
ARC
8
layer0
10
-9e-7
20
-0.0000169
40
18.75
50
82.1574645
51
83.9963887
0
LINE
8
layer0
10
2.5584563
20
18.5746108
11
2.8117954
21
18.175763
0
LINE
8
layer0
10
2.8117954
20
18.175763
11
3.054313
21
17.7572912
0
LINE
8
layer0
10
3.054313
20
17.7572912
11
3.2676651
21
17.3508323
0
LINE
8
layer0
10
3.2676651
20
17.3508323
11
3.4530687
21
16.9585235
0
LINE
8
layer0
10
3.4530687
20
16.9585235
11
3.6124232
21
16.5812276
0
LINE
8
layer0
10
3.6124232
20
16.5812276
11
3.7475929
21
16.2195741
0
LINE
8
layer0
10
3.7475929
20
16.2195741
11
3.8590307
21
15.8785358
0
LINE
8
layer0
10
3.8590307
20
15.8785358
11
3.9501146
21
15.5544143
0
LINE
8
layer0
10
3.9501146
20
15.5544143
11
4.0215705
21
15.2519719
0
LINE
8
layer0
10
4.0215705
20
15.2519719
11
4.0757217
21
14.9705946
0
LINE
8
layer0
10
4.0757217
20
14.9705946
11
4.1141937
21
14.7130458
0
LINE
8
layer0
10
4.1141937
20
14.7130458
11
4.1393327
21
14.4779543
0
LINE
8
layer0
10
4.1393327
20
14.4779543
11
4.1530148
21
14.2668545
0
LINE
8
layer0
10
4.1530148
20
14.2668545
11
4.1542095
21
13.915723
0
LINE
8
layer0
10
4.1542095
20
13.915723
11
4.1414858
21
13.5797522
0
LINE
8
layer0
10
4.1414858
20
13.5797522
11
4.1600429
21
13.4033056
0
LINE
8
layer0
10
4.1600429
20
13.4033056
11
4.1996074
21
13.2528379
0
LINE
8
layer0
10
4.1996074
20
13.2528379
11
4.2580109
21
13.1297383
0
LINE
8
layer0
10
4.2580109
20
13.1297383
11
4.3330111
21
13.0352849
0
LINE
8
layer0
10
4.3330111
20
13.0352849
11
4.3760148
21
12.9991579
0
LINE
8
layer0
10
4.3760148
20
12.9991579
11
4.4222864
21
12.9706042
0
LINE
8
layer0
10
4.4222864
20
12.9706042
11
4.4715361
21
12.9497338
0
LINE
8
layer0
10
4.4715361
20
12.9497338
11
4.858087
21
12.8097225
0
LINE
8
layer0
10
4.858087
20
12.8097225
11
5.2402691
21
12.6581918
0
LINE
8
layer0
10
5.2402691
20
12.6581918
11
5.2909726
21
12.641155
0
LINE
8
layer0
10
5.2909726
20
12.641155
11
5.344542
21
12.631844
0
LINE
8
layer0
10
5.344542
20
12.631844
11
5.4006874
21
12.6303687
0
LINE
8
layer0
10
5.4006874
20
12.6303687
11
5.51946
21
12.6513337
0
LINE
8
layer0
10
5.51946
20
12.6513337
11
5.6448059
21
12.7047464
0
LINE
8
layer0
10
5.6448059
20
12.7047464
11
5.7741988
21
12.791137
0
LINE
8
layer0
10
5.7741988
20
12.791137
11
5.9050947
21
12.9109036
0
LINE
8
layer0
10
5.9050947
20
12.9109036
11
6.1183607
21
13.1708187
0
LINE
8
layer0
10
6.1183607
20
13.1708187
11
6.3520982
21
13.4328521
0
LINE
8
layer0
10
6.3520982
20
13.4328521
11
6.5023245
21
13.5817897
0
LINE
8
layer0
10
6.5023245
20
13.5817897
11
6.6770358
21
13.741088
0
LINE
8
layer0
10
6.6770358
20
13.741088
11
6.876619
21
13.9083544
0
LINE
8
layer0
10
6.876619
20
13.9083544
11
7.1037394
21
14.0830594
0
LINE
8
layer0
10
7.1037394
20
14.0830594
11
7.3577813
21
14.2620568
0
LINE
8
layer0
10
7.3577813
20
14.2620568
11
7.6408909
21
14.4442654
0
LINE
8
layer0
10
7.6408909
20
14.4442654
11
7.9504535
21
14.6256393
0
LINE
8
layer0
10
7.9504535
20
14.6256393
11
8.2914501
21
14.8067067
0
LINE
8
layer0
10
8.2914501
20
14.8067067
11
8.6609222
21
14.9834452
0
LINE
8
layer0
10
8.6609222
20
14.9834452
11
9.0598476
21
15.1541472
0
LINE
8
layer0
10
9.0598476
20
15.1541472
11
9.4890761
21
15.3169075
0
LINE
8
layer0
10
9.4890761
20
15.3169075
11
9.9481012
21
15.4693192
0
LINE
8
layer0
10
9.9481012
20
15.4693192
11
10.4022133
21
15.5998662
0
ARC
8
layer0
10
-0.0000095
20
-0.000014
40
18.75
50
54.4651538
51
56.3040778
0
LINE
8
layer0
10
10.8974526
20
15.2580272
11
10.9364194
21
14.7871324
0
LINE
8
layer0
10
10.9364194
20
14.7871324
11
10.9566845
21
14.3038905
0
LINE
8
layer0
10
10.9566845
20
14.3038905
11
10.9567075
21
13.8448393
0
LINE
8
layer0
10
10.9567075
20
13.8448393
11
10.9385593
21
13.4113058
0
LINE
8
layer0
10
10.9385593
20
13.4113058
11
10.9043225
21
13.0031711
0
LINE
8
layer0
10
10.9043225
20
13.0031711
11
10.8559407
21
12.6201264
0
LINE
8
layer0
10
10.8559407
20
12.6201264
11
10.7961255
21
12.2663642
0
LINE
8
layer0
10
10.7961255
20
12.2663642
11
10.7261496
21
11.9370401
0
LINE
8
layer0
10
10.7261496
20
11.9370401
11
10.6488686
21
11.6360334
0
LINE
8
layer0
10
10.6488686
20
11.6360334
11
10.5660546
21
11.3617209
0
LINE
8
layer0
10
10.5660546
20
11.3617209
11
10.4804309
21
11.1157939
0
LINE
8
layer0
10
10.4804309
20
11.1157939
11
10.3934379
21
10.895948
0
LINE
8
layer0
10
10.3934379
20
10.895948
11
10.3074499
21
10.70267
0
LINE
8
layer0
10
10.3074499
20
10.70267
11
10.1453288
21
10.3912033
0
LINE
8
layer0
10
10.1453288
20
10.3912033
11
9.9779291
21
10.099629
0
LINE
8
layer0
10
9.9779291
20
10.099629
11
9.9123617
21
9.9347694
0
LINE
8
layer0
10
9.9123617
20
9.9347694
11
9.8774685
21
9.7831503
0
LINE
8
layer0
10
9.8774685
20
9.7831503
11
9.871975
21
9.6470095
0
LINE
8
layer0
10
9.871975
20
9.6470095
11
9.8944897
21
9.5285209
0
LINE
8
layer0
10
9.8944897
20
9.5285209
11
9.9157786
21
9.4765472
0
LINE
8
layer0
10
9.9157786
20
9.4765472
11
9.9434805
21
9.4297607
0
LINE
8
layer0
10
9.9434805
20
9.4297607
11
9.97739
21
9.3883934
0
LINE
8
layer0
10
9.97739
20
9.3883934
11
10.2545972
21
9.0847804
0
LINE
8
layer0
10
10.2545972
20
9.0847804
11
10.5225829
21
8.7729978
0
LINE
8
layer0
10
10.5225829
20
8.7729978
11
10.5595612
21
8.7343493
0
LINE
8
layer0
10
10.5595612
20
8.7343493
11
10.6026675
21
8.7012098
0
LINE
8
layer0
10
10.6026675
20
8.7012098
11
10.6516962
21
8.6738115
0
LINE
8
layer0
10
10.6516962
20
8.6738115
11
10.7666071
21
8.6371787
0
LINE
8
layer0
10
10.7666071
20
8.6371787
11
10.9024174
21
8.6262222
0
LINE
8
layer0
10
10.9024174
20
8.6262222
11
11.0571369
21
8.6425854
0
LINE
8
layer0
10
11.0571369
20
8.6425854
11
11.2286978
21
8.687803
0
LINE
8
layer0
10
11.2286978
20
8.687803
11
11.538324
21
8.8188367
0
LINE
8
layer0
10
11.538324
20
8.8188367
11
11.8670613
21
8.9422326
0
LINE
8
layer0
10
11.8670613
20
8.9422326
11
12.0692948
21
9.0042967
0
LINE
8
layer0
10
12.0692948
20
9.0042967
11
12.2980236
21
9.0641559
0
LINE
8
layer0
10
12.2980236
20
9.0641559
11
12.5524783
21
9.119512
0
LINE
8
layer0
10
12.5524783
20
9.119512
11
12.8347729
21
9.1686575
0
LINE
8
layer0
10
12.8347729
20
9.1686575
11
13.1429001
21
9.2090927
0
LINE
8
layer0
10
13.1429001
20
9.2090927
11
13.4782577
21
9.2388628
0
LINE
8
layer0
10
13.4782577
20
9.2388628
11
13.8366505
21
9.2556005
0
LINE
8
layer0
10
13.8366505
20
9.2556005
11
14.2227342
21
9.2574587
0
LINE
8
layer0
10
14.2227342
20
9.2574587
11
14.6320199
21
9.2422506
0
LINE
8
layer0
10
14.6320199
20
9.2422506
11
15.06458
21
9.2080098
0
LINE
8
layer0
10
15.06458
20
9.2080098
11
15.5202814
21
9.1526545
0
LINE
8
layer0
10
15.5202814
20
9.1526545
11
15.9975572
21
9.0742888
0
LINE
8
layer0
10
15.9975572
20
9.0742888
11
16.4603217
21
8.978846
0
ARC
8
layer0
10
-0.0000153
20
-0.0000073
40
18.75
50
26.7728439
51
28.6117679
0
LINE
8
layer0
10
16.7399739
20
8.4460134
11
16.5556415
21
8.0109479
0
LINE
8
layer1
10
16.5556415
20
8.0109479
11
16.3490117
21
7.5736408
0
LINE
8
layer1
10
16.3490117
20
7.5736408
11
16.1357003
21
7.1671605
0
LINE
8
layer1
10
16.1357003
20
7.1671605
11
15.9181579
21
6.7917195
0
LINE
8
layer1
10
15.9181579
20
6.7917195
11
15.698173
21
6.4462449
0
LINE
8
layer1
10
15.698173
20
6.4462449
11
15.4773232
21
6.1295598
0
LINE
8
layer1
10
15.4773232
20
6.1295598
11
15.259958
21
5.8441164
0
LINE
8
layer1
10
15.259958
20
5.8441164
11
15.0449529
21
5.5850338
0
LINE
8
layer1
10
15.0449529
20
5.5850338
11
14.8366392
21
5.3544199
0
LINE
8
layer1
10
14.8366392
20
5.3544199
11
14.6358317
21
5.1500138
0
LINE
8
layer1
10
14.6358317
20
5.1500138
11
14.4457277
21
4.9720476
0
LINE
8
layer1
10
14.4457277
20
4.9720476
11
14.2665318
21
4.8178114
0
LINE
8
layer1
10
14.2665318
20
4.8178114
11
14.1005723
21
4.6866329
0
LINE
8
layer1
10
14.1005723
20
4.6866329
11
13.8122755
21
4.4861842
0
LINE
8
layer1
10
13.8122755
20
4.4861842
11
13.5285491
21
4.3058025
0
LINE
8
layer1
10
13.5285491
20
4.3058025
11
13.393878
21
4.1902972
0
LINE
8
layer1
10
13.393878
20
4.1902972
11
13.2925207
21
4.0722609
0
LINE
8
layer1
10
13.2925207
20
4.0722609
11
13.2243886
21
3.9542672
0
LINE
8
layer1
10
13.2243886
20
3.9542672
11
13.18926
21
3.8388876
0
LINE
8
layer1
10
13.18926
20
3.8388876
11
13.183957
21
3.7829738
0
LINE
8
layer1
10
13.183957
20
3.7829738
11
13.186743
21
3.7286726
0
LINE
8
layer1
10
13.186743
20
3.7286726
11
13.197544
21
3.6762852
0
LINE
8
layer1
10
13.197544
20
3.6762852
11
13.3019029
21
3.2786246
0
LINE
8
layer1
10
13.3019029
20
3.2786246
11
13.3942998
21
2.8780157
0
LINE
8
layer1
10
13.3942998
20
2.8780157
11
13.4090816
21
2.8266094
0
LINE
8
layer1
10
13.4090816
20
2.8266094
11
13.4318497
21
2.7772334
0
LINE
8
layer1
10
13.4318497
20
2.7772334
11
13.4625298
21
2.7301886
0
LINE
8
layer1
10
13.4625298
20
2.7301886
11
13.5472542
21
2.6443501
0
LINE
8
layer1
10
13.5472542
20
2.6443501
11
13.6624165
21
2.5715344
0
LINE
8
layer1
10
13.6624165
20
2.5715344
11
13.8070182
21
2.5141215
0
LINE
8
layer1
10
13.8070182
20
2.5141215
11
13.9799415
21
2.4744315
0
LINE
8
layer1
10
13.9799415
20
2.4744315
11
14.3149963
21
2.4465656
0
LINE
8
layer1
10
14.3149963
20
2.4465656
11
14.6634236
21
2.4030554
0
LINE
8
layer1
10
14.6634236
20
2.4030554
11
14.8713351
21
2.3640278
0
LINE
8
layer1
10
14.8713351
20
2.3640278
11
15.1016824
21
2.3107349
0
LINE
8
layer1
10
15.1016824
20
2.3107349
11
15.3527161
21
2.2414994
0
LINE
8
layer1
10
15.3527161
20
2.2414994
11
15.6255146
21
2.1538267
0
LINE
8
layer1
10
15.6255146
20
2.1538267
11
15.9171388
21
2.0464364
0
LINE
8
layer1
10
15.9171388
20
2.0464364
11
16.2279181
21
1.916948
0
LINE
8
layer1
10
16.2279181
20
1.916948
11
16.5530376
21
1.7652151
0
LINE
8
layer1
10
16.5530376
20
1.7652151
11
16.8957612
21
1.5874384
0
LINE
8
layer1
10
16.8957612
20
1.5874384
11
17.2510982
21
1.3837678
0
LINE
8
layer1
10
17.2510982
20
1.3837678
11
17.6181987
21
1.1524284
0
LINE
8
layer1
10
17.6181987
20
1.1524284
11
17.9959773
21
0.8916387
0
LINE
8
layer1
10
17.9959773
20
0.8916387
11
18.3821657
21
0.6004481
0
LINE
8
layer1
10
18.3821657
20
0.6004481
11
18.7475688
21
0.3008803
0
ARC
8
layer1
10
-0.0000169
20
0
40
18.75
50
359.0805378
51
360.9194619
0
LINE
8
layer1
10
18.7475688
20
-0.3008803
11
18.3821657
21
-0.6004481
0
LINE
8
layer1
10
18.3821657
20
-0.6004481
11
17.9959773
21
-0.8916387
0
LINE
8
layer1
10
17.9959773
20
-0.8916387
11
17.6181987
21
-1.1524284
0
LINE
8
layer1
10
17.6181987
20
-1.1524284
11
17.2510982
21
-1.3837678
0
LINE
8
layer1
10
17.2510982
20
-1.3837678
11
16.8957612
21
-1.5874384
0
LINE
8
layer1
10
16.8957612
20
-1.5874384
11
16.5530376
21
-1.7652151
0
LINE
8
layer1
10
16.5530376
20
-1.7652151
11
16.2279181
21
-1.916948
0
LINE
8
layer1
10
16.2279181
20
-1.916948
11
15.9171388
21
-2.0464364
0
LINE
8
layer1
10
15.9171388
20
-2.0464364
11
15.6255146
21
-2.1538267
0
LINE
8
layer1
10
15.6255146
20
-2.1538267
11
15.3527161
21
-2.2414994
0
LINE
8
layer1
10
15.3527161
20
-2.2414994
11
15.1016824
21
-2.3107349
0
LINE
8
layer1
10
15.1016824
20
-2.3107349
11
14.8713351
21
-2.3640278
0
LINE
8
layer1
10
14.8713351
20
-2.3640278
11
14.6634236
21
-2.4030554
0
LINE
8
layer1
10
14.6634236
20
-2.4030554
11
14.3149963
21
-2.4465656
0
LINE
8
layer1
10
14.3149963
20
-2.4465656
11
13.9799415
21
-2.4744315
0
LINE
8
layer1
10
13.9799415
20
-2.4744315
11
13.8070182
21
-2.5141215
0
LINE
8
layer1
10
13.8070182
20
-2.5141215
11
13.6624165
21
-2.5715344
0
LINE
8
layer1
10
13.6624165
20
-2.5715344
11
13.5472542
21
-2.6443501
0
LINE
8
layer1
10
13.5472542
20
-2.6443501
11
13.4625298
21
-2.7301886
0
LINE
8
layer1
10
13.4625298
20
-2.7301886
11
13.4318497
21
-2.7772334
0
LINE
8
layer1
10
13.4318497
20
-2.7772334
11
13.4090816
21
-2.8266094
0
LINE
8
layer1
10
13.4090816
20
-2.8266094
11
13.3942998
21
-2.8780157
0
LINE
8
layer1
10
13.3942998
20
-2.8780157
11
13.3019029
21
-3.2786246
0
LINE
8
layer1
10
13.3019029
20
-3.2786246
11
13.197544
21
-3.6762852
0
LINE
8
layer1
10
13.197544
20
-3.6762852
11
13.186743
21
-3.7286726
0
LINE
8
layer1
10
13.186743
20
-3.7286726
11
13.183957
21
-3.7829738
0
LINE
8
layer1
10
13.183957
20
-3.7829738
11
13.18926
21
-3.8388876
0
LINE
8
layer1
10
13.18926
20
-3.8388876
11
13.2243886
21
-3.9542672
0
LINE
8
layer1
10
13.2243886
20
-3.9542672
11
13.2925207
21
-4.0722609
0
LINE
8
layer1
10
13.2925207
20
-4.0722609
11
13.393878
21
-4.1902972
0
LINE
8
layer1
10
13.393878
20
-4.1902972
11
13.5285491
21
-4.3058025
0
LINE
8
layer1
10
13.5285491
20
-4.3058025
11
13.8122755
21
-4.4861842
0
LINE
8
layer1
10
13.8122755
20
-4.4861842
11
14.1005723
21
-4.6866329
0
LINE
8
layer1
10
14.1005723
20
-4.6866329
11
14.2665318
21
-4.8178114
0
LINE
8
layer1
10
14.2665318
20
-4.8178114
11
14.4457277
21
-4.9720476
0
LINE
8
layer1
10
14.4457277
20
-4.9720476
11
14.6358317
21
-5.1500138
0
LINE
8
layer1
10
14.6358317
20
-5.1500138
11
14.8366392
21
-5.3544199
0
LINE
8
layer1
10
14.8366392
20
-5.3544199
11
15.0449529
21
-5.5850338
0
LINE
8
layer1
10
15.0449529
20
-5.5850338
11
15.259958
21
-5.8441164
0
LINE
8
layer1
10
15.259958
20
-5.8441164
11
15.4773232
21
-6.1295598
0
LINE
8
layer1
10
15.4773232
20
-6.1295598
11
15.698173
21
-6.4462449
0
LINE
8
layer1
10
15.698173
20
-6.4462449
11
15.9181579
21
-6.7917195
0
LINE
8
layer1
10
15.9181579
20
-6.7917195
11
16.1357003
21
-7.1671605
0
LINE
8
layer1
10
16.1357003
20
-7.1671605
11
16.3490117
21
-7.5736408
0
LINE
8
layer1
10
16.3490117
20
-7.5736408
11
16.5556415
21
-8.0109479
0
LINE
8
layer1
10
16.5556415
20
-8.0109479
11
16.7399739
21
-8.4460134
0
ARC
8
layer1
10
-0.0000152
20
0.0000073
40
18.75
50
331.3882321
51
333.2271561
0
LINE
8
layer1
10
16.4603217
20
-8.978846
11
15.9975572
21
-9.0742888
0
LINE
8
layer1
10
15.9975572
20
-9.0742888
11
15.5202814
21
-9.1526545
0
LINE
8
layer1
10
15.5202814
20
-9.1526545
11
15.06458
21
-9.2080098
0
LINE
8
layer1
10
15.06458
20
-9.2080098
11
14.6320199
21
-9.2422506
0
LINE
8
layer1
10
14.6320199
20
-9.2422506
11
14.2227342
21
-9.2574587
0
LINE
8
layer1
10
14.2227342
20
-9.2574587
11
13.8366505
21
-9.2556005
0
LINE
8
layer1
10
13.8366505
20
-9.2556005
11
13.4782577
21
-9.2388628
0
LINE
8
layer1
10
13.4782577
20
-9.2388628
11
13.1429001
21
-9.2090927
0
LINE
8
layer1
10
13.1429001
20
-9.2090927
11
12.8347729
21
-9.1686575
0
LINE
8
layer1
10
12.8347729
20
-9.1686575
11
12.5524783
21
-9.119512
0
LINE
8
layer1
10
12.5524783
20
-9.119512
11
12.2980236
21
-9.0641559
0
LINE
8
layer1
10
12.2980236
20
-9.0641559
11
12.0692948
21
-9.0042967
0
LINE
8
layer1
10
12.0692948
20
-9.0042967
11
11.8670613
21
-8.9422326
0
LINE
8
layer1
10
11.8670613
20
-8.9422326
11
11.538324
21
-8.8188367
0
LINE
8
layer1
10
11.538324
20
-8.8188367
11
11.2286978
21
-8.687803
0
LINE
8
layer1
10
11.2286978
20
-8.687803
11
11.0571369
21
-8.6425854
0
LINE
8
layer1
10
11.0571369
20
-8.6425854
11
10.9024174
21
-8.6262222
0
LINE
8
layer1
10
10.9024174
20
-8.6262222
11
10.7666071
21
-8.6371787
0
LINE
8
layer1
10
10.7666071
20
-8.6371787
11
10.6516962
21
-8.6738115
0
LINE
8
layer1
10
10.6516962
20
-8.6738115
11
10.6026675
21
-8.7012098
0
LINE
8
layer1
10
10.6026675
20
-8.7012098
11
10.5595612
21
-8.7343493
0
LINE
8
layer1
10
10.5595612
20
-8.7343493
11
10.5225829
21
-8.7729978
0
LINE
8
layer1
10
10.5225829
20
-8.7729978
11
10.2545972
21
-9.0847804
0
LINE
8
layer1
10
10.2545972
20
-9.0847804
11
9.97739
21
-9.3883934
0
LINE
8
layer1
10
9.97739
20
-9.3883934
11
9.9434805
21
-9.4297607
0
LINE
8
layer1
10
9.9434805
20
-9.4297607
11
9.9157786
21
-9.4765472
0
LINE
8
layer1
10
9.9157786
20
-9.4765472
11
9.8944897
21
-9.5285209
0
LINE
8
layer1
10
9.8944897
20
-9.5285209
11
9.871975
21
-9.6470095
0
LINE
8
layer1
10
9.871975
20
-9.6470095
11
9.8774685
21
-9.7831503
0
LINE
8
layer1
10
9.8774685
20
-9.7831503
11
9.9123617
21
-9.9347694
0
LINE
8
layer1
10
9.9123617
20
-9.9347694
11
9.9779291
21
-10.099629
0
LINE
8
layer1
10
9.9779291
20
-10.099629
11
10.1453288
21
-10.3912033
0
LINE
8
layer1
10
10.1453288
20
-10.3912033
11
10.3074499
21
-10.70267
0
LINE
8
layer1
10
10.3074499
20
-10.70267
11
10.3934379
21
-10.895948
0
LINE
8
layer1
10
10.3934379
20
-10.895948
11
10.4804309
21
-11.1157939
0
LINE
8
layer1
10
10.4804309
20
-11.1157939
11
10.5660546
21
-11.3617209
0
LINE
8
layer1
10
10.5660546
20
-11.3617209
11
10.6488686
21
-11.6360334
0
LINE
8
layer1
10
10.6488686
20
-11.6360334
11
10.7261496
21
-11.9370401
0
LINE
8
layer1
10
10.7261496
20
-11.9370401
11
10.7961255
21
-12.2663642
0
LINE
8
layer1
10
10.7961255
20
-12.2663642
11
10.8559407
21
-12.6201264
0
LINE
8
layer1
10
10.8559407
20
-12.6201264
11
10.9043225
21
-13.0031711
0
LINE
8
layer1
10
10.9043225
20
-13.0031711
11
10.9385593
21
-13.4113058
0
LINE
8
layer1
10
10.9385593
20
-13.4113058
11
10.9567075
21
-13.8448393
0
LINE
8
layer1
10
10.9567075
20
-13.8448393
11
10.9566845
21
-14.3038905
0
LINE
8
layer1
10
10.9566845
20
-14.3038905
11
10.9364194
21
-14.7871324
0
LINE
8
layer1
10
10.9364194
20
-14.7871324
11
10.8974526
21
-15.2580272
0
ARC
8
layer1
10
-0.0000094
20
0.000014
40
18.75
50
303.6959219
51
305.5348459
0
LINE
8
layer1
10
10.4022133
20
-15.5998662
11
9.9481012
21
-15.4693192
0
LINE
8
layer1
10
9.9481012
20
-15.4693192
11
9.4890761
21
-15.3169075
0
LINE
8
layer1
10
9.4890761
20
-15.3169075
11
9.0598476
21
-15.1541472
0
LINE
8
layer1
10
9.0598476
20
-15.1541472
11
8.6609222
21
-14.9834452
0
LINE
8
layer1
10
8.6609222
20
-14.9834452
11
8.2914501
21
-14.8067067
0
LINE
8
layer1
10
8.2914501
20
-14.8067067
11
7.9504535
21
-14.6256393
0
LINE
8
layer1
10
7.9504535
20
-14.6256393
11
7.6408909
21
-14.4442654
0
LINE
8
layer1
10
7.6408909
20
-14.4442654
11
7.3577813
21
-14.2620568
0
LINE
8
layer1
10
7.3577813
20
-14.2620568
11
7.1037394
21
-14.0830594
0
LINE
8
layer1
10
7.1037394
20
-14.0830594
11
6.876619
21
-13.9083544
0
LINE
8
layer1
10
6.876619
20
-13.9083544
11
6.6770358
21
-13.741088
0
LINE
8
layer1
10
6.6770358
20
-13.741088
11
6.5023245
21
-13.5817897
0
LINE
8
layer1
10
6.5023245
20
-13.5817897
11
6.3520982
21
-13.4328521
0
LINE
8
layer1
10
6.3520982
20
-13.4328521
11
6.1183607
21
-13.1708187
0
LINE
8
layer1
10
6.1183607
20
-13.1708187
11
5.9050947
21
-12.9109036
0
LINE
8
layer1
10
5.9050947
20
-12.9109036
11
5.7741988
21
-12.791137
0
LINE
8
layer1
10
5.7741988
20
-12.791137
11
5.6448059
21
-12.7047464
0
LINE
8
layer1
10
5.6448059
20
-12.7047464
11
5.51946
21
-12.6513337
0
LINE
8
layer1
10
5.51946
20
-12.6513337
11
5.4006874
21
-12.6303687
0
LINE
8
layer1
10
5.4006874
20
-12.6303687
11
5.344542
21
-12.631844
0
LINE
8
layer1
10
5.344542
20
-12.631844
11
5.2909726
21
-12.641155
0
LINE
8
layer1
10
5.2909726
20
-12.641155
11
5.2402691
21
-12.6581918
0
LINE
8
layer1
10
5.2402691
20
-12.6581918
11
4.858087
21
-12.8097225
0
LINE
8
layer1
10
4.858087
20
-12.8097225
11
4.4715361
21
-12.9497338
0
LINE
8
layer1
10
4.4715361
20
-12.9497338
11
4.4222864
21
-12.9706042
0
LINE
8
layer1
10
4.4222864
20
-12.9706042
11
4.3760148
21
-12.9991579
0
LINE
8
layer1
10
4.3760148
20
-12.9991579
11
4.3330111
21
-13.0352849
0
LINE
8
layer1
10
4.3330111
20
-13.0352849
11
4.2580109
21
-13.1297383
0
LINE
8
layer1
10
4.2580109
20
-13.1297383
11
4.1996074
21
-13.2528379
0
LINE
8
layer1
10
4.1996074
20
-13.2528379
11
4.1600429
21
-13.4033056
0
LINE
8
layer1
10
4.1600429
20
-13.4033056
11
4.1414858
21
-13.5797522
0
LINE
8
layer1
10
4.1414858
20
-13.5797522
11
4.1542095
21
-13.915723
0
LINE
8
layer1
10
4.1542095
20
-13.915723
11
4.1530148
21
-14.2668545
0
LINE
8
layer1
10
4.1530148
20
-14.2668545
11
4.1393327
21
-14.4779543
0
LINE
8
layer1
10
4.1393327
20
-14.4779543
11
4.1141937
21
-14.7130458
0
LINE
8
layer1
10
4.1141937
20
-14.7130458
11
4.0757217
21
-14.9705946
0
LINE
8
layer1
10
4.0757217
20
-14.9705946
11
4.0215705
21
-15.2519719
0
LINE
8
layer1
10
4.0215705
20
-15.2519719
11
3.9501146
21
-15.5544143
0
LINE
8
layer1
10
3.9501146
20
-15.5544143
11
3.8590307
21
-15.8785358
0
LINE
8
layer1
10
3.8590307
20
-15.8785358
11
3.7475929
21
-16.2195741
0
LINE
8
layer1
10
3.7475929
20
-16.2195741
11
3.6124232
21
-16.5812276
0
LINE
8
layer1
10
3.6124232
20
-16.5812276
11
3.4530687
21
-16.9585235
0
LINE
8
layer1
10
3.4530687
20
-16.9585235
11
3.2676651
21
-17.3508323
0
LINE
8
layer1
10
3.2676651
20
-17.3508323
11
3.054313
21
-17.7572912
0
LINE
8
layer1
10
3.054313
20
-17.7572912
11
2.8117954
21
-18.175763
0
LINE
8
layer1
10
2.8117954
20
-18.175763
11
2.5584563
21
-18.5746108
0
ARC
8
layer1
10
-9e-7
20
0.000017
40
18.75
50
276.0036113
51
277.8425355
0
LINE
8
layer1
10
1.9610831
20
-18.6471451
11
1.619655
21
-18.320515
0
LINE
8
layer1
10
1.619655
20
-18.320515
11
1.2840378
21
-17.9722415
0
LINE
8
layer1
10
1.2840378
20
-17.9722415
11
0.9796133
21
-17.6286521
0
LINE
8
layer1
10
0.9796133
20
-17.6286521
11
0.7057115
21
-17.2921131
0
LINE
8
layer1
10
0.7057115
20
-17.2921131
11
0.4606948
21
-16.9639167
0
LINE
8
layer1
10
0.4606948
20
-16.9639167
11
0.2429035
21
-16.6451204
0
LINE
8
layer1
10
0.2429035
20
-16.6451204
11
0.0530881
21
-16.3406609
0
LINE
8
layer1
10
0.0530881
20
-16.3406609
11
-0.1129165
21
-16.0477556
0
LINE
8
layer1
10
-0.1129165
20
-16.0477556
11
-0.2546752
21
-15.7712021
0
LINE
8
layer1
10
-0.2546752
20
-15.7712021
11
-0.3745909
21
-15.5109604
0
LINE
8
layer1
10
-0.3745909
20
-15.5109604
11
-0.4735804
21
-15.2701024
0
LINE
8
layer1
10
-0.4735804
20
-15.2701024
11
-0.55425
21
-15.0478584
0
LINE
8
layer1
10
-0.55425
20
-15.0478584
11
-0.618054
21
-14.8461671
0
LINE
8
layer1
10
-0.618054
20
-14.8461671
11
-0.7032452
21
-14.5055248
0
LINE
8
layer1
10
-0.7032452
20
-14.5055248
11
-0.7712943
21
-14.1762717
0
LINE
8
layer1
10
-0.7712943
20
-14.1762717
11
-0.8315386
21
-14.0093933
0
LINE
8
layer1
10
-0.8315386
20
-14.0093933
11
-0.9059627
21
-13.8727664
0
LINE
8
layer1
10
-0.9059627
20
-13.8727664
11
-0.9921288
21
-13.7672206
0
LINE
8
layer1
10
-0.9921288
20
-13.7672206
11
-1.0875538
21
-13.6934606
0
LINE
8
layer1
10
-1.0875538
20
-13.6934606
11
-1.1379537
21
-13.6686749
0
LINE
8
layer1
10
-1.1379537
20
-13.6686749
11
-1.1897141
21
-13.6520244
0
LINE
8
layer1
10
-1.1897141
20
-13.6520244
11
-1.2425272
21
-13.6435467
0
LINE
8
layer1
10
-1.2425272
20
-13.6435467
11
-1.6513525
21
-13.6001116
0
LINE
8
layer1
10
-1.6513525
20
-13.6001116
11
-2.0586928
21
-13.5444463
0
LINE
8
layer1
10
-2.0586928
20
-13.5444463
11
-2.1120002
21
-13.5400386
0
LINE
8
layer1
10
-2.1120002
20
-13.5400386
11
-2.1662412
21
-13.5438182
0
LINE
8
layer1
10
-2.1662412
20
-13.5438182
11
-2.2211082
21
-13.5558222
0
LINE
8
layer1
10
-2.2211082
20
-13.5558222
11
-2.3314122
21
-13.6046022
0
LINE
8
layer1
10
-2.3314122
20
-13.6046022
11
-2.4403332
21
-13.68646
0
LINE
8
layer1
10
-2.4403332
20
-13.68646
11
-2.5452917
21
-13.8013061
0
LINE
8
layer1
10
-2.5452917
20
-13.8013061
11
-2.643722
21
-13.9489178
0
LINE
8
layer1
10
-2.643722
20
-13.9489178
11
-2.7885891
21
-14.2523182
0
LINE
8
layer1
10
-2.7885891
20
-14.2523182
11
-2.9528259
21
-14.5626745
0
LINE
8
layer1
10
-2.9528259
20
-14.5626745
11
-3.0630437
21
-14.7432357
0
LINE
8
layer1
10
-3.0630437
20
-14.7432357
11
-3.1945557
21
-14.9397162
0
LINE
8
layer1
10
-3.1945557
20
-14.9397162
11
-3.3483099
21
-15.1498856
0
LINE
8
layer1
10
-3.3483099
20
-15.1498856
11
-3.5270209
21
-15.3738674
0
LINE
8
layer1
10
-3.5270209
20
-15.3738674
11
-3.730844
21
-15.6084597
0
LINE
8
layer1
10
-3.730844
20
-15.6084597
11
-3.9621215
21
-15.8531262
0
LINE
8
layer1
10
-3.9621215
20
-15.8531262
11
-4.2192832
21
-16.1033129
0
LINE
8
layer1
10
-4.2192832
20
-16.1033129
11
-4.5070388
21
-16.3607246
0
LINE
8
layer1
10
-4.5070388
20
-16.3607246
11
-4.8234784
21
-16.6207479
0
LINE
8
layer1
10
-4.8234784
20
-16.6207479
11
-5.1699601
21
-16.8819587
0
LINE
8
layer1
10
-5.1699601
20
-16.8819587
11
-5.5477649
21
-17.1427105
0
LINE
8
layer1
10
-5.5477649
20
-17.1427105
11
-5.956977
21
-17.4005453
0
LINE
8
layer1
10
-5.956977
20
-17.4005453
11
-6.3666515
21
-17.635975
0
ARC
8
layer1
10
0.0000067
20
0.0000156
40
18.75
50
248.311305
51
250.1502291
0
LINE
8
layer1
10
-6.9293075
20
-17.4225877
11
-7.0798345
21
-16.9747017
0
LINE
8
layer1
10
-7.0798345
20
-16.9747017
11
-7.2151581
21
-16.5103516
0
LINE
8
layer1
10
-7.2151581
20
-16.5103516
11
-7.3250386
21
-16.0646452
0
LINE
8
layer1
10
-7.3250386
20
-16.0646452
11
-7.4111691
21
-15.6393662
0
LINE
8
layer1
10
-7.4111691
20
-15.6393662
11
-7.4756002
21
-15.2348978
0
LINE
8
layer1
10
-7.4756002
20
-15.2348978
11
-7.5202928
21
-14.8514051
0
LINE
8
layer1
10
-7.5202928
20
-14.8514051
11
-7.5468766
21
-14.4936079
0
LINE
8
layer1
10
-7.5468766
20
-14.4936079
11
-7.5577465
21
-14.157107
0
LINE
8
layer1
10
-7.5577465
20
-14.157107
11
-7.5547468
21
-13.8463525
0
LINE
8
layer1
10
-7.5547468
20
-13.8463525
11
-7.5399865
21
-13.5601923
0
LINE
8
layer1
10
-7.5399865
20
-13.5601923
11
-7.515705
21
-13.3009204
0
LINE
8
layer1
10
-7.515705
20
-13.3009204
11
-7.4838525
21
-13.0666441
0
LINE
8
layer1
10
-7.4838525
20
-13.0666441
11
-7.4466175
21
-12.8584041
0
LINE
8
layer1
10
-7.4466175
20
-12.8584041
11
-7.3637462
21
-12.5171899
0
LINE
8
layer1
10
-7.3637462
20
-12.5171899
11
-7.2709892
21
-12.1940269
0
LINE
8
layer1
10
-7.2709892
20
-12.1940269
11
-7.2467806
21
-12.0182665
0
LINE
8
layer1
10
-7.2467806
20
-12.0182665
11
-7.2491861
21
-11.8627027
0
LINE
8
layer1
10
-7.2491861
20
-11.8627027
11
-7.2764329
21
-11.7292032
0
LINE
8
layer1
10
-7.2764329
20
-11.7292032
11
-7.3266495
21
-11.6195458
0
LINE
8
layer1
10
-7.3266495
20
-11.6195458
11
-7.3597579
21
-11.5741771
0
LINE
8
layer1
10
-7.3597579
20
-11.5741771
11
-7.3978516
21
-11.5353796
0
LINE
8
layer1
10
-7.3978516
20
-11.5353796
11
-7.4406755
21
-11.5033294
0
LINE
8
layer1
10
-7.4406755
20
-11.5033294
11
-7.782487
21
-11.274879
0
LINE
8
layer1
10
-7.782487
20
-11.274879
11
-8.1173
21
-11.0362893
0
LINE
8
layer1
10
-8.1173
20
-11.0362893
11
-8.162453
21
-11.0076134
0
LINE
8
layer1
10
-8.162453
20
-11.0076134
11
-8.2122375
21
-10.9857529
0
LINE
8
layer1
10
-8.2122375
20
-10.9857529
11
-8.2663983
21
-10.970884
0
LINE
8
layer1
10
-8.2663983
20
-10.970884
11
-8.3867369
21
-10.9628157
0
LINE
8
layer1
10
-8.3867369
20
-10.9628157
11
-8.5212229
21
-10.9846791
0
LINE
8
layer1
10
-8.5212229
20
-10.9846791
11
-8.6675306
21
-11.0375936
0
LINE
8
layer1
10
-8.6675306
20
-11.0375936
11
-8.8232849
21
-11.1225545
0
LINE
8
layer1
10
-8.8232849
20
-11.1225545
11
-9.0925555
21
-11.323879
0
LINE
8
layer1
10
-9.0925555
20
-11.323879
11
-9.3822097
21
-11.5223613
0
LINE
8
layer1
10
-9.3822097
20
-11.5223613
11
-9.5637138
21
-11.6310195
0
LINE
8
layer1
10
-9.5637138
20
-11.6310195
11
-9.7714709
21
-11.7438777
0
LINE
8
layer1
10
-9.7714709
20
-11.7438777
11
-10.005284
21
-11.8585203
0
LINE
8
layer1
10
-10.005284
20
-11.8585203
11
-10.2676143
21
-11.9737952
0
LINE
8
layer1
10
-10.2676143
20
-11.9737952
11
-10.5571112
21
-12.086795
0
LINE
8
layer1
10
-10.5571112
20
-12.086795
11
-10.8755995
21
-12.1959564
0
LINE
8
layer1
10
-10.8755995
20
-12.1959564
11
-11.2195724
21
-12.2979768
0
LINE
8
layer1
10
-11.2195724
20
-12.2979768
11
-11.5939925
21
-12.3921768
0
LINE
8
layer1
10
-11.5939925
20
-12.3921768
11
-11.9950247
21
-12.4753592
0
LINE
8
layer1
10
-11.9950247
20
-12.4753592
11
-12.4232097
21
-12.5456318
0
LINE
8
layer1
10
-12.4232097
20
-12.5456318
11
-12.8789166
21
-12.6009414
0
LINE
8
layer1
10
-12.8789166
20
-12.6009414
11
-13.3610778
21
-12.6390724
0
LINE
8
layer1
10
-13.3610778
20
-12.6390724
11
-13.8332362
21
-12.6571499
0
ARC
8
layer1
10
0.0000128
20
0.000011
40
18.75
50
220.618999
51
222.4579229
0
LINE
8
layer1
10
-14.2322774
20
-12.2067255
11
-14.1574193
21
-11.7401887
0
LINE
8
layer1
10
-14.1574193
20
-11.7401887
11
-14.0614482
21
-11.2661392
0
LINE
8
layer1
10
-14.0614482
20
-11.2661392
11
-13.9516124
21
-10.8204217
0
LINE
8
layer1
10
-13.9516124
20
-10.8204217
11
-13.8302402
21
-10.403829
0
LINE
8
layer1
10
-13.8302402
20
-10.403829
11
-13.6993253
21
-10.0157474
0
LINE
8
layer1
10
-13.6993253
20
-10.0157474
11
-13.5606807
21
-9.6554118
0
LINE
8
layer1
10
-13.5606807
20
-9.6554118
11
-13.4179428
21
-9.326244
0
LINE
8
layer1
10
-13.4179428
20
-9.326244
11
-13.2711878
21
-9.0232358
0
LINE
8
layer1
10
-13.2711878
20
-9.0232358
11
-13.1241169
21
-8.7494703
0
LINE
8
layer1
10
-13.1241169
20
-8.7494703
11
-12.978062
21
-8.5029476
0
LINE
8
layer1
10
-12.978062
20
-8.5029476
11
-12.8360723
21
-8.2846579
0
LINE
8
layer1
10
-12.8360723
20
-8.2846579
11
-12.6989945
21
-8.092019
0
LINE
8
layer1
10
-12.6989945
20
-8.092019
11
-12.5692507
21
-7.9249357
0
LINE
8
layer1
10
-12.5692507
20
-7.9249357
11
-12.3373017
21
-7.6613178
0
LINE
8
layer1
10
-12.3373017
20
-7.6613178
11
-12.104988
21
-7.4182774
0
LINE
8
layer1
10
-12.104988
20
-7.4182774
11
-12.0018725
21
-7.2738996
0
LINE
8
layer1
10
-12.0018725
20
-7.2738996
11
-11.9317083
21
-7.1350368
0
LINE
8
layer1
10
-11.9317083
20
-7.1350368
11
-11.8937939
21
-7.0041667
0
LINE
8
layer1
10
-11.8937939
20
-7.0041667
11
-11.8872981
21
-6.883733
0
LINE
8
layer1
10
-11.8872981
20
-6.883733
11
-11.8955302
21
-6.8281748
0
LINE
8
layer1
10
-11.8955302
20
-6.8281748
11
-11.9112305
21
-6.7761183
0
LINE
8
layer1
10
-11.9112305
20
-6.7761183
11
-11.9342547
21
-6.727838
0
LINE
8
layer1
10
-11.9342547
20
-6.727838
11
-12.1307476
21
-6.3667075
0
LINE
8
layer1
10
-12.1307476
20
-6.3667075
11
-12.3163315
21
-5.9998515
0
LINE
8
layer1
10
-12.3163315
20
-5.9998515
11
-12.3429862
21
-5.9534766
0
LINE
8
layer1
10
-12.3429862
20
-5.9534766
11
-12.3769091
21
-5.9109841
0
LINE
8
layer1
10
-12.3769091
20
-5.9109841
11
-12.4179562
21
-5.8726485
0
LINE
8
layer1
10
-12.4179562
20
-5.8726485
11
-12.5207612
21
-5.8095803
0
LINE
8
layer1
10
-12.5207612
20
-5.8095803
11
-12.6500031
21
-5.7664406
0
LINE
8
layer1
10
-12.6500031
20
-5.7664406
11
-12.8041427
21
-5.7453015
0
LINE
8
layer1
10
-12.8041427
20
-5.7453015
11
-12.9815396
21
-5.748148
0
LINE
8
layer1
10
-12.9815396
20
-5.748148
11
-13.3135271
21
-5.8012757
0
LINE
8
layer1
10
-13.3135271
20
-5.8012757
11
-13.6622424
21
-5.8424139
0
LINE
8
layer1
10
-13.6622424
20
-5.8424139
11
-13.8734522
21
-5.8542769
0
LINE
8
layer1
10
-13.8734522
20
-5.8542769
11
-14.1098599
21
-5.8576583
0
LINE
8
layer1
10
-14.1098599
20
-5.8576583
11
-14.3701682
21
-5.8505109
0
LINE
8
layer1
10
-14.3701682
20
-5.8505109
11
-14.6560211
21
-5.8306708
0
LINE
8
layer1
10
-14.6560211
20
-5.8306708
11
-14.9648714
21
-5.7961913
0
LINE
8
layer1
10
-14.9648714
20
-5.7961913
11
-15.2976086
21
-5.74484
0
LINE
8
layer1
10
-15.2976086
20
-5.74484
11
-15.6495927
21
-5.6753224
0
LINE
8
layer1
10
-15.6495927
20
-5.6753224
11
-16.0249022
21
-5.5847306
0
LINE
8
layer1
10
-16.0249022
20
-5.5847306
11
-16.4186554
21
-5.4720161
0
LINE
8
layer1
10
-16.4186554
20
-5.4720161
11
-16.8304517
21
-5.3352518
0
LINE
8
layer1
10
-16.8304517
20
-5.3352518
11
-17.2596638
21
-5.1724485
0
LINE
8
layer1
10
-17.2596638
20
-5.1724485
11
-17.7043167
21
-4.9821404
0
LINE
8
layer1
10
-17.7043167
20
-4.9821404
11
-18.1307932
21
-4.7787242
0
ARC
8
layer1
10
0.000016
20
0.0000054
40
18.75
50
192.9266961
51
194.7656202
0
LINE
8
layer1
10
-18.2748039
20
-4.1944496
11
-17.99171
21
-3.81614
0
LINE
8
layer1
10
-17.99171
20
-3.81614
11
-17.68643
21
-3.44099
0
LINE
8
layer1
10
-17.68643
20
-3.44099
11
-17.38204
21
-3.09737
0
LINE
8
layer1
10
-17.38204
20
-3.09737
11
-17.08097
21
-2.7849
0
LINE
8
layer1
10
-17.08097
20
-2.7849
11
-16.7847
21
-2.50211
0
LINE
8
layer1
10
-16.7847
20
-2.50211
11
-16.49448
21
-2.24748
0
LINE
8
layer1
10
-16.49448
20
-2.24748
11
-16.21512
21
-2.02235
0
LINE
8
layer1
10
-16.21512
20
-2.02235
11
-15.94436
21
-1.82225
0
LINE
8
layer1
10
-15.94436
20
-1.82225
11
-15.68691
21
-1.64819
0
LINE
8
layer1
10
-15.68691
20
-1.64819
11
-15.44302
21
-1.49778
0
LINE
8
layer1
10
-15.44302
20
-1.49778
11
-15.21585
21
-1.37048
0
LINE
8
layer1
10
-15.21585
20
-1.37048
11
-15.00495
21
-1.26361
0
LINE
8
layer1
10
-15.00495
20
-1.26361
11
-14.81242
21
-1.17596
0
LINE
8
layer1
10
-14.81242
20
-1.17596
11
-14.48453
21
-1.05033
0
LINE
8
layer1
10
-14.48453
20
-1.05033
11
-14.16588
21
-0.94309
0
LINE
8
layer1
10
-14.16588
20
-0.94309
11
-14.00748
21
-0.86317
0
LINE
8
layer1
10
-14.00748
20
-0.86317
11
-13.88082
21
-0.77282
0
LINE
8
layer1
10
-13.88082
20
-0.77282
11
-13.78643
21
-0.67456
0
LINE
8
layer1
10
-13.78643
20
-0.67456
11
-13.72471
21
-0.57094
0
LINE
8
layer1
10
-13.72471
20
-0.57094
11
-13.70618
21
-0.51792
0
LINE
8
layer1
10
-13.70618
20
-0.51792
11
-13.69589
21
-0.46453
0
LINE
8
layer1
10
-13.69589
20
-0.46453
11
-13.69384
21
-0.41108
0
LINE
8
layer1
10
-13.69384
20
-0.41108
11
-13.7
21
0
0
LINE
8
layer1
10
-13.7
20
0
11
-13.69384
21
0.41108
0
LINE
8
layer1
10
-13.69384
20
0.41108
11
-13.69589
21
0.46453
0
LINE
8
layer1
10
-13.69589
20
0.46453
11
-13.70618
21
0.51792
0
LINE
8
layer1
10
-13.70618
20
0.51792
11
-13.72471
21
0.57094
0
LINE
8
layer1
10
-13.72471
20
0.57094
11
-13.78643
21
0.67456
0
LINE
8
layer1
10
-13.78643
20
0.67456
11
-13.88082
21
0.77282
0
LINE
8
layer1
10
-13.88082
20
0.77282
11
-14.00748
21
0.86317
0
LINE
8
layer1
10
-14.00748
20
0.86317
11
-14.16588
21
0.94309
0
LINE
8
layer1
10
-14.16588
20
0.94309
11
-14.48453
21
1.05033
0
LINE
8
layer1
10
-14.48453
20
1.05033
11
-14.81242
21
1.17596
0
LINE
8
layer1
10
-14.81242
20
1.17596
11
-15.00495
21
1.26361
0
LINE
8
layer1
10
-15.00495
20
1.26361
11
-15.21585
21
1.37048
0
LINE
8
layer1
10
-15.21585
20
1.37048
11
-15.44302
21
1.49778
0
LINE
8
layer1
10
-15.44302
20
1.49778
11
-15.68691
21
1.64819
0
LINE
8
layer1
10
-15.68691
20
1.64819
11
-15.94436
21
1.82225
0
LINE
8
layer1
10
-15.94436
20
1.82225
11
-16.21512
21
2.02235
0
LINE
8
layer1
10
-16.21512
20
2.02235
11
-16.49448
21
2.24748
0
LINE
8
layer1
10
-16.49448
20
2.24748
11
-16.7847
21
2.50211
0
LINE
8
layer1
10
-16.7847
20
2.50211
11
-17.08097
21
2.7849
0
LINE
8
layer1
10
-17.08097
20
2.7849
11
-17.38204
21
3.09737
0
LINE
8
layer1
10
-17.38204
20
3.09737
11
-17.68643
21
3.44099
0
LINE
8
layer1
10
-17.68643
20
3.44099
11
-17.99171
21
3.81614
0
LINE
8
layer1
10
-17.99171
20
3.81614
11
-18.2748039
21
4.1944496
0
ARC
8
layer1
10
0.0000161
20
-0.0000054
40
18.75
50
165.2343798
51
167.0733039
0
LINE
8
layer1
10
-18.1307932
20
4.7787242
11
-17.7043167
21
4.9821404
0
LINE
8
layer1
10
-17.7043167
20
4.9821404
11
-17.2596638
21
5.1724485
0
LINE
8
layer1
10
-17.2596638
20
5.1724485
11
-16.8304517
21
5.3352518
0
LINE
8
layer1
10
-16.8304517
20
5.3352518
11
-16.4186554
21
5.4720161
0
LINE
8
layer1
10
-16.4186554
20
5.4720161
11
-16.0249022
21
5.5847306
0
LINE
8
layer1
10
-16.0249022
20
5.5847306
11
-15.6495927
21
5.6753224
0
LINE
8
layer1
10
-15.6495927
20
5.6753224
11
-15.2976086
21
5.74484
0
LINE
8
layer1
10
-15.2976086
20
5.74484
11
-14.9648714
21
5.7961913
0
LINE
8
layer1
10
-14.9648714
20
5.7961913
11
-14.6560211
21
5.8306708
0
LINE
8
layer1
10
-14.6560211
20
5.8306708
11
-14.3701682
21
5.8505109
0
LINE
8
layer1
10
-14.3701682
20
5.8505109
11
-14.1098599
21
5.8576583
0
LINE
8
layer1
10
-14.1098599
20
5.8576583
11
-13.8734522
21
5.8542769
0
LINE
8
layer1
10
-13.8734522
20
5.8542769
11
-13.6622424
21
5.8424139
0
LINE
8
layer1
10
-13.6622424
20
5.8424139
11
-13.3135271
21
5.8012757
0
LINE
8
layer1
10
-13.3135271
20
5.8012757
11
-12.9815396
21
5.748148
0
LINE
8
layer1
10
-12.9815396
20
5.748148
11
-12.8041427
21
5.7453015
0
LINE
8
layer1
10
-12.8041427
20
5.7453015
11
-12.6500031
21
5.7664406
0
LINE
8
layer1
10
-12.6500031
20
5.7664406
11
-12.5207612
21
5.8095803
0
LINE
8
layer1
10
-12.5207612
20
5.8095803
11
-12.4179562
21
5.8726485
0
LINE
8
layer1
10
-12.4179562
20
5.8726485
11
-12.3769091
21
5.9109841
0
LINE
8
layer1
10
-12.3769091
20
5.9109841
11
-12.3429862
21
5.9534766
0
LINE
8
layer1
10
-12.3429862
20
5.9534766
11
-12.3163315
21
5.9998515
0
LINE
8
layer1
10
-12.3163315
20
5.9998515
11
-12.1307476
21
6.3667075
0
LINE
8
layer1
10
-12.1307476
20
6.3667075
11
-11.9342547
21
6.727838
0
LINE
8
layer1
10
-11.9342547
20
6.727838
11
-11.9112305
21
6.7761183
0
LINE
8
layer1
10
-11.9112305
20
6.7761183
11
-11.8955302
21
6.8281748
0
LINE
8
layer1
10
-11.8955302
20
6.8281748
11
-11.8872981
21
6.883733
0
LINE
8
layer1
10
-11.8872981
20
6.883733
11
-11.8937939
21
7.0041667
0
LINE
8
layer1
10
-11.8937939
20
7.0041667
11
-11.9317083
21
7.1350368
0
LINE
8
layer1
10
-11.9317083
20
7.1350368
11
-12.0018725
21
7.2738996
0
LINE
8
layer1
10
-12.0018725
20
7.2738996
11
-12.104988
21
7.4182774
0
LINE
8
layer1
10
-12.104988
20
7.4182774
11
-12.3373017
21
7.6613178
0
LINE
8
layer1
10
-12.3373017
20
7.6613178
11
-12.5692507
21
7.9249357
0
LINE
8
layer1
10
-12.5692507
20
7.9249357
11
-12.6989945
21
8.092019
0
LINE
8
layer1
10
-12.6989945
20
8.092019
11
-12.8360723
21
8.2846579
0
LINE
8
layer1
10
-12.8360723
20
8.2846579
11
-12.978062
21
8.5029476
0
LINE
8
layer1
10
-12.978062
20
8.5029476
11
-13.1241169
21
8.7494703
0
LINE
8
layer1
10
-13.1241169
20
8.7494703
11
-13.2711878
21
9.0232358
0
LINE
8
layer1
10
-13.2711878
20
9.0232358
11
-13.4179428
21
9.326244
0
LINE
8
layer1
10
-13.4179428
20
9.326244
11
-13.5606807
21
9.6554118
0
LINE
8
layer1
10
-13.5606807
20
9.6554118
11
-13.6993253
21
10.0157474
0
LINE
8
layer1
10
-13.6993253
20
10.0157474
11
-13.8302402
21
10.403829
0
LINE
8
layer1
10
-13.8302402
20
10.403829
11
-13.9516124
21
10.8204217
0
LINE
8
layer1
10
-13.9516124
20
10.8204217
11
-14.0614482
21
11.2661392
0
LINE
8
layer1
10
-14.0614482
20
11.2661392
11
-14.1574193
21
11.7401887
0
LINE
8
layer1
10
-14.1574193
20
11.7401887
11
-14.2322774
21
12.2067255
0
ARC
8
layer1
10
0.0000127
20
-0.0000111
40
18.75
50
137.5420771
51
139.381001
0
LINE
8
layer1
10
-13.8332362
20
12.6571499
11
-13.3610778
21
12.6390724
0
LINE
8
layer1
10
-13.3610778
20
12.6390724
11
-12.8789166
21
12.6009414
0
LINE
8
layer1
10
-12.8789166
20
12.6009414
11
-12.4232097
21
12.5456318
0
LINE
8
layer1
10
-12.4232097
20
12.5456318
11
-11.9950247
21
12.4753592
0
LINE
8
layer1
10
-11.9950247
20
12.4753592
11
-11.5939925
21
12.3921768
0
LINE
8
layer1
10
-11.5939925
20
12.3921768
11
-11.2195724
21
12.2979768
0
LINE
8
layer1
10
-11.2195724
20
12.2979768
11
-10.8755995
21
12.1959564
0
LINE
8
layer1
10
-10.8755995
20
12.1959564
11
-10.5571112
21
12.086795
0
LINE
8
layer1
10
-10.5571112
20
12.086795
11
-10.2676143
21
11.9737952
0
LINE
8
layer1
10
-10.2676143
20
11.9737952
11
-10.005284
21
11.8585203
0
LINE
8
layer1
10
-10.005284
20
11.8585203
11
-9.7714709
21
11.7438777
0
LINE
8
layer1
10
-9.7714709
20
11.7438777
11
-9.5637138
21
11.6310195
0
LINE
8
layer1
10
-9.5637138
20
11.6310195
11
-9.3822097
21
11.5223613
0
LINE
8
layer1
10
-9.3822097
20
11.5223613
11
-9.0925555
21
11.323879
0
LINE
8
layer1
10
-9.0925555
20
11.323879
11
-8.8232849
21
11.1225545
0
LINE
8
layer1
10
-8.8232849
20
11.1225545
11
-8.6675306
21
11.0375936
0
LINE
8
layer1
10
-8.6675306
20
11.0375936
11
-8.5212229
21
10.9846791
0
LINE
8
layer1
10
-8.5212229
20
10.9846791
11
-8.3867369
21
10.9628157
0
LINE
8
layer1
10
-8.3867369
20
10.9628157
11
-8.2663983
21
10.970884
0
LINE
8
layer1
10
-8.2663983
20
10.970884
11
-8.2122375
21
10.9857529
0
LINE
8
layer1
10
-8.2122375
20
10.9857529
11
-8.162453
21
11.0076134
0
LINE
8
layer1
10
-8.162453
20
11.0076134
11
-8.1173
21
11.0362893
0
LINE
8
layer1
10
-8.1173
20
11.0362893
11
-7.782487
21
11.274879
0
LINE
8
layer1
10
-7.782487
20
11.274879
11
-7.4406755
21
11.5033294
0
LINE
8
layer1
10
-7.4406755
20
11.5033294
11
-7.3978516
21
11.5353796
0
LINE
8
layer1
10
-7.3978516
20
11.5353796
11
-7.3597579
21
11.5741771
0
LINE
8
layer1
10
-7.3597579
20
11.5741771
11
-7.3266495
21
11.6195458
0
LINE
8
layer1
10
-7.3266495
20
11.6195458
11
-7.2764329
21
11.7292032
0
LINE
8
layer1
10
-7.2764329
20
11.7292032
11
-7.2491861
21
11.8627027
0
LINE
8
layer1
10
-7.2491861
20
11.8627027
11
-7.2467806
21
12.0182665
0
LINE
8
layer1
10
-7.2467806
20
12.0182665
11
-7.2709892
21
12.1940269
0
LINE
8
layer1
10
-7.2709892
20
12.1940269
11
-7.3637462
21
12.5171899
0
LINE
8
layer1
10
-7.3637462
20
12.5171899
11
-7.4466175
21
12.8584041
0
LINE
8
layer1
10
-7.4466175
20
12.8584041
11
-7.4838525
21
13.0666441
0
LINE
8
layer1
10
-7.4838525
20
13.0666441
11
-7.515705
21
13.3009204
0
LINE
8
layer1
10
-7.515705
20
13.3009204
11
-7.5399865
21
13.5601923
0
LINE
8
layer1
10
-7.5399865
20
13.5601923
11
-7.5547468
21
13.8463525
0
LINE
8
layer1
10
-7.5547468
20
13.8463525
11
-7.5577465
21
14.157107
0
LINE
8
layer1
10
-7.5577465
20
14.157107
11
-7.5468766
21
14.4936079
0
LINE
8
layer1
10
-7.5468766
20
14.4936079
11
-7.5202928
21
14.8514051
0
LINE
8
layer1
10
-7.5202928
20
14.8514051
11
-7.4756002
21
15.2348978
0
LINE
8
layer1
10
-7.4756002
20
15.2348978
11
-7.4111691
21
15.6393662
0
LINE
8
layer1
10
-7.4111691
20
15.6393662
11
-7.3250386
21
16.0646452
0
LINE
8
layer1
10
-7.3250386
20
16.0646452
11
-7.2151581
21
16.5103516
0
LINE
8
layer1
10
-7.2151581
20
16.5103516
11
-7.0798345
21
16.9747017
0
LINE
8
layer1
10
-7.0798345
20
16.9747017
11
-6.9293075
21
17.4225877
0
ARC
8
layer1
10
0.0000067
20
-0.0000156
40
18.75
50
109.8497709
51
111.688695
0
LINE
8
layer1
10
-6.3666515
20
17.635975
11
-5.956977
21
17.4005453
0
LINE
8
layer1
10
-5.956977
20
17.4005453
11
-5.5477649
21
17.1427105
0
LINE
8
layer1
10
-5.5477649
20
17.1427105
11
-5.1699601
21
16.8819587
0
LINE
8
layer1
10
-5.1699601
20
16.8819587
11
-4.8234784
21
16.6207479
0
LINE
8
layer1
10
-4.8234784
20
16.6207479
11
-4.5070388
21
16.3607246
0
LINE
8
layer1
10
-4.5070388
20
16.3607246
11
-4.2192832
21
16.1033129
0
LINE
8
layer1
10
-4.2192832
20
16.1033129
11
-3.9621215
21
15.8531262
0
LINE
8
layer1
10
-3.9621215
20
15.8531262
11
-3.730844
21
15.6084597
0
LINE
8
layer1
10
-3.730844
20
15.6084597
11
-3.5270209
21
15.3738674
0
LINE
8
layer1
10
-3.5270209
20
15.3738674
11
-3.3483099
21
15.1498856
0
LINE
8
layer1
10
-3.3483099
20
15.1498856
11
-3.1945557
21
14.9397162
0
LINE
8
layer1
10
-3.1945557
20
14.9397162
11
-3.0630437
21
14.7432357
0
LINE
8
layer1
10
-3.0630437
20
14.7432357
11
-2.9528259
21
14.5626745
0
LINE
8
layer1
10
-2.9528259
20
14.5626745
11
-2.7885891
21
14.2523182
0
LINE
8
layer1
10
-2.7885891
20
14.2523182
11
-2.643722
21
13.9489178
0
LINE
8
layer1
10
-2.643722
20
13.9489178
11
-2.5452917
21
13.8013061
0
LINE
8
layer1
10
-2.5452917
20
13.8013061
11
-2.4403332
21
13.68646
0
LINE
8
layer1
10
-2.4403332
20
13.68646
11
-2.3314122
21
13.6046022
0
LINE
8
layer1
10
-2.3314122
20
13.6046022
11
-2.2211082
21
13.5558222
0
LINE
8
layer1
10
-2.2211082
20
13.5558222
11
-2.1662412
21
13.5438182
0
LINE
8
layer1
10
-2.1662412
20
13.5438182
11
-2.1120002
21
13.5400386
0
LINE
8
layer1
10
-2.1120002
20
13.5400386
11
-2.0586928
21
13.5444463
0
LINE
8
layer1
10
-2.0586928
20
13.5444463
11
-1.6513525
21
13.6001116
0
LINE
8
layer1
10
-1.6513525
20
13.6001116
11
-1.2425272
21
13.6435467
0
LINE
8
layer1
10
-1.2425272
20
13.6435467
11
-1.1897141
21
13.6520244
0
LINE
8
layer1
10
-1.1897141
20
13.6520244
11
-1.1379537
21
13.6686749
0
LINE
8
layer1
10
-1.1379537
20
13.6686749
11
-1.0875538
21
13.6934606
0
LINE
8
layer1
10
-1.0875538
20
13.6934606
11
-0.9921288
21
13.7672206
0
LINE
8
layer1
10
-0.9921288
20
13.7672206
11
-0.9059627
21
13.8727664
0
LINE
8
layer1
10
-0.9059627
20
13.8727664
11
-0.8315386
21
14.0093933
0
LINE
8
layer1
10
-0.8315386
20
14.0093933
11
-0.7712943
21
14.1762717
0
LINE
8
layer1
10
-0.7712943
20
14.1762717
11
-0.7032452
21
14.5055248
0
LINE
8
layer1
10
-0.7032452
20
14.5055248
11
-0.618054
21
14.8461671
0
LINE
8
layer1
10
-0.618054
20
14.8461671
11
-0.55425
21
15.0478584
0
LINE
8
layer1
10
-0.55425
20
15.0478584
11
-0.4735804
21
15.2701024
0
LINE
8
layer1
10
-0.4735804
20
15.2701024
11
-0.3745909
21
15.5109604
0
LINE
8
layer1
10
-0.3745909
20
15.5109604
11
-0.2546752
21
15.7712021
0
LINE
8
layer1
10
-0.2546752
20
15.7712021
11
-0.1129165
21
16.0477556
0
LINE
8
layer1
10
-0.1129165
20
16.0477556
11
0.0530881
21
16.3406609
0
LINE
8
layer1
10
0.0530881
20
16.3406609
11
0.2429035
21
16.6451204
0
LINE
8
layer1
10
0.2429035
20
16.6451204
11
0.4606948
21
16.9639167
0
LINE
8
layer1
10
0.4606948
20
16.9639167
11
0.7057115
21
17.2921131
0
LINE
8
layer1
10
0.7057115
20
17.2921131
11
0.9796133
21
17.6286521
0
LINE
8
layer1
10
0.9796133
20
17.6286521
11
1.2840378
21
17.9722415
0
LINE
8
layer1
10
1.2840378
20
17.9722415
11
1.619655
21
18.320515
0
LINE
8
layer1
10
1.619655
20
18.320515
11
1.9610831
21
18.6471451
0
ARC
8
layer1
10
-9e-7
20
-0.0000169
40
18.75
50
82.1574645
51
83.9963887
0
LINE
8
layer1
10
2.5584563
20
18.5746108
11
2.8117954
21
18.175763
0
LINE
8
layer1
10
2.8117954
20
18.175763
11
3.054313
21
17.7572912
0
LINE
8
layer1
10
3.054313
20
17.7572912
11
3.2676651
21
17.3508323
0
LINE
8
layer1
10
3.2676651
20
17.3508323
11
3.4530687
21
16.9585235
0
LINE
8
layer1
10
3.4530687
20
16.9585235
11
3.6124232
21
16.5812276
0
LINE
8
layer1
10
3.6124232
20
16.5812276
11
3.7475929
21
16.2195741
0
LINE
8
layer1
10
3.7475929
20
16.2195741
11
3.8590307
21
15.8785358
0
LINE
8
layer1
10
3.8590307
20
15.8785358
11
3.9501146
21
15.5544143
0
LINE
8
layer1
10
3.9501146
20
15.5544143
11
4.0215705
21
15.2519719
0
LINE
8
layer1
10
4.0215705
20
15.2519719
11
4.0757217
21
14.9705946
0
LINE
8
layer1
10
4.0757217
20
14.9705946
11
4.1141937
21
14.7130458
0
LINE
8
layer1
10
4.1141937
20
14.7130458
11
4.1393327
21
14.4779543
0
LINE
8
layer1
10
4.1393327
20
14.4779543
11
4.1530148
21
14.2668545
0
LINE
8
layer1
10
4.1530148
20
14.2668545
11
4.1542095
21
13.915723
0
LINE
8
layer1
10
4.1542095
20
13.915723
11
4.1414858
21
13.5797522
0
LINE
8
layer1
10
4.1414858
20
13.5797522
11
4.1600429
21
13.4033056
0
LINE
8
layer1
10
4.1600429
20
13.4033056
11
4.1996074
21
13.2528379
0
LINE
8
layer1
10
4.1996074
20
13.2528379
11
4.2580109
21
13.1297383
0
LINE
8
layer1
10
4.2580109
20
13.1297383
11
4.3330111
21
13.0352849
0
LINE
8
layer1
10
4.3330111
20
13.0352849
11
4.3760148
21
12.9991579
0
LINE
8
layer1
10
4.3760148
20
12.9991579
11
4.4222864
21
12.9706042
0
LINE
8
layer1
10
4.4222864
20
12.9706042
11
4.4715361
21
12.9497338
0
LINE
8
layer1
10
4.4715361
20
12.9497338
11
4.858087
21
12.8097225
0
LINE
8
layer1
10
4.858087
20
12.8097225
11
5.2402691
21
12.6581918
0
LINE
8
layer1
10
5.2402691
20
12.6581918
11
5.2909726
21
12.641155
0
LINE
8
layer1
10
5.2909726
20
12.641155
11
5.344542
21
12.631844
0
LINE
8
layer1
10
5.344542
20
12.631844
11
5.4006874
21
12.6303687
0
LINE
8
layer1
10
5.4006874
20
12.6303687
11
5.51946
21
12.6513337
0
LINE
8
layer1
10
5.51946
20
12.6513337
11
5.6448059
21
12.7047464
0
LINE
8
layer1
10
5.6448059
20
12.7047464
11
5.7741988
21
12.791137
0
LINE
8
layer1
10
5.7741988
20
12.791137
11
5.9050947
21
12.9109036
0
LINE
8
layer1
10
5.9050947
20
12.9109036
11
6.1183607
21
13.1708187
0
LINE
8
layer1
10
6.1183607
20
13.1708187
11
6.3520982
21
13.4328521
0
LINE
8
layer1
10
6.3520982
20
13.4328521
11
6.5023245
21
13.5817897
0
LINE
8
layer1
10
6.5023245
20
13.5817897
11
6.6770358
21
13.741088
0
LINE
8
layer1
10
6.6770358
20
13.741088
11
6.876619
21
13.9083544
0
LINE
8
layer1
10
6.876619
20
13.9083544
11
7.1037394
21
14.0830594
0
LINE
8
layer1
10
7.1037394
20
14.0830594
11
7.3577813
21
14.2620568
0
LINE
8
layer1
10
7.3577813
20
14.2620568
11
7.6408909
21
14.4442654
0
LINE
8
layer1
10
7.6408909
20
14.4442654
11
7.9504535
21
14.6256393
0
LINE
8
layer1
10
7.9504535
20
14.6256393
11
8.2914501
21
14.8067067
0
LINE
8
layer1
10
8.2914501
20
14.8067067
11
8.6609222
21
14.9834452
0
LINE
8
layer1
10
8.6609222
20
14.9834452
11
9.0598476
21
15.1541472
0
LINE
8
layer1
10
9.0598476
20
15.1541472
11
9.4890761
21
15.3169075
0
LINE
8
layer1
10
9.4890761
20
15.3169075
11
9.9481012
21
15.4693192
0
LINE
8
layer1
10
9.9481012
20
15.4693192
11
10.4022133
21
15.5998662
0
ARC
8
layer1
10
-0.0000095
20
-0.000014
40
18.75
50
54.4651538
51
56.3040778
0
LINE
8
layer1
10
10.8974526
20
15.2580272
11
10.9364194
21
14.7871324
0
LINE
8
layer1
10
10.9364194
20
14.7871324
11
10.9566845
21
14.3038905
0
LINE
8
layer1
10
10.9566845
20
14.3038905
11
10.9567075
21
13.8448393
0
LINE
8
layer1
10
10.9567075
20
13.8448393
11
10.9385593
21
13.4113058
0
LINE
8
layer1
10
10.9385593
20
13.4113058
11
10.9043225
21
13.0031711
0
LINE
8
layer1
10
10.9043225
20
13.0031711
11
10.8559407
21
12.6201264
0
LINE
8
layer1
10
10.8559407
20
12.6201264
11
10.7961255
21
12.2663642
0
LINE
8
layer1
10
10.7961255
20
12.2663642
11
10.7261496
21
11.9370401
0
LINE
8
layer1
10
10.7261496
20
11.9370401
11
10.6488686
21
11.6360334
0
LINE
8
layer1
10
10.6488686
20
11.6360334
11
10.5660546
21
11.3617209
0
LINE
8
layer1
10
10.5660546
20
11.3617209
11
10.4804309
21
11.1157939
0
LINE
8
layer1
10
10.4804309
20
11.1157939
11
10.3934379
21
10.895948
0
LINE
8
layer1
10
10.3934379
20
10.895948
11
10.3074499
21
10.70267
0
LINE
8
layer1
10
10.3074499
20
10.70267
11
10.1453288
21
10.3912033
0
LINE
8
layer1
10
10.1453288
20
10.3912033
11
9.9779291
21
10.099629
0
LINE
8
layer1
10
9.9779291
20
10.099629
11
9.9123617
21
9.9347694
0
LINE
8
layer1
10
9.9123617
20
9.9347694
11
9.8774685
21
9.7831503
0
LINE
8
layer1
10
9.8774685
20
9.7831503
11
9.871975
21
9.6470095
0
LINE
8
layer1
10
9.871975
20
9.6470095
11
9.8944897
21
9.5285209
0
LINE
8
layer1
10
9.8944897
20
9.5285209
11
9.9157786
21
9.4765472
0
LINE
8
layer1
10
9.9157786
20
9.4765472
11
9.9434805
21
9.4297607
0
LINE
8
layer1
10
9.9434805
20
9.4297607
11
9.97739
21
9.3883934
0
LINE
8
layer1
10
9.97739
20
9.3883934
11
10.2545972
21
9.0847804
0
LINE
8
layer1
10
10.2545972
20
9.0847804
11
10.5225829
21
8.7729978
0
LINE
8
layer1
10
10.5225829
20
8.7729978
11
10.5595612
21
8.7343493
0
LINE
8
layer1
10
10.5595612
20
8.7343493
11
10.6026675
21
8.7012098
0
LINE
8
layer1
10
10.6026675
20
8.7012098
11
10.6516962
21
8.6738115
0
LINE
8
layer1
10
10.6516962
20
8.6738115
11
10.7666071
21
8.6371787
0
LINE
8
layer1
10
10.7666071
20
8.6371787
11
10.9024174
21
8.6262222
0
LINE
8
layer1
10
10.9024174
20
8.6262222
11
11.0571369
21
8.6425854
0
LINE
8
layer1
10
11.0571369
20
8.6425854
11
11.2286978
21
8.687803
0
LINE
8
layer1
10
11.2286978
20
8.687803
11
11.538324
21
8.8188367
0
LINE
8
layer1
10
11.538324
20
8.8188367
11
11.8670613
21
8.9422326
0
LINE
8
layer1
10
11.8670613
20
8.9422326
11
12.0692948
21
9.0042967
0
LINE
8
layer1
10
12.0692948
20
9.0042967
11
12.2980236
21
9.0641559
0
LINE
8
layer1
10
12.2980236
20
9.0641559
11
12.5524783
21
9.119512
0
LINE
8
layer1
10
12.5524783
20
9.119512
11
12.8347729
21
9.1686575
0
LINE
8
layer1
10
12.8347729
20
9.1686575
11
13.1429001
21
9.2090927
0
LINE
8
layer1
10
13.1429001
20
9.2090927
11
13.4782577
21
9.2388628
0
LINE
8
layer1
10
13.4782577
20
9.2388628
11
13.8366505
21
9.2556005
0
LINE
8
layer1
10
13.8366505
20
9.2556005
11
14.2227342
21
9.2574587
0
LINE
8
layer1
10
14.2227342
20
9.2574587
11
14.6320199
21
9.2422506
0
LINE
8
layer1
10
14.6320199
20
9.2422506
11
15.06458
21
9.2080098
0
LINE
8
layer1
10
15.06458
20
9.2080098
11
15.5202814
21
9.1526545
0
LINE
8
layer1
10
15.5202814
20
9.1526545
11
15.9975572
21
9.0742888
0
LINE
8
layer1
10
15.9975572
20
9.0742888
11
16.4603217
21
8.978846
0
ARC
8
layer1
10
-0.0000153
20
-0.0000073
40
18.75
50
26.7728439
51
28.6117679
0
LINE
8
layer1
10
16.7399739
20
8.4460134
11
16.5556415
21
8.0109479
0
ENDSEC
0
EOF