<?xml version="1.0" encoding="UTF-8"?>
<svg viewBox="-21.625 -21.625 63.25 43.25" height="43.25mm" width="63.25mm" xmlns:svgjs="http://svgjs.com/svgjs" xmlns:xlink="http://www.w3.org/1999/xlink" version="1.1" xmlns="http://www.w3.org/2000/svg" id="SvgjsSvg1535">
  <defs id="SvgjsDefs1536">
  </defs>
  <defs id="SvgjsDefs1536">
  </defs>
  <g id="SvgjsG1537">
    <g transform="matrix(1,0,0,1,0,0)" id="SvgjsG1538">
      <g fill="none" stroke-width="0.04" stroke="blue" id="SvgjsG1539">
      </g>
      <g fill="none" stroke-width="0.1" stroke="black" id="SvgjsG1540">
        <circle cy="0" cx="0" r="1.5" id="SvgjsCircle1541">
        </circle>
        <path d="M16.555641526888152 -8.01094793747135  L16.349011680321805 -7.573640828670261 L16.135700349077982 -7.167160506313831 L15.918157861725453 -6.791719549575657 L15.698173006180514 -6.446244861167269 L15.477323219524665 -6.129559754106538 L15.259958048909581 -5.844116398774039 L15.044952906847245 -5.585033831844587 L14.8366392204768 -5.354419881332577 L14.635831689690253 -5.150013825210432 L14.44572772108938 -4.9720475923958904 L14.266531756836638 -4.817811366769322 L14.100572346702405 -4.686632871626646 L13.812275461091023 -4.486184237940163 L13.528549062806409 -4.305802501014163 L13.393877986815983 -4.190297229742324 L13.292520666489182 -4.072260914499219 L13.22438862551523 -3.9542671659668316 L13.189259985677172 -3.8388876120453164 L13.183956950320795 -3.7829737576261384 L13.186743022335794 -3.728672615808243 L13.197544013866239 -3.6762851785550303 L13.301902898736913 -3.2786246007395405 L13.394299780416898 -2.878015653940028 L13.409081633398792 -2.826609410910395 L13.431849688016417 -2.777233385463537 L13.462529756413847 -2.7301885695628556 L13.54725417451886 -2.6443501412409964 L13.662416529838602 -2.5715344038128154 L13.807018190702166 -2.5141215326470334 L13.979941482472313 -2.4744314638214924 L14.314996304433322 -2.446565599745953 L14.663423643853596 -2.403055392385965 L14.871335089937439 -2.364027786933855 L15.101682384275005 -2.3107349085037794 L15.352716121003489 -2.2414993546016477 L15.62551458992102 -2.153826693205687 L15.917138845343247 -2.0464363782353403 L16.227918116253466 -1.9169480298308863 L16.553037557870667 -1.7652151224491317 L16.895761239721597 -1.5874383995674712 L17.251098248674293 -1.3837678148760322 L17.618198667266686 -1.1524283922319687 L17.995977295635495 -0.8916386599805186 L18.382165685116796 -0.6004481231668413 L18.747568845232713 -0.30088033763935407 A18.75 18.75 0 0 1 18.747568845232713 0.30088033763935584 L18.382165685116796 0.600448123166843 L17.995977295635495 0.8916386599805204 L17.618198667266686 1.1524283922319705 L17.251098248674293 1.3837678148760348 L16.895761239721597 1.587438399567473 L16.553037557870667 1.7652151224491335 L16.227918116253466 1.916948029830888 L15.91713884534325 2.046436378235342 L15.62551458992102 2.153826693205689 L15.352716121003489 2.241499354601649 L15.101682384275005 2.3107349085037807 L14.871335089937439 2.364027786933857 L14.663423643853598 2.403055392385967 L14.314996304433324 2.4465655997459548 L13.979941482472313 2.474431463821494 L13.807018190702166 2.514121532647035 L13.662416529838602 2.571534403812817 L13.54725417451886 2.644350141240998 L13.462529756413847 2.7301885695628574 L13.431849688016417 2.7772333854635387 L13.409081633398792 2.8266094109103963 L13.394299780416898 2.8780156539400297 L13.301902898736913 3.278624600739542 L13.197544013866239 3.676285178555032 L13.186743022335794 3.7286726158082444 L13.183956950320795 3.78297375762614 L13.189259985677172 3.838887612045318 L13.22438862551523 3.9542671659668334 L13.292520666489182 4.07226091449922 L13.393877986815983 4.190297229742326 L13.528549062806409 4.305802501014165 L13.812275461091021 4.486184237940165 L14.100572346702403 4.686632871626648 L14.266531756836638 4.817811366769324 L14.44572772108938 4.972047592395892 L14.635831689690253 5.150013825210433 L14.8366392204768 5.3544198813325785 L15.044952906847243 5.585033831844589 L15.259958048909581 5.844116398774041 L15.477323219524665 6.129559754106539 L15.698173006180514 6.446244861167271 L15.918157861725453 6.791719549575659 L16.135700349077982 7.167160506313833 L16.349011680321805 7.573640828670262 L16.555641526888152 8.01094793747135 L16.739973865273058 8.44601335390214 A18.75 18.75 0 0 1 16.460321735446335 8.97884596982882 L15.997557213996512 9.074288754971835 L15.520281387555801 9.152654477040471 L15.064579993095299 9.20800983438511 L14.632019925122924 9.242250649149579 L14.222734189238357 9.257458653667882 L13.836650477436285 9.255600487600047 L13.478257710777456 9.238862766529657 L13.142900096688667 9.20909267629342 L12.834772874678624 9.168657528755986 L12.552478309281177 9.119512045270056 L12.298023608225092 9.064155889239675 L12.069294772949613 9.004296664273735 L11.867061297609425 8.942232625959832 L11.538324008836813 8.818836742841995 L11.228697785062348 8.687803000427433 L11.057136919705442 8.642585350355926 L10.902417416170035 8.626222180560404 L10.766607054251423 8.63717869896435 L10.651696201027391 8.673811452223216 L10.602667533523856 8.701209829234047 L10.559561239201699 8.734349285925605 L10.522582886084976 8.772997783965955 L10.254597249944084 9.084780417898894 L9.977389961385725 9.38839338068231 L9.943480502336506 9.429760681621447 L9.91577855921171 9.476547202619601 L9.894489700035393 9.528520905344834 L9.871975013565603 9.647009519536946 L9.877468510686732 9.783150333363587 L9.912361749878027 9.934769395353623 L9.977929089541725 10.099629003412801 L10.145328765576703 10.391203331095099 L10.307449855239735 10.702670024798408 L10.393437928590311 10.895947997266706 L10.480430926893403 11.115793909546735 L10.56605459916138 11.361720902061478 L10.64886860650683 11.63603338881224 L10.726149568730087 11.937040098002996 L10.79612549499091 12.26636418965731 L10.85594065355024 12.62012636019922 L10.904322520416605 13.003171109880672 L10.938559343253344 13.411305814312978 L10.956707537184714 13.844839306510558 L10.956684515995814 14.303890475739028 L10.936419411958454 14.787132368023165 L10.897452611333854 15.25802717155961 A18.75 18.75 0 0 1 10.402213284450202 15.599866197154578 L9.948101176613577 15.469319190047106 L9.489076053253797 15.316907454854109 L9.059847590375357 15.15414719202865 L8.66092217168155 14.983445240897534 L8.29145013852845 14.806706694683886 L7.950453522335977 14.625639323119364 L7.640890894376007 14.44426538378265 L7.357781324999019 14.26205682381036 L7.103739369628094 14.083059418769624 L6.876618990664978 13.908354428401147 L6.677035830781671 13.741087990670815 L6.50232447424861 13.581789689366696 L6.352098221674934 13.432852130511751 L6.118360734693988 13.170818666656784 L5.905094745572301 12.910903569011518 L5.774198833349345 12.791137018742589 L5.64480586082991 12.704746412988348 L5.519460009535696 12.65133370604207 L5.400687412840368 12.630368661938874 L5.34454202309629 12.631843962072908 L5.2909726216116475 12.641154999854878 L5.240269063421675 12.658191847769794 L4.858086952482736 12.809722524790182 L4.4715361093354336 12.949733801700686 L4.422286431182336 12.970604216210615 L4.3760147982730295 12.999157888267048 L4.333011065642747 13.035284890355005 L4.25801089620395 13.129738251248895 L4.199607355485625 13.252837910596773 L4.160042892951806 13.4033056194396 L4.141485808943925 13.579752214853409 L4.154209514334445 13.915722968671558 L4.153014820178253 14.266854456444833 L4.139332725409176 14.477954251998332 L4.114193710230657 14.713045801858923 L4.075721734726256 14.970594643830285 L4.021570527564746 15.251971876318896 L3.9501146285320243 15.55441433463688 L3.8590306975863093 15.878535770403595 L3.747592912114745 16.21957410618008 L3.6124231565572424 16.58122756251988 L3.453068703172326 16.95852354074705 L3.2676650711623103 17.350832269986526 L3.054312971417626 17.757291195383097 L2.8117954078905383 18.17576297732411 L2.558456292678675 18.574610843373573 A18.75 18.75 0 0 1 1.9610831302462635 18.647145077479873 L1.6196550472840467 18.32051502418825 L1.2840377509145071 17.97224152350581 L0.979613287699852 17.628652055249766 L0.7057115241349026 17.29211309804569 L0.4606947838879587 16.963916672107253 L0.24290347862007144 16.645120447773103 L0.05308805679050366 16.34066087387919 L-0.11291647737058574 16.047755629409313 L-0.2546752156643599 15.771202115207524 L-0.37459086646997775 15.510960425826548 L-0.47358038848905815 15.270102431501188 L-0.5542499999980695 15.047858374935023 L-0.6180540057632065 14.846167095380546 L-0.7032452495272272 14.505524759512058 L-0.7712943360221437 14.176271723190133 L-0.8315386190876168 14.009393346046997 L-0.9059626899412369 13.872766350992668 L-0.9921288066608116 13.767220626164665 L-1.0875537762894936 13.693460623647278 L-1.1379536561090413 13.668674873423102 L-1.1897140604573093 13.652024445749802 L-1.2425272495833264 13.643546706998254 L-1.6513525194979273 13.60011157514334 L-2.0586927775117827 13.544446269959536 L-2.112000167026847 13.540038637591792 L-2.1662412162547695 13.54381815854743 L-2.2211081854445798 13.555822199197328 L-2.3314122028839783 13.604602180098603 L-2.440333234102153 13.68646003652283 L-2.5452916567980512 13.80130605345502 L-2.643721960168411 13.948917847626149 L-2.788589072990045 14.252318176766911 L-2.9528258609319016 14.562674466354446 L-3.063043720796153 14.743235665860164 L-3.19455570403686 14.939716212388559 L-3.348309861363144 15.149885567920913 L-3.5270208940637033 15.373867413147481 L-3.7308439690209436 15.608459698218786 L-3.9621215262738954 15.853126163250485 L-4.219283202095717 16.103312891492635 L-4.507038818051004 16.36072460603996 L-4.823478362816438 16.62074789635959 L-5.169960083030327 16.88195866060491 L-5.547764866450819 17.142710500722284 L-5.956977038317048 17.40054533020915 L-6.36665152988844 17.635975019297558 A18.75 18.75 0 0 1 -6.929307535483378 17.42258774301371 L-7.079834534418988 16.97470165242819 L-7.215158125826907 16.510351648111982 L-7.325038613567787 16.06464518090085 L-7.411169128845231 15.639366236985165 L-7.4756001937672565 15.234897777308747 L-7.520292824743441 14.851405073288936 L-7.5468766148252655 14.493607884081298 L-7.557746475565658 14.157107016731027 L-7.554746778217171 13.84635247064068 L-7.539986470405976 13.560192317032044 L-7.5157050480193215 13.300920429958104 L-7.483852478681774 13.066644053157974 L-7.446617508839204 12.858404094406483 L-7.363746222105746 12.517189940486777 L-7.270989180338299 12.194026868180314 L-7.246780595018304 12.018266489264004 L-7.2491861064808285 11.862702702942755 L-7.276432869699585 11.72920321382725 L-7.326649501715239 11.61954578056801 L-7.359757866527993 11.574177096661316 L-7.397851588884191 11.535379615853293 L-7.4406755437854075 11.503329438215431 L-7.782487030216836 11.274878962743092 L-8.117299958968536 11.036289326042944 L-8.162452979331352 11.007613382255245 L-8.212237474175277 10.985752909407314 L-8.266398318501887 10.970884007570639 L-8.386736862854034 10.962815702717313 L-8.521222888960699 10.98467910780521 L-8.667530562065158 11.037593594392142 L-8.823284888509596 11.122554504190942 L-9.092555509833915 11.323879049618508 L-9.382209722711812 11.522361255274541 L-9.56371376424554 11.631019463924064 L-9.771470905079198 11.743877681757876 L-10.005284019722376 11.858520284314064 L-10.267614334071702 11.97379520081103 L-10.557111174815088 12.086795047269328 L-10.875599457205336 12.19595640297779 L-11.219572382580791 12.297976759322259 L-11.593992515149608 12.392176810421761 L-11.995024665099717 12.475359210641972 L-12.423209686973856 12.54563177173549 L-12.878916631229732 12.6009414224031 L-13.361077834401822 12.639072447246924 L-13.83323621342657 12.657149854839439 A18.75 18.75 0 0 1 -14.232277352042162 12.206725521566623 L-14.157419345542008 11.74018869942783 L-14.061448228022815 11.266139181442508 L-13.951612444751914 10.820421695569147 L-13.83024024867702 10.403829045826072 L-13.699325257779 10.015747402150193 L-13.560680671311427 9.655411775347574 L-13.417942803707161 9.326243994950119 L-13.271187836927258 9.02323579815434 L-13.124116898448776 8.749470341686475 L-12.978062040659319 8.502947566438221 L-12.83607225511285 8.284657851379384 L-12.698994544698905 8.092019048933794 L-12.56925068210953 7.924935675971705 L-12.337301677961957 7.6613177545874604 L-12.104988028357536 7.418277411624663 L-12.001872469803804 7.273899615602726 L-11.931708348188725 7.135036826713895 L-11.893793852812337 7.004166697423998 L-11.887298121996198 6.883733029867272 L-11.895530244422604 6.828174831009168 L-11.91123047207405 6.776118332359213 L-11.9342547407672 6.727838025285359 L-12.130747551448975 6.3667074569996265 L-12.316331543894703 5.999851499234317 L-12.342986182293034 5.953476557165842 L-12.376909094952422 5.910984061396547 L-12.417956217689534 5.872648503294385 L-12.520761178680026 5.80958026409474 L-12.650003071826454 5.7664405752232675 L-12.804142670629844 5.745301460276563 L-12.981539581003052 5.748147965158092 L-13.313527056547418 5.801275699738789 L-13.66224240490271 5.842413940117407 L-13.873452239551359 5.85427687178249 L-14.109859880757938 5.857658303304962 L-14.370168185906751 5.850510914232492 L-14.656021068310412 5.830670807843746 L-14.96487143744077 5.796191312661218 L-15.297608617672593 5.744840007990581 L-15.649592740721285 5.675322358277421 L-16.024902249783867 5.584730649455887 L-16.418655372326402 5.4720160741428225 L-16.830451667538327 5.335251835214182 L-17.25966380356459 5.172448522017629 L-17.70431671706822 4.982140383955348 L-18.130793189037057 4.778724193828905 A18.75 18.75 0 0 1 -18.27480394478351 4.194449590118268 L-17.99171 3.8161399999999968 L-17.68643 3.4409899999999976 L-17.38204 3.0973699999999975 L-17.08097 2.7848999999999973 L-16.7847 2.5021099999999974 L-16.49448 2.2474799999999973 L-16.21512 2.022349999999997 L-15.94436 1.8222499999999973 L-15.68691 1.6481899999999976 L-15.44302 1.4977799999999974 L-15.21585 1.3704799999999975 L-15.00495 1.2636099999999975 L-14.81242 1.1759599999999975 L-14.48453 1.0503299999999978 L-14.16588 0.9430899999999977 L-14.00748 0.8631699999999978 L-13.88082 0.7728199999999977 L-13.78643 0.6745599999999978 L-13.72471 0.5709399999999978 L-13.70618 0.5179199999999978 L-13.69589 0.4645299999999978 L-13.69384 0.4110799999999978 L-13.7 -2.2031280300569916e-15 L-13.69384 -0.4110800000000022 L-13.69589 -0.4645300000000022 L-13.70618 -0.5179200000000023 L-13.72471 -0.5709400000000022 L-13.78643 -0.6745600000000023 L-13.88082 -0.7728200000000022 L-14.00748 -0.8631700000000022 L-14.16588 -0.9430900000000023 L-14.48453 -1.0503300000000022 L-14.81242 -1.1759600000000023 L-15.00495 -1.2636100000000023 L-15.21585 -1.3704800000000024 L-15.44302 -1.4977800000000023 L-15.68691 -1.6481900000000025 L-15.94436 -1.8222500000000026 L-16.21512 -2.0223500000000025 L-16.49448 -2.2474800000000026 L-16.7847 -2.5021100000000027 L-17.08097 -2.7849000000000026 L-17.38204 -3.097370000000003 L-17.68643 -3.440990000000003 L-17.99171 -3.816140000000003 L-18.27480394478351 -4.194449590118273 A18.75 18.75 0 0 1 -18.130793189037053 -4.778724193828915 L-17.704316717068217 -4.9821403839553575 L-17.259663803564585 -5.172448522017637 L-16.830451667538323 -5.335251835214191 L-16.4186553723264 -5.472016074142832 L-16.024902249783864 -5.584730649455896 L-15.649592740721282 -5.675322358277429 L-15.297608617672589 -5.7448400079905895 L-14.964871437440769 -5.796191312661225 L-14.65602106831041 -5.830670807843754 L-14.370168185906747 -5.850510914232499 L-14.109859880757934 -5.85765830330497 L-13.873452239551355 -5.854276871782497 L-13.662242404902706 -5.842413940117415 L-13.313527056547418 -5.801275699738796 L-12.981539581003048 -5.748147965158099 L-12.804142670629842 -5.745301460276571 L-12.65000307182645 -5.766440575223275 L-12.520761178680024 -5.809580264094747 L-12.417956217689534 -5.872648503294392 L-12.376909094952419 -5.910984061396554 L-12.34298618229303 -5.953476557165848 L-12.3163315438947 -5.999851499234323 L-12.130747551448971 -6.366707456999634 L-11.934254740767196 -6.727838025285365 L-11.911230472074047 -6.77611833235922 L-11.8955302444226 -6.828174831009174 L-11.887298121996194 -6.883733029867279 L-11.893793852812335 -7.004166697424005 L-11.931708348188721 -7.135036826713902 L-12.001872469803802 -7.2738996156027325 L-12.104988028357532 -7.41827741162467 L-12.337301677961953 -7.6613177545874676 L-12.569250682109526 -7.924935675971711 L-12.698994544698902 -8.092019048933802 L-12.836072255112846 -8.284657851379391 L-12.978062040659315 -8.502947566438229 L-13.12411689844877 -8.749470341686482 L-13.271187836927252 -9.023235798154348 L-13.417942803707158 -9.326243994950126 L-13.560680671311424 -9.65541177534758 L-13.699325257778995 -10.0157474021502 L-13.830240248677013 -10.403829045826079 L-13.951612444751907 -10.820421695569156 L-14.06144822802281 -11.266139181442513 L-14.157419345542001 -11.740188699427836 L-14.232277352042157 -12.206725521566632 A18.75 18.75 0 0 1 -13.833236213426568 -12.657149854839439 L-13.361077834401822 -12.639072447246924 L-12.87891663122973 -12.600941422403102 L-12.423209686973856 -12.54563177173549 L-11.995024665099713 -12.475359210641972 L-11.593992515149607 -12.392176810421763 L-11.21957238258079 -12.297976759322259 L-10.875599457205334 -12.195956402977792 L-10.557111174815086 -12.086795047269328 L-10.2676143340717 -11.97379520081103 L-10.005284019722374 -11.858520284314064 L-9.771470905079196 -11.743877681757876 L-9.563713764245538 -11.631019463924064 L-9.38220972271181 -11.522361255274543 L-9.092555509833913 -11.323879049618508 L-8.823284888509594 -11.122554504190942 L-8.667530562065158 -11.037593594392142 L-8.521222888960697 -10.98467910780521 L-8.386736862854033 -10.962815702717313 L-8.266398318501885 -10.970884007570639 L-8.212237474175275 -10.985752909407315 L-8.16245297933135 -11.007613382255245 L-8.117299958968534 -11.036289326042944 L-7.782487030216834 -11.274878962743092 L-7.440675543785406 -11.503329438215431 L-7.39785158888419 -11.535379615853293 L-7.359757866527991 -11.574177096661314 L-7.326649501715237 -11.61954578056801 L-7.276432869699583 -11.72920321382725 L-7.249186106480827 -11.862702702942755 L-7.246780595018303 -12.018266489264004 L-7.270989180338297 -12.194026868180314 L-7.363746222105744 -12.517189940486777 L-7.446617508839203 -12.858404094406481 L-7.483852478681772 -13.066644053157974 L-7.51570504801932 -13.300920429958104 L-7.5399864704059745 -13.560192317032044 L-7.55474677821717 -13.84635247064068 L-7.557746475565656 -14.157107016731027 L-7.546876614825264 -14.493607884081296 L-7.520292824743439 -14.851405073288936 L-7.475600193767255 -15.234897777308746 L-7.411169128845227 -15.639366236985165 L-7.325038613567785 -16.06464518090085 L-7.215158125826905 -16.510351648111982 L-7.079834534418986 -16.97470165242819 L-6.929307535483376 -17.42258774301371 A18.75 18.75 0 0 1 -6.366651529888431 -17.63597501929756 L-5.956977038317039 -17.400545330209155 L-5.547764866450809 -17.142710500722284 L-5.169960083030318 -16.881958660604912 L-4.823478362816429 -16.620747896359592 L-4.5070388180509955 -16.360724606039962 L-4.219283202095708 -16.103312891492635 L-3.9621215262738865 -15.853126163250485 L-3.7308439690209347 -15.60845969821879 L-3.5270208940636945 -15.373867413147485 L-3.348309861363136 -15.149885567920915 L-3.194555704036852 -14.93971621238856 L-3.0630437207961454 -14.743235665860167 L-2.9528258609318936 -14.562674466354448 L-2.788589072990037 -14.252318176766913 L-2.6437219601684037 -13.94891784762615 L-2.5452916567980437 -13.801306053455024 L-2.4403332341021455 -13.686460036522833 L-2.3314122028839708 -13.604602180098604 L-2.221108185444572 -13.555822199197332 L-2.166241216254762 -13.543818158547431 L-2.1120001670268396 -13.540038637591794 L-2.058692777511775 -13.54444626995954 L-1.65135251949792 -13.600111575143341 L-1.242527249583319 -13.643546706998254 L-1.1897140604573015 -13.652024445749804 L-1.1379536561090338 -13.668674873423104 L-1.087553776289486 -13.693460623647278 L-0.992128806660804 -13.767220626164667 L-0.9059626899412295 -13.872766350992668 L-0.8315386190876092 -14.009393346046997 L-0.7712943360221358 -14.176271723190135 L-0.703245249527219 -14.50552475951206 L-0.6180540057631982 -14.846167095380547 L-0.5542499999980612 -15.047858374935023 L-0.4735803884890497 -15.27010243150119 L-0.3745908664699691 -15.51096042582655 L-0.25467521566435125 -15.771202115207524 L-0.11291647737057686 -16.047755629409313 L0.05308805679051254 -16.340660873879187 L0.24290347862008033 -16.645120447773103 L0.4606947838879685 -16.963916672107256 L0.7057115241349123 -17.292113098045686 L0.9796132876998618 -17.62865205524977 L1.2840377509145173 -17.97224152350581 L1.619655047284057 -18.320515024188246 L1.9610831302462741 -18.64714507747987 A18.75 18.75 0 0 1 2.5584562926786942 -18.574610843373573 L2.811795407890556 -18.175762977324105 L3.054312971417644 -17.757291195383093 L3.267665071162328 -17.350832269986523 L3.453068703172343 -16.958523540747045 L3.6124231565572593 -16.581227562519878 L3.747592912114761 -16.219574106180076 L3.8590306975863253 -15.878535770403591 L3.95011462853204 -15.554414334636878 L4.021570527564762 -15.251971876318892 L4.0757217347262715 -14.970594643830282 L4.114193710230671 -14.71304580185892 L4.13933272540919 -14.47795425199833 L4.153014820178268 -14.266854456444827 L4.154209514334458 -13.915722968671554 L4.141485808943939 -13.579752214853405 L4.160042892951819 -13.403305619439594 L4.1996073554856395 -13.252837910596767 L4.258010896203962 -13.129738251248893 L4.3330110656427605 -13.035284890355001 L4.376014798273042 -12.999157888267044 L4.422286431182349 -12.97060421621061 L4.471536109335447 -12.949733801700683 L4.858086952482749 -12.809722524790178 L5.240269063421688 -12.65819184776979 L5.290972621611661 -12.641154999854873 L5.344542023096302 -12.631843962072905 L5.400687412840381 -12.63036866193887 L5.519460009535709 -12.651333706042065 L5.644805860829923 -12.704746412988342 L5.774198833349357 -12.791137018742583 L5.905094745572313 -12.910903569011515 L6.118360734694002 -13.17081866665678 L6.3520982216749475 -13.432852130511746 L6.502324474248624 -13.58178968936669 L6.677035830781685 -13.741087990670808 L6.8766189906649915 -13.90835442840114 L7.103739369628109 -14.083059418769617 L7.357781324999033 -14.262056823810354 L7.640890894376021 -14.444265383782643 L7.950453522335991 -14.625639323119355 L8.291450138528464 -14.806706694683877 L8.660922171681564 -14.983445240897524 L9.059847590375373 -15.154147192028642 L9.489076053253813 -15.3169074548541 L9.94810117661359 -15.469319190047095 L10.40221328445022 -15.599866197154567 A18.75 18.75 0 0 1 10.897452611333861 -15.258027171559602 L10.936419411958461 -14.787132368023158 L10.956684515995821 -14.30389047573902 L10.956707537184721 -13.84483930651055 L10.938559343253349 -13.41130581431297 L10.904322520416612 -13.003171109880665 L10.855940653550245 -12.620126360199212 L10.796125494990918 -12.266364189657303 L10.726149568730094 -11.93704009800299 L10.648868606506838 -11.636033388812233 L10.566054599161387 -11.361720902061473 L10.480430926893408 -11.11579390954673 L10.393437928590316 -10.8959479972667 L10.30744985523974 -10.702670024798403 L10.14532876557671 -10.391203331095094 L9.97792908954173 -10.099629003412796 L9.91236174987803 -9.93476939535362 L9.877468510686736 -9.783150333363581 L9.871975013565606 -9.647009519536939 L9.894489700035399 -9.528520905344829 L9.915778559211715 -9.476547202619594 L9.94348050233651 -9.429760681621442 L9.97738996138573 -9.388393380682302 L10.254597249944089 -9.08478041789889 L10.522582886084981 -8.772997783965948 L10.559561239201702 -8.7343492859256 L10.602667533523858 -8.70120982923404 L10.651696201027397 -8.67381145222321 L10.766607054251427 -8.637178698964343 L10.902417416170039 -8.626222180560399 L11.057136919705446 -8.642585350355919 L11.228697785062353 -8.687803000427428 L11.538324008836817 -8.818836742841986 L11.86706129760943 -8.942232625959827 L12.069294772949618 -9.00429666427373 L12.298023608225098 -9.064155889239666 L12.552478309281181 -9.119512045270048 L12.834772874678627 -9.168657528755979 L13.14290009668867 -9.20909267629341 L13.47825771077746 -9.23886276652965 L13.83665047743629 -9.255600487600038 L14.222734189238361 -9.257458653667875 L14.632019925122929 -9.24225064914957 L15.064579993095302 -9.208009834385102 L15.520281387555809 -9.152654477040464 L15.997557213996515 -9.074288754971825 L16.46032173544634 -8.978845969828809 A18.75 18.75 0 0 1 16.739973865273058 -8.446013353902138 Z" id="SvgjsPath1542">
        </path>
      </g>
    </g>
  </g>
</svg>
