0
SECTION
2
HEADER
0
ENDSEC
0
SECTION
2
TABLES
0
TABLE
2
LTYPE
0
LTYPE
72
65
70
64
2
CONTINUOUS
3
______
73
0
40
0
0
ENDTAB
0
TABLE
2
LAYER
0
ENDTAB
0
ENDSEC
0
SECTION
2
ENTITIES
0
CIRCLE
8
0
10
0
20
0
40
1.5
0
CIRCLE
8
0
10
0
20
0
40
1.5
0
LINE
8
layer0
10
14.1918951
20
11.0728591
11
14.1075412
21
10.5709495
0
LINE
8
layer0
10
14.1075412
20
10.5709495
11
14.0069416
21
10.0951374
0
LINE
8
layer0
10
14.0069416
20
10.0951374
11
13.8918386
21
9.6448758
0
LINE
8
layer0
10
13.8918386
20
9.6448758
11
13.7648918
21
9.2228566
0
LINE
8
layer0
10
13.7648918
20
9.2228566
11
13.6277071
21
8.827621
0
LINE
8
layer0
10
13.6277071
20
8.827621
11
13.4826993
21
8.4602822
0
LINE
8
layer0
10
13.4826993
20
8.4602822
11
13.3319387
21
8.1206784
0
LINE
8
layer0
10
13.3319387
20
8.1206784
11
13.1768387
21
7.8073235
0
LINE
8
layer0
10
13.1768387
20
7.8073235
11
13.0189973
21
7.5195113
0
LINE
8
layer0
10
13.0189973
20
7.5195113
11
12.8628892
21
7.2611161
0
LINE
8
layer0
10
12.8628892
20
7.2611161
11
12.7068495
21
7.0256894
0
LINE
8
layer0
10
12.7068495
20
7.0256894
11
12.409766
21
6.632605
0
LINE
8
layer0
10
12.409766
20
6.632605
11
12.1415867
21
6.3333127
0
LINE
8
layer0
10
12.1415867
20
6.3333127
11
11.9157267
21
6.1199891
0
LINE
8
layer0
10
11.9157267
20
6.1199891
11
11.7448032
21
5.9834345
0
LINE
8
layer0
10
11.7448032
20
5.9834345
11
11.5010392
21
5.8279558
0
LINE
8
layer0
10
11.5010392
20
5.8279558
11
11.2886291
21
5.6762695
0
LINE
8
layer0
10
11.2886291
20
5.6762695
11
11.1090206
21
5.5181117
0
LINE
8
layer0
10
11.1090206
20
5.5181117
11
10.9623512
21
5.3559694
0
LINE
8
layer0
10
10.9623512
20
5.3559694
11
10.8485785
21
5.1923281
0
LINE
8
layer0
10
10.8485785
20
5.1923281
11
10.7675283
21
5.0296251
0
LINE
8
layer0
10
10.7675283
20
5.0296251
11
10.7188897
21
4.8703226
0
LINE
8
layer0
10
10.7188897
20
4.8703226
11
10.7021793
21
4.7168306
0
LINE
8
layer0
10
10.7021793
20
4.7168306
11
10.7167847
21
4.5715334
0
LINE
8
layer0
10
10.7167847
20
4.5715334
11
10.7478263
21
4.4693477
0
LINE
8
layer0
10
10.7478263
20
4.4693477
11
10.9380221
21
3.9811145
0
LINE
8
layer0
10
10.9380221
20
3.9811145
11
11.1061539
21
3.4848506
0
LINE
8
layer0
10
11.1061539
20
3.4848506
11
11.1480584
21
3.3866186
0
LINE
8
layer0
10
11.1480584
20
3.3866186
11
11.2302653
21
3.2659264
0
LINE
8
layer0
10
11.2302653
20
3.2659264
11
11.3417289
21
3.1590859
0
LINE
8
layer0
10
11.3417289
20
3.1590859
11
11.4813859
21
3.0683174
0
LINE
8
layer0
10
11.4813859
20
3.0683174
11
11.6480575
21
2.9957778
0
LINE
8
layer0
10
11.6480575
20
2.9957778
11
11.840399
21
2.9435529
0
LINE
8
layer0
10
11.840399
20
2.9435529
11
12.0569773
21
2.913622
0
LINE
8
layer0
10
12.0569773
20
2.913622
11
12.2962273
21
2.9079162
0
LINE
8
layer0
10
12.2962273
20
2.9079162
11
12.556445
21
2.9282523
0
LINE
8
layer0
10
12.556445
20
2.9282523
11
12.8431188
21
2.9658372
0
LINE
8
layer0
10
12.8431188
20
2.9658372
11
13.0618294
21
2.9710979
0
LINE
8
layer0
10
13.0618294
20
2.9710979
11
13.37197
21
2.9528625
0
LINE
8
layer0
10
13.37197
20
2.9528625
11
13.7697885
21
2.8959736
0
LINE
8
layer0
10
13.7697885
20
2.8959736
11
14.2500375
21
2.7858151
0
LINE
8
layer0
10
14.2500375
20
2.7858151
11
14.5209002
21
2.7057682
0
LINE
8
layer0
10
14.5209002
20
2.7057682
11
14.8065792
21
2.6081703
0
LINE
8
layer0
10
14.8065792
20
2.6081703
11
15.1124949
21
2.4891519
0
LINE
8
layer0
10
15.1124949
20
2.4891519
11
15.432729
21
2.3488044
0
LINE
8
layer0
10
15.432729
20
2.3488044
11
15.7665115
21
2.1855599
0
LINE
8
layer0
10
15.7665115
20
2.1855599
11
16.1137147
21
1.9973712
0
LINE
8
layer0
10
16.1137147
20
1.9973712
11
16.4728568
21
1.7827839
0
LINE
8
layer0
10
16.4728568
20
1.7827839
11
16.8413724
21
1.5410982
0
LINE
8
layer0
10
16.8413724
20
1.5410982
11
17.218969
21
1.2701646
0
LINE
8
layer0
10
17.218969
20
1.2701646
11
17.6018789
21
0.9703355
0
LINE
8
layer0
10
17.6018789
20
0.9703355
11
17.9891191
21
0.6400722
0
LINE
8
layer0
10
17.9891191
20
0.6400722
11
18.3677036
21
0.2890993
0
ARC
8
layer0
10
-0.0000214
20
0
40
18.37
50
359.0982657
51
360.901734
0
LINE
8
layer0
10
18.3677036
20
-0.2890993
11
17.9891191
21
-0.6400722
0
LINE
8
layer0
10
17.9891191
20
-0.6400722
11
17.6018789
21
-0.9703355
0
LINE
8
layer0
10
17.6018789
20
-0.9703355
11
17.218969
21
-1.2701646
0
LINE
8
layer0
10
17.218969
20
-1.2701646
11
16.8413724
21
-1.5410982
0
LINE
8
layer0
10
16.8413724
20
-1.5410982
11
16.4728568
21
-1.7827839
0
LINE
8
layer0
10
16.4728568
20
-1.7827839
11
16.1137147
21
-1.9973712
0
LINE
8
layer0
10
16.1137147
20
-1.9973712
11
15.7665115
21
-2.1855599
0
LINE
8
layer0
10
15.7665115
20
-2.1855599
11
15.432729
21
-2.3488044
0
LINE
8
layer0
10
15.432729
20
-2.3488044
11
15.1124949
21
-2.4891519
0
LINE
8
layer0
10
15.1124949
20
-2.4891519
11
14.8065792
21
-2.6081703
0
LINE
8
layer0
10
14.8065792
20
-2.6081703
11
14.5209002
21
-2.7057682
0
LINE
8
layer0
10
14.5209002
20
-2.7057682
11
14.2500375
21
-2.7858151
0
LINE
8
layer0
10
14.2500375
20
-2.7858151
11
13.7697885
21
-2.8959736
0
LINE
8
layer0
10
13.7697885
20
-2.8959736
11
13.37197
21
-2.9528625
0
LINE
8
layer0
10
13.37197
20
-2.9528625
11
13.0618294
21
-2.9710979
0
LINE
8
layer0
10
13.0618294
20
-2.9710979
11
12.8431188
21
-2.9658372
0
LINE
8
layer0
10
12.8431188
20
-2.9658372
11
12.556445
21
-2.9282523
0
LINE
8
layer0
10
12.556445
20
-2.9282523
11
12.2962273
21
-2.9079162
0
LINE
8
layer0
10
12.2962273
20
-2.9079162
11
12.0569773
21
-2.913622
0
LINE
8
layer0
10
12.0569773
20
-2.913622
11
11.840399
21
-2.9435529
0
LINE
8
layer0
10
11.840399
20
-2.9435529
11
11.6480575
21
-2.9957778
0
LINE
8
layer0
10
11.6480575
20
-2.9957778
11
11.4813859
21
-3.0683174
0
LINE
8
layer0
10
11.4813859
20
-3.0683174
11
11.3417289
21
-3.1590859
0
LINE
8
layer0
10
11.3417289
20
-3.1590859
11
11.2302653
21
-3.2659264
0
LINE
8
layer0
10
11.2302653
20
-3.2659264
11
11.1480584
21
-3.3866186
0
LINE
8
layer0
10
11.1480584
20
-3.3866186
11
11.1061539
21
-3.4848506
0
LINE
8
layer0
10
11.1061539
20
-3.4848506
11
10.9380221
21
-3.9811145
0
LINE
8
layer0
10
10.9380221
20
-3.9811145
11
10.7478263
21
-4.4693477
0
LINE
8
layer0
10
10.7478263
20
-4.4693477
11
10.7167847
21
-4.5715334
0
LINE
8
layer0
10
10.7167847
20
-4.5715334
11
10.7021793
21
-4.7168306
0
LINE
8
layer0
10
10.7021793
20
-4.7168306
11
10.7188897
21
-4.8703226
0
LINE
8
layer0
10
10.7188897
20
-4.8703226
11
10.7675283
21
-5.0296251
0
LINE
8
layer0
10
10.7675283
20
-5.0296251
11
10.8485785
21
-5.1923281
0
LINE
8
layer0
10
10.8485785
20
-5.1923281
11
10.9623512
21
-5.3559694
0
LINE
8
layer0
10
10.9623512
20
-5.3559694
11
11.1090206
21
-5.5181117
0
LINE
8
layer0
10
11.1090206
20
-5.5181117
11
11.2886291
21
-5.6762695
0
LINE
8
layer0
10
11.2886291
20
-5.6762695
11
11.5010392
21
-5.8279558
0
LINE
8
layer0
10
11.5010392
20
-5.8279558
11
11.7448032
21
-5.9834345
0
LINE
8
layer0
10
11.7448032
20
-5.9834345
11
11.9157267
21
-6.1199891
0
LINE
8
layer0
10
11.9157267
20
-6.1199891
11
12.1415867
21
-6.3333127
0
LINE
8
layer0
10
12.1415867
20
-6.3333127
11
12.409766
21
-6.632605
0
LINE
8
layer0
10
12.409766
20
-6.632605
11
12.7068495
21
-7.0256894
0
LINE
8
layer0
10
12.7068495
20
-7.0256894
11
12.8628892
21
-7.2611161
0
LINE
8
layer0
10
12.8628892
20
-7.2611161
11
13.0189973
21
-7.5195113
0
LINE
8
layer0
10
13.0189973
20
-7.5195113
11
13.1768387
21
-7.8073235
0
LINE
8
layer0
10
13.1768387
20
-7.8073235
11
13.3319387
21
-8.1206784
0
LINE
8
layer0
10
13.3319387
20
-8.1206784
11
13.4826993
21
-8.4602822
0
LINE
8
layer0
10
13.4826993
20
-8.4602822
11
13.6277071
21
-8.827621
0
LINE
8
layer0
10
13.6277071
20
-8.827621
11
13.7648918
21
-9.2228566
0
LINE
8
layer0
10
13.7648918
20
-9.2228566
11
13.8918386
21
-9.6448758
0
LINE
8
layer0
10
13.8918386
20
-9.6448758
11
14.0069416
21
-10.0951374
0
LINE
8
layer0
10
14.0069416
20
-10.0951374
11
14.1075412
21
-10.5709495
0
LINE
8
layer0
10
14.1075412
20
-10.5709495
11
14.1918951
21
-11.0728591
0
LINE
8
layer0
10
14.1918951
20
-11.0728591
11
14.2563067
21
-11.5850693
0
ARC
8
layer0
10
-0.0000158
20
0.0000146
40
18.37
50
319.0982625
51
320.9017309
0
LINE
8
layer0
10
13.8846478
20
-12.0279952
11
13.3690342
21
-12.0535066
0
LINE
8
layer0
10
13.3690342
20
-12.0535066
11
12.8601019
21
-12.0575898
0
LINE
8
layer0
10
12.8601019
20
-12.0575898
11
12.3740495
21
-12.0411424
0
LINE
8
layer0
10
12.3740495
20
-12.0411424
11
11.9106409
21
-12.0059752
0
LINE
8
layer0
10
11.9106409
20
-12.0059752
11
11.472989
21
-11.9542399
0
LINE
8
layer0
10
11.472989
20
-11.9542399
11
11.0599361
21
-11.8877713
0
LINE
8
layer0
10
11.0599361
20
-11.8877713
11
10.6729977
21
-11.8087542
0
LINE
8
layer0
10
10.6729977
20
-11.8087542
11
10.3123739
21
-11.7192556
0
LINE
8
layer0
10
10.3123739
20
-11.7192556
11
9.9768467
21
-11.6209254
0
LINE
8
layer0
10
9.9768467
20
-11.6209254
11
9.6659982
21
-11.51546
0
LINE
8
layer0
10
9.6659982
20
-11.51546
11
9.3844207
21
-11.4065934
0
LINE
8
layer0
10
9.3844207
20
-11.4065934
11
9.1254747
21
-11.2938057
0
LINE
8
layer0
10
9.1254747
20
-11.2938057
11
8.686774
21
-11.069494
0
LINE
8
layer0
10
8.686774
20
-11.069494
11
8.3454599
21
-10.8573605
0
LINE
8
layer0
10
8.3454599
20
-10.8573605
11
8.0961569
21
-10.6719751
0
LINE
8
layer0
10
8.0961569
20
-10.6719751
11
7.9319964
21
-10.5273607
0
LINE
8
layer0
10
7.9319964
20
-10.5273607
11
7.7365506
21
-10.3142987
0
LINE
8
layer0
10
7.7365506
20
-10.3142987
11
7.5502841
21
-10.1314556
0
LINE
8
layer0
10
7.5502841
20
-10.1314556
11
7.3633403
21
-9.9820396
0
LINE
8
layer0
10
7.3633403
20
-9.9820396
11
7.1781925
21
-9.8657542
0
LINE
8
layer0
10
7.1781925
20
-9.8657542
11
6.9972809
21
-9.7821259
0
LINE
8
layer0
10
6.9972809
20
-9.7821259
11
6.8229755
21
-9.7305601
0
LINE
8
layer0
10
6.8229755
20
-9.7305601
11
6.6576471
21
-9.7103231
0
LINE
8
layer0
10
6.6576471
20
-9.7103231
11
6.5035853
21
-9.7205201
0
LINE
8
layer0
10
6.5035853
20
-9.7205201
11
6.3630317
21
-9.7601342
0
LINE
8
layer0
10
6.3630317
20
-9.7601342
11
6.2677887
21
-9.8084486
0
LINE
8
layer0
10
6.2677887
20
-9.8084486
11
5.82
21
-10.0805357
0
LINE
8
layer0
10
5.82
20
-10.0805357
11
5.3604713
21
-10.3322886
0
LINE
8
layer0
10
5.3604713
20
-10.3322886
11
5.2710083
21
-10.3906142
0
LINE
8
layer0
10
5.2710083
20
-10.3906142
11
5.1664247
21
-10.4925301
0
LINE
8
layer0
10
5.1664247
20
-10.4925301
11
5.0805629
21
-10.6208531
0
LINE
8
layer0
10
5.0805629
20
-10.6208531
11
5.0154245
21
-10.7741501
0
LINE
8
layer0
10
5.0154245
20
-10.7741501
11
4.9729291
21
-10.9508859
0
LINE
8
layer0
10
4.9729291
20
-10.9508859
11
4.9548975
21
-11.1493742
0
LINE
8
layer0
10
4.9548975
20
-11.1493742
11
4.9630297
21
-11.3678596
0
LINE
8
layer0
10
4.9630297
20
-11.3678596
11
4.9989559
21
-11.6044656
0
LINE
8
layer0
10
4.9989559
20
-11.6044656
11
5.0641694
21
-11.8571987
0
LINE
8
layer0
10
5.0641694
20
-11.8571987
11
5.1509636
21
-12.1329907
0
LINE
8
layer0
10
5.1509636
20
-12.1329907
11
5.1941231
21
-12.3474651
0
LINE
8
layer0
10
5.1941231
20
-12.3474651
11
5.2300201
21
-12.6560605
0
LINE
8
layer0
10
5.2300201
20
-12.6560605
11
5.243076
21
-13.057714
0
LINE
8
layer0
10
5.243076
20
-13.057714
11
5.2179853
21
-13.5497957
0
LINE
8
layer0
10
5.2179853
20
-13.5497957
11
5.1861893
21
-13.8304434
0
LINE
8
layer0
10
5.1861893
20
-13.8304434
11
5.1396818
21
-14.12873
0
LINE
8
layer0
10
5.1396818
20
-14.12873
11
5.0755933
21
-14.4506654
0
LINE
8
layer0
10
5.0755933
20
-14.4506654
11
4.9929861
21
-14.7904056
0
LINE
8
layer0
10
4.9929861
20
-14.7904056
11
4.8901823
21
-15.1474642
0
LINE
8
layer0
10
4.8901823
20
-15.1474642
11
4.7651439
21
-15.5220713
0
LINE
8
layer0
10
4.7651439
20
-15.5220713
11
4.616181
21
-15.9130199
0
LINE
8
layer0
10
4.616181
20
-15.9130199
11
4.4421591
21
-16.3179052
0
LINE
8
layer0
10
4.4421591
20
-16.3179052
11
4.2409105
21
-16.7368124
0
LINE
8
layer0
10
4.2409105
20
-16.7368124
11
4.0121281
21
-17.1659698
0
LINE
8
layer0
10
4.0121281
20
-17.1659698
11
3.7541258
21
-17.6046766
0
LINE
8
layer0
10
3.7541258
20
-17.6046766
11
3.4742255
21
-18.0384553
0
ARC
8
layer0
10
-0.000002
20
0.0000214
40
18.37
50
279.0982602
51
280.9017286
0
LINE
8
layer0
10
2.904811
20
-18.1388585
11
2.4934297
21
-17.8269713
0
LINE
8
layer0
10
2.4934297
20
-17.8269713
11
2.1009402
21
-17.5029638
0
LINE
8
layer0
10
2.1009402
20
-17.5029638
11
1.7391747
21
-17.177936
0
LINE
8
layer0
10
1.7391747
20
-17.177936
11
1.4067882
21
-16.853123
0
LINE
8
layer0
10
1.4067882
20
-16.853123
11
1.1047822
21
-16.5321743
0
LINE
8
layer0
10
1.1047822
20
-16.5321743
11
0.8310905
21
-16.215751
0
LINE
8
layer0
10
0.8310905
20
-16.215751
11
0.5854696
21
-15.9065012
0
LINE
8
layer0
10
0.5854696
20
-15.9065012
11
0.3667445
21
-15.6061368
0
LINE
8
layer0
10
0.3667445
20
-15.6061368
11
0.1729211
21
-15.3151388
0
LINE
8
layer0
10
0.1729211
20
-15.3151388
11
0.0025892
21
-15.034538
0
LINE
8
layer0
10
0.0025892
20
-15.034538
11
-0.1431336
21
-14.7701468
0
LINE
8
layer0
10
-0.1431336
20
-14.7701468
11
-0.2689992
21
-14.5172992
0
LINE
8
layer0
10
-0.2689992
20
-14.5172992
11
-0.4608786
21
-14.0634751
0
LINE
8
layer0
10
-0.4608786
20
-14.0634751
11
-0.5859837
21
-13.6815789
0
LINE
8
layer0
10
-0.5859837
20
-13.6815789
11
-0.6577974
21
-13.3793166
0
LINE
8
layer0
10
-0.6577974
20
-13.3793166
11
-0.6905953
21
-13.1630152
0
LINE
8
layer0
10
-0.6905953
20
-13.1630152
11
-0.7033618
21
-12.8741701
0
LINE
8
layer0
10
-0.7033618
20
-12.8741701
11
-0.728521
21
-12.6143743
0
LINE
8
layer0
10
-0.728521
20
-12.6143743
11
-0.7756854
21
-12.3797499
0
LINE
8
layer0
10
-0.7756854
20
-12.3797499
11
-0.84277
21
-12.1716594
0
LINE
8
layer0
10
-0.84277
20
-12.1716594
11
-0.9276012
21
-11.9913087
0
LINE
8
layer0
10
-0.9276012
20
-11.9913087
11
-1.0279811
21
-11.8397656
0
LINE
8
layer0
10
-1.0279811
20
-11.8397656
11
-1.1416218
21
-11.7179921
0
LINE
8
layer0
10
-1.1416218
20
-11.7179921
11
-1.2661945
21
-11.6267745
0
LINE
8
layer0
10
-1.2661945
20
-11.6267745
11
-1.3993283
21
-11.5667745
0
LINE
8
layer0
10
-1.3993283
20
-11.5667745
11
-1.5033445
21
-11.5425645
0
LINE
8
layer0
10
-1.5033445
20
-11.5425645
11
-2.0212648
21
-11.4631622
0
LINE
8
layer0
10
-2.0212648
20
-11.4631622
11
-2.5351079
21
-11.3606367
0
LINE
8
layer0
10
-2.5351079
20
-11.3606367
11
-2.6411314
21
-11.3478111
0
LINE
8
layer0
10
-2.6411314
20
-11.3478111
11
-2.7867574
21
-11.3586582
0
LINE
8
layer0
10
-2.7867574
20
-11.3586582
11
-2.9350158
21
-11.4017683
0
LINE
8
layer0
10
-2.9350158
20
-11.4017683
11
-3.0834521
21
-11.4773306
0
LINE
8
layer0
10
-3.0834521
20
-11.4773306
11
-3.2296091
21
-11.5854026
0
LINE
8
layer0
10
-3.2296091
20
-11.5854026
11
-3.3710079
21
-11.7258628
0
LINE
8
layer0
10
-3.3710079
20
-11.7258628
11
-3.505218
21
-11.8984596
0
LINE
8
layer0
10
-3.505218
20
-11.8984596
11
-3.6297843
21
-12.1028033
0
LINE
8
layer0
10
-3.6297843
20
-12.1028033
11
-3.7422816
21
-12.3383265
0
LINE
8
layer0
10
-3.7422816
20
-12.3383265
11
-3.853069
21
-12.6053857
0
LINE
8
layer0
10
-3.853069
20
-12.6053857
11
-3.9578684
21
-12.797425
0
LINE
8
layer0
10
-3.9578684
20
-12.797425
11
-4.1287311
21
-13.056897
0
LINE
8
layer0
10
-4.1287311
20
-13.056897
11
-4.3769075
21
-13.3729735
0
LINE
8
layer0
10
-4.3769075
20
-13.3729735
11
-4.7124321
21
-13.7338021
0
LINE
8
layer0
10
-4.7124321
20
-13.7338021
11
-4.9171861
21
-13.9283526
0
LINE
8
layer0
10
-4.9171861
20
-13.9283526
11
-5.1445479
21
-14.1269589
0
LINE
8
layer0
10
-5.1445479
20
-14.1269589
11
-5.4005787
21
-14.3323804
0
LINE
8
layer0
10
-5.4005787
20
-14.3323804
11
-5.6822402
21
-14.5395376
0
LINE
8
layer0
10
-5.6822402
20
-14.5395376
11
-5.9905053
21
-14.7469794
0
LINE
8
layer0
10
-5.9905053
20
-14.7469794
11
-6.3270831
21
-14.9535719
0
LINE
8
layer0
10
-6.3270831
20
-14.9535719
11
-6.6924923
21
-15.1573044
0
LINE
8
layer0
10
-6.6924923
20
-15.1573044
11
-7.086056
21
-15.3556054
0
LINE
8
layer0
10
-7.086056
20
-15.3556054
11
-7.5094897
21
-15.5471469
0
LINE
8
layer0
10
-7.5094897
20
-15.5471469
11
-7.9606042
21
-15.728842
0
LINE
8
layer0
10
-7.9606042
20
-15.728842
11
-8.4402408
21
-15.8990702
0
LINE
8
layer0
10
-8.4402408
20
-15.8990702
11
-8.9334844
21
-16.0514476
0
ARC
8
layer0
10
0.000009
20
0.0000195
40
18.37
50
239.098272
51
240.9017403
0
LINE
8
layer0
10
-9.4342192
20
-15.7623482
11
-9.5488783
21
-15.258998
0
LINE
8
layer0
10
-9.5488783
20
-15.258998
11
-9.6412747
21
-14.7585065
0
LINE
8
layer0
10
-9.6412747
20
-14.7585065
11
-9.7094793
21
-14.2769823
0
LINE
8
layer0
10
-9.7094793
20
-14.2769823
11
-9.7553164
21
-13.8145072
0
LINE
8
layer0
10
-9.7553164
20
-13.8145072
11
-9.7803645
21
-13.3745205
0
LINE
8
layer0
10
-9.7803645
20
-13.3745205
11
-9.7866316
21
-12.9562007
0
LINE
8
layer0
10
-9.7866316
20
-12.9562007
11
-9.7760061
21
-12.5614195
0
LINE
8
layer0
10
-9.7760061
20
-12.5614195
11
-9.7504888
21
-12.1907332
0
LINE
8
layer0
10
-9.7504888
20
-12.1907332
11
-9.7119162
21
-11.8432285
0
LINE
8
layer0
10
-9.7119162
20
-11.8432285
11
-9.6620313
21
-11.5187886
0
LINE
8
layer0
10
-9.6620313
20
-11.5187886
11
-9.6037141
21
-11.2225844
0
LINE
8
layer0
10
-9.6037141
20
-11.2225844
11
-9.5376054
21
-10.947987
0
LINE
8
layer0
10
-9.5376054
20
-10.947987
11
-9.392881
21
-10.4769999
0
LINE
8
layer0
10
-9.392881
20
-10.4769999
11
-9.2432389
21
-10.1040345
0
LINE
8
layer0
10
-9.2432389
20
-10.1040345
11
-9.1039609
21
-9.8263271
0
LINE
8
layer0
10
-9.1039609
20
-9.8263271
11
-8.9900497
21
-9.6395485
0
LINE
8
layer0
10
-8.9900497
20
-9.6395485
11
-8.8141634
21
-9.4100742
0
LINE
8
layer0
10
-8.8141634
20
-9.4100742
11
-8.666443
21
-9.1948871
0
LINE
8
layer0
10
-8.666443
20
-9.1948871
11
-8.5517593
21
-8.9848376
0
LINE
8
layer0
10
-8.5517593
20
-8.9848376
11
-8.4693911
21
-8.7823099
0
LINE
8
layer0
10
-8.4693911
20
-8.7823099
11
-8.4184484
21
-8.5896248
0
LINE
8
layer0
10
-8.4184484
20
-8.5896248
11
-8.3979338
21
-8.4090132
0
LINE
8
layer0
10
-8.3979338
20
-8.4090132
11
-8.4067131
21
-8.2426824
0
LINE
8
layer0
10
-8.4067131
20
-8.2426824
11
-8.4435078
21
-8.0927318
0
LINE
8
layer0
10
-8.4435078
20
-8.0927318
11
-8.506927
21
-7.9611925
0
LINE
8
layer0
10
-8.506927
20
-7.9611925
11
-8.5710461
21
-7.8757862
0
LINE
8
layer0
10
-8.5710461
20
-7.8757862
11
-8.9167573
21
-7.4820478
0
LINE
8
layer0
10
-8.9167573
20
-7.4820478
11
-9.2444818
21
-7.0732167
0
LINE
8
layer0
10
-9.2444818
20
-7.0732167
11
-9.3174564
21
-6.9952411
0
LINE
8
layer0
10
-9.3174564
20
-6.9952411
11
-9.4359848
21
-6.9099439
0
LINE
8
layer0
10
-9.4359848
20
-6.9099439
11
-9.5772679
21
-6.8476695
0
LINE
8
layer0
10
-9.5772679
20
-6.8476695
11
-9.7395473
21
-6.8101405
0
LINE
8
layer0
10
-9.7395473
20
-6.8101405
11
-9.9209773
21
-6.7989806
0
LINE
8
layer0
10
-9.9209773
20
-6.7989806
11
-10.1195812
21
-6.81569
0
LINE
8
layer0
10
-10.1195812
20
-6.81569
11
-10.3333352
21
-6.8616382
0
LINE
8
layer0
10
-10.3333352
20
-6.8616382
11
-10.5601081
21
-6.9381049
0
LINE
8
layer0
10
-10.5601081
20
-6.9381049
11
-10.7976774
21
-7.0462142
0
LINE
8
layer0
10
-10.7976774
20
-7.0462142
11
-11.0542079
21
-7.1795806
0
LINE
8
layer0
10
-11.0542079
20
-7.1795806
11
-11.2579294
21
-7.2593275
0
LINE
8
layer0
10
-11.2579294
20
-7.2593275
11
-11.5556031
21
-7.3482662
0
LINE
8
layer0
10
-11.5556031
20
-7.3482662
11
-11.9488874
21
-7.4308701
0
LINE
8
layer0
10
-11.9488874
20
-7.4308701
11
-12.4378502
21
-7.4916098
0
LINE
8
layer0
10
-12.4378502
20
-7.4916098
11
-12.7197556
21
-7.5090308
0
LINE
8
layer0
10
-12.7197556
20
-7.5090308
11
-13.0215865
21
-7.5150267
0
LINE
8
layer0
10
-13.0215865
20
-7.5150267
11
-13.3497598
21
-7.5078153
0
LINE
8
layer0
10
-13.3497598
20
-7.5078153
11
-13.6986831
21
-7.4854584
0
LINE
8
layer0
10
-13.6986831
20
-7.4854584
11
-14.068169
21
-7.446219
0
LINE
8
layer0
10
-14.068169
20
-7.446219
11
-14.4587976
21
-7.38813
0
LINE
8
layer0
10
-14.4587976
20
-7.38813
11
-14.869674
21
-7.3093177
0
LINE
8
layer0
10
-14.869674
20
-7.3093177
11
-15.2986267
21
-7.2082472
0
LINE
8
layer0
10
-15.2986267
20
-7.2082472
11
-15.7461163
21
-7.0827985
0
LINE
8
layer0
10
-15.7461163
20
-7.0827985
11
-16.2084814
21
-6.9320143
0
LINE
8
layer0
10
-16.2084814
20
-6.9320143
11
-16.6853249
21
-6.7541122
0
LINE
8
layer0
10
-16.6853249
20
-6.7541122
11
-17.1611177
21
-6.5537891
0
ARC
8
layer0
10
0.00002
20
0.0000078
40
18.37
50
199.0982674
51
200.9017356
0
LINE
8
layer0
10
-17.3588733
20
-6.0104601
11
-17.12316
21
-5.55117
0
LINE
8
layer0
10
-17.12316
20
-5.55117
11
-16.87223
21
-5.10838
0
LINE
8
layer0
10
-16.87223
20
-5.10838
11
-16.61496
21
-4.69567
0
LINE
8
layer0
10
-16.61496
20
-4.69567
11
-16.3528
21
-4.31193
0
LINE
8
layer0
10
-16.3528
20
-4.31193
11
-16.08917
21
-3.95878
0
LINE
8
layer0
10
-16.08917
20
-3.95878
11
-15.82508
21
-3.6343
0
LINE
8
layer0
10
-15.82508
20
-3.6343
11
-15.56318
21
-3.33871
0
LINE
8
layer0
10
-15.56318
20
-3.33871
11
-15.30536
21
-3.07115
0
LINE
8
layer0
10
-15.30536
20
-3.07115
11
-15.05244
21
-2.82974
0
LINE
8
layer0
10
-15.05244
20
-2.82974
11
-14.80568
21
-2.61327
0
LINE
8
layer0
10
-14.80568
20
-2.61327
11
-14.57061
21
-2.42385
0
LINE
8
layer0
10
-14.57061
20
-2.42385
11
-14.34346
21
-2.25599
0
LINE
8
layer0
10
-14.34346
20
-2.25599
11
-13.92985
21
-1.98822
0
LINE
8
layer0
10
-13.92985
20
-1.98822
11
-13.57548
21
-1.7987
0
LINE
8
layer0
10
-13.57548
20
-1.7987
11
-13.29028
21
-1.67549
0
LINE
8
layer0
10
-13.29028
20
-1.67549
11
-13.08296
21
-1.60563
0
LINE
8
layer0
10
-13.08296
20
-1.60563
11
-12.80072
21
-1.5429
0
LINE
8
layer0
10
-12.80072
20
-1.5429
11
-12.54924
21
-1.47301
0
LINE
8
layer0
10
-12.54924
20
-1.47301
11
-12.32637
21
-1.38582
0
LINE
8
layer0
10
-12.32637
20
-1.38582
11
-12.13309
21
-1.28362
0
LINE
8
layer0
10
-12.13309
20
-1.28362
11
-11.97021
21
-1.16876
0
LINE
8
layer0
10
-11.97021
20
-1.16876
11
-11.8384
21
-1.04359
0
LINE
8
layer0
10
-11.8384
20
-1.04359
11
-11.73821
21
-0.91053
0
LINE
8
layer0
10
-11.73821
20
-0.91053
11
-11.67001
21
-0.77201
0
LINE
8
layer0
10
-11.67001
20
-0.77201
11
-11.63404
21
-0.63048
0
LINE
8
layer0
10
-11.63404
20
-0.63048
11
-11.62826
21
-0.52384
0
LINE
8
layer0
10
-11.62826
20
-0.52384
11
-11.64
21
0
0
LINE
8
layer0
10
-11.64
20
0
11
-11.62826
21
0.52384
0
LINE
8
layer0
10
-11.62826
20
0.52384
11
-11.63404
21
0.63048
0
LINE
8
layer0
10
-11.63404
20
0.63048
11
-11.67001
21
0.77201
0
LINE
8
layer0
10
-11.67001
20
0.77201
11
-11.73821
21
0.91053
0
LINE
8
layer0
10
-11.73821
20
0.91053
11
-11.8384
21
1.04359
0
LINE
8
layer0
10
-11.8384
20
1.04359
11
-11.97021
21
1.16876
0
LINE
8
layer0
10
-11.97021
20
1.16876
11
-12.13309
21
1.28362
0
LINE
8
layer0
10
-12.13309
20
1.28362
11
-12.32637
21
1.38582
0
LINE
8
layer0
10
-12.32637
20
1.38582
11
-12.54924
21
1.47301
0
LINE
8
layer0
10
-12.54924
20
1.47301
11
-12.80072
21
1.5429
0
LINE
8
layer0
10
-12.80072
20
1.5429
11
-13.08296
21
1.60563
0
LINE
8
layer0
10
-13.08296
20
1.60563
11
-13.29028
21
1.67549
0
LINE
8
layer0
10
-13.29028
20
1.67549
11
-13.57548
21
1.7987
0
LINE
8
layer0
10
-13.57548
20
1.7987
11
-13.92985
21
1.98822
0
LINE
8
layer0
10
-13.92985
20
1.98822
11
-14.34346
21
2.25599
0
LINE
8
layer0
10
-14.34346
20
2.25599
11
-14.57061
21
2.42385
0
LINE
8
layer0
10
-14.57061
20
2.42385
11
-14.80568
21
2.61327
0
LINE
8
layer0
10
-14.80568
20
2.61327
11
-15.05244
21
2.82974
0
LINE
8
layer0
10
-15.05244
20
2.82974
11
-15.30536
21
3.07115
0
LINE
8
layer0
10
-15.30536
20
3.07115
11
-15.56318
21
3.33871
0
LINE
8
layer0
10
-15.56318
20
3.33871
11
-15.82508
21
3.6343
0
LINE
8
layer0
10
-15.82508
20
3.6343
11
-16.08917
21
3.95878
0
LINE
8
layer0
10
-16.08917
20
3.95878
11
-16.3528
21
4.31193
0
LINE
8
layer0
10
-16.3528
20
4.31193
11
-16.61496
21
4.69567
0
LINE
8
layer0
10
-16.61496
20
4.69567
11
-16.87223
21
5.10838
0
LINE
8
layer0
10
-16.87223
20
5.10838
11
-17.12316
21
5.55117
0
LINE
8
layer0
10
-17.12316
20
5.55117
11
-17.3588733
21
6.0104601
0
ARC
8
layer0
10
0.00002
20
-0.0000078
40
18.37
50
159.0982644
51
160.9017326
0
LINE
8
layer0
10
-17.1611177
20
6.5537891
11
-16.6853249
21
6.7541122
0
LINE
8
layer0
10
-16.6853249
20
6.7541122
11
-16.2084814
21
6.9320143
0
LINE
8
layer0
10
-16.2084814
20
6.9320143
11
-15.7461163
21
7.0827985
0
LINE
8
layer0
10
-15.7461163
20
7.0827985
11
-15.2986267
21
7.2082472
0
LINE
8
layer0
10
-15.2986267
20
7.2082472
11
-14.869674
21
7.3093177
0
LINE
8
layer0
10
-14.869674
20
7.3093177
11
-14.4587976
21
7.38813
0
LINE
8
layer0
10
-14.4587976
20
7.38813
11
-14.068169
21
7.446219
0
LINE
8
layer0
10
-14.068169
20
7.446219
11
-13.6986831
21
7.4854584
0
LINE
8
layer0
10
-13.6986831
20
7.4854584
11
-13.3497598
21
7.5078153
0
LINE
8
layer0
10
-13.3497598
20
7.5078153
11
-13.0215865
21
7.5150267
0
LINE
8
layer0
10
-13.0215865
20
7.5150267
11
-12.7197556
21
7.5090308
0
LINE
8
layer0
10
-12.7197556
20
7.5090308
11
-12.4378502
21
7.4916098
0
LINE
8
layer0
10
-12.4378502
20
7.4916098
11
-11.9488874
21
7.4308701
0
LINE
8
layer0
10
-11.9488874
20
7.4308701
11
-11.5556031
21
7.3482662
0
LINE
8
layer0
10
-11.5556031
20
7.3482662
11
-11.2579294
21
7.2593275
0
LINE
8
layer0
10
-11.2579294
20
7.2593275
11
-11.0542079
21
7.1795806
0
LINE
8
layer0
10
-11.0542079
20
7.1795806
11
-10.7976774
21
7.0462142
0
LINE
8
layer0
10
-10.7976774
20
7.0462142
11
-10.5601081
21
6.9381049
0
LINE
8
layer0
10
-10.5601081
20
6.9381049
11
-10.3333352
21
6.8616382
0
LINE
8
layer0
10
-10.3333352
20
6.8616382
11
-10.1195812
21
6.81569
0
LINE
8
layer0
10
-10.1195812
20
6.81569
11
-9.9209773
21
6.7989806
0
LINE
8
layer0
10
-9.9209773
20
6.7989806
11
-9.7395473
21
6.8101405
0
LINE
8
layer0
10
-9.7395473
20
6.8101405
11
-9.5772679
21
6.8476695
0
LINE
8
layer0
10
-9.5772679
20
6.8476695
11
-9.4359848
21
6.9099439
0
LINE
8
layer0
10
-9.4359848
20
6.9099439
11
-9.3174564
21
6.9952411
0
LINE
8
layer0
10
-9.3174564
20
6.9952411
11
-9.2444818
21
7.0732167
0
LINE
8
layer0
10
-9.2444818
20
7.0732167
11
-8.9167573
21
7.4820478
0
LINE
8
layer0
10
-8.9167573
20
7.4820478
11
-8.5710461
21
7.8757862
0
LINE
8
layer0
10
-8.5710461
20
7.8757862
11
-8.506927
21
7.9611925
0
LINE
8
layer0
10
-8.506927
20
7.9611925
11
-8.4435078
21
8.0927318
0
LINE
8
layer0
10
-8.4435078
20
8.0927318
11
-8.4067131
21
8.2426824
0
LINE
8
layer0
10
-8.4067131
20
8.2426824
11
-8.3979338
21
8.4090132
0
LINE
8
layer0
10
-8.3979338
20
8.4090132
11
-8.4184484
21
8.5896248
0
LINE
8
layer0
10
-8.4184484
20
8.5896248
11
-8.4693911
21
8.7823099
0
LINE
8
layer0
10
-8.4693911
20
8.7823099
11
-8.5517593
21
8.9848376
0
LINE
8
layer0
10
-8.5517593
20
8.9848376
11
-8.666443
21
9.1948871
0
LINE
8
layer0
10
-8.666443
20
9.1948871
11
-8.8141634
21
9.4100742
0
LINE
8
layer0
10
-8.8141634
20
9.4100742
11
-8.9900497
21
9.6395485
0
LINE
8
layer0
10
-8.9900497
20
9.6395485
11
-9.1039609
21
9.8263271
0
LINE
8
layer0
10
-9.1039609
20
9.8263271
11
-9.2432389
21
10.1040345
0
LINE
8
layer0
10
-9.2432389
20
10.1040345
11
-9.392881
21
10.4769999
0
LINE
8
layer0
10
-9.392881
20
10.4769999
11
-9.5376054
21
10.947987
0
LINE
8
layer0
10
-9.5376054
20
10.947987
11
-9.6037141
21
11.2225844
0
LINE
8
layer0
10
-9.6037141
20
11.2225844
11
-9.6620313
21
11.5187886
0
LINE
8
layer0
10
-9.6620313
20
11.5187886
11
-9.7119162
21
11.8432285
0
LINE
8
layer0
10
-9.7119162
20
11.8432285
11
-9.7504888
21
12.1907332
0
LINE
8
layer0
10
-9.7504888
20
12.1907332
11
-9.7760061
21
12.5614195
0
LINE
8
layer0
10
-9.7760061
20
12.5614195
11
-9.7866316
21
12.9562007
0
LINE
8
layer0
10
-9.7866316
20
12.9562007
11
-9.7803645
21
13.3745205
0
LINE
8
layer0
10
-9.7803645
20
13.3745205
11
-9.7553164
21
13.8145072
0
LINE
8
layer0
10
-9.7553164
20
13.8145072
11
-9.7094793
21
14.2769823
0
LINE
8
layer0
10
-9.7094793
20
14.2769823
11
-9.6412747
21
14.7585065
0
LINE
8
layer0
10
-9.6412747
20
14.7585065
11
-9.5488783
21
15.258998
0
LINE
8
layer0
10
-9.5488783
20
15.258998
11
-9.4342192
21
15.7623482
0
ARC
8
layer0
10
0.000009
20
-0.0000196
40
18.37
50
119.0982597
51
120.901728
0
LINE
8
layer0
10
-8.9334844
20
16.0514476
11
-8.4402408
21
15.8990702
0
LINE
8
layer0
10
-8.4402408
20
15.8990702
11
-7.9606042
21
15.728842
0
LINE
8
layer0
10
-7.9606042
20
15.728842
11
-7.5094897
21
15.5471469
0
LINE
8
layer0
10
-7.5094897
20
15.5471469
11
-7.086056
21
15.3556054
0
LINE
8
layer0
10
-7.086056
20
15.3556054
11
-6.6924923
21
15.1573044
0
LINE
8
layer0
10
-6.6924923
20
15.1573044
11
-6.3270831
21
14.9535719
0
LINE
8
layer0
10
-6.3270831
20
14.9535719
11
-5.9905053
21
14.7469794
0
LINE
8
layer0
10
-5.9905053
20
14.7469794
11
-5.6822402
21
14.5395376
0
LINE
8
layer0
10
-5.6822402
20
14.5395376
11
-5.4005787
21
14.3323804
0
LINE
8
layer0
10
-5.4005787
20
14.3323804
11
-5.1445479
21
14.1269589
0
LINE
8
layer0
10
-5.1445479
20
14.1269589
11
-4.9171861
21
13.9283526
0
LINE
8
layer0
10
-4.9171861
20
13.9283526
11
-4.7124321
21
13.7338021
0
LINE
8
layer0
10
-4.7124321
20
13.7338021
11
-4.3769075
21
13.3729735
0
LINE
8
layer0
10
-4.3769075
20
13.3729735
11
-4.1287311
21
13.056897
0
LINE
8
layer0
10
-4.1287311
20
13.056897
11
-3.9578684
21
12.797425
0
LINE
8
layer0
10
-3.9578684
20
12.797425
11
-3.853069
21
12.6053857
0
LINE
8
layer0
10
-3.853069
20
12.6053857
11
-3.7422816
21
12.3383265
0
LINE
8
layer0
10
-3.7422816
20
12.3383265
11
-3.6297843
21
12.1028033
0
LINE
8
layer0
10
-3.6297843
20
12.1028033
11
-3.505218
21
11.8984596
0
LINE
8
layer0
10
-3.505218
20
11.8984596
11
-3.3710079
21
11.7258628
0
LINE
8
layer0
10
-3.3710079
20
11.7258628
11
-3.2296091
21
11.5854026
0
LINE
8
layer0
10
-3.2296091
20
11.5854026
11
-3.0834521
21
11.4773306
0
LINE
8
layer0
10
-3.0834521
20
11.4773306
11
-2.9350158
21
11.4017683
0
LINE
8
layer0
10
-2.9350158
20
11.4017683
11
-2.7867574
21
11.3586582
0
LINE
8
layer0
10
-2.7867574
20
11.3586582
11
-2.6411314
21
11.3478111
0
LINE
8
layer0
10
-2.6411314
20
11.3478111
11
-2.5351079
21
11.3606367
0
LINE
8
layer0
10
-2.5351079
20
11.3606367
11
-2.0212648
21
11.4631622
0
LINE
8
layer0
10
-2.0212648
20
11.4631622
11
-1.5033445
21
11.5425645
0
LINE
8
layer0
10
-1.5033445
20
11.5425645
11
-1.3993283
21
11.5667745
0
LINE
8
layer0
10
-1.3993283
20
11.5667745
11
-1.2661945
21
11.6267745
0
LINE
8
layer0
10
-1.2661945
20
11.6267745
11
-1.1416218
21
11.7179921
0
LINE
8
layer0
10
-1.1416218
20
11.7179921
11
-1.0279811
21
11.8397656
0
LINE
8
layer0
10
-1.0279811
20
11.8397656
11
-0.9276012
21
11.9913087
0
LINE
8
layer0
10
-0.9276012
20
11.9913087
11
-0.84277
21
12.1716594
0
LINE
8
layer0
10
-0.84277
20
12.1716594
11
-0.7756854
21
12.3797499
0
LINE
8
layer0
10
-0.7756854
20
12.3797499
11
-0.728521
21
12.6143743
0
LINE
8
layer0
10
-0.728521
20
12.6143743
11
-0.7033618
21
12.8741701
0
LINE
8
layer0
10
-0.7033618
20
12.8741701
11
-0.6905953
21
13.1630152
0
LINE
8
layer0
10
-0.6905953
20
13.1630152
11
-0.6577974
21
13.3793166
0
LINE
8
layer0
10
-0.6577974
20
13.3793166
11
-0.5859837
21
13.6815789
0
LINE
8
layer0
10
-0.5859837
20
13.6815789
11
-0.4608786
21
14.0634751
0
LINE
8
layer0
10
-0.4608786
20
14.0634751
11
-0.2689992
21
14.5172992
0
LINE
8
layer0
10
-0.2689992
20
14.5172992
11
-0.1431336
21
14.7701468
0
LINE
8
layer0
10
-0.1431336
20
14.7701468
11
0.0025892
21
15.034538
0
LINE
8
layer0
10
0.0025892
20
15.034538
11
0.1729211
21
15.3151388
0
LINE
8
layer0
10
0.1729211
20
15.3151388
11
0.3667445
21
15.6061368
0
LINE
8
layer0
10
0.3667445
20
15.6061368
11
0.5854696
21
15.9065012
0
LINE
8
layer0
10
0.5854696
20
15.9065012
11
0.8310905
21
16.215751
0
LINE
8
layer0
10
0.8310905
20
16.215751
11
1.1047822
21
16.5321743
0
LINE
8
layer0
10
1.1047822
20
16.5321743
11
1.4067882
21
16.853123
0
LINE
8
layer0
10
1.4067882
20
16.853123
11
1.7391747
21
17.177936
0
LINE
8
layer0
10
1.7391747
20
17.177936
11
2.1009402
21
17.5029638
0
LINE
8
layer0
10
2.1009402
20
17.5029638
11
2.4934297
21
17.8269713
0
LINE
8
layer0
10
2.4934297
20
17.8269713
11
2.904811
21
18.1388585
0
ARC
8
layer0
10
-0.0000019
20
-0.0000213
40
18.37
50
79.0982714
51
80.9017398
0
LINE
8
layer0
10
3.4742255
20
18.0384553
11
3.7541258
21
17.6046766
0
LINE
8
layer0
10
3.7541258
20
17.6046766
11
4.0121281
21
17.1659698
0
LINE
8
layer0
10
4.0121281
20
17.1659698
11
4.2409105
21
16.7368124
0
LINE
8
layer0
10
4.2409105
20
16.7368124
11
4.4421591
21
16.3179052
0
LINE
8
layer0
10
4.4421591
20
16.3179052
11
4.616181
21
15.9130199
0
LINE
8
layer0
10
4.616181
20
15.9130199
11
4.7651439
21
15.5220713
0
LINE
8
layer0
10
4.7651439
20
15.5220713
11
4.8901823
21
15.1474642
0
LINE
8
layer0
10
4.8901823
20
15.1474642
11
4.9929861
21
14.7904056
0
LINE
8
layer0
10
4.9929861
20
14.7904056
11
5.0755933
21
14.4506654
0
LINE
8
layer0
10
5.0755933
20
14.4506654
11
5.1396818
21
14.12873
0
LINE
8
layer0
10
5.1396818
20
14.12873
11
5.1861893
21
13.8304434
0
LINE
8
layer0
10
5.1861893
20
13.8304434
11
5.2179853
21
13.5497957
0
LINE
8
layer0
10
5.2179853
20
13.5497957
11
5.243076
21
13.057714
0
LINE
8
layer0
10
5.243076
20
13.057714
11
5.2300201
21
12.6560605
0
LINE
8
layer0
10
5.2300201
20
12.6560605
11
5.1941231
21
12.3474651
0
LINE
8
layer0
10
5.1941231
20
12.3474651
11
5.1509636
21
12.1329907
0
LINE
8
layer0
10
5.1509636
20
12.1329907
11
5.0641694
21
11.8571987
0
LINE
8
layer0
10
5.0641694
20
11.8571987
11
4.9989559
21
11.6044656
0
LINE
8
layer0
10
4.9989559
20
11.6044656
11
4.9630297
21
11.3678596
0
LINE
8
layer0
10
4.9630297
20
11.3678596
11
4.9548975
21
11.1493742
0
LINE
8
layer0
10
4.9548975
20
11.1493742
11
4.9729291
21
10.9508859
0
LINE
8
layer0
10
4.9729291
20
10.9508859
11
5.0154245
21
10.7741501
0
LINE
8
layer0
10
5.0154245
20
10.7741501
11
5.0805629
21
10.6208531
0
LINE
8
layer0
10
5.0805629
20
10.6208531
11
5.1664247
21
10.4925301
0
LINE
8
layer0
10
5.1664247
20
10.4925301
11
5.2710083
21
10.3906142
0
LINE
8
layer0
10
5.2710083
20
10.3906142
11
5.3604713
21
10.3322886
0
LINE
8
layer0
10
5.3604713
20
10.3322886
11
5.82
21
10.0805357
0
LINE
8
layer0
10
5.82
20
10.0805357
11
6.2677887
21
9.8084486
0
LINE
8
layer0
10
6.2677887
20
9.8084486
11
6.3630317
21
9.7601342
0
LINE
8
layer0
10
6.3630317
20
9.7601342
11
6.5035853
21
9.7205201
0
LINE
8
layer0
10
6.5035853
20
9.7205201
11
6.6576471
21
9.7103231
0
LINE
8
layer0
10
6.6576471
20
9.7103231
11
6.8229755
21
9.7305601
0
LINE
8
layer0
10
6.8229755
20
9.7305601
11
6.9972809
21
9.7821259
0
LINE
8
layer0
10
6.9972809
20
9.7821259
11
7.1781925
21
9.8657542
0
LINE
8
layer0
10
7.1781925
20
9.8657542
11
7.3633403
21
9.9820396
0
LINE
8
layer0
10
7.3633403
20
9.9820396
11
7.5502841
21
10.1314556
0
LINE
8
layer0
10
7.5502841
20
10.1314556
11
7.7365506
21
10.3142987
0
LINE
8
layer0
10
7.7365506
20
10.3142987
11
7.9319964
21
10.5273607
0
LINE
8
layer0
10
7.9319964
20
10.5273607
11
8.0961569
21
10.6719751
0
LINE
8
layer0
10
8.0961569
20
10.6719751
11
8.3454599
21
10.8573605
0
LINE
8
layer0
10
8.3454599
20
10.8573605
11
8.686774
21
11.069494
0
LINE
8
layer0
10
8.686774
20
11.069494
11
9.1254747
21
11.2938057
0
LINE
8
layer0
10
9.1254747
20
11.2938057
11
9.3844207
21
11.4065934
0
LINE
8
layer0
10
9.3844207
20
11.4065934
11
9.6659982
21
11.51546
0
LINE
8
layer0
10
9.6659982
20
11.51546
11
9.9768467
21
11.6209254
0
LINE
8
layer0
10
9.9768467
20
11.6209254
11
10.3123739
21
11.7192556
0
LINE
8
layer0
10
10.3123739
20
11.7192556
11
10.6729977
21
11.8087542
0
LINE
8
layer0
10
10.6729977
20
11.8087542
11
11.0599361
21
11.8877713
0
LINE
8
layer0
10
11.0599361
20
11.8877713
11
11.472989
21
11.9542399
0
LINE
8
layer0
10
11.472989
20
11.9542399
11
11.9106409
21
12.0059752
0
LINE
8
layer0
10
11.9106409
20
12.0059752
11
12.3740495
21
12.0411424
0
LINE
8
layer0
10
12.3740495
20
12.0411424
11
12.8601019
21
12.0575898
0
LINE
8
layer0
10
12.8601019
20
12.0575898
11
13.3690342
21
12.0535066
0
LINE
8
layer0
10
13.3690342
20
12.0535066
11
13.8846478
21
12.0279952
0
ARC
8
layer0
10
-0.0000157
20
-0.0000145
40
18.37
50
39.0982688
51
40.9017372
0
LINE
8
layer0
10
14.2563067
20
11.5850693
11
14.1918951
21
11.0728591
0
LINE
8
layer1
10
14.1918951
20
11.0728591
11
14.1075412
21
10.5709495
0
LINE
8
layer1
10
14.1075412
20
10.5709495
11
14.0069416
21
10.0951374
0
LINE
8
layer1
10
14.0069416
20
10.0951374
11
13.8918386
21
9.6448758
0
LINE
8
layer1
10
13.8918386
20
9.6448758
11
13.7648918
21
9.2228566
0
LINE
8
layer1
10
13.7648918
20
9.2228566
11
13.6277071
21
8.827621
0
LINE
8
layer1
10
13.6277071
20
8.827621
11
13.4826993
21
8.4602822
0
LINE
8
layer1
10
13.4826993
20
8.4602822
11
13.3319387
21
8.1206784
0
LINE
8
layer1
10
13.3319387
20
8.1206784
11
13.1768387
21
7.8073235
0
LINE
8
layer1
10
13.1768387
20
7.8073235
11
13.0189973
21
7.5195113
0
LINE
8
layer1
10
13.0189973
20
7.5195113
11
12.8628892
21
7.2611161
0
LINE
8
layer1
10
12.8628892
20
7.2611161
11
12.7068495
21
7.0256894
0
LINE
8
layer1
10
12.7068495
20
7.0256894
11
12.409766
21
6.632605
0
LINE
8
layer1
10
12.409766
20
6.632605
11
12.1415867
21
6.3333127
0
LINE
8
layer1
10
12.1415867
20
6.3333127
11
11.9157267
21
6.1199891
0
LINE
8
layer1
10
11.9157267
20
6.1199891
11
11.7448032
21
5.9834345
0
LINE
8
layer1
10
11.7448032
20
5.9834345
11
11.5010392
21
5.8279558
0
LINE
8
layer1
10
11.5010392
20
5.8279558
11
11.2886291
21
5.6762695
0
LINE
8
layer1
10
11.2886291
20
5.6762695
11
11.1090206
21
5.5181117
0
LINE
8
layer1
10
11.1090206
20
5.5181117
11
10.9623512
21
5.3559694
0
LINE
8
layer1
10
10.9623512
20
5.3559694
11
10.8485785
21
5.1923281
0
LINE
8
layer1
10
10.8485785
20
5.1923281
11
10.7675283
21
5.0296251
0
LINE
8
layer1
10
10.7675283
20
5.0296251
11
10.7188897
21
4.8703226
0
LINE
8
layer1
10
10.7188897
20
4.8703226
11
10.7021793
21
4.7168306
0
LINE
8
layer1
10
10.7021793
20
4.7168306
11
10.7167847
21
4.5715334
0
LINE
8
layer1
10
10.7167847
20
4.5715334
11
10.7478263
21
4.4693477
0
LINE
8
layer1
10
10.7478263
20
4.4693477
11
10.9380221
21
3.9811145
0
LINE
8
layer1
10
10.9380221
20
3.9811145
11
11.1061539
21
3.4848506
0
LINE
8
layer1
10
11.1061539
20
3.4848506
11
11.1480584
21
3.3866186
0
LINE
8
layer1
10
11.1480584
20
3.3866186
11
11.2302653
21
3.2659264
0
LINE
8
layer1
10
11.2302653
20
3.2659264
11
11.3417289
21
3.1590859
0
LINE
8
layer1
10
11.3417289
20
3.1590859
11
11.4813859
21
3.0683174
0
LINE
8
layer1
10
11.4813859
20
3.0683174
11
11.6480575
21
2.9957778
0
LINE
8
layer1
10
11.6480575
20
2.9957778
11
11.840399
21
2.9435529
0
LINE
8
layer1
10
11.840399
20
2.9435529
11
12.0569773
21
2.913622
0
LINE
8
layer1
10
12.0569773
20
2.913622
11
12.2962273
21
2.9079162
0
LINE
8
layer1
10
12.2962273
20
2.9079162
11
12.556445
21
2.9282523
0
LINE
8
layer1
10
12.556445
20
2.9282523
11
12.8431188
21
2.9658372
0
LINE
8
layer1
10
12.8431188
20
2.9658372
11
13.0618294
21
2.9710979
0
LINE
8
layer1
10
13.0618294
20
2.9710979
11
13.37197
21
2.9528625
0
LINE
8
layer1
10
13.37197
20
2.9528625
11
13.7697885
21
2.8959736
0
LINE
8
layer1
10
13.7697885
20
2.8959736
11
14.2500375
21
2.7858151
0
LINE
8
layer1
10
14.2500375
20
2.7858151
11
14.5209002
21
2.7057682
0
LINE
8
layer1
10
14.5209002
20
2.7057682
11
14.8065792
21
2.6081703
0
LINE
8
layer1
10
14.8065792
20
2.6081703
11
15.1124949
21
2.4891519
0
LINE
8
layer1
10
15.1124949
20
2.4891519
11
15.432729
21
2.3488044
0
LINE
8
layer1
10
15.432729
20
2.3488044
11
15.7665115
21
2.1855599
0
LINE
8
layer1
10
15.7665115
20
2.1855599
11
16.1137147
21
1.9973712
0
LINE
8
layer1
10
16.1137147
20
1.9973712
11
16.4728568
21
1.7827839
0
LINE
8
layer1
10
16.4728568
20
1.7827839
11
16.8413724
21
1.5410982
0
LINE
8
layer1
10
16.8413724
20
1.5410982
11
17.218969
21
1.2701646
0
LINE
8
layer1
10
17.218969
20
1.2701646
11
17.6018789
21
0.9703355
0
LINE
8
layer1
10
17.6018789
20
0.9703355
11
17.9891191
21
0.6400722
0
LINE
8
layer1
10
17.9891191
20
0.6400722
11
18.3677036
21
0.2890993
0
ARC
8
layer1
10
-0.0000214
20
0
40
18.37
50
359.0982657
51
360.901734
0
LINE
8
layer1
10
18.3677036
20
-0.2890993
11
17.9891191
21
-0.6400722
0
LINE
8
layer1
10
17.9891191
20
-0.6400722
11
17.6018789
21
-0.9703355
0
LINE
8
layer1
10
17.6018789
20
-0.9703355
11
17.218969
21
-1.2701646
0
LINE
8
layer1
10
17.218969
20
-1.2701646
11
16.8413724
21
-1.5410982
0
LINE
8
layer1
10
16.8413724
20
-1.5410982
11
16.4728568
21
-1.7827839
0
LINE
8
layer1
10
16.4728568
20
-1.7827839
11
16.1137147
21
-1.9973712
0
LINE
8
layer1
10
16.1137147
20
-1.9973712
11
15.7665115
21
-2.1855599
0
LINE
8
layer1
10
15.7665115
20
-2.1855599
11
15.432729
21
-2.3488044
0
LINE
8
layer1
10
15.432729
20
-2.3488044
11
15.1124949
21
-2.4891519
0
LINE
8
layer1
10
15.1124949
20
-2.4891519
11
14.8065792
21
-2.6081703
0
LINE
8
layer1
10
14.8065792
20
-2.6081703
11
14.5209002
21
-2.7057682
0
LINE
8
layer1
10
14.5209002
20
-2.7057682
11
14.2500375
21
-2.7858151
0
LINE
8
layer1
10
14.2500375
20
-2.7858151
11
13.7697885
21
-2.8959736
0
LINE
8
layer1
10
13.7697885
20
-2.8959736
11
13.37197
21
-2.9528625
0
LINE
8
layer1
10
13.37197
20
-2.9528625
11
13.0618294
21
-2.9710979
0
LINE
8
layer1
10
13.0618294
20
-2.9710979
11
12.8431188
21
-2.9658372
0
LINE
8
layer1
10
12.8431188
20
-2.9658372
11
12.556445
21
-2.9282523
0
LINE
8
layer1
10
12.556445
20
-2.9282523
11
12.2962273
21
-2.9079162
0
LINE
8
layer1
10
12.2962273
20
-2.9079162
11
12.0569773
21
-2.913622
0
LINE
8
layer1
10
12.0569773
20
-2.913622
11
11.840399
21
-2.9435529
0
LINE
8
layer1
10
11.840399
20
-2.9435529
11
11.6480575
21
-2.9957778
0
LINE
8
layer1
10
11.6480575
20
-2.9957778
11
11.4813859
21
-3.0683174
0
LINE
8
layer1
10
11.4813859
20
-3.0683174
11
11.3417289
21
-3.1590859
0
LINE
8
layer1
10
11.3417289
20
-3.1590859
11
11.2302653
21
-3.2659264
0
LINE
8
layer1
10
11.2302653
20
-3.2659264
11
11.1480584
21
-3.3866186
0
LINE
8
layer1
10
11.1480584
20
-3.3866186
11
11.1061539
21
-3.4848506
0
LINE
8
layer1
10
11.1061539
20
-3.4848506
11
10.9380221
21
-3.9811145
0
LINE
8
layer1
10
10.9380221
20
-3.9811145
11
10.7478263
21
-4.4693477
0
LINE
8
layer1
10
10.7478263
20
-4.4693477
11
10.7167847
21
-4.5715334
0
LINE
8
layer1
10
10.7167847
20
-4.5715334
11
10.7021793
21
-4.7168306
0
LINE
8
layer1
10
10.7021793
20
-4.7168306
11
10.7188897
21
-4.8703226
0
LINE
8
layer1
10
10.7188897
20
-4.8703226
11
10.7675283
21
-5.0296251
0
LINE
8
layer1
10
10.7675283
20
-5.0296251
11
10.8485785
21
-5.1923281
0
LINE
8
layer1
10
10.8485785
20
-5.1923281
11
10.9623512
21
-5.3559694
0
LINE
8
layer1
10
10.9623512
20
-5.3559694
11
11.1090206
21
-5.5181117
0
LINE
8
layer1
10
11.1090206
20
-5.5181117
11
11.2886291
21
-5.6762695
0
LINE
8
layer1
10
11.2886291
20
-5.6762695
11
11.5010392
21
-5.8279558
0
LINE
8
layer1
10
11.5010392
20
-5.8279558
11
11.7448032
21
-5.9834345
0
LINE
8
layer1
10
11.7448032
20
-5.9834345
11
11.9157267
21
-6.1199891
0
LINE
8
layer1
10
11.9157267
20
-6.1199891
11
12.1415867
21
-6.3333127
0
LINE
8
layer1
10
12.1415867
20
-6.3333127
11
12.409766
21
-6.632605
0
LINE
8
layer1
10
12.409766
20
-6.632605
11
12.7068495
21
-7.0256894
0
LINE
8
layer1
10
12.7068495
20
-7.0256894
11
12.8628892
21
-7.2611161
0
LINE
8
layer1
10
12.8628892
20
-7.2611161
11
13.0189973
21
-7.5195113
0
LINE
8
layer1
10
13.0189973
20
-7.5195113
11
13.1768387
21
-7.8073235
0
LINE
8
layer1
10
13.1768387
20
-7.8073235
11
13.3319387
21
-8.1206784
0
LINE
8
layer1
10
13.3319387
20
-8.1206784
11
13.4826993
21
-8.4602822
0
LINE
8
layer1
10
13.4826993
20
-8.4602822
11
13.6277071
21
-8.827621
0
LINE
8
layer1
10
13.6277071
20
-8.827621
11
13.7648918
21
-9.2228566
0
LINE
8
layer1
10
13.7648918
20
-9.2228566
11
13.8918386
21
-9.6448758
0
LINE
8
layer1
10
13.8918386
20
-9.6448758
11
14.0069416
21
-10.0951374
0
LINE
8
layer1
10
14.0069416
20
-10.0951374
11
14.1075412
21
-10.5709495
0
LINE
8
layer1
10
14.1075412
20
-10.5709495
11
14.1918951
21
-11.0728591
0
LINE
8
layer1
10
14.1918951
20
-11.0728591
11
14.2563067
21
-11.5850693
0
ARC
8
layer1
10
-0.0000158
20
0.0000146
40
18.37
50
319.0982625
51
320.9017309
0
LINE
8
layer1
10
13.8846478
20
-12.0279952
11
13.3690342
21
-12.0535066
0
LINE
8
layer1
10
13.3690342
20
-12.0535066
11
12.8601019
21
-12.0575898
0
LINE
8
layer1
10
12.8601019
20
-12.0575898
11
12.3740495
21
-12.0411424
0
LINE
8
layer1
10
12.3740495
20
-12.0411424
11
11.9106409
21
-12.0059752
0
LINE
8
layer1
10
11.9106409
20
-12.0059752
11
11.472989
21
-11.9542399
0
LINE
8
layer1
10
11.472989
20
-11.9542399
11
11.0599361
21
-11.8877713
0
LINE
8
layer1
10
11.0599361
20
-11.8877713
11
10.6729977
21
-11.8087542
0
LINE
8
layer1
10
10.6729977
20
-11.8087542
11
10.3123739
21
-11.7192556
0
LINE
8
layer1
10
10.3123739
20
-11.7192556
11
9.9768467
21
-11.6209254
0
LINE
8
layer1
10
9.9768467
20
-11.6209254
11
9.6659982
21
-11.51546
0
LINE
8
layer1
10
9.6659982
20
-11.51546
11
9.3844207
21
-11.4065934
0
LINE
8
layer1
10
9.3844207
20
-11.4065934
11
9.1254747
21
-11.2938057
0
LINE
8
layer1
10
9.1254747
20
-11.2938057
11
8.686774
21
-11.069494
0
LINE
8
layer1
10
8.686774
20
-11.069494
11
8.3454599
21
-10.8573605
0
LINE
8
layer1
10
8.3454599
20
-10.8573605
11
8.0961569
21
-10.6719751
0
LINE
8
layer1
10
8.0961569
20
-10.6719751
11
7.9319964
21
-10.5273607
0
LINE
8
layer1
10
7.9319964
20
-10.5273607
11
7.7365506
21
-10.3142987
0
LINE
8
layer1
10
7.7365506
20
-10.3142987
11
7.5502841
21
-10.1314556
0
LINE
8
layer1
10
7.5502841
20
-10.1314556
11
7.3633403
21
-9.9820396
0
LINE
8
layer1
10
7.3633403
20
-9.9820396
11
7.1781925
21
-9.8657542
0
LINE
8
layer1
10
7.1781925
20
-9.8657542
11
6.9972809
21
-9.7821259
0
LINE
8
layer1
10
6.9972809
20
-9.7821259
11
6.8229755
21
-9.7305601
0
LINE
8
layer1
10
6.8229755
20
-9.7305601
11
6.6576471
21
-9.7103231
0
LINE
8
layer1
10
6.6576471
20
-9.7103231
11
6.5035853
21
-9.7205201
0
LINE
8
layer1
10
6.5035853
20
-9.7205201
11
6.3630317
21
-9.7601342
0
LINE
8
layer1
10
6.3630317
20
-9.7601342
11
6.2677887
21
-9.8084486
0
LINE
8
layer1
10
6.2677887
20
-9.8084486
11
5.82
21
-10.0805357
0
LINE
8
layer1
10
5.82
20
-10.0805357
11
5.3604713
21
-10.3322886
0
LINE
8
layer1
10
5.3604713
20
-10.3322886
11
5.2710083
21
-10.3906142
0
LINE
8
layer1
10
5.2710083
20
-10.3906142
11
5.1664247
21
-10.4925301
0
LINE
8
layer1
10
5.1664247
20
-10.4925301
11
5.0805629
21
-10.6208531
0
LINE
8
layer1
10
5.0805629
20
-10.6208531
11
5.0154245
21
-10.7741501
0
LINE
8
layer1
10
5.0154245
20
-10.7741501
11
4.9729291
21
-10.9508859
0
LINE
8
layer1
10
4.9729291
20
-10.9508859
11
4.9548975
21
-11.1493742
0
LINE
8
layer1
10
4.9548975
20
-11.1493742
11
4.9630297
21
-11.3678596
0
LINE
8
layer1
10
4.9630297
20
-11.3678596
11
4.9989559
21
-11.6044656
0
LINE
8
layer1
10
4.9989559
20
-11.6044656
11
5.0641694
21
-11.8571987
0
LINE
8
layer1
10
5.0641694
20
-11.8571987
11
5.1509636
21
-12.1329907
0
LINE
8
layer1
10
5.1509636
20
-12.1329907
11
5.1941231
21
-12.3474651
0
LINE
8
layer1
10
5.1941231
20
-12.3474651
11
5.2300201
21
-12.6560605
0
LINE
8
layer1
10
5.2300201
20
-12.6560605
11
5.243076
21
-13.057714
0
LINE
8
layer1
10
5.243076
20
-13.057714
11
5.2179853
21
-13.5497957
0
LINE
8
layer1
10
5.2179853
20
-13.5497957
11
5.1861893
21
-13.8304434
0
LINE
8
layer1
10
5.1861893
20
-13.8304434
11
5.1396818
21
-14.12873
0
LINE
8
layer1
10
5.1396818
20
-14.12873
11
5.0755933
21
-14.4506654
0
LINE
8
layer1
10
5.0755933
20
-14.4506654
11
4.9929861
21
-14.7904056
0
LINE
8
layer1
10
4.9929861
20
-14.7904056
11
4.8901823
21
-15.1474642
0
LINE
8
layer1
10
4.8901823
20
-15.1474642
11
4.7651439
21
-15.5220713
0
LINE
8
layer1
10
4.7651439
20
-15.5220713
11
4.616181
21
-15.9130199
0
LINE
8
layer1
10
4.616181
20
-15.9130199
11
4.4421591
21
-16.3179052
0
LINE
8
layer1
10
4.4421591
20
-16.3179052
11
4.2409105
21
-16.7368124
0
LINE
8
layer1
10
4.2409105
20
-16.7368124
11
4.0121281
21
-17.1659698
0
LINE
8
layer1
10
4.0121281
20
-17.1659698
11
3.7541258
21
-17.6046766
0
LINE
8
layer1
10
3.7541258
20
-17.6046766
11
3.4742255
21
-18.0384553
0
ARC
8
layer1
10
-0.000002
20
0.0000214
40
18.37
50
279.0982602
51
280.9017286
0
LINE
8
layer1
10
2.904811
20
-18.1388585
11
2.4934297
21
-17.8269713
0
LINE
8
layer1
10
2.4934297
20
-17.8269713
11
2.1009402
21
-17.5029638
0
LINE
8
layer1
10
2.1009402
20
-17.5029638
11
1.7391747
21
-17.177936
0
LINE
8
layer1
10
1.7391747
20
-17.177936
11
1.4067882
21
-16.853123
0
LINE
8
layer1
10
1.4067882
20
-16.853123
11
1.1047822
21
-16.5321743
0
LINE
8
layer1
10
1.1047822
20
-16.5321743
11
0.8310905
21
-16.215751
0
LINE
8
layer1
10
0.8310905
20
-16.215751
11
0.5854696
21
-15.9065012
0
LINE
8
layer1
10
0.5854696
20
-15.9065012
11
0.3667445
21
-15.6061368
0
LINE
8
layer1
10
0.3667445
20
-15.6061368
11
0.1729211
21
-15.3151388
0
LINE
8
layer1
10
0.1729211
20
-15.3151388
11
0.0025892
21
-15.034538
0
LINE
8
layer1
10
0.0025892
20
-15.034538
11
-0.1431336
21
-14.7701468
0
LINE
8
layer1
10
-0.1431336
20
-14.7701468
11
-0.2689992
21
-14.5172992
0
LINE
8
layer1
10
-0.2689992
20
-14.5172992
11
-0.4608786
21
-14.0634751
0
LINE
8
layer1
10
-0.4608786
20
-14.0634751
11
-0.5859837
21
-13.6815789
0
LINE
8
layer1
10
-0.5859837
20
-13.6815789
11
-0.6577974
21
-13.3793166
0
LINE
8
layer1
10
-0.6577974
20
-13.3793166
11
-0.6905953
21
-13.1630152
0
LINE
8
layer1
10
-0.6905953
20
-13.1630152
11
-0.7033618
21
-12.8741701
0
LINE
8
layer1
10
-0.7033618
20
-12.8741701
11
-0.728521
21
-12.6143743
0
LINE
8
layer1
10
-0.728521
20
-12.6143743
11
-0.7756854
21
-12.3797499
0
LINE
8
layer1
10
-0.7756854
20
-12.3797499
11
-0.84277
21
-12.1716594
0
LINE
8
layer1
10
-0.84277
20
-12.1716594
11
-0.9276012
21
-11.9913087
0
LINE
8
layer1
10
-0.9276012
20
-11.9913087
11
-1.0279811
21
-11.8397656
0
LINE
8
layer1
10
-1.0279811
20
-11.8397656
11
-1.1416218
21
-11.7179921
0
LINE
8
layer1
10
-1.1416218
20
-11.7179921
11
-1.2661945
21
-11.6267745
0
LINE
8
layer1
10
-1.2661945
20
-11.6267745
11
-1.3993283
21
-11.5667745
0
LINE
8
layer1
10
-1.3993283
20
-11.5667745
11
-1.5033445
21
-11.5425645
0
LINE
8
layer1
10
-1.5033445
20
-11.5425645
11
-2.0212648
21
-11.4631622
0
LINE
8
layer1
10
-2.0212648
20
-11.4631622
11
-2.5351079
21
-11.3606367
0
LINE
8
layer1
10
-2.5351079
20
-11.3606367
11
-2.6411314
21
-11.3478111
0
LINE
8
layer1
10
-2.6411314
20
-11.3478111
11
-2.7867574
21
-11.3586582
0
LINE
8
layer1
10
-2.7867574
20
-11.3586582
11
-2.9350158
21
-11.4017683
0
LINE
8
layer1
10
-2.9350158
20
-11.4017683
11
-3.0834521
21
-11.4773306
0
LINE
8
layer1
10
-3.0834521
20
-11.4773306
11
-3.2296091
21
-11.5854026
0
LINE
8
layer1
10
-3.2296091
20
-11.5854026
11
-3.3710079
21
-11.7258628
0
LINE
8
layer1
10
-3.3710079
20
-11.7258628
11
-3.505218
21
-11.8984596
0
LINE
8
layer1
10
-3.505218
20
-11.8984596
11
-3.6297843
21
-12.1028033
0
LINE
8
layer1
10
-3.6297843
20
-12.1028033
11
-3.7422816
21
-12.3383265
0
LINE
8
layer1
10
-3.7422816
20
-12.3383265
11
-3.853069
21
-12.6053857
0
LINE
8
layer1
10
-3.853069
20
-12.6053857
11
-3.9578684
21
-12.797425
0
LINE
8
layer1
10
-3.9578684
20
-12.797425
11
-4.1287311
21
-13.056897
0
LINE
8
layer1
10
-4.1287311
20
-13.056897
11
-4.3769075
21
-13.3729735
0
LINE
8
layer1
10
-4.3769075
20
-13.3729735
11
-4.7124321
21
-13.7338021
0
LINE
8
layer1
10
-4.7124321
20
-13.7338021
11
-4.9171861
21
-13.9283526
0
LINE
8
layer1
10
-4.9171861
20
-13.9283526
11
-5.1445479
21
-14.1269589
0
LINE
8
layer1
10
-5.1445479
20
-14.1269589
11
-5.4005787
21
-14.3323804
0
LINE
8
layer1
10
-5.4005787
20
-14.3323804
11
-5.6822402
21
-14.5395376
0
LINE
8
layer1
10
-5.6822402
20
-14.5395376
11
-5.9905053
21
-14.7469794
0
LINE
8
layer1
10
-5.9905053
20
-14.7469794
11
-6.3270831
21
-14.9535719
0
LINE
8
layer1
10
-6.3270831
20
-14.9535719
11
-6.6924923
21
-15.1573044
0
LINE
8
layer1
10
-6.6924923
20
-15.1573044
11
-7.086056
21
-15.3556054
0
LINE
8
layer1
10
-7.086056
20
-15.3556054
11
-7.5094897
21
-15.5471469
0
LINE
8
layer1
10
-7.5094897
20
-15.5471469
11
-7.9606042
21
-15.728842
0
LINE
8
layer1
10
-7.9606042
20
-15.728842
11
-8.4402408
21
-15.8990702
0
LINE
8
layer1
10
-8.4402408
20
-15.8990702
11
-8.9334844
21
-16.0514476
0
ARC
8
layer1
10
0.000009
20
0.0000195
40
18.37
50
239.098272
51
240.9017403
0
LINE
8
layer1
10
-9.4342192
20
-15.7623482
11
-9.5488783
21
-15.258998
0
LINE
8
layer1
10
-9.5488783
20
-15.258998
11
-9.6412747
21
-14.7585065
0
LINE
8
layer1
10
-9.6412747
20
-14.7585065
11
-9.7094793
21
-14.2769823
0
LINE
8
layer1
10
-9.7094793
20
-14.2769823
11
-9.7553164
21
-13.8145072
0
LINE
8
layer1
10
-9.7553164
20
-13.8145072
11
-9.7803645
21
-13.3745205
0
LINE
8
layer1
10
-9.7803645
20
-13.3745205
11
-9.7866316
21
-12.9562007
0
LINE
8
layer1
10
-9.7866316
20
-12.9562007
11
-9.7760061
21
-12.5614195
0
LINE
8
layer1
10
-9.7760061
20
-12.5614195
11
-9.7504888
21
-12.1907332
0
LINE
8
layer1
10
-9.7504888
20
-12.1907332
11
-9.7119162
21
-11.8432285
0
LINE
8
layer1
10
-9.7119162
20
-11.8432285
11
-9.6620313
21
-11.5187886
0
LINE
8
layer1
10
-9.6620313
20
-11.5187886
11
-9.6037141
21
-11.2225844
0
LINE
8
layer1
10
-9.6037141
20
-11.2225844
11
-9.5376054
21
-10.947987
0
LINE
8
layer1
10
-9.5376054
20
-10.947987
11
-9.392881
21
-10.4769999
0
LINE
8
layer1
10
-9.392881
20
-10.4769999
11
-9.2432389
21
-10.1040345
0
LINE
8
layer1
10
-9.2432389
20
-10.1040345
11
-9.1039609
21
-9.8263271
0
LINE
8
layer1
10
-9.1039609
20
-9.8263271
11
-8.9900497
21
-9.6395485
0
LINE
8
layer1
10
-8.9900497
20
-9.6395485
11
-8.8141634
21
-9.4100742
0
LINE
8
layer1
10
-8.8141634
20
-9.4100742
11
-8.666443
21
-9.1948871
0
LINE
8
layer1
10
-8.666443
20
-9.1948871
11
-8.5517593
21
-8.9848376
0
LINE
8
layer1
10
-8.5517593
20
-8.9848376
11
-8.4693911
21
-8.7823099
0
LINE
8
layer1
10
-8.4693911
20
-8.7823099
11
-8.4184484
21
-8.5896248
0
LINE
8
layer1
10
-8.4184484
20
-8.5896248
11
-8.3979338
21
-8.4090132
0
LINE
8
layer1
10
-8.3979338
20
-8.4090132
11
-8.4067131
21
-8.2426824
0
LINE
8
layer1
10
-8.4067131
20
-8.2426824
11
-8.4435078
21
-8.0927318
0
LINE
8
layer1
10
-8.4435078
20
-8.0927318
11
-8.506927
21
-7.9611925
0
LINE
8
layer1
10
-8.506927
20
-7.9611925
11
-8.5710461
21
-7.8757862
0
LINE
8
layer1
10
-8.5710461
20
-7.8757862
11
-8.9167573
21
-7.4820478
0
LINE
8
layer1
10
-8.9167573
20
-7.4820478
11
-9.2444818
21
-7.0732167
0
LINE
8
layer1
10
-9.2444818
20
-7.0732167
11
-9.3174564
21
-6.9952411
0
LINE
8
layer1
10
-9.3174564
20
-6.9952411
11
-9.4359848
21
-6.9099439
0
LINE
8
layer1
10
-9.4359848
20
-6.9099439
11
-9.5772679
21
-6.8476695
0
LINE
8
layer1
10
-9.5772679
20
-6.8476695
11
-9.7395473
21
-6.8101405
0
LINE
8
layer1
10
-9.7395473
20
-6.8101405
11
-9.9209773
21
-6.7989806
0
LINE
8
layer1
10
-9.9209773
20
-6.7989806
11
-10.1195812
21
-6.81569
0
LINE
8
layer1
10
-10.1195812
20
-6.81569
11
-10.3333352
21
-6.8616382
0
LINE
8
layer1
10
-10.3333352
20
-6.8616382
11
-10.5601081
21
-6.9381049
0
LINE
8
layer1
10
-10.5601081
20
-6.9381049
11
-10.7976774
21
-7.0462142
0
LINE
8
layer1
10
-10.7976774
20
-7.0462142
11
-11.0542079
21
-7.1795806
0
LINE
8
layer1
10
-11.0542079
20
-7.1795806
11
-11.2579294
21
-7.2593275
0
LINE
8
layer1
10
-11.2579294
20
-7.2593275
11
-11.5556031
21
-7.3482662
0
LINE
8
layer1
10
-11.5556031
20
-7.3482662
11
-11.9488874
21
-7.4308701
0
LINE
8
layer1
10
-11.9488874
20
-7.4308701
11
-12.4378502
21
-7.4916098
0
LINE
8
layer1
10
-12.4378502
20
-7.4916098
11
-12.7197556
21
-7.5090308
0
LINE
8
layer1
10
-12.7197556
20
-7.5090308
11
-13.0215865
21
-7.5150267
0
LINE
8
layer1
10
-13.0215865
20
-7.5150267
11
-13.3497598
21
-7.5078153
0
LINE
8
layer1
10
-13.3497598
20
-7.5078153
11
-13.6986831
21
-7.4854584
0
LINE
8
layer1
10
-13.6986831
20
-7.4854584
11
-14.068169
21
-7.446219
0
LINE
8
layer1
10
-14.068169
20
-7.446219
11
-14.4587976
21
-7.38813
0
LINE
8
layer1
10
-14.4587976
20
-7.38813
11
-14.869674
21
-7.3093177
0
LINE
8
layer1
10
-14.869674
20
-7.3093177
11
-15.2986267
21
-7.2082472
0
LINE
8
layer1
10
-15.2986267
20
-7.2082472
11
-15.7461163
21
-7.0827985
0
LINE
8
layer1
10
-15.7461163
20
-7.0827985
11
-16.2084814
21
-6.9320143
0
LINE
8
layer1
10
-16.2084814
20
-6.9320143
11
-16.6853249
21
-6.7541122
0
LINE
8
layer1
10
-16.6853249
20
-6.7541122
11
-17.1611177
21
-6.5537891
0
ARC
8
layer1
10
0.00002
20
0.0000078
40
18.37
50
199.0982674
51
200.9017356
0
LINE
8
layer1
10
-17.3588733
20
-6.0104601
11
-17.12316
21
-5.55117
0
LINE
8
layer1
10
-17.12316
20
-5.55117
11
-16.87223
21
-5.10838
0
LINE
8
layer1
10
-16.87223
20
-5.10838
11
-16.61496
21
-4.69567
0
LINE
8
layer1
10
-16.61496
20
-4.69567
11
-16.3528
21
-4.31193
0
LINE
8
layer1
10
-16.3528
20
-4.31193
11
-16.08917
21
-3.95878
0
LINE
8
layer1
10
-16.08917
20
-3.95878
11
-15.82508
21
-3.6343
0
LINE
8
layer1
10
-15.82508
20
-3.6343
11
-15.56318
21
-3.33871
0
LINE
8
layer1
10
-15.56318
20
-3.33871
11
-15.30536
21
-3.07115
0
LINE
8
layer1
10
-15.30536
20
-3.07115
11
-15.05244
21
-2.82974
0
LINE
8
layer1
10
-15.05244
20
-2.82974
11
-14.80568
21
-2.61327
0
LINE
8
layer1
10
-14.80568
20
-2.61327
11
-14.57061
21
-2.42385
0
LINE
8
layer1
10
-14.57061
20
-2.42385
11
-14.34346
21
-2.25599
0
LINE
8
layer1
10
-14.34346
20
-2.25599
11
-13.92985
21
-1.98822
0
LINE
8
layer1
10
-13.92985
20
-1.98822
11
-13.57548
21
-1.7987
0
LINE
8
layer1
10
-13.57548
20
-1.7987
11
-13.29028
21
-1.67549
0
LINE
8
layer1
10
-13.29028
20
-1.67549
11
-13.08296
21
-1.60563
0
LINE
8
layer1
10
-13.08296
20
-1.60563
11
-12.80072
21
-1.5429
0
LINE
8
layer1
10
-12.80072
20
-1.5429
11
-12.54924
21
-1.47301
0
LINE
8
layer1
10
-12.54924
20
-1.47301
11
-12.32637
21
-1.38582
0
LINE
8
layer1
10
-12.32637
20
-1.38582
11
-12.13309
21
-1.28362
0
LINE
8
layer1
10
-12.13309
20
-1.28362
11
-11.97021
21
-1.16876
0
LINE
8
layer1
10
-11.97021
20
-1.16876
11
-11.8384
21
-1.04359
0
LINE
8
layer1
10
-11.8384
20
-1.04359
11
-11.73821
21
-0.91053
0
LINE
8
layer1
10
-11.73821
20
-0.91053
11
-11.67001
21
-0.77201
0
LINE
8
layer1
10
-11.67001
20
-0.77201
11
-11.63404
21
-0.63048
0
LINE
8
layer1
10
-11.63404
20
-0.63048
11
-11.62826
21
-0.52384
0
LINE
8
layer1
10
-11.62826
20
-0.52384
11
-11.64
21
0
0
LINE
8
layer1
10
-11.64
20
0
11
-11.62826
21
0.52384
0
LINE
8
layer1
10
-11.62826
20
0.52384
11
-11.63404
21
0.63048
0
LINE
8
layer1
10
-11.63404
20
0.63048
11
-11.67001
21
0.77201
0
LINE
8
layer1
10
-11.67001
20
0.77201
11
-11.73821
21
0.91053
0
LINE
8
layer1
10
-11.73821
20
0.91053
11
-11.8384
21
1.04359
0
LINE
8
layer1
10
-11.8384
20
1.04359
11
-11.97021
21
1.16876
0
LINE
8
layer1
10
-11.97021
20
1.16876
11
-12.13309
21
1.28362
0
LINE
8
layer1
10
-12.13309
20
1.28362
11
-12.32637
21
1.38582
0
LINE
8
layer1
10
-12.32637
20
1.38582
11
-12.54924
21
1.47301
0
LINE
8
layer1
10
-12.54924
20
1.47301
11
-12.80072
21
1.5429
0
LINE
8
layer1
10
-12.80072
20
1.5429
11
-13.08296
21
1.60563
0
LINE
8
layer1
10
-13.08296
20
1.60563
11
-13.29028
21
1.67549
0
LINE
8
layer1
10
-13.29028
20
1.67549
11
-13.57548
21
1.7987
0
LINE
8
layer1
10
-13.57548
20
1.7987
11
-13.92985
21
1.98822
0
LINE
8
layer1
10
-13.92985
20
1.98822
11
-14.34346
21
2.25599
0
LINE
8
layer1
10
-14.34346
20
2.25599
11
-14.57061
21
2.42385
0
LINE
8
layer1
10
-14.57061
20
2.42385
11
-14.80568
21
2.61327
0
LINE
8
layer1
10
-14.80568
20
2.61327
11
-15.05244
21
2.82974
0
LINE
8
layer1
10
-15.05244
20
2.82974
11
-15.30536
21
3.07115
0
LINE
8
layer1
10
-15.30536
20
3.07115
11
-15.56318
21
3.33871
0
LINE
8
layer1
10
-15.56318
20
3.33871
11
-15.82508
21
3.6343
0
LINE
8
layer1
10
-15.82508
20
3.6343
11
-16.08917
21
3.95878
0
LINE
8
layer1
10
-16.08917
20
3.95878
11
-16.3528
21
4.31193
0
LINE
8
layer1
10
-16.3528
20
4.31193
11
-16.61496
21
4.69567
0
LINE
8
layer1
10
-16.61496
20
4.69567
11
-16.87223
21
5.10838
0
LINE
8
layer1
10
-16.87223
20
5.10838
11
-17.12316
21
5.55117
0
LINE
8
layer1
10
-17.12316
20
5.55117
11
-17.3588733
21
6.0104601
0
ARC
8
layer1
10
0.00002
20
-0.0000078
40
18.37
50
159.0982644
51
160.9017326
0
LINE
8
layer1
10
-17.1611177
20
6.5537891
11
-16.6853249
21
6.7541122
0
LINE
8
layer1
10
-16.6853249
20
6.7541122
11
-16.2084814
21
6.9320143
0
LINE
8
layer1
10
-16.2084814
20
6.9320143
11
-15.7461163
21
7.0827985
0
LINE
8
layer1
10
-15.7461163
20
7.0827985
11
-15.2986267
21
7.2082472
0
LINE
8
layer1
10
-15.2986267
20
7.2082472
11
-14.869674
21
7.3093177
0
LINE
8
layer1
10
-14.869674
20
7.3093177
11
-14.4587976
21
7.38813
0
LINE
8
layer1
10
-14.4587976
20
7.38813
11
-14.068169
21
7.446219
0
LINE
8
layer1
10
-14.068169
20
7.446219
11
-13.6986831
21
7.4854584
0
LINE
8
layer1
10
-13.6986831
20
7.4854584
11
-13.3497598
21
7.5078153
0
LINE
8
layer1
10
-13.3497598
20
7.5078153
11
-13.0215865
21
7.5150267
0
LINE
8
layer1
10
-13.0215865
20
7.5150267
11
-12.7197556
21
7.5090308
0
LINE
8
layer1
10
-12.7197556
20
7.5090308
11
-12.4378502
21
7.4916098
0
LINE
8
layer1
10
-12.4378502
20
7.4916098
11
-11.9488874
21
7.4308701
0
LINE
8
layer1
10
-11.9488874
20
7.4308701
11
-11.5556031
21
7.3482662
0
LINE
8
layer1
10
-11.5556031
20
7.3482662
11
-11.2579294
21
7.2593275
0
LINE
8
layer1
10
-11.2579294
20
7.2593275
11
-11.0542079
21
7.1795806
0
LINE
8
layer1
10
-11.0542079
20
7.1795806
11
-10.7976774
21
7.0462142
0
LINE
8
layer1
10
-10.7976774
20
7.0462142
11
-10.5601081
21
6.9381049
0
LINE
8
layer1
10
-10.5601081
20
6.9381049
11
-10.3333352
21
6.8616382
0
LINE
8
layer1
10
-10.3333352
20
6.8616382
11
-10.1195812
21
6.81569
0
LINE
8
layer1
10
-10.1195812
20
6.81569
11
-9.9209773
21
6.7989806
0
LINE
8
layer1
10
-9.9209773
20
6.7989806
11
-9.7395473
21
6.8101405
0
LINE
8
layer1
10
-9.7395473
20
6.8101405
11
-9.5772679
21
6.8476695
0
LINE
8
layer1
10
-9.5772679
20
6.8476695
11
-9.4359848
21
6.9099439
0
LINE
8
layer1
10
-9.4359848
20
6.9099439
11
-9.3174564
21
6.9952411
0
LINE
8
layer1
10
-9.3174564
20
6.9952411
11
-9.2444818
21
7.0732167
0
LINE
8
layer1
10
-9.2444818
20
7.0732167
11
-8.9167573
21
7.4820478
0
LINE
8
layer1
10
-8.9167573
20
7.4820478
11
-8.5710461
21
7.8757862
0
LINE
8
layer1
10
-8.5710461
20
7.8757862
11
-8.506927
21
7.9611925
0
LINE
8
layer1
10
-8.506927
20
7.9611925
11
-8.4435078
21
8.0927318
0
LINE
8
layer1
10
-8.4435078
20
8.0927318
11
-8.4067131
21
8.2426824
0
LINE
8
layer1
10
-8.4067131
20
8.2426824
11
-8.3979338
21
8.4090132
0
LINE
8
layer1
10
-8.3979338
20
8.4090132
11
-8.4184484
21
8.5896248
0
LINE
8
layer1
10
-8.4184484
20
8.5896248
11
-8.4693911
21
8.7823099
0
LINE
8
layer1
10
-8.4693911
20
8.7823099
11
-8.5517593
21
8.9848376
0
LINE
8
layer1
10
-8.5517593
20
8.9848376
11
-8.666443
21
9.1948871
0
LINE
8
layer1
10
-8.666443
20
9.1948871
11
-8.8141634
21
9.4100742
0
LINE
8
layer1
10
-8.8141634
20
9.4100742
11
-8.9900497
21
9.6395485
0
LINE
8
layer1
10
-8.9900497
20
9.6395485
11
-9.1039609
21
9.8263271
0
LINE
8
layer1
10
-9.1039609
20
9.8263271
11
-9.2432389
21
10.1040345
0
LINE
8
layer1
10
-9.2432389
20
10.1040345
11
-9.392881
21
10.4769999
0
LINE
8
layer1
10
-9.392881
20
10.4769999
11
-9.5376054
21
10.947987
0
LINE
8
layer1
10
-9.5376054
20
10.947987
11
-9.6037141
21
11.2225844
0
LINE
8
layer1
10
-9.6037141
20
11.2225844
11
-9.6620313
21
11.5187886
0
LINE
8
layer1
10
-9.6620313
20
11.5187886
11
-9.7119162
21
11.8432285
0
LINE
8
layer1
10
-9.7119162
20
11.8432285
11
-9.7504888
21
12.1907332
0
LINE
8
layer1
10
-9.7504888
20
12.1907332
11
-9.7760061
21
12.5614195
0
LINE
8
layer1
10
-9.7760061
20
12.5614195
11
-9.7866316
21
12.9562007
0
LINE
8
layer1
10
-9.7866316
20
12.9562007
11
-9.7803645
21
13.3745205
0
LINE
8
layer1
10
-9.7803645
20
13.3745205
11
-9.7553164
21
13.8145072
0
LINE
8
layer1
10
-9.7553164
20
13.8145072
11
-9.7094793
21
14.2769823
0
LINE
8
layer1
10
-9.7094793
20
14.2769823
11
-9.6412747
21
14.7585065
0
LINE
8
layer1
10
-9.6412747
20
14.7585065
11
-9.5488783
21
15.258998
0
LINE
8
layer1
10
-9.5488783
20
15.258998
11
-9.4342192
21
15.7623482
0
ARC
8
layer1
10
0.000009
20
-0.0000196
40
18.37
50
119.0982597
51
120.901728
0
LINE
8
layer1
10
-8.9334844
20
16.0514476
11
-8.4402408
21
15.8990702
0
LINE
8
layer1
10
-8.4402408
20
15.8990702
11
-7.9606042
21
15.728842
0
LINE
8
layer1
10
-7.9606042
20
15.728842
11
-7.5094897
21
15.5471469
0
LINE
8
layer1
10
-7.5094897
20
15.5471469
11
-7.086056
21
15.3556054
0
LINE
8
layer1
10
-7.086056
20
15.3556054
11
-6.6924923
21
15.1573044
0
LINE
8
layer1
10
-6.6924923
20
15.1573044
11
-6.3270831
21
14.9535719
0
LINE
8
layer1
10
-6.3270831
20
14.9535719
11
-5.9905053
21
14.7469794
0
LINE
8
layer1
10
-5.9905053
20
14.7469794
11
-5.6822402
21
14.5395376
0
LINE
8
layer1
10
-5.6822402
20
14.5395376
11
-5.4005787
21
14.3323804
0
LINE
8
layer1
10
-5.4005787
20
14.3323804
11
-5.1445479
21
14.1269589
0
LINE
8
layer1
10
-5.1445479
20
14.1269589
11
-4.9171861
21
13.9283526
0
LINE
8
layer1
10
-4.9171861
20
13.9283526
11
-4.7124321
21
13.7338021
0
LINE
8
layer1
10
-4.7124321
20
13.7338021
11
-4.3769075
21
13.3729735
0
LINE
8
layer1
10
-4.3769075
20
13.3729735
11
-4.1287311
21
13.056897
0
LINE
8
layer1
10
-4.1287311
20
13.056897
11
-3.9578684
21
12.797425
0
LINE
8
layer1
10
-3.9578684
20
12.797425
11
-3.853069
21
12.6053857
0
LINE
8
layer1
10
-3.853069
20
12.6053857
11
-3.7422816
21
12.3383265
0
LINE
8
layer1
10
-3.7422816
20
12.3383265
11
-3.6297843
21
12.1028033
0
LINE
8
layer1
10
-3.6297843
20
12.1028033
11
-3.505218
21
11.8984596
0
LINE
8
layer1
10
-3.505218
20
11.8984596
11
-3.3710079
21
11.7258628
0
LINE
8
layer1
10
-3.3710079
20
11.7258628
11
-3.2296091
21
11.5854026
0
LINE
8
layer1
10
-3.2296091
20
11.5854026
11
-3.0834521
21
11.4773306
0
LINE
8
layer1
10
-3.0834521
20
11.4773306
11
-2.9350158
21
11.4017683
0
LINE
8
layer1
10
-2.9350158
20
11.4017683
11
-2.7867574
21
11.3586582
0
LINE
8
layer1
10
-2.7867574
20
11.3586582
11
-2.6411314
21
11.3478111
0
LINE
8
layer1
10
-2.6411314
20
11.3478111
11
-2.5351079
21
11.3606367
0
LINE
8
layer1
10
-2.5351079
20
11.3606367
11
-2.0212648
21
11.4631622
0
LINE
8
layer1
10
-2.0212648
20
11.4631622
11
-1.5033445
21
11.5425645
0
LINE
8
layer1
10
-1.5033445
20
11.5425645
11
-1.3993283
21
11.5667745
0
LINE
8
layer1
10
-1.3993283
20
11.5667745
11
-1.2661945
21
11.6267745
0
LINE
8
layer1
10
-1.2661945
20
11.6267745
11
-1.1416218
21
11.7179921
0
LINE
8
layer1
10
-1.1416218
20
11.7179921
11
-1.0279811
21
11.8397656
0
LINE
8
layer1
10
-1.0279811
20
11.8397656
11
-0.9276012
21
11.9913087
0
LINE
8
layer1
10
-0.9276012
20
11.9913087
11
-0.84277
21
12.1716594
0
LINE
8
layer1
10
-0.84277
20
12.1716594
11
-0.7756854
21
12.3797499
0
LINE
8
layer1
10
-0.7756854
20
12.3797499
11
-0.728521
21
12.6143743
0
LINE
8
layer1
10
-0.728521
20
12.6143743
11
-0.7033618
21
12.8741701
0
LINE
8
layer1
10
-0.7033618
20
12.8741701
11
-0.6905953
21
13.1630152
0
LINE
8
layer1
10
-0.6905953
20
13.1630152
11
-0.6577974
21
13.3793166
0
LINE
8
layer1
10
-0.6577974
20
13.3793166
11
-0.5859837
21
13.6815789
0
LINE
8
layer1
10
-0.5859837
20
13.6815789
11
-0.4608786
21
14.0634751
0
LINE
8
layer1
10
-0.4608786
20
14.0634751
11
-0.2689992
21
14.5172992
0
LINE
8
layer1
10
-0.2689992
20
14.5172992
11
-0.1431336
21
14.7701468
0
LINE
8
layer1
10
-0.1431336
20
14.7701468
11
0.0025892
21
15.034538
0
LINE
8
layer1
10
0.0025892
20
15.034538
11
0.1729211
21
15.3151388
0
LINE
8
layer1
10
0.1729211
20
15.3151388
11
0.3667445
21
15.6061368
0
LINE
8
layer1
10
0.3667445
20
15.6061368
11
0.5854696
21
15.9065012
0
LINE
8
layer1
10
0.5854696
20
15.9065012
11
0.8310905
21
16.215751
0
LINE
8
layer1
10
0.8310905
20
16.215751
11
1.1047822
21
16.5321743
0
LINE
8
layer1
10
1.1047822
20
16.5321743
11
1.4067882
21
16.853123
0
LINE
8
layer1
10
1.4067882
20
16.853123
11
1.7391747
21
17.177936
0
LINE
8
layer1
10
1.7391747
20
17.177936
11
2.1009402
21
17.5029638
0
LINE
8
layer1
10
2.1009402
20
17.5029638
11
2.4934297
21
17.8269713
0
LINE
8
layer1
10
2.4934297
20
17.8269713
11
2.904811
21
18.1388585
0
ARC
8
layer1
10
-0.0000019
20
-0.0000213
40
18.37
50
79.0982714
51
80.9017398
0
LINE
8
layer1
10
3.4742255
20
18.0384553
11
3.7541258
21
17.6046766
0
LINE
8
layer1
10
3.7541258
20
17.6046766
11
4.0121281
21
17.1659698
0
LINE
8
layer1
10
4.0121281
20
17.1659698
11
4.2409105
21
16.7368124
0
LINE
8
layer1
10
4.2409105
20
16.7368124
11
4.4421591
21
16.3179052
0
LINE
8
layer1
10
4.4421591
20
16.3179052
11
4.616181
21
15.9130199
0
LINE
8
layer1
10
4.616181
20
15.9130199
11
4.7651439
21
15.5220713
0
LINE
8
layer1
10
4.7651439
20
15.5220713
11
4.8901823
21
15.1474642
0
LINE
8
layer1
10
4.8901823
20
15.1474642
11
4.9929861
21
14.7904056
0
LINE
8
layer1
10
4.9929861
20
14.7904056
11
5.0755933
21
14.4506654
0
LINE
8
layer1
10
5.0755933
20
14.4506654
11
5.1396818
21
14.12873
0
LINE
8
layer1
10
5.1396818
20
14.12873
11
5.1861893
21
13.8304434
0
LINE
8
layer1
10
5.1861893
20
13.8304434
11
5.2179853
21
13.5497957
0
LINE
8
layer1
10
5.2179853
20
13.5497957
11
5.243076
21
13.057714
0
LINE
8
layer1
10
5.243076
20
13.057714
11
5.2300201
21
12.6560605
0
LINE
8
layer1
10
5.2300201
20
12.6560605
11
5.1941231
21
12.3474651
0
LINE
8
layer1
10
5.1941231
20
12.3474651
11
5.1509636
21
12.1329907
0
LINE
8
layer1
10
5.1509636
20
12.1329907
11
5.0641694
21
11.8571987
0
LINE
8
layer1
10
5.0641694
20
11.8571987
11
4.9989559
21
11.6044656
0
LINE
8
layer1
10
4.9989559
20
11.6044656
11
4.9630297
21
11.3678596
0
LINE
8
layer1
10
4.9630297
20
11.3678596
11
4.9548975
21
11.1493742
0
LINE
8
layer1
10
4.9548975
20
11.1493742
11
4.9729291
21
10.9508859
0
LINE
8
layer1
10
4.9729291
20
10.9508859
11
5.0154245
21
10.7741501
0
LINE
8
layer1
10
5.0154245
20
10.7741501
11
5.0805629
21
10.6208531
0
LINE
8
layer1
10
5.0805629
20
10.6208531
11
5.1664247
21
10.4925301
0
LINE
8
layer1
10
5.1664247
20
10.4925301
11
5.2710083
21
10.3906142
0
LINE
8
layer1
10
5.2710083
20
10.3906142
11
5.3604713
21
10.3322886
0
LINE
8
layer1
10
5.3604713
20
10.3322886
11
5.82
21
10.0805357
0
LINE
8
layer1
10
5.82
20
10.0805357
11
6.2677887
21
9.8084486
0
LINE
8
layer1
10
6.2677887
20
9.8084486
11
6.3630317
21
9.7601342
0
LINE
8
layer1
10
6.3630317
20
9.7601342
11
6.5035853
21
9.7205201
0
LINE
8
layer1
10
6.5035853
20
9.7205201
11
6.6576471
21
9.7103231
0
LINE
8
layer1
10
6.6576471
20
9.7103231
11
6.8229755
21
9.7305601
0
LINE
8
layer1
10
6.8229755
20
9.7305601
11
6.9972809
21
9.7821259
0
LINE
8
layer1
10
6.9972809
20
9.7821259
11
7.1781925
21
9.8657542
0
LINE
8
layer1
10
7.1781925
20
9.8657542
11
7.3633403
21
9.9820396
0
LINE
8
layer1
10
7.3633403
20
9.9820396
11
7.5502841
21
10.1314556
0
LINE
8
layer1
10
7.5502841
20
10.1314556
11
7.7365506
21
10.3142987
0
LINE
8
layer1
10
7.7365506
20
10.3142987
11
7.9319964
21
10.5273607
0
LINE
8
layer1
10
7.9319964
20
10.5273607
11
8.0961569
21
10.6719751
0
LINE
8
layer1
10
8.0961569
20
10.6719751
11
8.3454599
21
10.8573605
0
LINE
8
layer1
10
8.3454599
20
10.8573605
11
8.686774
21
11.069494
0
LINE
8
layer1
10
8.686774
20
11.069494
11
9.1254747
21
11.2938057
0
LINE
8
layer1
10
9.1254747
20
11.2938057
11
9.3844207
21
11.4065934
0
LINE
8
layer1
10
9.3844207
20
11.4065934
11
9.6659982
21
11.51546
0
LINE
8
layer1
10
9.6659982
20
11.51546
11
9.9768467
21
11.6209254
0
LINE
8
layer1
10
9.9768467
20
11.6209254
11
10.3123739
21
11.7192556
0
LINE
8
layer1
10
10.3123739
20
11.7192556
11
10.6729977
21
11.8087542
0
LINE
8
layer1
10
10.6729977
20
11.8087542
11
11.0599361
21
11.8877713
0
LINE
8
layer1
10
11.0599361
20
11.8877713
11
11.472989
21
11.9542399
0
LINE
8
layer1
10
11.472989
20
11.9542399
11
11.9106409
21
12.0059752
0
LINE
8
layer1
10
11.9106409
20
12.0059752
11
12.3740495
21
12.0411424
0
LINE
8
layer1
10
12.3740495
20
12.0411424
11
12.8601019
21
12.0575898
0
LINE
8
layer1
10
12.8601019
20
12.0575898
11
13.3690342
21
12.0535066
0
LINE
8
layer1
10
13.3690342
20
12.0535066
11
13.8846478
21
12.0279952
0
ARC
8
layer1
10
-0.0000157
20
-0.0000145
40
18.37
50
39.0982688
51
40.9017372
0
LINE
8
layer1
10
14.2563067
20
11.5850693
11
14.1918951
21
11.0728591
0
ENDSEC
0
EOF