<?xml version="1.0" encoding="UTF-8"?>
<svg viewBox="-21.543 -21.543 69.806 43.086" height="43.086mm" width="69.806mm" xmlns:svgjs="http://svgjs.com/svgjs" xmlns:xlink="http://www.w3.org/1999/xlink" version="1.1" xmlns="http://www.w3.org/2000/svg" id="SvgjsSvg1697">
  <defs id="SvgjsDefs1698">
  </defs>
  <defs id="SvgjsDefs1698">
  </defs>
  <g id="SvgjsG1699">
    <g transform="matrix(1,0,0,1,0,0)" id="SvgjsG1700">
      <g fill="none" stroke-width="0.04" stroke="blue" id="SvgjsG1701">
      </g>
      <g fill="none" stroke-width="0.1" stroke="black" id="SvgjsG1702">
        <circle cy="0" cx="0" r="1.5" id="SvgjsCircle1703">
        </circle>
        <path d="M14.191895137511281 -11.07285912311647  L14.107541167440647 -10.570949512993966 L14.006941580242994 -10.095137449196018 L13.89183857257755 -9.644875802121376 L13.764891820575222 -9.222856582705887 L13.627707092458186 -8.8276210214624 L13.48269932923999 -8.460282204147301 L13.331938687297184 -8.1206784131776 L13.176838712448262 -7.807323482943746 L13.018997261768838 -7.5195113307551775 L12.862889172949444 -7.261116079434346 L12.70684949539657 -7.025689400552798 L12.409765964291626 -6.632604956004025 L12.141586747826803 -6.333312732322362 L11.915726714237817 -6.11998905963885 L11.744803167309215 -5.983434517036469 L11.50103924560942 -5.827955833682332 L11.28862913315121 -5.676269490772065 L11.109020575053222 -5.518111661822751 L10.962351243955602 -5.355969422676446 L10.848578543544381 -5.192328087308091 L10.767528320538664 -5.029625086872562 L10.718889717133038 -4.870322588590991 L10.702179310648908 -4.716830592984916 L10.716784677964123 -4.571533431809662 L10.74782628270023 -4.46934773430063 L10.938022105947974 -3.981114468310784 L11.106153946459665 -3.48485056935565 L11.14805839789206 -3.3866186247034635 L11.230265252346609 -3.2659263926390576 L11.34172891933768 -3.1590859445826047 L11.481385923285133 -3.06831744262063 L11.648057468970997 -2.995777792368614 L11.840399036706991 -2.94355293889003 L12.056977285100377 -2.913622006347696 L12.296227315791496 -2.907916236084364 L12.55644500388377 -2.9282523444611757 L12.843118772765202 -2.965837191611512 L13.061829374119267 -2.9710978812376867 L13.371970011426566 -2.9528624983071357 L13.769788543017548 -2.8959736310061075 L14.250037541679122 -2.7858150894191946 L14.520900221749287 -2.7057681616504974 L14.80657922166618 -2.608170260512796 L15.112494873197019 -2.4891518894583124 L15.432729013646439 -2.3488044285243146 L15.766511474685677 -2.1855599042590605 L16.113714706235143 -1.997371238017946 L16.472856826564804 -1.7827838760762105 L16.84137240579805 -1.541098197430613 L17.21896903306308 -1.270164551904486 L17.601878886964606 -0.9703355326533281 L17.989119055561588 -0.6400721516602461 L18.367703581253664 -0.289099345813713 A18.369999999999997 18.369999999999997 0 0 1 18.367703581253668 0.28909934581371566 L17.989119055561584 0.6400721516602488 L17.601878886964606 0.9703355326533298 L17.21896903306308 1.2701645519044886 L16.84137240579805 1.5410981974306148 L16.472856826564804 1.7827838760762127 L16.11371470623514 1.9973712380179482 L15.766511474685675 2.1855599042590628 L15.432729013646437 2.348804428524317 L15.112494873197017 2.4891518894583147 L14.806579221666178 2.6081702605127983 L14.520900221749287 2.7057681616504996 L14.25003754167912 2.785815089419197 L13.769788543017546 2.8959736310061093 L13.371970011426564 2.9528624983071374 L13.061829374119267 2.9710978812376885 L12.8431187727652 2.9658371916115143 L12.556445003883768 2.928252344461178 L12.296227315791494 2.9079162360843656 L12.056977285100377 2.9136220063476976 L11.84039903670699 2.943552938890031 L11.648057468970995 2.995777792368616 L11.481385923285131 3.0683174426206317 L11.341728919337678 3.159085944582606 L11.230265252346607 3.2659263926390594 L11.148058397892058 3.386618624703465 L11.106153946459663 3.4848505693556513 L10.938022105947974 3.9811144683107855 L10.747826282700228 4.469347734300632 L10.716784677964121 4.571533431809664 L10.702179310648907 4.716830592984917 L10.718889717133036 4.870322588590992 L10.767528320538663 5.029625086872564 L10.84857854354438 5.192328087308093 L10.9623512439556 5.355969422676447 L11.109020575053218 5.518111661822752 L11.288629133151208 5.676269490772067 L11.501039245609418 5.827955833682333 L11.744803167309213 5.98343451703647 L11.915726714237817 6.1199890596388515 L12.141586747826802 6.333312732322364 L12.409765964291624 6.632604956004027 L12.706849495396568 7.0256894005528 L12.86288917294944 7.261116079434347 L13.018997261768837 7.519511330755179 L13.17683871244826 7.8073234829437475 L13.331938687297182 8.1206784131776 L13.482699329239988 8.460282204147301 L13.627707092458184 8.827621021462402 L13.76489182057522 9.222856582705889 L13.891838572577548 9.64487580212138 L14.00694158024299 10.09513744919602 L14.107541167440644 10.570949512993968 L14.191895137511278 11.07285912311647 L14.256306738733462 11.585069333055007 A18.369999999999997 18.369999999999997 0 0 1 13.884647783818384 12.027995227794857 L13.369034240726062 12.053506553065548 L12.86010185218435 12.057589798493916 L12.374049507788474 12.041142442862297 L11.910640919340233 12.005975223006166 L11.47298904799376 11.954239945806474 L11.059936124973785 11.887771296921043 L10.672997675869142 11.808754243669899 L10.312373918832579 11.719255574066196 L9.976846726104977 11.620925428941035 L9.66599820694776 11.515460000303188 L9.38442067496291 11.40659340863558 L9.125474650683657 11.293805738165943 L8.686774028312296 11.069493970906663 L8.34545989378707 10.857360548567572 L8.096156903786788 10.671975103408247 L7.9319963690784085 10.527360716695657 L7.73655059549901 10.31429870673154 L7.550284080028516 10.131455638187829 L7.363340325072551 9.982039556446392 L7.178192528805781 9.865754166402933 L6.9972808509271 9.782125948634524 L6.822975451135402 9.7305601401617 L6.6576471109078454 9.710323054956534 L6.503585271975624 9.720520122418435 L6.363031696578013 9.760134188644312 L6.2677887475184395 9.808448561810435 L5.82 10.080535700050866 L5.36047125248156 10.332288561810435 L5.271008303421987 10.39061418864431 L5.166424728024375 10.492530122418437 L5.080562889092155 10.620853054956536 L5.015424548864598 10.774150140161698 L4.9729291490728995 10.950885948634523 L4.954897471194219 11.149374166402932 L4.96302967492745 11.36785955644639 L4.9989559199714835 11.604465638187827 L5.06416940450099 11.85719870673154 L5.150963630921591 12.132990716695659 L5.194123096213211 12.347465103408247 L5.230020106212931 12.656060548567572 L5.243075971687704 13.057713970906661 L5.217985349316344 13.549795738165944 L5.186189325037089 13.830443408635578 L5.13968179305224 14.128730000303188 L5.075593273895024 14.450665428941036 L4.992986081167421 14.790405574066195 L4.890182324130857 15.147464243669898 L4.765143875026215 15.522071296921043 L4.61618095200624 15.913019945806475 L4.442159080659765 16.317905223006164 L4.240910492211525 16.736812442862295 L4.012128147815648 17.16596979849392 L3.754125759273937 17.60467655306555 L3.474225531959152 18.038455317283457 A18.369999999999997 18.369999999999997 0 0 1 2.9048109776629514 18.138858466413964 L2.493429724389508 17.826971278487854 L2.1009402366551955 17.50296379243536 L1.7391746955778973 17.17793596241299 L1.4067881746941562 16.8531230101854 L1.104782185796227 16.53217428831572 L0.8310905133388857 16.21575104813336 L0.5854696473569754 15.906501232782892 L0.36674445812711687 15.606136791484722 L0.17292111556795975 15.3151388080223 L0.0025892055944991554 15.034538025869448 L-0.1431336018569085 14.770146829555198 L-0.2689992477204943 14.517299165355304 L-0.4608785969797542 14.063475058098051 L-0.585983657610798 13.681578932031679 L-0.6577973605888234 13.379316568902254 L-0.6905952900203489 13.16301516385595 L-0.7033618187020902 12.87417007346074 L-0.7285209888404336 12.614374348596087 L-0.7756854074689397 12.379749860071477 L-0.8427700400473226 12.171659373811716 L-0.9276012433799155 11.991308657314265 L-1.0279810635261755 11.839765604991156 L-1.14162177222153 11.717992089696502 L-1.2661945364518963 11.626774455370645 L-1.399328252785035 11.566774493909596 L-1.5033444650993417 11.542564463430782 L-2.0212647880430668 11.463162245062103 L-2.535107851775172 11.360636740652694 L-2.6411314370233088 11.347811087798705 L-2.786757403257806 11.358658196089353 L-2.935015778921942 11.401768339274362 L-3.083452109458196 11.477330601528292 L-3.2296090622010123 11.585402569054262 L-3.3710078958903837 11.725862826178068 L-3.5052179680276963 11.898459624922708 L-3.629784325369459 12.102803344225759 L-3.742281582947162 12.338326526816125 L-3.853069034958332 12.605385716841246 L-3.957868444777673 12.797424998503924 L-4.128731068296915 13.056896977692665 L-4.37690753836762 13.372973498496163 L-4.712432133156517 13.733802060685669 L-4.91718614613419 13.928352558679222 L-5.144547907833927 14.126958879366132 L-5.400578666449572 14.332380419479865 L-5.682240203199768 14.539537589801139 L-5.990505338761803 14.74697941826618 L-6.327083120205651 14.95357190394351 L-6.692492287143111 15.157304422747139 L-7.086056014197705 15.355605436730668 L-7.509489747595772 15.547146885562444 L-7.960604222009812 15.728842036774973 L-8.44024078418805 15.899070169649187 L-8.933484412934693 16.051447583454944 A18.369999999999997 18.369999999999997 0 0 1 -9.434219168318968 15.76234823764123 L-9.548878271373528 15.25899801798894 L-9.641274664954787 14.758506504121645 L-9.7094792854673 14.276982333657958 L-9.755316391600342 13.814507239300056 L-9.780364539421686 13.374520546670928 L-9.786631586029484 12.956200665925564 L-9.776006135923867 12.561419514007119 L-9.750488810446663 12.190733161276823 L-9.711916206747441 11.843228530021552 L-9.662031313832246 11.518788618853335 L-9.603714075615093 11.222584397028724 L-9.537605408522598 10.947986971266474 L-9.392881004649922 10.476999867490056 L-9.243238943129645 10.104034479385529 L-9.10396092934159 9.826327117266237 L-8.990049737806865 9.639548525229733 L-8.814163420936602 9.41007418235495 L-8.666442990422032 9.194887108141394 L-8.551759317072676 8.984837618575012 L-8.469391140816604 8.782309887288037 L-8.418448406769981 8.589624776685648 L-8.397933813826933 8.409013158907664 L-8.406713140415734 8.242682394691757 L-8.443507849088798 8.092731803450295 L-8.506926960868745 7.961192463095242 L-8.571046094684489 7.875786171297044 L-8.916757317904903 7.48204777675132 L-9.244481817600883 7.073216729130154 L-9.317456425179083 6.995241062099935 L-9.435984774197008 6.90994386238573 L-9.577267944911503 6.8476695011055115 L-9.739547257012484 6.810140518118595 L-9.920977300164461 6.798980570006175 L-10.119581203908275 6.815689951135273 L-10.333335167584277 6.861638198248729 L-10.560108144310773 6.9381048578240225 L-10.797677426907324 7.046214239778408 L-11.054207877288862 7.179580646819484 L-11.25792935364899 7.259327509263405 L-11.555603090216001 7.348266199709318 L-11.948887367311865 7.430870102094028 L-12.43785024767607 7.491609764802508 L-12.719755571092529 7.509030750120855 L-13.021586467363333 7.515026695114273 L-13.349759828016216 7.507815325078558 L-13.698683145424296 7.485458378307124 L-14.06816897659696 7.4462190286355945 L-14.458797605797065 7.388130026670961 L-14.869674006371444 7.309317705609834 L-15.298626747271701 7.2082472080640265 L-15.746116275820885 7.082798513216976 L-16.208481404095835 6.932014279441396 L-16.685324861900785 6.754112155371388 L-17.161117716396408 6.55378913335896 A18.369999999999997 18.369999999999997 0 0 1 -17.358873315777537 6.010460089488599 L-17.12316 5.551170000000001 L-16.87223 5.108380000000001 L-16.61496 4.695670000000001 L-16.3528 4.311930000000001 L-16.08917 3.958780000000001 L-15.82508 3.634300000000001 L-15.56318 3.3387100000000007 L-15.30536 3.0711500000000007 L-15.05244 2.829740000000001 L-14.80568 2.613270000000001 L-14.57061 2.4238500000000007 L-14.34346 2.255990000000001 L-13.92985 1.988220000000001 L-13.57548 1.7987000000000009 L-13.29028 1.6754900000000008 L-13.08296 1.6056300000000008 L-12.80072 1.5429000000000008 L-12.54924 1.4730100000000006 L-12.32637 1.3858200000000007 L-12.13309 1.2836200000000006 L-11.97021 1.1687600000000007 L-11.8384 1.0435900000000007 L-11.73821 0.9105300000000006 L-11.67001 0.7720100000000006 L-11.63404 0.6304800000000007 L-11.62826 0.5238400000000006 L-11.64 7.127444371037596e-16 L-11.62826 -0.5238399999999993 L-11.63404 -0.6304799999999994 L-11.67001 -0.7720099999999993 L-11.73821 -0.9105299999999993 L-11.8384 -1.0435899999999994 L-11.97021 -1.1687599999999994 L-12.13309 -1.2836199999999993 L-12.32637 -1.3858199999999994 L-12.54924 -1.4730099999999993 L-12.80072 -1.542899999999999 L-13.08296 -1.605629999999999 L-13.29028 -1.675489999999999 L-13.57548 -1.798699999999999 L-13.92985 -1.9882199999999992 L-14.34346 -2.2559899999999993 L-14.57061 -2.423849999999999 L-14.80568 -2.613269999999999 L-15.05244 -2.8297399999999993 L-15.30536 -3.071149999999999 L-15.56318 -3.338709999999999 L-15.82508 -3.634299999999999 L-16.08917 -3.958779999999999 L-16.3528 -4.311929999999999 L-16.61496 -4.695669999999999 L-16.87223 -5.1083799999999995 L-17.12316 -5.551169999999999 L-17.358873315777537 -6.010460089488597 A18.369999999999997 18.369999999999997 0 0 1 -17.161117716396415 -6.553789133358951 L-16.68532486190079 -6.754112155371378 L-16.208481404095842 -6.932014279441386 L-15.746116275820892 -7.082798513216964 L-15.298626747271708 -7.208247208064018 L-14.869674006371449 -7.309317705609825 L-14.45879760579707 -7.388130026670952 L-14.068168976596965 -7.446219028635586 L-13.698683145424301 -7.485458378307118 L-13.349759828016223 -7.50781532507855 L-13.021586467363337 -7.515026695114265 L-12.719755571092536 -7.509030750120847 L-12.437850247676076 -7.491609764802502 L-11.948887367311873 -7.43087010209402 L-11.555603090216007 -7.34826619970931 L-11.257929353648993 -7.259327509263398 L-11.054207877288867 -7.179580646819478 L-10.79767742690733 -7.046214239778402 L-10.560108144310776 -6.938104857824017 L-10.33333516758428 -6.861638198248722 L-10.11958120390828 -6.815689951135266 L-9.920977300164466 -6.79898057000617 L-9.73954725701249 -6.810140518118589 L-9.577267944911508 -6.847669501105506 L-9.435984774197014 -6.909943862385725 L-9.317456425179088 -6.99524106209993 L-9.244481817600889 -7.073216729130148 L-8.916757317904908 -7.4820477767513145 L-8.571046094684494 -7.875786171297039 L-8.50692696086875 -7.961192463095236 L-8.443507849088803 -8.09273180345029 L-8.40671314041574 -8.242682394691753 L-8.397933813826938 -8.409013158907658 L-8.418448406769986 -8.589624776685644 L-8.46939114081661 -8.782309887288033 L-8.551759317072683 -8.984837618575007 L-8.66644299042204 -9.194887108141389 L-8.814163420936607 -9.410074182354945 L-8.99004973780687 -9.639548525229728 L-9.103960929341596 -9.826327117266233 L-9.24323894312965 -10.104034479385522 L-9.39288100464993 -10.47699986749005 L-9.537605408522607 -10.94798697126647 L-9.6037140756151 -11.222584397028719 L-9.662031313832253 -11.518788618853328 L-9.711916206747448 -11.843228530021545 L-9.750488810446672 -12.190733161276817 L-9.776006135923875 -12.561419514007113 L-9.786631586029493 -12.956200665925559 L-9.780364539421695 -13.374520546670922 L-9.75531639160035 -13.81450723930005 L-9.70947928546731 -14.276982333657951 L-9.641274664954796 -14.758506504121641 L-9.548878271373539 -15.258998017988937 L-9.434219168318979 -15.762348237641227 A18.369999999999997 18.369999999999997 0 0 1 -8.9334844129347 -16.05144758345494 L-8.44024078418806 -15.899070169649184 L-7.960604222009822 -15.728842036774969 L-7.509489747595781 -15.547146885562437 L-7.086056014197714 -15.355605436730666 L-6.69249228714312 -15.157304422747135 L-6.327083120205659 -14.953571903943507 L-5.990505338761811 -14.746979418266177 L-5.682240203199777 -14.539537589801135 L-5.40057866644958 -14.332380419479861 L-5.144547907833935 -14.126958879366128 L-4.917186146134197 -13.928352558679219 L-4.7124321331565255 -13.733802060685667 L-4.376907538367627 -13.37297349849616 L-4.128731068296923 -13.056896977692661 L-3.95786844477768 -12.797424998503923 L-3.853069034958339 -12.605385716841242 L-3.742281582947169 -12.338326526816125 L-3.6297843253694655 -12.102803344225755 L-3.5052179680277025 -11.898459624922705 L-3.37100789589039 -11.725862826178064 L-3.2296090622010185 -11.58540256905426 L-3.083452109458203 -11.477330601528292 L-2.935015778921948 -11.40176833927436 L-2.7867574032578126 -11.35865819608935 L-2.641131437023316 -11.347811087798704 L-2.5351078517751784 -11.36063674065269 L-2.0212647880430734 -11.463162245062103 L-1.5033444650993486 -11.542564463430782 L-1.3993282527850417 -11.566774493909595 L-1.266194536451903 -11.626774455370645 L-1.141621772221537 -11.7179920896965 L-1.0279810635261823 -11.839765604991156 L-0.9276012433799223 -11.991308657314264 L-0.8427700400473295 -12.171659373811716 L-0.7756854074689465 -12.379749860071477 L-0.7285209888404409 -12.614374348596087 L-0.7033618187020974 -12.87417007346074 L-0.6905952900203562 -13.16301516385595 L-0.6577973605888312 -13.379316568902253 L-0.5859836576108057 -13.681578932031679 L-0.46087859697976197 -14.063475058098051 L-0.2689992477205023 -14.517299165355306 L-0.14313360185691693 -14.770146829555198 L0.0025892055944902737 -15.034538025869448 L0.1729211155679513 -15.3151388080223 L0.366744458127108 -15.606136791484722 L0.5854696473569669 -15.906501232782892 L0.8310905133388764 -16.21575104813336 L1.1047821857962177 -16.53217428831572 L1.406788174694146 -16.853123010185403 L1.7391746955778884 -17.17793596241299 L2.100940236655186 -17.50296379243536 L2.4934297243894985 -17.826971278487854 L2.904810977662941 -18.138858466413968 A18.369999999999997 18.369999999999997 0 0 1 3.4742255319591457 -18.038455317283457 L3.754125759273931 -17.60467655306555 L4.012128147815642 -17.16596979849392 L4.240910492211519 -16.7368124428623 L4.442159080659758 -16.317905223006168 L4.616180952006234 -15.913019945806477 L4.76514387502621 -15.522071296921045 L4.890182324130851 -15.147464243669901 L4.992986081167416 -14.790405574066199 L5.075593273895018 -14.450665428941038 L5.139681793052235 -14.128730000303191 L5.186189325037084 -13.830443408635581 L5.21798534931634 -13.549795738165948 L5.243075971687699 -13.057713970906665 L5.230020106212927 -12.656060548567574 L5.194123096213207 -12.34746510340825 L5.150963630921588 -12.13299071669566 L5.064169404500986 -11.857198706731541 L4.99895591997148 -11.604465638187829 L4.963029674927446 -11.367859556446394 L4.954897471194215 -11.149374166402936 L4.972929149072895 -10.950885948634527 L5.015424548864594 -10.7741501401617 L5.0805628890921515 -10.620853054956537 L5.166424728024372 -10.492530122418437 L5.271008303421984 -10.390614188644312 L5.360471252481555 -10.332288561810438 L5.819999999999997 -10.080535700050868 L6.267788747518437 -9.808448561810438 L6.36303169657801 -9.760134188644313 L6.503585271975621 -9.720520122418439 L6.657647110907842 -9.71032305495654 L6.822975451135399 -9.730560140161701 L6.997280850927098 -9.782125948634528 L7.178192528805777 -9.865754166402937 L7.3633403250725475 -9.982039556446395 L7.550284080028512 -10.13145563818783 L7.736550595499007 -10.314298706731542 L7.931996369078405 -10.527360716695663 L8.096156903786785 -10.67197510340825 L8.345459893787067 -10.857360548567573 L8.686774028312293 -11.069493970906667 L9.125474650683653 -11.293805738165947 L9.384420674962907 -11.406593408635583 L9.665998206947757 -11.515460000303191 L9.976846726104974 -11.62092542894104 L10.312373918832575 -11.7192555740662 L10.672997675869139 -11.808754243669902 L11.059936124973781 -11.887771296921049 L11.472989047993755 -11.95423994580648 L11.91064091934023 -12.005975223006171 L12.37404950778847 -12.041142442862302 L12.860101852184346 -12.057589798493922 L13.369034240726057 -12.053506553065553 L13.88464778381838 -12.027995227794865 A18.369999999999997 18.369999999999997 0 0 1 14.256306738733462 -11.585069333055007 Z" id="SvgjsPath1704">
        </path>
      </g>
    </g>
  </g>
</svg>
