0
SECTION
2
HEADER
0
ENDSEC
0
SECTION
2
TABLES
0
TABLE
2
LTYPE
0
LTYPE
72
65
70
64
2
CONTINUOUS
3
______
73
0
40
0
0
ENDTAB
0
TABLE
2
LAYER
0
ENDTAB
0
ENDSEC
0
SECTION
2
ENTITIES
0
CIRCLE
8
0
10
0
20
0
40
1.5
0
CIRCLE
8
0
10
0
20
0
40
1.5
0
LINE
8
layer0
10
20.6467371
20
7.8291128
11
20.3500714
21
7.355975
0
LINE
8
layer0
10
20.3500714
20
7.355975
11
20.051198
21
6.9208978
0
LINE
8
layer0
10
20.051198
20
6.9208978
11
19.7517936
21
6.5219614
0
LINE
8
layer0
10
19.7517936
20
6.5219614
11
19.4568263
21
6.1614082
0
LINE
8
layer0
10
19.4568263
20
6.1614082
11
19.1661151
21
5.8349199
0
LINE
8
layer0
10
19.1661151
20
5.8349199
11
18.8825955
21
5.5421933
0
LINE
8
layer0
10
18.8825955
20
5.5421933
11
18.6100252
21
5.283405
0
LINE
8
layer0
10
18.6100252
20
5.283405
11
18.3493881
21
5.055916
0
LINE
8
layer0
10
18.3493881
20
5.055916
11
18.1028515
21
4.8583122
0
LINE
8
layer0
10
18.1028515
20
4.8583122
11
17.8750462
21
4.6908417
0
LINE
8
layer0
10
17.8750462
20
4.6908417
11
17.6627853
21
4.5480479
0
LINE
8
layer0
10
17.6627853
20
4.5480479
11
17.2939177
21
4.31513
0
LINE
8
layer0
10
17.2939177
20
4.31513
11
17.1659653
21
4.2005358
0
LINE
8
layer0
10
17.1659653
20
4.2005358
11
17.1169323
21
4.1424131
0
LINE
8
layer0
10
17.1169323
20
4.1424131
11
17.0778346
21
4.0842683
0
LINE
8
layer0
10
17.0778346
20
4.0842683
11
17.0486587
21
4.0264759
0
LINE
8
layer0
10
17.0486587
20
4.0264759
11
17.0293757
21
3.969438
0
LINE
8
layer0
10
17.0293757
20
3.969438
11
17.0199194
21
3.9135391
0
LINE
8
layer0
10
17.0199194
20
3.9135391
11
17.0268656
21
3.8196196
0
LINE
8
layer0
10
17.0268656
20
3.8196196
11
17.1147031
21
3.4043261
0
LINE
8
layer0
10
17.1147031
20
3.4043261
11
17.1924778
21
2.987031
0
LINE
8
layer0
10
17.1924778
20
2.987031
11
17.2220017
21
2.8976025
0
LINE
8
layer0
10
17.2220017
20
2.8976025
11
17.2521299
21
2.8495774
0
LINE
8
layer0
10
17.2521299
20
2.8495774
11
17.2917725
21
2.8042605
0
LINE
8
layer0
10
17.2917725
20
2.8042605
11
17.3408436
21
2.7620325
0
LINE
8
layer0
10
17.3408436
20
2.7620325
11
17.3992163
21
2.7232757
0
LINE
8
layer0
10
17.3992163
20
2.7232757
11
17.4667595
21
2.6883415
0
LINE
8
layer0
10
17.4667595
20
2.6883415
11
17.6288253
21
2.6314355
0
LINE
8
layer0
10
17.6288253
20
2.6314355
11
18.0587485
21
2.5574069
0
LINE
8
layer0
10
18.0587485
20
2.5574069
11
18.3094967
21
2.5067114
0
LINE
8
layer0
10
18.3094967
20
2.5067114
11
18.5840496
21
2.4391661
0
LINE
8
layer0
10
18.5840496
20
2.4391661
11
18.8874394
21
2.3509495
0
LINE
8
layer0
10
18.8874394
20
2.3509495
11
19.215293
21
2.2405186
0
LINE
8
layer0
10
19.215293
20
2.2405186
11
19.5661491
21
2.1057375
0
LINE
8
layer0
10
19.5661491
20
2.1057375
11
19.9401087
21
1.9437916
0
LINE
8
layer0
10
19.9401087
20
1.9437916
11
20.3336325
21
1.7534061
0
LINE
8
layer0
10
20.3336325
20
1.7534061
11
20.7441244
21
1.5331775
0
LINE
8
layer0
10
20.7441244
20
1.5331775
11
21.1734043
21
1.2791855
0
LINE
8
layer0
10
21.1734043
20
1.2791855
11
21.6160242
21
0.9916004
0
LINE
8
layer0
10
21.6160242
20
0.9916004
11
22.0711696
21
0.6680072
0
LINE
8
layer0
10
22.0711696
20
0.6680072
11
22.4974415
21
0.3382847
0
ARC
8
layer0
10
-0.0000153
20
0
40
22.5
50
359.1385326
51
360.8614674
0
LINE
8
layer0
10
22.4974415
20
-0.3382847
11
22.0711696
21
-0.6680072
0
LINE
8
layer0
10
22.0711696
20
-0.6680072
11
21.6160242
21
-0.9916004
0
LINE
8
layer0
10
21.6160242
20
-0.9916004
11
21.1734043
21
-1.2791855
0
LINE
8
layer0
10
21.1734043
20
-1.2791855
11
20.7441244
21
-1.5331775
0
LINE
8
layer0
10
20.7441244
20
-1.5331775
11
20.3336325
21
-1.7534061
0
LINE
8
layer0
10
20.3336325
20
-1.7534061
11
19.9401087
21
-1.9437916
0
LINE
8
layer0
10
19.9401087
20
-1.9437916
11
19.5661491
21
-2.1057375
0
LINE
8
layer0
10
19.5661491
20
-2.1057375
11
19.215293
21
-2.2405186
0
LINE
8
layer0
10
19.215293
20
-2.2405186
11
18.8874394
21
-2.3509495
0
LINE
8
layer0
10
18.8874394
20
-2.3509495
11
18.5840496
21
-2.4391661
0
LINE
8
layer0
10
18.5840496
20
-2.4391661
11
18.3094967
21
-2.5067114
0
LINE
8
layer0
10
18.3094967
20
-2.5067114
11
18.0587485
21
-2.5574069
0
LINE
8
layer0
10
18.0587485
20
-2.5574069
11
17.6288253
21
-2.6314355
0
LINE
8
layer0
10
17.6288253
20
-2.6314355
11
17.4667595
21
-2.6883415
0
LINE
8
layer0
10
17.4667595
20
-2.6883415
11
17.3992163
21
-2.7232757
0
LINE
8
layer0
10
17.3992163
20
-2.7232757
11
17.3408436
21
-2.7620325
0
LINE
8
layer0
10
17.3408436
20
-2.7620325
11
17.2917725
21
-2.8042605
0
LINE
8
layer0
10
17.2917725
20
-2.8042605
11
17.2521299
21
-2.8495774
0
LINE
8
layer0
10
17.2521299
20
-2.8495774
11
17.2220017
21
-2.8976025
0
LINE
8
layer0
10
17.2220017
20
-2.8976025
11
17.1924778
21
-2.987031
0
LINE
8
layer0
10
17.1924778
20
-2.987031
11
17.1147031
21
-3.4043261
0
LINE
8
layer0
10
17.1147031
20
-3.4043261
11
17.0268656
21
-3.8196196
0
LINE
8
layer0
10
17.0268656
20
-3.8196196
11
17.0199194
21
-3.9135391
0
LINE
8
layer0
10
17.0199194
20
-3.9135391
11
17.0293757
21
-3.969438
0
LINE
8
layer0
10
17.0293757
20
-3.969438
11
17.0486587
21
-4.0264759
0
LINE
8
layer0
10
17.0486587
20
-4.0264759
11
17.0778346
21
-4.0842683
0
LINE
8
layer0
10
17.0778346
20
-4.0842683
11
17.1169323
21
-4.1424131
0
LINE
8
layer0
10
17.1169323
20
-4.1424131
11
17.1659653
21
-4.2005358
0
LINE
8
layer0
10
17.1659653
20
-4.2005358
11
17.2939177
21
-4.31513
0
LINE
8
layer0
10
17.2939177
20
-4.31513
11
17.6627853
21
-4.5480479
0
LINE
8
layer0
10
17.6627853
20
-4.5480479
11
17.8750462
21
-4.6908417
0
LINE
8
layer0
10
17.8750462
20
-4.6908417
11
18.1028515
21
-4.8583122
0
LINE
8
layer0
10
18.1028515
20
-4.8583122
11
18.3493881
21
-5.055916
0
LINE
8
layer0
10
18.3493881
20
-5.055916
11
18.6100252
21
-5.283405
0
LINE
8
layer0
10
18.6100252
20
-5.283405
11
18.8825955
21
-5.5421933
0
LINE
8
layer0
10
18.8825955
20
-5.5421933
11
19.1661151
21
-5.8349199
0
LINE
8
layer0
10
19.1661151
20
-5.8349199
11
19.4568263
21
-6.1614082
0
LINE
8
layer0
10
19.4568263
20
-6.1614082
11
19.7517936
21
-6.5219614
0
LINE
8
layer0
10
19.7517936
20
-6.5219614
11
20.051198
21
-6.9208978
0
LINE
8
layer0
10
20.051198
20
-6.9208978
11
20.3500714
21
-7.355975
0
LINE
8
layer0
10
20.3500714
20
-7.355975
11
20.6467371
21
-7.8291128
0
LINE
8
layer0
10
20.6467371
20
-7.8291128
11
20.9143816
21
-8.2968638
0
ARC
8
layer0
10
-0.0000141
20
0.0000061
40
22.5
50
336.638532
51
338.3614667
0
LINE
8
layer0
10
20.6554698
20
-8.9219324
11
20.1354666
21
-9.0634291
0
LINE
8
layer0
10
20.1354666
20
-9.0634291
11
19.5911333
21
-9.1882137
0
LINE
8
layer0
10
19.5911333
20
-9.1882137
11
19.0721518
21
-9.2845243
0
LINE
8
layer0
10
19.0721518
20
-9.2845243
11
18.5783504
21
-9.354904
0
LINE
8
layer0
10
18.5783504
20
-9.354904
11
18.1148274
21
-9.4012803
0
LINE
8
layer0
10
18.1148274
20
-9.4012803
11
17.6784014
21
-9.4265785
0
LINE
8
layer0
10
17.6784014
20
-9.4265785
11
17.2709338
21
-9.4330888
0
LINE
8
layer0
10
17.2709338
20
-9.4330888
11
16.8952065
21
-9.4233436
0
LINE
8
layer0
10
16.8952065
20
-9.4233436
11
16.5500492
21
-9.3999042
0
LINE
8
layer0
10
16.5500492
20
-9.3999042
11
16.2359946
21
-9.3653035
0
LINE
8
layer0
10
16.2359946
20
-9.3653035
11
15.9564924
21
-9.3226404
0
LINE
8
layer0
10
15.9564924
20
-9.3226404
11
15.7054308
21
-9.2735197
0
LINE
8
layer0
10
15.7054308
20
-9.2735197
11
15.2799041
21
-9.1773888
0
LINE
8
layer0
10
15.2799041
20
-9.1773888
11
15.1083979
21
-9.1679431
0
LINE
8
layer0
10
15.1083979
20
-9.1679431
11
15.0326274
21
-9.1743705
0
LINE
8
layer0
10
15.0326274
20
-9.1743705
11
14.9638665
21
-9.1878388
0
LINE
8
layer0
10
14.9638665
20
-9.1878388
11
14.9023706
21
-9.2080738
0
LINE
8
layer0
10
14.9023706
20
-9.2080738
11
14.8484036
21
-9.2347705
0
LINE
8
layer0
10
14.8484036
20
-9.2347705
11
14.8021904
21
-9.2676104
0
LINE
8
layer0
10
14.8021904
20
-9.2676104
11
14.7406911
21
-9.3389332
0
LINE
8
layer0
10
14.7406911
20
-9.3389332
11
14.5091447
21
-9.6947006
0
LINE
8
layer0
10
14.5091447
20
-9.6947006
11
14.2690675
21
-10.0447678
0
LINE
8
layer0
10
14.2690675
20
-10.0447678
11
14.2267086
21
-10.1288798
0
LINE
8
layer0
10
14.2267086
20
-10.1288798
11
14.2140535
21
-10.1841425
0
LINE
8
layer0
10
14.2140535
20
-10.1841425
11
14.2100412
21
-10.2442179
0
LINE
8
layer0
10
14.2100412
20
-10.2442179
11
14.21488
21
-10.3087763
0
LINE
8
layer0
10
14.21488
20
-10.3087763
11
14.2287506
21
-10.3774571
0
LINE
8
layer0
10
14.2287506
20
-10.3774571
11
14.2518086
21
-10.4499196
0
LINE
8
layer0
10
14.2518086
20
-10.4499196
11
14.3261678
21
-10.604756
0
LINE
8
layer0
10
14.3261678
20
-10.604756
11
14.5778233
21
-10.9611037
0
LINE
8
layer0
10
14.5778233
20
-10.9611037
11
14.7192819
21
-11.1742567
0
LINE
8
layer0
10
14.7192819
20
-11.1742567
11
14.8656584
21
-11.4161566
0
LINE
8
layer0
10
14.8656584
20
-11.4161566
11
15.0178088
21
-11.6930641
0
LINE
8
layer0
10
15.0178088
20
-11.6930641
11
15.1715499
21
-12.002978
0
LINE
8
layer0
10
15.1715499
20
-12.002978
11
15.3243379
21
-12.3463754
0
LINE
8
layer0
10
15.3243379
20
-12.3463754
11
15.4742543
21
-12.7253178
0
LINE
8
layer0
10
15.4742543
20
-12.7253178
11
15.6178948
21
-13.1382041
0
LINE
8
layer0
10
15.6178948
20
-13.1382041
11
15.7524313
21
-13.5841909
0
LINE
8
layer0
10
15.7524313
20
-13.5841909
11
15.8763785
21
-14.0673371
0
LINE
8
layer0
10
15.8763785
20
-14.0673371
11
15.9860047
21
-14.5836699
0
LINE
8
layer0
10
15.9860047
20
-14.5836699
11
16.0790261
21
-15.1343213
0
LINE
8
layer0
10
16.0790261
20
-15.1343213
11
16.1472968
21
-15.66889
0
ARC
8
layer0
10
-0.0000109
20
0.0000109
40
22.5
50
314.1385326
51
315.8614674
0
LINE
8
layer0
10
15.66889
20
-16.1472968
11
15.1343213
21
-16.0790261
0
LINE
8
layer0
10
15.1343213
20
-16.0790261
11
14.5836699
21
-15.9860047
0
LINE
8
layer0
10
14.5836699
20
-15.9860047
11
14.0673371
21
-15.8763785
0
LINE
8
layer0
10
14.0673371
20
-15.8763785
11
13.5841909
21
-15.7524313
0
LINE
8
layer0
10
13.5841909
20
-15.7524313
11
13.1382041
21
-15.6178948
0
LINE
8
layer0
10
13.1382041
20
-15.6178948
11
12.7253178
21
-15.4742543
0
LINE
8
layer0
10
12.7253178
20
-15.4742543
11
12.3463754
21
-15.3243379
0
LINE
8
layer0
10
12.3463754
20
-15.3243379
11
12.002978
21
-15.1715499
0
LINE
8
layer0
10
12.002978
20
-15.1715499
11
11.6930641
21
-15.0178088
0
LINE
8
layer0
10
11.6930641
20
-15.0178088
11
11.4161566
21
-14.8656584
0
LINE
8
layer0
10
11.4161566
20
-14.8656584
11
11.1742567
21
-14.7192819
0
LINE
8
layer0
10
11.1742567
20
-14.7192819
11
10.9611037
21
-14.5778233
0
LINE
8
layer0
10
10.9611037
20
-14.5778233
11
10.604756
21
-14.3261678
0
LINE
8
layer0
10
10.604756
20
-14.3261678
11
10.4499196
21
-14.2518086
0
LINE
8
layer0
10
10.4499196
20
-14.2518086
11
10.3774571
21
-14.2287506
0
LINE
8
layer0
10
10.3774571
20
-14.2287506
11
10.3087763
21
-14.21488
0
LINE
8
layer0
10
10.3087763
20
-14.21488
11
10.2442179
21
-14.2100412
0
LINE
8
layer0
10
10.2442179
20
-14.2100412
11
10.1841425
21
-14.2140535
0
LINE
8
layer0
10
10.1841425
20
-14.2140535
11
10.1288798
21
-14.2267086
0
LINE
8
layer0
10
10.1288798
20
-14.2267086
11
10.0447678
21
-14.2690675
0
LINE
8
layer0
10
10.0447678
20
-14.2690675
11
9.6947006
21
-14.5091447
0
LINE
8
layer0
10
9.6947006
20
-14.5091447
11
9.3389332
21
-14.7406911
0
LINE
8
layer0
10
9.3389332
20
-14.7406911
11
9.2676104
21
-14.8021904
0
LINE
8
layer0
10
9.2676104
20
-14.8021904
11
9.2347705
21
-14.8484036
0
LINE
8
layer0
10
9.2347705
20
-14.8484036
11
9.2080738
21
-14.9023706
0
LINE
8
layer0
10
9.2080738
20
-14.9023706
11
9.1878388
21
-14.9638665
0
LINE
8
layer0
10
9.1878388
20
-14.9638665
11
9.1743705
21
-15.0326274
0
LINE
8
layer0
10
9.1743705
20
-15.0326274
11
9.1679431
21
-15.1083979
0
LINE
8
layer0
10
9.1679431
20
-15.1083979
11
9.1773888
21
-15.2799041
0
LINE
8
layer0
10
9.1773888
20
-15.2799041
11
9.2735197
21
-15.7054308
0
LINE
8
layer0
10
9.2735197
20
-15.7054308
11
9.3226404
21
-15.9564924
0
LINE
8
layer0
10
9.3226404
20
-15.9564924
11
9.3653035
21
-16.2359946
0
LINE
8
layer0
10
9.3653035
20
-16.2359946
11
9.3999042
21
-16.5500492
0
LINE
8
layer0
10
9.3999042
20
-16.5500492
11
9.4233436
21
-16.8952065
0
LINE
8
layer0
10
9.4233436
20
-16.8952065
11
9.4330888
21
-17.2709338
0
LINE
8
layer0
10
9.4330888
20
-17.2709338
11
9.4265785
21
-17.6784014
0
LINE
8
layer0
10
9.4265785
20
-17.6784014
11
9.4012803
21
-18.1148274
0
LINE
8
layer0
10
9.4012803
20
-18.1148274
11
9.354904
21
-18.5783504
0
LINE
8
layer0
10
9.354904
20
-18.5783504
11
9.2845243
21
-19.0721518
0
LINE
8
layer0
10
9.2845243
20
-19.0721518
11
9.1882137
21
-19.5911333
0
LINE
8
layer0
10
9.1882137
20
-19.5911333
11
9.0634291
21
-20.1354666
0
LINE
8
layer0
10
9.0634291
20
-20.1354666
11
8.9219324
21
-20.6554698
0
ARC
8
layer0
10
-0.0000061
20
0.000014
40
22.5
50
291.6385333
51
293.361468
0
LINE
8
layer0
10
8.2968638
20
-20.9143816
11
7.8291128
21
-20.6467371
0
LINE
8
layer0
10
7.8291128
20
-20.6467371
11
7.355975
21
-20.3500714
0
LINE
8
layer0
10
7.355975
20
-20.3500714
11
6.9208978
21
-20.051198
0
LINE
8
layer0
10
6.9208978
20
-20.051198
11
6.5219614
21
-19.7517936
0
LINE
8
layer0
10
6.5219614
20
-19.7517936
11
6.1614082
21
-19.4568263
0
LINE
8
layer0
10
6.1614082
20
-19.4568263
11
5.8349199
21
-19.1661151
0
LINE
8
layer0
10
5.8349199
20
-19.1661151
11
5.5421933
21
-18.8825955
0
LINE
8
layer0
10
5.5421933
20
-18.8825955
11
5.283405
21
-18.6100252
0
LINE
8
layer0
10
5.283405
20
-18.6100252
11
5.055916
21
-18.3493881
0
LINE
8
layer0
10
5.055916
20
-18.3493881
11
4.8583122
21
-18.1028515
0
LINE
8
layer0
10
4.8583122
20
-18.1028515
11
4.6908417
21
-17.8750462
0
LINE
8
layer0
10
4.6908417
20
-17.8750462
11
4.5480479
21
-17.6627853
0
LINE
8
layer0
10
4.5480479
20
-17.6627853
11
4.31513
21
-17.2939177
0
LINE
8
layer0
10
4.31513
20
-17.2939177
11
4.2005358
21
-17.1659653
0
LINE
8
layer0
10
4.2005358
20
-17.1659653
11
4.1424131
21
-17.1169323
0
LINE
8
layer0
10
4.1424131
20
-17.1169323
11
4.0842683
21
-17.0778346
0
LINE
8
layer0
10
4.0842683
20
-17.0778346
11
4.0264759
21
-17.0486587
0
LINE
8
layer0
10
4.0264759
20
-17.0486587
11
3.969438
21
-17.0293757
0
LINE
8
layer0
10
3.969438
20
-17.0293757
11
3.9135391
21
-17.0199194
0
LINE
8
layer0
10
3.9135391
20
-17.0199194
11
3.8196196
21
-17.0268656
0
LINE
8
layer0
10
3.8196196
20
-17.0268656
11
3.4043261
21
-17.1147031
0
LINE
8
layer0
10
3.4043261
20
-17.1147031
11
2.987031
21
-17.1924778
0
LINE
8
layer0
10
2.987031
20
-17.1924778
11
2.8976025
21
-17.2220017
0
LINE
8
layer0
10
2.8976025
20
-17.2220017
11
2.8495774
21
-17.2521299
0
LINE
8
layer0
10
2.8495774
20
-17.2521299
11
2.8042605
21
-17.2917725
0
LINE
8
layer0
10
2.8042605
20
-17.2917725
11
2.7620325
21
-17.3408436
0
LINE
8
layer0
10
2.7620325
20
-17.3408436
11
2.7232757
21
-17.3992163
0
LINE
8
layer0
10
2.7232757
20
-17.3992163
11
2.6883415
21
-17.4667595
0
LINE
8
layer0
10
2.6883415
20
-17.4667595
11
2.6314355
21
-17.6288253
0
LINE
8
layer0
10
2.6314355
20
-17.6288253
11
2.5574069
21
-18.0587485
0
LINE
8
layer0
10
2.5574069
20
-18.0587485
11
2.5067114
21
-18.3094967
0
LINE
8
layer0
10
2.5067114
20
-18.3094967
11
2.4391661
21
-18.5840496
0
LINE
8
layer0
10
2.4391661
20
-18.5840496
11
2.3509495
21
-18.8874394
0
LINE
8
layer0
10
2.3509495
20
-18.8874394
11
2.2405186
21
-19.215293
0
LINE
8
layer0
10
2.2405186
20
-19.215293
11
2.1057375
21
-19.5661491
0
LINE
8
layer0
10
2.1057375
20
-19.5661491
11
1.9437916
21
-19.9401087
0
LINE
8
layer0
10
1.9437916
20
-19.9401087
11
1.7534061
21
-20.3336325
0
LINE
8
layer0
10
1.7534061
20
-20.3336325
11
1.5331775
21
-20.7441244
0
LINE
8
layer0
10
1.5331775
20
-20.7441244
11
1.2791855
21
-21.1734043
0
LINE
8
layer0
10
1.2791855
20
-21.1734043
11
0.9916004
21
-21.6160242
0
LINE
8
layer0
10
0.9916004
20
-21.6160242
11
0.6680072
21
-22.0711696
0
LINE
8
layer0
10
0.6680072
20
-22.0711696
11
0.3382847
21
-22.4974415
0
ARC
8
layer0
10
0
20
0.0000153
40
22.5
50
269.1385326
51
270.8614674
0
LINE
8
layer0
10
-0.3382847
20
-22.4974415
11
-0.6680072
21
-22.0711696
0
LINE
8
layer0
10
-0.6680072
20
-22.0711696
11
-0.9916004
21
-21.6160242
0
LINE
8
layer0
10
-0.9916004
20
-21.6160242
11
-1.2791855
21
-21.1734043
0
LINE
8
layer0
10
-1.2791855
20
-21.1734043
11
-1.5331775
21
-20.7441244
0
LINE
8
layer0
10
-1.5331775
20
-20.7441244
11
-1.7534061
21
-20.3336325
0
LINE
8
layer0
10
-1.7534061
20
-20.3336325
11
-1.9437916
21
-19.9401087
0
LINE
8
layer0
10
-1.9437916
20
-19.9401087
11
-2.1057375
21
-19.5661491
0
LINE
8
layer0
10
-2.1057375
20
-19.5661491
11
-2.2405186
21
-19.215293
0
LINE
8
layer0
10
-2.2405186
20
-19.215293
11
-2.3509495
21
-18.8874394
0
LINE
8
layer0
10
-2.3509495
20
-18.8874394
11
-2.4391661
21
-18.5840496
0
LINE
8
layer0
10
-2.4391661
20
-18.5840496
11
-2.5067114
21
-18.3094967
0
LINE
8
layer0
10
-2.5067114
20
-18.3094967
11
-2.5574069
21
-18.0587485
0
LINE
8
layer0
10
-2.5574069
20
-18.0587485
11
-2.6314355
21
-17.6288253
0
LINE
8
layer0
10
-2.6314355
20
-17.6288253
11
-2.6883415
21
-17.4667595
0
LINE
8
layer0
10
-2.6883415
20
-17.4667595
11
-2.7232757
21
-17.3992163
0
LINE
8
layer0
10
-2.7232757
20
-17.3992163
11
-2.7620325
21
-17.3408436
0
LINE
8
layer0
10
-2.7620325
20
-17.3408436
11
-2.8042605
21
-17.2917725
0
LINE
8
layer0
10
-2.8042605
20
-17.2917725
11
-2.8495774
21
-17.2521299
0
LINE
8
layer0
10
-2.8495774
20
-17.2521299
11
-2.8976025
21
-17.2220017
0
LINE
8
layer0
10
-2.8976025
20
-17.2220017
11
-2.987031
21
-17.1924778
0
LINE
8
layer0
10
-2.987031
20
-17.1924778
11
-3.4043261
21
-17.1147031
0
LINE
8
layer0
10
-3.4043261
20
-17.1147031
11
-3.8196196
21
-17.0268656
0
LINE
8
layer0
10
-3.8196196
20
-17.0268656
11
-3.9135391
21
-17.0199194
0
LINE
8
layer0
10
-3.9135391
20
-17.0199194
11
-3.969438
21
-17.0293757
0
LINE
8
layer0
10
-3.969438
20
-17.0293757
11
-4.0264759
21
-17.0486587
0
LINE
8
layer0
10
-4.0264759
20
-17.0486587
11
-4.0842683
21
-17.0778346
0
LINE
8
layer0
10
-4.0842683
20
-17.0778346
11
-4.1424131
21
-17.1169323
0
LINE
8
layer0
10
-4.1424131
20
-17.1169323
11
-4.2005358
21
-17.1659653
0
LINE
8
layer0
10
-4.2005358
20
-17.1659653
11
-4.31513
21
-17.2939177
0
LINE
8
layer0
10
-4.31513
20
-17.2939177
11
-4.5480479
21
-17.6627853
0
LINE
8
layer0
10
-4.5480479
20
-17.6627853
11
-4.6908417
21
-17.8750462
0
LINE
8
layer0
10
-4.6908417
20
-17.8750462
11
-4.8583122
21
-18.1028515
0
LINE
8
layer0
10
-4.8583122
20
-18.1028515
11
-5.055916
21
-18.3493881
0
LINE
8
layer0
10
-5.055916
20
-18.3493881
11
-5.283405
21
-18.6100252
0
LINE
8
layer0
10
-5.283405
20
-18.6100252
11
-5.5421933
21
-18.8825955
0
LINE
8
layer0
10
-5.5421933
20
-18.8825955
11
-5.8349199
21
-19.1661151
0
LINE
8
layer0
10
-5.8349199
20
-19.1661151
11
-6.1614082
21
-19.4568263
0
LINE
8
layer0
10
-6.1614082
20
-19.4568263
11
-6.5219614
21
-19.7517936
0
LINE
8
layer0
10
-6.5219614
20
-19.7517936
11
-6.9208978
21
-20.051198
0
LINE
8
layer0
10
-6.9208978
20
-20.051198
11
-7.355975
21
-20.3500714
0
LINE
8
layer0
10
-7.355975
20
-20.3500714
11
-7.8291128
21
-20.6467371
0
LINE
8
layer0
10
-7.8291128
20
-20.6467371
11
-8.2968638
21
-20.9143816
0
ARC
8
layer0
10
0.0000061
20
0.0000141
40
22.5
50
246.638532
51
248.3614667
0
LINE
8
layer0
10
-8.9219324
20
-20.6554698
11
-9.0634291
21
-20.1354666
0
LINE
8
layer0
10
-9.0634291
20
-20.1354666
11
-9.1882137
21
-19.5911333
0
LINE
8
layer0
10
-9.1882137
20
-19.5911333
11
-9.2845243
21
-19.0721518
0
LINE
8
layer0
10
-9.2845243
20
-19.0721518
11
-9.354904
21
-18.5783504
0
LINE
8
layer0
10
-9.354904
20
-18.5783504
11
-9.4012803
21
-18.1148274
0
LINE
8
layer0
10
-9.4012803
20
-18.1148274
11
-9.4265785
21
-17.6784014
0
LINE
8
layer0
10
-9.4265785
20
-17.6784014
11
-9.4330888
21
-17.2709338
0
LINE
8
layer0
10
-9.4330888
20
-17.2709338
11
-9.4233436
21
-16.8952065
0
LINE
8
layer0
10
-9.4233436
20
-16.8952065
11
-9.3999042
21
-16.5500492
0
LINE
8
layer0
10
-9.3999042
20
-16.5500492
11
-9.3653035
21
-16.2359946
0
LINE
8
layer0
10
-9.3653035
20
-16.2359946
11
-9.3226404
21
-15.9564924
0
LINE
8
layer0
10
-9.3226404
20
-15.9564924
11
-9.2735197
21
-15.7054308
0
LINE
8
layer0
10
-9.2735197
20
-15.7054308
11
-9.1773888
21
-15.2799041
0
LINE
8
layer0
10
-9.1773888
20
-15.2799041
11
-9.1679431
21
-15.1083979
0
LINE
8
layer0
10
-9.1679431
20
-15.1083979
11
-9.1743705
21
-15.0326274
0
LINE
8
layer0
10
-9.1743705
20
-15.0326274
11
-9.1878388
21
-14.9638665
0
LINE
8
layer0
10
-9.1878388
20
-14.9638665
11
-9.2080738
21
-14.9023706
0
LINE
8
layer0
10
-9.2080738
20
-14.9023706
11
-9.2347705
21
-14.8484036
0
LINE
8
layer0
10
-9.2347705
20
-14.8484036
11
-9.2676104
21
-14.8021904
0
LINE
8
layer0
10
-9.2676104
20
-14.8021904
11
-9.3389332
21
-14.7406911
0
LINE
8
layer0
10
-9.3389332
20
-14.7406911
11
-9.6947006
21
-14.5091447
0
LINE
8
layer0
10
-9.6947006
20
-14.5091447
11
-10.0447678
21
-14.2690675
0
LINE
8
layer0
10
-10.0447678
20
-14.2690675
11
-10.1288798
21
-14.2267086
0
LINE
8
layer0
10
-10.1288798
20
-14.2267086
11
-10.1841425
21
-14.2140535
0
LINE
8
layer0
10
-10.1841425
20
-14.2140535
11
-10.2442179
21
-14.2100412
0
LINE
8
layer0
10
-10.2442179
20
-14.2100412
11
-10.3087763
21
-14.21488
0
LINE
8
layer0
10
-10.3087763
20
-14.21488
11
-10.3774571
21
-14.2287506
0
LINE
8
layer0
10
-10.3774571
20
-14.2287506
11
-10.4499196
21
-14.2518086
0
LINE
8
layer0
10
-10.4499196
20
-14.2518086
11
-10.604756
21
-14.3261678
0
LINE
8
layer0
10
-10.604756
20
-14.3261678
11
-10.9611037
21
-14.5778233
0
LINE
8
layer0
10
-10.9611037
20
-14.5778233
11
-11.1742567
21
-14.7192819
0
LINE
8
layer0
10
-11.1742567
20
-14.7192819
11
-11.4161566
21
-14.8656584
0
LINE
8
layer0
10
-11.4161566
20
-14.8656584
11
-11.6930641
21
-15.0178088
0
LINE
8
layer0
10
-11.6930641
20
-15.0178088
11
-12.002978
21
-15.1715499
0
LINE
8
layer0
10
-12.002978
20
-15.1715499
11
-12.3463754
21
-15.3243379
0
LINE
8
layer0
10
-12.3463754
20
-15.3243379
11
-12.7253178
21
-15.4742543
0
LINE
8
layer0
10
-12.7253178
20
-15.4742543
11
-13.1382041
21
-15.6178948
0
LINE
8
layer0
10
-13.1382041
20
-15.6178948
11
-13.5841909
21
-15.7524313
0
LINE
8
layer0
10
-13.5841909
20
-15.7524313
11
-14.0673371
21
-15.8763785
0
LINE
8
layer0
10
-14.0673371
20
-15.8763785
11
-14.5836699
21
-15.9860047
0
LINE
8
layer0
10
-14.5836699
20
-15.9860047
11
-15.1343213
21
-16.0790261
0
LINE
8
layer0
10
-15.1343213
20
-16.0790261
11
-15.66889
21
-16.1472968
0
ARC
8
layer0
10
0.0000109
20
0.0000109
40
22.5
50
224.1385326
51
225.8614674
0
LINE
8
layer0
10
-16.1472968
20
-15.66889
11
-16.0790261
21
-15.1343213
0
LINE
8
layer0
10
-16.0790261
20
-15.1343213
11
-15.9860047
21
-14.5836699
0
LINE
8
layer0
10
-15.9860047
20
-14.5836699
11
-15.8763785
21
-14.0673371
0
LINE
8
layer0
10
-15.8763785
20
-14.0673371
11
-15.7524313
21
-13.5841909
0
LINE
8
layer0
10
-15.7524313
20
-13.5841909
11
-15.6178948
21
-13.1382041
0
LINE
8
layer0
10
-15.6178948
20
-13.1382041
11
-15.4742543
21
-12.7253178
0
LINE
8
layer0
10
-15.4742543
20
-12.7253178
11
-15.3243379
21
-12.3463754
0
LINE
8
layer0
10
-15.3243379
20
-12.3463754
11
-15.1715499
21
-12.002978
0
LINE
8
layer0
10
-15.1715499
20
-12.002978
11
-15.0178088
21
-11.6930641
0
LINE
8
layer0
10
-15.0178088
20
-11.6930641
11
-14.8656584
21
-11.4161566
0
LINE
8
layer0
10
-14.8656584
20
-11.4161566
11
-14.7192819
21
-11.1742567
0
LINE
8
layer0
10
-14.7192819
20
-11.1742567
11
-14.5778233
21
-10.9611037
0
LINE
8
layer0
10
-14.5778233
20
-10.9611037
11
-14.3261678
21
-10.604756
0
LINE
8
layer0
10
-14.3261678
20
-10.604756
11
-14.2518086
21
-10.4499196
0
LINE
8
layer0
10
-14.2518086
20
-10.4499196
11
-14.2287506
21
-10.3774571
0
LINE
8
layer0
10
-14.2287506
20
-10.3774571
11
-14.21488
21
-10.3087763
0
LINE
8
layer0
10
-14.21488
20
-10.3087763
11
-14.2100412
21
-10.2442179
0
LINE
8
layer0
10
-14.2100412
20
-10.2442179
11
-14.2140535
21
-10.1841425
0
LINE
8
layer0
10
-14.2140535
20
-10.1841425
11
-14.2267086
21
-10.1288798
0
LINE
8
layer0
10
-14.2267086
20
-10.1288798
11
-14.2690675
21
-10.0447678
0
LINE
8
layer0
10
-14.2690675
20
-10.0447678
11
-14.5091447
21
-9.6947006
0
LINE
8
layer0
10
-14.5091447
20
-9.6947006
11
-14.7406911
21
-9.3389332
0
LINE
8
layer0
10
-14.7406911
20
-9.3389332
11
-14.8021904
21
-9.2676104
0
LINE
8
layer0
10
-14.8021904
20
-9.2676104
11
-14.8484036
21
-9.2347705
0
LINE
8
layer0
10
-14.8484036
20
-9.2347705
11
-14.9023706
21
-9.2080738
0
LINE
8
layer0
10
-14.9023706
20
-9.2080738
11
-14.9638665
21
-9.1878388
0
LINE
8
layer0
10
-14.9638665
20
-9.1878388
11
-15.0326274
21
-9.1743705
0
LINE
8
layer0
10
-15.0326274
20
-9.1743705
11
-15.1083979
21
-9.1679431
0
LINE
8
layer0
10
-15.1083979
20
-9.1679431
11
-15.2799041
21
-9.1773888
0
LINE
8
layer0
10
-15.2799041
20
-9.1773888
11
-15.7054308
21
-9.2735197
0
LINE
8
layer0
10
-15.7054308
20
-9.2735197
11
-15.9564924
21
-9.3226404
0
LINE
8
layer0
10
-15.9564924
20
-9.3226404
11
-16.2359946
21
-9.3653035
0
LINE
8
layer0
10
-16.2359946
20
-9.3653035
11
-16.5500492
21
-9.3999042
0
LINE
8
layer0
10
-16.5500492
20
-9.3999042
11
-16.8952065
21
-9.4233436
0
LINE
8
layer0
10
-16.8952065
20
-9.4233436
11
-17.2709338
21
-9.4330888
0
LINE
8
layer0
10
-17.2709338
20
-9.4330888
11
-17.6784014
21
-9.4265785
0
LINE
8
layer0
10
-17.6784014
20
-9.4265785
11
-18.1148274
21
-9.4012803
0
LINE
8
layer0
10
-18.1148274
20
-9.4012803
11
-18.5783504
21
-9.354904
0
LINE
8
layer0
10
-18.5783504
20
-9.354904
11
-19.0721518
21
-9.2845243
0
LINE
8
layer0
10
-19.0721518
20
-9.2845243
11
-19.5911333
21
-9.1882137
0
LINE
8
layer0
10
-19.5911333
20
-9.1882137
11
-20.1354666
21
-9.0634291
0
LINE
8
layer0
10
-20.1354666
20
-9.0634291
11
-20.6554698
21
-8.9219324
0
ARC
8
layer0
10
0.000014
20
0.0000061
40
22.5
50
201.6385333
51
203.361468
0
LINE
8
layer0
10
-20.9143816
20
-8.2968638
11
-20.6467371
21
-7.8291128
0
LINE
8
layer0
10
-20.6467371
20
-7.8291128
11
-20.3500714
21
-7.355975
0
LINE
8
layer0
10
-20.3500714
20
-7.355975
11
-20.051198
21
-6.9208978
0
LINE
8
layer0
10
-20.051198
20
-6.9208978
11
-19.7517936
21
-6.5219614
0
LINE
8
layer0
10
-19.7517936
20
-6.5219614
11
-19.4568263
21
-6.1614082
0
LINE
8
layer0
10
-19.4568263
20
-6.1614082
11
-19.1661151
21
-5.8349199
0
LINE
8
layer0
10
-19.1661151
20
-5.8349199
11
-18.8825955
21
-5.5421933
0
LINE
8
layer0
10
-18.8825955
20
-5.5421933
11
-18.6100252
21
-5.283405
0
LINE
8
layer0
10
-18.6100252
20
-5.283405
11
-18.3493881
21
-5.055916
0
LINE
8
layer0
10
-18.3493881
20
-5.055916
11
-18.1028515
21
-4.8583122
0
LINE
8
layer0
10
-18.1028515
20
-4.8583122
11
-17.8750462
21
-4.6908417
0
LINE
8
layer0
10
-17.8750462
20
-4.6908417
11
-17.6627853
21
-4.5480479
0
LINE
8
layer0
10
-17.6627853
20
-4.5480479
11
-17.2939177
21
-4.31513
0
LINE
8
layer0
10
-17.2939177
20
-4.31513
11
-17.1659653
21
-4.2005358
0
LINE
8
layer0
10
-17.1659653
20
-4.2005358
11
-17.1169323
21
-4.1424131
0
LINE
8
layer0
10
-17.1169323
20
-4.1424131
11
-17.0778346
21
-4.0842683
0
LINE
8
layer0
10
-17.0778346
20
-4.0842683
11
-17.0486587
21
-4.0264759
0
LINE
8
layer0
10
-17.0486587
20
-4.0264759
11
-17.0293757
21
-3.969438
0
LINE
8
layer0
10
-17.0293757
20
-3.969438
11
-17.0199194
21
-3.9135391
0
LINE
8
layer0
10
-17.0199194
20
-3.9135391
11
-17.0268656
21
-3.8196196
0
LINE
8
layer0
10
-17.0268656
20
-3.8196196
11
-17.1147031
21
-3.4043261
0
LINE
8
layer0
10
-17.1147031
20
-3.4043261
11
-17.1924778
21
-2.987031
0
LINE
8
layer0
10
-17.1924778
20
-2.987031
11
-17.2220017
21
-2.8976025
0
LINE
8
layer0
10
-17.2220017
20
-2.8976025
11
-17.2521299
21
-2.8495774
0
LINE
8
layer0
10
-17.2521299
20
-2.8495774
11
-17.2917725
21
-2.8042605
0
LINE
8
layer0
10
-17.2917725
20
-2.8042605
11
-17.3408436
21
-2.7620325
0
LINE
8
layer0
10
-17.3408436
20
-2.7620325
11
-17.3992163
21
-2.7232757
0
LINE
8
layer0
10
-17.3992163
20
-2.7232757
11
-17.4667595
21
-2.6883415
0
LINE
8
layer0
10
-17.4667595
20
-2.6883415
11
-17.6288253
21
-2.6314355
0
LINE
8
layer0
10
-17.6288253
20
-2.6314355
11
-18.0587485
21
-2.5574069
0
LINE
8
layer0
10
-18.0587485
20
-2.5574069
11
-18.3094967
21
-2.5067114
0
LINE
8
layer0
10
-18.3094967
20
-2.5067114
11
-18.5840496
21
-2.4391661
0
LINE
8
layer0
10
-18.5840496
20
-2.4391661
11
-18.8874394
21
-2.3509495
0
LINE
8
layer0
10
-18.8874394
20
-2.3509495
11
-19.215293
21
-2.2405186
0
LINE
8
layer0
10
-19.215293
20
-2.2405186
11
-19.5661491
21
-2.1057375
0
LINE
8
layer0
10
-19.5661491
20
-2.1057375
11
-19.9401087
21
-1.9437916
0
LINE
8
layer0
10
-19.9401087
20
-1.9437916
11
-20.3336325
21
-1.7534061
0
LINE
8
layer0
10
-20.3336325
20
-1.7534061
11
-20.7441244
21
-1.5331775
0
LINE
8
layer0
10
-20.7441244
20
-1.5331775
11
-21.1734043
21
-1.2791855
0
LINE
8
layer0
10
-21.1734043
20
-1.2791855
11
-21.6160242
21
-0.9916004
0
LINE
8
layer0
10
-21.6160242
20
-0.9916004
11
-22.0711696
21
-0.6680072
0
LINE
8
layer0
10
-22.0711696
20
-0.6680072
11
-22.4974415
21
-0.3382847
0
ARC
8
layer0
10
0.0000153
20
0
40
22.5
50
179.1385326
51
180.8614674
0
LINE
8
layer0
10
-22.4974415
20
0.3382847
11
-22.0711696
21
0.6680072
0
LINE
8
layer0
10
-22.0711696
20
0.6680072
11
-21.6160242
21
0.9916004
0
LINE
8
layer0
10
-21.6160242
20
0.9916004
11
-21.1734043
21
1.2791855
0
LINE
8
layer0
10
-21.1734043
20
1.2791855
11
-20.7441244
21
1.5331775
0
LINE
8
layer0
10
-20.7441244
20
1.5331775
11
-20.3336325
21
1.7534061
0
LINE
8
layer0
10
-20.3336325
20
1.7534061
11
-19.9401087
21
1.9437916
0
LINE
8
layer0
10
-19.9401087
20
1.9437916
11
-19.5661491
21
2.1057375
0
LINE
8
layer0
10
-19.5661491
20
2.1057375
11
-19.215293
21
2.2405186
0
LINE
8
layer0
10
-19.215293
20
2.2405186
11
-18.8874394
21
2.3509495
0
LINE
8
layer0
10
-18.8874394
20
2.3509495
11
-18.5840496
21
2.4391661
0
LINE
8
layer0
10
-18.5840496
20
2.4391661
11
-18.3094967
21
2.5067114
0
LINE
8
layer0
10
-18.3094967
20
2.5067114
11
-18.0587485
21
2.5574069
0
LINE
8
layer0
10
-18.0587485
20
2.5574069
11
-17.6288253
21
2.6314355
0
LINE
8
layer0
10
-17.6288253
20
2.6314355
11
-17.4667595
21
2.6883415
0
LINE
8
layer0
10
-17.4667595
20
2.6883415
11
-17.3992163
21
2.7232757
0
LINE
8
layer0
10
-17.3992163
20
2.7232757
11
-17.3408436
21
2.7620325
0
LINE
8
layer0
10
-17.3408436
20
2.7620325
11
-17.2917725
21
2.8042605
0
LINE
8
layer0
10
-17.2917725
20
2.8042605
11
-17.2521299
21
2.8495774
0
LINE
8
layer0
10
-17.2521299
20
2.8495774
11
-17.2220017
21
2.8976025
0
LINE
8
layer0
10
-17.2220017
20
2.8976025
11
-17.1924778
21
2.987031
0
LINE
8
layer0
10
-17.1924778
20
2.987031
11
-17.1147031
21
3.4043261
0
LINE
8
layer0
10
-17.1147031
20
3.4043261
11
-17.0268656
21
3.8196196
0
LINE
8
layer0
10
-17.0268656
20
3.8196196
11
-17.0199194
21
3.9135391
0
LINE
8
layer0
10
-17.0199194
20
3.9135391
11
-17.0293757
21
3.969438
0
LINE
8
layer0
10
-17.0293757
20
3.969438
11
-17.0486587
21
4.0264759
0
LINE
8
layer0
10
-17.0486587
20
4.0264759
11
-17.0778346
21
4.0842683
0
LINE
8
layer0
10
-17.0778346
20
4.0842683
11
-17.1169323
21
4.1424131
0
LINE
8
layer0
10
-17.1169323
20
4.1424131
11
-17.1659653
21
4.2005358
0
LINE
8
layer0
10
-17.1659653
20
4.2005358
11
-17.2939177
21
4.31513
0
LINE
8
layer0
10
-17.2939177
20
4.31513
11
-17.6627853
21
4.5480479
0
LINE
8
layer0
10
-17.6627853
20
4.5480479
11
-17.8750462
21
4.6908417
0
LINE
8
layer0
10
-17.8750462
20
4.6908417
11
-18.1028515
21
4.8583122
0
LINE
8
layer0
10
-18.1028515
20
4.8583122
11
-18.3493881
21
5.055916
0
LINE
8
layer0
10
-18.3493881
20
5.055916
11
-18.6100252
21
5.283405
0
LINE
8
layer0
10
-18.6100252
20
5.283405
11
-18.8825955
21
5.5421933
0
LINE
8
layer0
10
-18.8825955
20
5.5421933
11
-19.1661151
21
5.8349199
0
LINE
8
layer0
10
-19.1661151
20
5.8349199
11
-19.4568263
21
6.1614082
0
LINE
8
layer0
10
-19.4568263
20
6.1614082
11
-19.7517936
21
6.5219614
0
LINE
8
layer0
10
-19.7517936
20
6.5219614
11
-20.051198
21
6.9208978
0
LINE
8
layer0
10
-20.051198
20
6.9208978
11
-20.3500714
21
7.355975
0
LINE
8
layer0
10
-20.3500714
20
7.355975
11
-20.6467371
21
7.8291128
0
LINE
8
layer0
10
-20.6467371
20
7.8291128
11
-20.9143816
21
8.2968638
0
ARC
8
layer0
10
0.0000141
20
-0.0000061
40
22.5
50
156.638532
51
158.3614667
0
LINE
8
layer0
10
-20.6554698
20
8.9219324
11
-20.1354666
21
9.0634291
0
LINE
8
layer0
10
-20.1354666
20
9.0634291
11
-19.5911333
21
9.1882137
0
LINE
8
layer0
10
-19.5911333
20
9.1882137
11
-19.0721518
21
9.2845243
0
LINE
8
layer0
10
-19.0721518
20
9.2845243
11
-18.5783504
21
9.354904
0
LINE
8
layer0
10
-18.5783504
20
9.354904
11
-18.1148274
21
9.4012803
0
LINE
8
layer0
10
-18.1148274
20
9.4012803
11
-17.6784014
21
9.4265785
0
LINE
8
layer0
10
-17.6784014
20
9.4265785
11
-17.2709338
21
9.4330888
0
LINE
8
layer0
10
-17.2709338
20
9.4330888
11
-16.8952065
21
9.4233436
0
LINE
8
layer0
10
-16.8952065
20
9.4233436
11
-16.5500492
21
9.3999042
0
LINE
8
layer0
10
-16.5500492
20
9.3999042
11
-16.2359946
21
9.3653035
0
LINE
8
layer0
10
-16.2359946
20
9.3653035
11
-15.9564924
21
9.3226404
0
LINE
8
layer0
10
-15.9564924
20
9.3226404
11
-15.7054308
21
9.2735197
0
LINE
8
layer0
10
-15.7054308
20
9.2735197
11
-15.2799041
21
9.1773888
0
LINE
8
layer0
10
-15.2799041
20
9.1773888
11
-15.1083979
21
9.1679431
0
LINE
8
layer0
10
-15.1083979
20
9.1679431
11
-15.0326274
21
9.1743705
0
LINE
8
layer0
10
-15.0326274
20
9.1743705
11
-14.9638665
21
9.1878388
0
LINE
8
layer0
10
-14.9638665
20
9.1878388
11
-14.9023706
21
9.2080738
0
LINE
8
layer0
10
-14.9023706
20
9.2080738
11
-14.8484036
21
9.2347705
0
LINE
8
layer0
10
-14.8484036
20
9.2347705
11
-14.8021904
21
9.2676104
0
LINE
8
layer0
10
-14.8021904
20
9.2676104
11
-14.7406911
21
9.3389332
0
LINE
8
layer0
10
-14.7406911
20
9.3389332
11
-14.5091447
21
9.6947006
0
LINE
8
layer0
10
-14.5091447
20
9.6947006
11
-14.2690675
21
10.0447678
0
LINE
8
layer0
10
-14.2690675
20
10.0447678
11
-14.2267086
21
10.1288798
0
LINE
8
layer0
10
-14.2267086
20
10.1288798
11
-14.2140535
21
10.1841425
0
LINE
8
layer0
10
-14.2140535
20
10.1841425
11
-14.2100412
21
10.2442179
0
LINE
8
layer0
10
-14.2100412
20
10.2442179
11
-14.21488
21
10.3087763
0
LINE
8
layer0
10
-14.21488
20
10.3087763
11
-14.2287506
21
10.3774571
0
LINE
8
layer0
10
-14.2287506
20
10.3774571
11
-14.2518086
21
10.4499196
0
LINE
8
layer0
10
-14.2518086
20
10.4499196
11
-14.3261678
21
10.604756
0
LINE
8
layer0
10
-14.3261678
20
10.604756
11
-14.5778233
21
10.9611037
0
LINE
8
layer0
10
-14.5778233
20
10.9611037
11
-14.7192819
21
11.1742567
0
LINE
8
layer0
10
-14.7192819
20
11.1742567
11
-14.8656584
21
11.4161566
0
LINE
8
layer0
10
-14.8656584
20
11.4161566
11
-15.0178088
21
11.6930641
0
LINE
8
layer0
10
-15.0178088
20
11.6930641
11
-15.1715499
21
12.002978
0
LINE
8
layer0
10
-15.1715499
20
12.002978
11
-15.3243379
21
12.3463754
0
LINE
8
layer0
10
-15.3243379
20
12.3463754
11
-15.4742543
21
12.7253178
0
LINE
8
layer0
10
-15.4742543
20
12.7253178
11
-15.6178948
21
13.1382041
0
LINE
8
layer0
10
-15.6178948
20
13.1382041
11
-15.7524313
21
13.5841909
0
LINE
8
layer0
10
-15.7524313
20
13.5841909
11
-15.8763785
21
14.0673371
0
LINE
8
layer0
10
-15.8763785
20
14.0673371
11
-15.9860047
21
14.5836699
0
LINE
8
layer0
10
-15.9860047
20
14.5836699
11
-16.0790261
21
15.1343213
0
LINE
8
layer0
10
-16.0790261
20
15.1343213
11
-16.1472968
21
15.66889
0
ARC
8
layer0
10
0.0000109
20
-0.0000109
40
22.5
50
134.1385326
51
135.8614674
0
LINE
8
layer0
10
-15.66889
20
16.1472968
11
-15.1343213
21
16.0790261
0
LINE
8
layer0
10
-15.1343213
20
16.0790261
11
-14.5836699
21
15.9860047
0
LINE
8
layer0
10
-14.5836699
20
15.9860047
11
-14.0673371
21
15.8763785
0
LINE
8
layer0
10
-14.0673371
20
15.8763785
11
-13.5841909
21
15.7524313
0
LINE
8
layer0
10
-13.5841909
20
15.7524313
11
-13.1382041
21
15.6178948
0
LINE
8
layer0
10
-13.1382041
20
15.6178948
11
-12.7253178
21
15.4742543
0
LINE
8
layer0
10
-12.7253178
20
15.4742543
11
-12.3463754
21
15.3243379
0
LINE
8
layer0
10
-12.3463754
20
15.3243379
11
-12.002978
21
15.1715499
0
LINE
8
layer0
10
-12.002978
20
15.1715499
11
-11.6930641
21
15.0178088
0
LINE
8
layer0
10
-11.6930641
20
15.0178088
11
-11.4161566
21
14.8656584
0
LINE
8
layer0
10
-11.4161566
20
14.8656584
11
-11.1742567
21
14.7192819
0
LINE
8
layer0
10
-11.1742567
20
14.7192819
11
-10.9611037
21
14.5778233
0
LINE
8
layer0
10
-10.9611037
20
14.5778233
11
-10.604756
21
14.3261678
0
LINE
8
layer0
10
-10.604756
20
14.3261678
11
-10.4499196
21
14.2518086
0
LINE
8
layer0
10
-10.4499196
20
14.2518086
11
-10.3774571
21
14.2287506
0
LINE
8
layer0
10
-10.3774571
20
14.2287506
11
-10.3087763
21
14.21488
0
LINE
8
layer0
10
-10.3087763
20
14.21488
11
-10.2442179
21
14.2100412
0
LINE
8
layer0
10
-10.2442179
20
14.2100412
11
-10.1841425
21
14.2140535
0
LINE
8
layer0
10
-10.1841425
20
14.2140535
11
-10.1288798
21
14.2267086
0
LINE
8
layer0
10
-10.1288798
20
14.2267086
11
-10.0447678
21
14.2690675
0
LINE
8
layer0
10
-10.0447678
20
14.2690675
11
-9.6947006
21
14.5091447
0
LINE
8
layer0
10
-9.6947006
20
14.5091447
11
-9.3389332
21
14.7406911
0
LINE
8
layer0
10
-9.3389332
20
14.7406911
11
-9.2676104
21
14.8021904
0
LINE
8
layer0
10
-9.2676104
20
14.8021904
11
-9.2347705
21
14.8484036
0
LINE
8
layer0
10
-9.2347705
20
14.8484036
11
-9.2080738
21
14.9023706
0
LINE
8
layer0
10
-9.2080738
20
14.9023706
11
-9.1878388
21
14.9638665
0
LINE
8
layer0
10
-9.1878388
20
14.9638665
11
-9.1743705
21
15.0326274
0
LINE
8
layer0
10
-9.1743705
20
15.0326274
11
-9.1679431
21
15.1083979
0
LINE
8
layer0
10
-9.1679431
20
15.1083979
11
-9.1773888
21
15.2799041
0
LINE
8
layer0
10
-9.1773888
20
15.2799041
11
-9.2735197
21
15.7054308
0
LINE
8
layer0
10
-9.2735197
20
15.7054308
11
-9.3226404
21
15.9564924
0
LINE
8
layer0
10
-9.3226404
20
15.9564924
11
-9.3653035
21
16.2359946
0
LINE
8
layer0
10
-9.3653035
20
16.2359946
11
-9.3999042
21
16.5500492
0
LINE
8
layer0
10
-9.3999042
20
16.5500492
11
-9.4233436
21
16.8952065
0
LINE
8
layer0
10
-9.4233436
20
16.8952065
11
-9.4330888
21
17.2709338
0
LINE
8
layer0
10
-9.4330888
20
17.2709338
11
-9.4265785
21
17.6784014
0
LINE
8
layer0
10
-9.4265785
20
17.6784014
11
-9.4012803
21
18.1148274
0
LINE
8
layer0
10
-9.4012803
20
18.1148274
11
-9.354904
21
18.5783504
0
LINE
8
layer0
10
-9.354904
20
18.5783504
11
-9.2845243
21
19.0721518
0
LINE
8
layer0
10
-9.2845243
20
19.0721518
11
-9.1882137
21
19.5911333
0
LINE
8
layer0
10
-9.1882137
20
19.5911333
11
-9.0634291
21
20.1354666
0
LINE
8
layer0
10
-9.0634291
20
20.1354666
11
-8.9219324
21
20.6554698
0
ARC
8
layer0
10
0.0000061
20
-0.000014
40
22.5
50
111.6385333
51
113.361468
0
LINE
8
layer0
10
-8.2968638
20
20.9143816
11
-7.8291128
21
20.6467371
0
LINE
8
layer0
10
-7.8291128
20
20.6467371
11
-7.355975
21
20.3500714
0
LINE
8
layer0
10
-7.355975
20
20.3500714
11
-6.9208978
21
20.051198
0
LINE
8
layer0
10
-6.9208978
20
20.051198
11
-6.5219614
21
19.7517936
0
LINE
8
layer0
10
-6.5219614
20
19.7517936
11
-6.1614082
21
19.4568263
0
LINE
8
layer0
10
-6.1614082
20
19.4568263
11
-5.8349199
21
19.1661151
0
LINE
8
layer0
10
-5.8349199
20
19.1661151
11
-5.5421933
21
18.8825955
0
LINE
8
layer0
10
-5.5421933
20
18.8825955
11
-5.283405
21
18.6100252
0
LINE
8
layer0
10
-5.283405
20
18.6100252
11
-5.055916
21
18.3493881
0
LINE
8
layer0
10
-5.055916
20
18.3493881
11
-4.8583122
21
18.1028515
0
LINE
8
layer0
10
-4.8583122
20
18.1028515
11
-4.6908417
21
17.8750462
0
LINE
8
layer0
10
-4.6908417
20
17.8750462
11
-4.5480479
21
17.6627853
0
LINE
8
layer0
10
-4.5480479
20
17.6627853
11
-4.31513
21
17.2939177
0
LINE
8
layer0
10
-4.31513
20
17.2939177
11
-4.2005358
21
17.1659653
0
LINE
8
layer0
10
-4.2005358
20
17.1659653
11
-4.1424131
21
17.1169323
0
LINE
8
layer0
10
-4.1424131
20
17.1169323
11
-4.0842683
21
17.0778346
0
LINE
8
layer0
10
-4.0842683
20
17.0778346
11
-4.0264759
21
17.0486587
0
LINE
8
layer0
10
-4.0264759
20
17.0486587
11
-3.969438
21
17.0293757
0
LINE
8
layer0
10
-3.969438
20
17.0293757
11
-3.9135391
21
17.0199194
0
LINE
8
layer0
10
-3.9135391
20
17.0199194
11
-3.8196196
21
17.0268656
0
LINE
8
layer0
10
-3.8196196
20
17.0268656
11
-3.4043261
21
17.1147031
0
LINE
8
layer0
10
-3.4043261
20
17.1147031
11
-2.987031
21
17.1924778
0
LINE
8
layer0
10
-2.987031
20
17.1924778
11
-2.8976025
21
17.2220017
0
LINE
8
layer0
10
-2.8976025
20
17.2220017
11
-2.8495774
21
17.2521299
0
LINE
8
layer0
10
-2.8495774
20
17.2521299
11
-2.8042605
21
17.2917725
0
LINE
8
layer0
10
-2.8042605
20
17.2917725
11
-2.7620325
21
17.3408436
0
LINE
8
layer0
10
-2.7620325
20
17.3408436
11
-2.7232757
21
17.3992163
0
LINE
8
layer0
10
-2.7232757
20
17.3992163
11
-2.6883415
21
17.4667595
0
LINE
8
layer0
10
-2.6883415
20
17.4667595
11
-2.6314355
21
17.6288253
0
LINE
8
layer0
10
-2.6314355
20
17.6288253
11
-2.5574069
21
18.0587485
0
LINE
8
layer0
10
-2.5574069
20
18.0587485
11
-2.5067114
21
18.3094967
0
LINE
8
layer0
10
-2.5067114
20
18.3094967
11
-2.4391661
21
18.5840496
0
LINE
8
layer0
10
-2.4391661
20
18.5840496
11
-2.3509495
21
18.8874394
0
LINE
8
layer0
10
-2.3509495
20
18.8874394
11
-2.2405186
21
19.215293
0
LINE
8
layer0
10
-2.2405186
20
19.215293
11
-2.1057375
21
19.5661491
0
LINE
8
layer0
10
-2.1057375
20
19.5661491
11
-1.9437916
21
19.9401087
0
LINE
8
layer0
10
-1.9437916
20
19.9401087
11
-1.7534061
21
20.3336325
0
LINE
8
layer0
10
-1.7534061
20
20.3336325
11
-1.5331775
21
20.7441244
0
LINE
8
layer0
10
-1.5331775
20
20.7441244
11
-1.2791855
21
21.1734043
0
LINE
8
layer0
10
-1.2791855
20
21.1734043
11
-0.9916004
21
21.6160242
0
LINE
8
layer0
10
-0.9916004
20
21.6160242
11
-0.6680072
21
22.0711696
0
LINE
8
layer0
10
-0.6680072
20
22.0711696
11
-0.3382847
21
22.4974415
0
ARC
8
layer0
10
0
20
-0.0000153
40
22.5
50
89.1385326
51
90.8614674
0
LINE
8
layer0
10
0.3382847
20
22.4974415
11
0.6680072
21
22.0711696
0
LINE
8
layer0
10
0.6680072
20
22.0711696
11
0.9916004
21
21.6160242
0
LINE
8
layer0
10
0.9916004
20
21.6160242
11
1.2791855
21
21.1734043
0
LINE
8
layer0
10
1.2791855
20
21.1734043
11
1.5331775
21
20.7441244
0
LINE
8
layer0
10
1.5331775
20
20.7441244
11
1.7534061
21
20.3336325
0
LINE
8
layer0
10
1.7534061
20
20.3336325
11
1.9437916
21
19.9401087
0
LINE
8
layer0
10
1.9437916
20
19.9401087
11
2.1057375
21
19.5661491
0
LINE
8
layer0
10
2.1057375
20
19.5661491
11
2.2405186
21
19.215293
0
LINE
8
layer0
10
2.2405186
20
19.215293
11
2.3509495
21
18.8874394
0
LINE
8
layer0
10
2.3509495
20
18.8874394
11
2.4391661
21
18.5840496
0
LINE
8
layer0
10
2.4391661
20
18.5840496
11
2.5067114
21
18.3094967
0
LINE
8
layer0
10
2.5067114
20
18.3094967
11
2.5574069
21
18.0587485
0
LINE
8
layer0
10
2.5574069
20
18.0587485
11
2.6314355
21
17.6288253
0
LINE
8
layer0
10
2.6314355
20
17.6288253
11
2.6883415
21
17.4667595
0
LINE
8
layer0
10
2.6883415
20
17.4667595
11
2.7232757
21
17.3992163
0
LINE
8
layer0
10
2.7232757
20
17.3992163
11
2.7620325
21
17.3408436
0
LINE
8
layer0
10
2.7620325
20
17.3408436
11
2.8042605
21
17.2917725
0
LINE
8
layer0
10
2.8042605
20
17.2917725
11
2.8495774
21
17.2521299
0
LINE
8
layer0
10
2.8495774
20
17.2521299
11
2.8976025
21
17.2220017
0
LINE
8
layer0
10
2.8976025
20
17.2220017
11
2.987031
21
17.1924778
0
LINE
8
layer0
10
2.987031
20
17.1924778
11
3.4043261
21
17.1147031
0
LINE
8
layer0
10
3.4043261
20
17.1147031
11
3.8196196
21
17.0268656
0
LINE
8
layer0
10
3.8196196
20
17.0268656
11
3.9135391
21
17.0199194
0
LINE
8
layer0
10
3.9135391
20
17.0199194
11
3.969438
21
17.0293757
0
LINE
8
layer0
10
3.969438
20
17.0293757
11
4.0264759
21
17.0486587
0
LINE
8
layer0
10
4.0264759
20
17.0486587
11
4.0842683
21
17.0778346
0
LINE
8
layer0
10
4.0842683
20
17.0778346
11
4.1424131
21
17.1169323
0
LINE
8
layer0
10
4.1424131
20
17.1169323
11
4.2005358
21
17.1659653
0
LINE
8
layer0
10
4.2005358
20
17.1659653
11
4.31513
21
17.2939177
0
LINE
8
layer0
10
4.31513
20
17.2939177
11
4.5480479
21
17.6627853
0
LINE
8
layer0
10
4.5480479
20
17.6627853
11
4.6908417
21
17.8750462
0
LINE
8
layer0
10
4.6908417
20
17.8750462
11
4.8583122
21
18.1028515
0
LINE
8
layer0
10
4.8583122
20
18.1028515
11
5.055916
21
18.3493881
0
LINE
8
layer0
10
5.055916
20
18.3493881
11
5.283405
21
18.6100252
0
LINE
8
layer0
10
5.283405
20
18.6100252
11
5.5421933
21
18.8825955
0
LINE
8
layer0
10
5.5421933
20
18.8825955
11
5.8349199
21
19.1661151
0
LINE
8
layer0
10
5.8349199
20
19.1661151
11
6.1614082
21
19.4568263
0
LINE
8
layer0
10
6.1614082
20
19.4568263
11
6.5219614
21
19.7517936
0
LINE
8
layer0
10
6.5219614
20
19.7517936
11
6.9208978
21
20.051198
0
LINE
8
layer0
10
6.9208978
20
20.051198
11
7.355975
21
20.3500714
0
LINE
8
layer0
10
7.355975
20
20.3500714
11
7.8291128
21
20.6467371
0
LINE
8
layer0
10
7.8291128
20
20.6467371
11
8.2968638
21
20.9143816
0
ARC
8
layer0
10
-0.0000061
20
-0.0000141
40
22.5
50
66.638532
51
68.3614667
0
LINE
8
layer0
10
8.9219324
20
20.6554698
11
9.0634291
21
20.1354666
0
LINE
8
layer0
10
9.0634291
20
20.1354666
11
9.1882137
21
19.5911333
0
LINE
8
layer0
10
9.1882137
20
19.5911333
11
9.2845243
21
19.0721518
0
LINE
8
layer0
10
9.2845243
20
19.0721518
11
9.354904
21
18.5783504
0
LINE
8
layer0
10
9.354904
20
18.5783504
11
9.4012803
21
18.1148274
0
LINE
8
layer0
10
9.4012803
20
18.1148274
11
9.4265785
21
17.6784014
0
LINE
8
layer0
10
9.4265785
20
17.6784014
11
9.4330888
21
17.2709338
0
LINE
8
layer0
10
9.4330888
20
17.2709338
11
9.4233436
21
16.8952065
0
LINE
8
layer0
10
9.4233436
20
16.8952065
11
9.3999042
21
16.5500492
0
LINE
8
layer0
10
9.3999042
20
16.5500492
11
9.3653035
21
16.2359946
0
LINE
8
layer0
10
9.3653035
20
16.2359946
11
9.3226404
21
15.9564924
0
LINE
8
layer0
10
9.3226404
20
15.9564924
11
9.2735197
21
15.7054308
0
LINE
8
layer0
10
9.2735197
20
15.7054308
11
9.1773888
21
15.2799041
0
LINE
8
layer0
10
9.1773888
20
15.2799041
11
9.1679431
21
15.1083979
0
LINE
8
layer0
10
9.1679431
20
15.1083979
11
9.1743705
21
15.0326274
0
LINE
8
layer0
10
9.1743705
20
15.0326274
11
9.1878388
21
14.9638665
0
LINE
8
layer0
10
9.1878388
20
14.9638665
11
9.2080738
21
14.9023706
0
LINE
8
layer0
10
9.2080738
20
14.9023706
11
9.2347705
21
14.8484036
0
LINE
8
layer0
10
9.2347705
20
14.8484036
11
9.2676104
21
14.8021904
0
LINE
8
layer0
10
9.2676104
20
14.8021904
11
9.3389332
21
14.7406911
0
LINE
8
layer0
10
9.3389332
20
14.7406911
11
9.6947006
21
14.5091447
0
LINE
8
layer0
10
9.6947006
20
14.5091447
11
10.0447678
21
14.2690675
0
LINE
8
layer0
10
10.0447678
20
14.2690675
11
10.1288798
21
14.2267086
0
LINE
8
layer0
10
10.1288798
20
14.2267086
11
10.1841425
21
14.2140535
0
LINE
8
layer0
10
10.1841425
20
14.2140535
11
10.2442179
21
14.2100412
0
LINE
8
layer0
10
10.2442179
20
14.2100412
11
10.3087763
21
14.21488
0
LINE
8
layer0
10
10.3087763
20
14.21488
11
10.3774571
21
14.2287506
0
LINE
8
layer0
10
10.3774571
20
14.2287506
11
10.4499196
21
14.2518086
0
LINE
8
layer0
10
10.4499196
20
14.2518086
11
10.604756
21
14.3261678
0
LINE
8
layer0
10
10.604756
20
14.3261678
11
10.9611037
21
14.5778233
0
LINE
8
layer0
10
10.9611037
20
14.5778233
11
11.1742567
21
14.7192819
0
LINE
8
layer0
10
11.1742567
20
14.7192819
11
11.4161566
21
14.8656584
0
LINE
8
layer0
10
11.4161566
20
14.8656584
11
11.6930641
21
15.0178088
0
LINE
8
layer0
10
11.6930641
20
15.0178088
11
12.002978
21
15.1715499
0
LINE
8
layer0
10
12.002978
20
15.1715499
11
12.3463754
21
15.3243379
0
LINE
8
layer0
10
12.3463754
20
15.3243379
11
12.7253178
21
15.4742543
0
LINE
8
layer0
10
12.7253178
20
15.4742543
11
13.1382041
21
15.6178948
0
LINE
8
layer0
10
13.1382041
20
15.6178948
11
13.5841909
21
15.7524313
0
LINE
8
layer0
10
13.5841909
20
15.7524313
11
14.0673371
21
15.8763785
0
LINE
8
layer0
10
14.0673371
20
15.8763785
11
14.5836699
21
15.9860047
0
LINE
8
layer0
10
14.5836699
20
15.9860047
11
15.1343213
21
16.0790261
0
LINE
8
layer0
10
15.1343213
20
16.0790261
11
15.66889
21
16.1472968
0
ARC
8
layer0
10
-0.0000109
20
-0.0000109
40
22.5
50
44.1385326
51
45.8614674
0
LINE
8
layer0
10
16.1472968
20
15.66889
11
16.0790261
21
15.1343213
0
LINE
8
layer0
10
16.0790261
20
15.1343213
11
15.9860047
21
14.5836699
0
LINE
8
layer0
10
15.9860047
20
14.5836699
11
15.8763785
21
14.0673371
0
LINE
8
layer0
10
15.8763785
20
14.0673371
11
15.7524313
21
13.5841909
0
LINE
8
layer0
10
15.7524313
20
13.5841909
11
15.6178948
21
13.1382041
0
LINE
8
layer0
10
15.6178948
20
13.1382041
11
15.4742543
21
12.7253178
0
LINE
8
layer0
10
15.4742543
20
12.7253178
11
15.3243379
21
12.3463754
0
LINE
8
layer0
10
15.3243379
20
12.3463754
11
15.1715499
21
12.002978
0
LINE
8
layer0
10
15.1715499
20
12.002978
11
15.0178088
21
11.6930641
0
LINE
8
layer0
10
15.0178088
20
11.6930641
11
14.8656584
21
11.4161566
0
LINE
8
layer0
10
14.8656584
20
11.4161566
11
14.7192819
21
11.1742567
0
LINE
8
layer0
10
14.7192819
20
11.1742567
11
14.5778233
21
10.9611037
0
LINE
8
layer0
10
14.5778233
20
10.9611037
11
14.3261678
21
10.604756
0
LINE
8
layer0
10
14.3261678
20
10.604756
11
14.2518086
21
10.4499196
0
LINE
8
layer0
10
14.2518086
20
10.4499196
11
14.2287506
21
10.3774571
0
LINE
8
layer0
10
14.2287506
20
10.3774571
11
14.21488
21
10.3087763
0
LINE
8
layer0
10
14.21488
20
10.3087763
11
14.2100412
21
10.2442179
0
LINE
8
layer0
10
14.2100412
20
10.2442179
11
14.2140535
21
10.1841425
0
LINE
8
layer0
10
14.2140535
20
10.1841425
11
14.2267086
21
10.1288798
0
LINE
8
layer0
10
14.2267086
20
10.1288798
11
14.2690675
21
10.0447678
0
LINE
8
layer0
10
14.2690675
20
10.0447678
11
14.5091447
21
9.6947006
0
LINE
8
layer0
10
14.5091447
20
9.6947006
11
14.7406911
21
9.3389332
0
LINE
8
layer0
10
14.7406911
20
9.3389332
11
14.8021904
21
9.2676104
0
LINE
8
layer0
10
14.8021904
20
9.2676104
11
14.8484036
21
9.2347705
0
LINE
8
layer0
10
14.8484036
20
9.2347705
11
14.9023706
21
9.2080738
0
LINE
8
layer0
10
14.9023706
20
9.2080738
11
14.9638665
21
9.1878388
0
LINE
8
layer0
10
14.9638665
20
9.1878388
11
15.0326274
21
9.1743705
0
LINE
8
layer0
10
15.0326274
20
9.1743705
11
15.1083979
21
9.1679431
0
LINE
8
layer0
10
15.1083979
20
9.1679431
11
15.2799041
21
9.1773888
0
LINE
8
layer0
10
15.2799041
20
9.1773888
11
15.7054308
21
9.2735197
0
LINE
8
layer0
10
15.7054308
20
9.2735197
11
15.9564924
21
9.3226404
0
LINE
8
layer0
10
15.9564924
20
9.3226404
11
16.2359946
21
9.3653035
0
LINE
8
layer0
10
16.2359946
20
9.3653035
11
16.5500492
21
9.3999042
0
LINE
8
layer0
10
16.5500492
20
9.3999042
11
16.8952065
21
9.4233436
0
LINE
8
layer0
10
16.8952065
20
9.4233436
11
17.2709338
21
9.4330888
0
LINE
8
layer0
10
17.2709338
20
9.4330888
11
17.6784014
21
9.4265785
0
LINE
8
layer0
10
17.6784014
20
9.4265785
11
18.1148274
21
9.4012803
0
LINE
8
layer0
10
18.1148274
20
9.4012803
11
18.5783504
21
9.354904
0
LINE
8
layer0
10
18.5783504
20
9.354904
11
19.0721518
21
9.2845243
0
LINE
8
layer0
10
19.0721518
20
9.2845243
11
19.5911333
21
9.1882137
0
LINE
8
layer0
10
19.5911333
20
9.1882137
11
20.1354666
21
9.0634291
0
LINE
8
layer0
10
20.1354666
20
9.0634291
11
20.6554698
21
8.9219324
0
ARC
8
layer0
10
-0.000014
20
-0.0000061
40
22.5
50
21.6385333
51
23.361468
0
LINE
8
layer0
10
20.9143816
20
8.2968638
11
20.6467371
21
7.8291128
0
LINE
8
layer1
10
20.6467371
20
7.8291128
11
20.3500714
21
7.355975
0
LINE
8
layer1
10
20.3500714
20
7.355975
11
20.051198
21
6.9208978
0
LINE
8
layer1
10
20.051198
20
6.9208978
11
19.7517936
21
6.5219614
0
LINE
8
layer1
10
19.7517936
20
6.5219614
11
19.4568263
21
6.1614082
0
LINE
8
layer1
10
19.4568263
20
6.1614082
11
19.1661151
21
5.8349199
0
LINE
8
layer1
10
19.1661151
20
5.8349199
11
18.8825955
21
5.5421933
0
LINE
8
layer1
10
18.8825955
20
5.5421933
11
18.6100252
21
5.283405
0
LINE
8
layer1
10
18.6100252
20
5.283405
11
18.3493881
21
5.055916
0
LINE
8
layer1
10
18.3493881
20
5.055916
11
18.1028515
21
4.8583122
0
LINE
8
layer1
10
18.1028515
20
4.8583122
11
17.8750462
21
4.6908417
0
LINE
8
layer1
10
17.8750462
20
4.6908417
11
17.6627853
21
4.5480479
0
LINE
8
layer1
10
17.6627853
20
4.5480479
11
17.2939177
21
4.31513
0
LINE
8
layer1
10
17.2939177
20
4.31513
11
17.1659653
21
4.2005358
0
LINE
8
layer1
10
17.1659653
20
4.2005358
11
17.1169323
21
4.1424131
0
LINE
8
layer1
10
17.1169323
20
4.1424131
11
17.0778346
21
4.0842683
0
LINE
8
layer1
10
17.0778346
20
4.0842683
11
17.0486587
21
4.0264759
0
LINE
8
layer1
10
17.0486587
20
4.0264759
11
17.0293757
21
3.969438
0
LINE
8
layer1
10
17.0293757
20
3.969438
11
17.0199194
21
3.9135391
0
LINE
8
layer1
10
17.0199194
20
3.9135391
11
17.0268656
21
3.8196196
0
LINE
8
layer1
10
17.0268656
20
3.8196196
11
17.1147031
21
3.4043261
0
LINE
8
layer1
10
17.1147031
20
3.4043261
11
17.1924778
21
2.987031
0
LINE
8
layer1
10
17.1924778
20
2.987031
11
17.2220017
21
2.8976025
0
LINE
8
layer1
10
17.2220017
20
2.8976025
11
17.2521299
21
2.8495774
0
LINE
8
layer1
10
17.2521299
20
2.8495774
11
17.2917725
21
2.8042605
0
LINE
8
layer1
10
17.2917725
20
2.8042605
11
17.3408436
21
2.7620325
0
LINE
8
layer1
10
17.3408436
20
2.7620325
11
17.3992163
21
2.7232757
0
LINE
8
layer1
10
17.3992163
20
2.7232757
11
17.4667595
21
2.6883415
0
LINE
8
layer1
10
17.4667595
20
2.6883415
11
17.6288253
21
2.6314355
0
LINE
8
layer1
10
17.6288253
20
2.6314355
11
18.0587485
21
2.5574069
0
LINE
8
layer1
10
18.0587485
20
2.5574069
11
18.3094967
21
2.5067114
0
LINE
8
layer1
10
18.3094967
20
2.5067114
11
18.5840496
21
2.4391661
0
LINE
8
layer1
10
18.5840496
20
2.4391661
11
18.8874394
21
2.3509495
0
LINE
8
layer1
10
18.8874394
20
2.3509495
11
19.215293
21
2.2405186
0
LINE
8
layer1
10
19.215293
20
2.2405186
11
19.5661491
21
2.1057375
0
LINE
8
layer1
10
19.5661491
20
2.1057375
11
19.9401087
21
1.9437916
0
LINE
8
layer1
10
19.9401087
20
1.9437916
11
20.3336325
21
1.7534061
0
LINE
8
layer1
10
20.3336325
20
1.7534061
11
20.7441244
21
1.5331775
0
LINE
8
layer1
10
20.7441244
20
1.5331775
11
21.1734043
21
1.2791855
0
LINE
8
layer1
10
21.1734043
20
1.2791855
11
21.6160242
21
0.9916004
0
LINE
8
layer1
10
21.6160242
20
0.9916004
11
22.0711696
21
0.6680072
0
LINE
8
layer1
10
22.0711696
20
0.6680072
11
22.4974415
21
0.3382847
0
ARC
8
layer1
10
-0.0000153
20
0
40
22.5
50
359.1385326
51
360.8614674
0
LINE
8
layer1
10
22.4974415
20
-0.3382847
11
22.0711696
21
-0.6680072
0
LINE
8
layer1
10
22.0711696
20
-0.6680072
11
21.6160242
21
-0.9916004
0
LINE
8
layer1
10
21.6160242
20
-0.9916004
11
21.1734043
21
-1.2791855
0
LINE
8
layer1
10
21.1734043
20
-1.2791855
11
20.7441244
21
-1.5331775
0
LINE
8
layer1
10
20.7441244
20
-1.5331775
11
20.3336325
21
-1.7534061
0
LINE
8
layer1
10
20.3336325
20
-1.7534061
11
19.9401087
21
-1.9437916
0
LINE
8
layer1
10
19.9401087
20
-1.9437916
11
19.5661491
21
-2.1057375
0
LINE
8
layer1
10
19.5661491
20
-2.1057375
11
19.215293
21
-2.2405186
0
LINE
8
layer1
10
19.215293
20
-2.2405186
11
18.8874394
21
-2.3509495
0
LINE
8
layer1
10
18.8874394
20
-2.3509495
11
18.5840496
21
-2.4391661
0
LINE
8
layer1
10
18.5840496
20
-2.4391661
11
18.3094967
21
-2.5067114
0
LINE
8
layer1
10
18.3094967
20
-2.5067114
11
18.0587485
21
-2.5574069
0
LINE
8
layer1
10
18.0587485
20
-2.5574069
11
17.6288253
21
-2.6314355
0
LINE
8
layer1
10
17.6288253
20
-2.6314355
11
17.4667595
21
-2.6883415
0
LINE
8
layer1
10
17.4667595
20
-2.6883415
11
17.3992163
21
-2.7232757
0
LINE
8
layer1
10
17.3992163
20
-2.7232757
11
17.3408436
21
-2.7620325
0
LINE
8
layer1
10
17.3408436
20
-2.7620325
11
17.2917725
21
-2.8042605
0
LINE
8
layer1
10
17.2917725
20
-2.8042605
11
17.2521299
21
-2.8495774
0
LINE
8
layer1
10
17.2521299
20
-2.8495774
11
17.2220017
21
-2.8976025
0
LINE
8
layer1
10
17.2220017
20
-2.8976025
11
17.1924778
21
-2.987031
0
LINE
8
layer1
10
17.1924778
20
-2.987031
11
17.1147031
21
-3.4043261
0
LINE
8
layer1
10
17.1147031
20
-3.4043261
11
17.0268656
21
-3.8196196
0
LINE
8
layer1
10
17.0268656
20
-3.8196196
11
17.0199194
21
-3.9135391
0
LINE
8
layer1
10
17.0199194
20
-3.9135391
11
17.0293757
21
-3.969438
0
LINE
8
layer1
10
17.0293757
20
-3.969438
11
17.0486587
21
-4.0264759
0
LINE
8
layer1
10
17.0486587
20
-4.0264759
11
17.0778346
21
-4.0842683
0
LINE
8
layer1
10
17.0778346
20
-4.0842683
11
17.1169323
21
-4.1424131
0
LINE
8
layer1
10
17.1169323
20
-4.1424131
11
17.1659653
21
-4.2005358
0
LINE
8
layer1
10
17.1659653
20
-4.2005358
11
17.2939177
21
-4.31513
0
LINE
8
layer1
10
17.2939177
20
-4.31513
11
17.6627853
21
-4.5480479
0
LINE
8
layer1
10
17.6627853
20
-4.5480479
11
17.8750462
21
-4.6908417
0
LINE
8
layer1
10
17.8750462
20
-4.6908417
11
18.1028515
21
-4.8583122
0
LINE
8
layer1
10
18.1028515
20
-4.8583122
11
18.3493881
21
-5.055916
0
LINE
8
layer1
10
18.3493881
20
-5.055916
11
18.6100252
21
-5.283405
0
LINE
8
layer1
10
18.6100252
20
-5.283405
11
18.8825955
21
-5.5421933
0
LINE
8
layer1
10
18.8825955
20
-5.5421933
11
19.1661151
21
-5.8349199
0
LINE
8
layer1
10
19.1661151
20
-5.8349199
11
19.4568263
21
-6.1614082
0
LINE
8
layer1
10
19.4568263
20
-6.1614082
11
19.7517936
21
-6.5219614
0
LINE
8
layer1
10
19.7517936
20
-6.5219614
11
20.051198
21
-6.9208978
0
LINE
8
layer1
10
20.051198
20
-6.9208978
11
20.3500714
21
-7.355975
0
LINE
8
layer1
10
20.3500714
20
-7.355975
11
20.6467371
21
-7.8291128
0
LINE
8
layer1
10
20.6467371
20
-7.8291128
11
20.9143816
21
-8.2968638
0
ARC
8
layer1
10
-0.0000141
20
0.0000061
40
22.5
50
336.638532
51
338.3614667
0
LINE
8
layer1
10
20.6554698
20
-8.9219324
11
20.1354666
21
-9.0634291
0
LINE
8
layer1
10
20.1354666
20
-9.0634291
11
19.5911333
21
-9.1882137
0
LINE
8
layer1
10
19.5911333
20
-9.1882137
11
19.0721518
21
-9.2845243
0
LINE
8
layer1
10
19.0721518
20
-9.2845243
11
18.5783504
21
-9.354904
0
LINE
8
layer1
10
18.5783504
20
-9.354904
11
18.1148274
21
-9.4012803
0
LINE
8
layer1
10
18.1148274
20
-9.4012803
11
17.6784014
21
-9.4265785
0
LINE
8
layer1
10
17.6784014
20
-9.4265785
11
17.2709338
21
-9.4330888
0
LINE
8
layer1
10
17.2709338
20
-9.4330888
11
16.8952065
21
-9.4233436
0
LINE
8
layer1
10
16.8952065
20
-9.4233436
11
16.5500492
21
-9.3999042
0
LINE
8
layer1
10
16.5500492
20
-9.3999042
11
16.2359946
21
-9.3653035
0
LINE
8
layer1
10
16.2359946
20
-9.3653035
11
15.9564924
21
-9.3226404
0
LINE
8
layer1
10
15.9564924
20
-9.3226404
11
15.7054308
21
-9.2735197
0
LINE
8
layer1
10
15.7054308
20
-9.2735197
11
15.2799041
21
-9.1773888
0
LINE
8
layer1
10
15.2799041
20
-9.1773888
11
15.1083979
21
-9.1679431
0
LINE
8
layer1
10
15.1083979
20
-9.1679431
11
15.0326274
21
-9.1743705
0
LINE
8
layer1
10
15.0326274
20
-9.1743705
11
14.9638665
21
-9.1878388
0
LINE
8
layer1
10
14.9638665
20
-9.1878388
11
14.9023706
21
-9.2080738
0
LINE
8
layer1
10
14.9023706
20
-9.2080738
11
14.8484036
21
-9.2347705
0
LINE
8
layer1
10
14.8484036
20
-9.2347705
11
14.8021904
21
-9.2676104
0
LINE
8
layer1
10
14.8021904
20
-9.2676104
11
14.7406911
21
-9.3389332
0
LINE
8
layer1
10
14.7406911
20
-9.3389332
11
14.5091447
21
-9.6947006
0
LINE
8
layer1
10
14.5091447
20
-9.6947006
11
14.2690675
21
-10.0447678
0
LINE
8
layer1
10
14.2690675
20
-10.0447678
11
14.2267086
21
-10.1288798
0
LINE
8
layer1
10
14.2267086
20
-10.1288798
11
14.2140535
21
-10.1841425
0
LINE
8
layer1
10
14.2140535
20
-10.1841425
11
14.2100412
21
-10.2442179
0
LINE
8
layer1
10
14.2100412
20
-10.2442179
11
14.21488
21
-10.3087763
0
LINE
8
layer1
10
14.21488
20
-10.3087763
11
14.2287506
21
-10.3774571
0
LINE
8
layer1
10
14.2287506
20
-10.3774571
11
14.2518086
21
-10.4499196
0
LINE
8
layer1
10
14.2518086
20
-10.4499196
11
14.3261678
21
-10.604756
0
LINE
8
layer1
10
14.3261678
20
-10.604756
11
14.5778233
21
-10.9611037
0
LINE
8
layer1
10
14.5778233
20
-10.9611037
11
14.7192819
21
-11.1742567
0
LINE
8
layer1
10
14.7192819
20
-11.1742567
11
14.8656584
21
-11.4161566
0
LINE
8
layer1
10
14.8656584
20
-11.4161566
11
15.0178088
21
-11.6930641
0
LINE
8
layer1
10
15.0178088
20
-11.6930641
11
15.1715499
21
-12.002978
0
LINE
8
layer1
10
15.1715499
20
-12.002978
11
15.3243379
21
-12.3463754
0
LINE
8
layer1
10
15.3243379
20
-12.3463754
11
15.4742543
21
-12.7253178
0
LINE
8
layer1
10
15.4742543
20
-12.7253178
11
15.6178948
21
-13.1382041
0
LINE
8
layer1
10
15.6178948
20
-13.1382041
11
15.7524313
21
-13.5841909
0
LINE
8
layer1
10
15.7524313
20
-13.5841909
11
15.8763785
21
-14.0673371
0
LINE
8
layer1
10
15.8763785
20
-14.0673371
11
15.9860047
21
-14.5836699
0
LINE
8
layer1
10
15.9860047
20
-14.5836699
11
16.0790261
21
-15.1343213
0
LINE
8
layer1
10
16.0790261
20
-15.1343213
11
16.1472968
21
-15.66889
0
ARC
8
layer1
10
-0.0000109
20
0.0000109
40
22.5
50
314.1385326
51
315.8614674
0
LINE
8
layer1
10
15.66889
20
-16.1472968
11
15.1343213
21
-16.0790261
0
LINE
8
layer1
10
15.1343213
20
-16.0790261
11
14.5836699
21
-15.9860047
0
LINE
8
layer1
10
14.5836699
20
-15.9860047
11
14.0673371
21
-15.8763785
0
LINE
8
layer1
10
14.0673371
20
-15.8763785
11
13.5841909
21
-15.7524313
0
LINE
8
layer1
10
13.5841909
20
-15.7524313
11
13.1382041
21
-15.6178948
0
LINE
8
layer1
10
13.1382041
20
-15.6178948
11
12.7253178
21
-15.4742543
0
LINE
8
layer1
10
12.7253178
20
-15.4742543
11
12.3463754
21
-15.3243379
0
LINE
8
layer1
10
12.3463754
20
-15.3243379
11
12.002978
21
-15.1715499
0
LINE
8
layer1
10
12.002978
20
-15.1715499
11
11.6930641
21
-15.0178088
0
LINE
8
layer1
10
11.6930641
20
-15.0178088
11
11.4161566
21
-14.8656584
0
LINE
8
layer1
10
11.4161566
20
-14.8656584
11
11.1742567
21
-14.7192819
0
LINE
8
layer1
10
11.1742567
20
-14.7192819
11
10.9611037
21
-14.5778233
0
LINE
8
layer1
10
10.9611037
20
-14.5778233
11
10.604756
21
-14.3261678
0
LINE
8
layer1
10
10.604756
20
-14.3261678
11
10.4499196
21
-14.2518086
0
LINE
8
layer1
10
10.4499196
20
-14.2518086
11
10.3774571
21
-14.2287506
0
LINE
8
layer1
10
10.3774571
20
-14.2287506
11
10.3087763
21
-14.21488
0
LINE
8
layer1
10
10.3087763
20
-14.21488
11
10.2442179
21
-14.2100412
0
LINE
8
layer1
10
10.2442179
20
-14.2100412
11
10.1841425
21
-14.2140535
0
LINE
8
layer1
10
10.1841425
20
-14.2140535
11
10.1288798
21
-14.2267086
0
LINE
8
layer1
10
10.1288798
20
-14.2267086
11
10.0447678
21
-14.2690675
0
LINE
8
layer1
10
10.0447678
20
-14.2690675
11
9.6947006
21
-14.5091447
0
LINE
8
layer1
10
9.6947006
20
-14.5091447
11
9.3389332
21
-14.7406911
0
LINE
8
layer1
10
9.3389332
20
-14.7406911
11
9.2676104
21
-14.8021904
0
LINE
8
layer1
10
9.2676104
20
-14.8021904
11
9.2347705
21
-14.8484036
0
LINE
8
layer1
10
9.2347705
20
-14.8484036
11
9.2080738
21
-14.9023706
0
LINE
8
layer1
10
9.2080738
20
-14.9023706
11
9.1878388
21
-14.9638665
0
LINE
8
layer1
10
9.1878388
20
-14.9638665
11
9.1743705
21
-15.0326274
0
LINE
8
layer1
10
9.1743705
20
-15.0326274
11
9.1679431
21
-15.1083979
0
LINE
8
layer1
10
9.1679431
20
-15.1083979
11
9.1773888
21
-15.2799041
0
LINE
8
layer1
10
9.1773888
20
-15.2799041
11
9.2735197
21
-15.7054308
0
LINE
8
layer1
10
9.2735197
20
-15.7054308
11
9.3226404
21
-15.9564924
0
LINE
8
layer1
10
9.3226404
20
-15.9564924
11
9.3653035
21
-16.2359946
0
LINE
8
layer1
10
9.3653035
20
-16.2359946
11
9.3999042
21
-16.5500492
0
LINE
8
layer1
10
9.3999042
20
-16.5500492
11
9.4233436
21
-16.8952065
0
LINE
8
layer1
10
9.4233436
20
-16.8952065
11
9.4330888
21
-17.2709338
0
LINE
8
layer1
10
9.4330888
20
-17.2709338
11
9.4265785
21
-17.6784014
0
LINE
8
layer1
10
9.4265785
20
-17.6784014
11
9.4012803
21
-18.1148274
0
LINE
8
layer1
10
9.4012803
20
-18.1148274
11
9.354904
21
-18.5783504
0
LINE
8
layer1
10
9.354904
20
-18.5783504
11
9.2845243
21
-19.0721518
0
LINE
8
layer1
10
9.2845243
20
-19.0721518
11
9.1882137
21
-19.5911333
0
LINE
8
layer1
10
9.1882137
20
-19.5911333
11
9.0634291
21
-20.1354666
0
LINE
8
layer1
10
9.0634291
20
-20.1354666
11
8.9219324
21
-20.6554698
0
ARC
8
layer1
10
-0.0000061
20
0.000014
40
22.5
50
291.6385333
51
293.361468
0
LINE
8
layer1
10
8.2968638
20
-20.9143816
11
7.8291128
21
-20.6467371
0
LINE
8
layer1
10
7.8291128
20
-20.6467371
11
7.355975
21
-20.3500714
0
LINE
8
layer1
10
7.355975
20
-20.3500714
11
6.9208978
21
-20.051198
0
LINE
8
layer1
10
6.9208978
20
-20.051198
11
6.5219614
21
-19.7517936
0
LINE
8
layer1
10
6.5219614
20
-19.7517936
11
6.1614082
21
-19.4568263
0
LINE
8
layer1
10
6.1614082
20
-19.4568263
11
5.8349199
21
-19.1661151
0
LINE
8
layer1
10
5.8349199
20
-19.1661151
11
5.5421933
21
-18.8825955
0
LINE
8
layer1
10
5.5421933
20
-18.8825955
11
5.283405
21
-18.6100252
0
LINE
8
layer1
10
5.283405
20
-18.6100252
11
5.055916
21
-18.3493881
0
LINE
8
layer1
10
5.055916
20
-18.3493881
11
4.8583122
21
-18.1028515
0
LINE
8
layer1
10
4.8583122
20
-18.1028515
11
4.6908417
21
-17.8750462
0
LINE
8
layer1
10
4.6908417
20
-17.8750462
11
4.5480479
21
-17.6627853
0
LINE
8
layer1
10
4.5480479
20
-17.6627853
11
4.31513
21
-17.2939177
0
LINE
8
layer1
10
4.31513
20
-17.2939177
11
4.2005358
21
-17.1659653
0
LINE
8
layer1
10
4.2005358
20
-17.1659653
11
4.1424131
21
-17.1169323
0
LINE
8
layer1
10
4.1424131
20
-17.1169323
11
4.0842683
21
-17.0778346
0
LINE
8
layer1
10
4.0842683
20
-17.0778346
11
4.0264759
21
-17.0486587
0
LINE
8
layer1
10
4.0264759
20
-17.0486587
11
3.969438
21
-17.0293757
0
LINE
8
layer1
10
3.969438
20
-17.0293757
11
3.9135391
21
-17.0199194
0
LINE
8
layer1
10
3.9135391
20
-17.0199194
11
3.8196196
21
-17.0268656
0
LINE
8
layer1
10
3.8196196
20
-17.0268656
11
3.4043261
21
-17.1147031
0
LINE
8
layer1
10
3.4043261
20
-17.1147031
11
2.987031
21
-17.1924778
0
LINE
8
layer1
10
2.987031
20
-17.1924778
11
2.8976025
21
-17.2220017
0
LINE
8
layer1
10
2.8976025
20
-17.2220017
11
2.8495774
21
-17.2521299
0
LINE
8
layer1
10
2.8495774
20
-17.2521299
11
2.8042605
21
-17.2917725
0
LINE
8
layer1
10
2.8042605
20
-17.2917725
11
2.7620325
21
-17.3408436
0
LINE
8
layer1
10
2.7620325
20
-17.3408436
11
2.7232757
21
-17.3992163
0
LINE
8
layer1
10
2.7232757
20
-17.3992163
11
2.6883415
21
-17.4667595
0
LINE
8
layer1
10
2.6883415
20
-17.4667595
11
2.6314355
21
-17.6288253
0
LINE
8
layer1
10
2.6314355
20
-17.6288253
11
2.5574069
21
-18.0587485
0
LINE
8
layer1
10
2.5574069
20
-18.0587485
11
2.5067114
21
-18.3094967
0
LINE
8
layer1
10
2.5067114
20
-18.3094967
11
2.4391661
21
-18.5840496
0
LINE
8
layer1
10
2.4391661
20
-18.5840496
11
2.3509495
21
-18.8874394
0
LINE
8
layer1
10
2.3509495
20
-18.8874394
11
2.2405186
21
-19.215293
0
LINE
8
layer1
10
2.2405186
20
-19.215293
11
2.1057375
21
-19.5661491
0
LINE
8
layer1
10
2.1057375
20
-19.5661491
11
1.9437916
21
-19.9401087
0
LINE
8
layer1
10
1.9437916
20
-19.9401087
11
1.7534061
21
-20.3336325
0
LINE
8
layer1
10
1.7534061
20
-20.3336325
11
1.5331775
21
-20.7441244
0
LINE
8
layer1
10
1.5331775
20
-20.7441244
11
1.2791855
21
-21.1734043
0
LINE
8
layer1
10
1.2791855
20
-21.1734043
11
0.9916004
21
-21.6160242
0
LINE
8
layer1
10
0.9916004
20
-21.6160242
11
0.6680072
21
-22.0711696
0
LINE
8
layer1
10
0.6680072
20
-22.0711696
11
0.3382847
21
-22.4974415
0
ARC
8
layer1
10
0
20
0.0000153
40
22.5
50
269.1385326
51
270.8614674
0
LINE
8
layer1
10
-0.3382847
20
-22.4974415
11
-0.6680072
21
-22.0711696
0
LINE
8
layer1
10
-0.6680072
20
-22.0711696
11
-0.9916004
21
-21.6160242
0
LINE
8
layer1
10
-0.9916004
20
-21.6160242
11
-1.2791855
21
-21.1734043
0
LINE
8
layer1
10
-1.2791855
20
-21.1734043
11
-1.5331775
21
-20.7441244
0
LINE
8
layer1
10
-1.5331775
20
-20.7441244
11
-1.7534061
21
-20.3336325
0
LINE
8
layer1
10
-1.7534061
20
-20.3336325
11
-1.9437916
21
-19.9401087
0
LINE
8
layer1
10
-1.9437916
20
-19.9401087
11
-2.1057375
21
-19.5661491
0
LINE
8
layer1
10
-2.1057375
20
-19.5661491
11
-2.2405186
21
-19.215293
0
LINE
8
layer1
10
-2.2405186
20
-19.215293
11
-2.3509495
21
-18.8874394
0
LINE
8
layer1
10
-2.3509495
20
-18.8874394
11
-2.4391661
21
-18.5840496
0
LINE
8
layer1
10
-2.4391661
20
-18.5840496
11
-2.5067114
21
-18.3094967
0
LINE
8
layer1
10
-2.5067114
20
-18.3094967
11
-2.5574069
21
-18.0587485
0
LINE
8
layer1
10
-2.5574069
20
-18.0587485
11
-2.6314355
21
-17.6288253
0
LINE
8
layer1
10
-2.6314355
20
-17.6288253
11
-2.6883415
21
-17.4667595
0
LINE
8
layer1
10
-2.6883415
20
-17.4667595
11
-2.7232757
21
-17.3992163
0
LINE
8
layer1
10
-2.7232757
20
-17.3992163
11
-2.7620325
21
-17.3408436
0
LINE
8
layer1
10
-2.7620325
20
-17.3408436
11
-2.8042605
21
-17.2917725
0
LINE
8
layer1
10
-2.8042605
20
-17.2917725
11
-2.8495774
21
-17.2521299
0
LINE
8
layer1
10
-2.8495774
20
-17.2521299
11
-2.8976025
21
-17.2220017
0
LINE
8
layer1
10
-2.8976025
20
-17.2220017
11
-2.987031
21
-17.1924778
0
LINE
8
layer1
10
-2.987031
20
-17.1924778
11
-3.4043261
21
-17.1147031
0
LINE
8
layer1
10
-3.4043261
20
-17.1147031
11
-3.8196196
21
-17.0268656
0
LINE
8
layer1
10
-3.8196196
20
-17.0268656
11
-3.9135391
21
-17.0199194
0
LINE
8
layer1
10
-3.9135391
20
-17.0199194
11
-3.969438
21
-17.0293757
0
LINE
8
layer1
10
-3.969438
20
-17.0293757
11
-4.0264759
21
-17.0486587
0
LINE
8
layer1
10
-4.0264759
20
-17.0486587
11
-4.0842683
21
-17.0778346
0
LINE
8
layer1
10
-4.0842683
20
-17.0778346
11
-4.1424131
21
-17.1169323
0
LINE
8
layer1
10
-4.1424131
20
-17.1169323
11
-4.2005358
21
-17.1659653
0
LINE
8
layer1
10
-4.2005358
20
-17.1659653
11
-4.31513
21
-17.2939177
0
LINE
8
layer1
10
-4.31513
20
-17.2939177
11
-4.5480479
21
-17.6627853
0
LINE
8
layer1
10
-4.5480479
20
-17.6627853
11
-4.6908417
21
-17.8750462
0
LINE
8
layer1
10
-4.6908417
20
-17.8750462
11
-4.8583122
21
-18.1028515
0
LINE
8
layer1
10
-4.8583122
20
-18.1028515
11
-5.055916
21
-18.3493881
0
LINE
8
layer1
10
-5.055916
20
-18.3493881
11
-5.283405
21
-18.6100252
0
LINE
8
layer1
10
-5.283405
20
-18.6100252
11
-5.5421933
21
-18.8825955
0
LINE
8
layer1
10
-5.5421933
20
-18.8825955
11
-5.8349199
21
-19.1661151
0
LINE
8
layer1
10
-5.8349199
20
-19.1661151
11
-6.1614082
21
-19.4568263
0
LINE
8
layer1
10
-6.1614082
20
-19.4568263
11
-6.5219614
21
-19.7517936
0
LINE
8
layer1
10
-6.5219614
20
-19.7517936
11
-6.9208978
21
-20.051198
0
LINE
8
layer1
10
-6.9208978
20
-20.051198
11
-7.355975
21
-20.3500714
0
LINE
8
layer1
10
-7.355975
20
-20.3500714
11
-7.8291128
21
-20.6467371
0
LINE
8
layer1
10
-7.8291128
20
-20.6467371
11
-8.2968638
21
-20.9143816
0
ARC
8
layer1
10
0.0000061
20
0.0000141
40
22.5
50
246.638532
51
248.3614667
0
LINE
8
layer1
10
-8.9219324
20
-20.6554698
11
-9.0634291
21
-20.1354666
0
LINE
8
layer1
10
-9.0634291
20
-20.1354666
11
-9.1882137
21
-19.5911333
0
LINE
8
layer1
10
-9.1882137
20
-19.5911333
11
-9.2845243
21
-19.0721518
0
LINE
8
layer1
10
-9.2845243
20
-19.0721518
11
-9.354904
21
-18.5783504
0
LINE
8
layer1
10
-9.354904
20
-18.5783504
11
-9.4012803
21
-18.1148274
0
LINE
8
layer1
10
-9.4012803
20
-18.1148274
11
-9.4265785
21
-17.6784014
0
LINE
8
layer1
10
-9.4265785
20
-17.6784014
11
-9.4330888
21
-17.2709338
0
LINE
8
layer1
10
-9.4330888
20
-17.2709338
11
-9.4233436
21
-16.8952065
0
LINE
8
layer1
10
-9.4233436
20
-16.8952065
11
-9.3999042
21
-16.5500492
0
LINE
8
layer1
10
-9.3999042
20
-16.5500492
11
-9.3653035
21
-16.2359946
0
LINE
8
layer1
10
-9.3653035
20
-16.2359946
11
-9.3226404
21
-15.9564924
0
LINE
8
layer1
10
-9.3226404
20
-15.9564924
11
-9.2735197
21
-15.7054308
0
LINE
8
layer1
10
-9.2735197
20
-15.7054308
11
-9.1773888
21
-15.2799041
0
LINE
8
layer1
10
-9.1773888
20
-15.2799041
11
-9.1679431
21
-15.1083979
0
LINE
8
layer1
10
-9.1679431
20
-15.1083979
11
-9.1743705
21
-15.0326274
0
LINE
8
layer1
10
-9.1743705
20
-15.0326274
11
-9.1878388
21
-14.9638665
0
LINE
8
layer1
10
-9.1878388
20
-14.9638665
11
-9.2080738
21
-14.9023706
0
LINE
8
layer1
10
-9.2080738
20
-14.9023706
11
-9.2347705
21
-14.8484036
0
LINE
8
layer1
10
-9.2347705
20
-14.8484036
11
-9.2676104
21
-14.8021904
0
LINE
8
layer1
10
-9.2676104
20
-14.8021904
11
-9.3389332
21
-14.7406911
0
LINE
8
layer1
10
-9.3389332
20
-14.7406911
11
-9.6947006
21
-14.5091447
0
LINE
8
layer1
10
-9.6947006
20
-14.5091447
11
-10.0447678
21
-14.2690675
0
LINE
8
layer1
10
-10.0447678
20
-14.2690675
11
-10.1288798
21
-14.2267086
0
LINE
8
layer1
10
-10.1288798
20
-14.2267086
11
-10.1841425
21
-14.2140535
0
LINE
8
layer1
10
-10.1841425
20
-14.2140535
11
-10.2442179
21
-14.2100412
0
LINE
8
layer1
10
-10.2442179
20
-14.2100412
11
-10.3087763
21
-14.21488
0
LINE
8
layer1
10
-10.3087763
20
-14.21488
11
-10.3774571
21
-14.2287506
0
LINE
8
layer1
10
-10.3774571
20
-14.2287506
11
-10.4499196
21
-14.2518086
0
LINE
8
layer1
10
-10.4499196
20
-14.2518086
11
-10.604756
21
-14.3261678
0
LINE
8
layer1
10
-10.604756
20
-14.3261678
11
-10.9611037
21
-14.5778233
0
LINE
8
layer1
10
-10.9611037
20
-14.5778233
11
-11.1742567
21
-14.7192819
0
LINE
8
layer1
10
-11.1742567
20
-14.7192819
11
-11.4161566
21
-14.8656584
0
LINE
8
layer1
10
-11.4161566
20
-14.8656584
11
-11.6930641
21
-15.0178088
0
LINE
8
layer1
10
-11.6930641
20
-15.0178088
11
-12.002978
21
-15.1715499
0
LINE
8
layer1
10
-12.002978
20
-15.1715499
11
-12.3463754
21
-15.3243379
0
LINE
8
layer1
10
-12.3463754
20
-15.3243379
11
-12.7253178
21
-15.4742543
0
LINE
8
layer1
10
-12.7253178
20
-15.4742543
11
-13.1382041
21
-15.6178948
0
LINE
8
layer1
10
-13.1382041
20
-15.6178948
11
-13.5841909
21
-15.7524313
0
LINE
8
layer1
10
-13.5841909
20
-15.7524313
11
-14.0673371
21
-15.8763785
0
LINE
8
layer1
10
-14.0673371
20
-15.8763785
11
-14.5836699
21
-15.9860047
0
LINE
8
layer1
10
-14.5836699
20
-15.9860047
11
-15.1343213
21
-16.0790261
0
LINE
8
layer1
10
-15.1343213
20
-16.0790261
11
-15.66889
21
-16.1472968
0
ARC
8
layer1
10
0.0000109
20
0.0000109
40
22.5
50
224.1385326
51
225.8614674
0
LINE
8
layer1
10
-16.1472968
20
-15.66889
11
-16.0790261
21
-15.1343213
0
LINE
8
layer1
10
-16.0790261
20
-15.1343213
11
-15.9860047
21
-14.5836699
0
LINE
8
layer1
10
-15.9860047
20
-14.5836699
11
-15.8763785
21
-14.0673371
0
LINE
8
layer1
10
-15.8763785
20
-14.0673371
11
-15.7524313
21
-13.5841909
0
LINE
8
layer1
10
-15.7524313
20
-13.5841909
11
-15.6178948
21
-13.1382041
0
LINE
8
layer1
10
-15.6178948
20
-13.1382041
11
-15.4742543
21
-12.7253178
0
LINE
8
layer1
10
-15.4742543
20
-12.7253178
11
-15.3243379
21
-12.3463754
0
LINE
8
layer1
10
-15.3243379
20
-12.3463754
11
-15.1715499
21
-12.002978
0
LINE
8
layer1
10
-15.1715499
20
-12.002978
11
-15.0178088
21
-11.6930641
0
LINE
8
layer1
10
-15.0178088
20
-11.6930641
11
-14.8656584
21
-11.4161566
0
LINE
8
layer1
10
-14.8656584
20
-11.4161566
11
-14.7192819
21
-11.1742567
0
LINE
8
layer1
10
-14.7192819
20
-11.1742567
11
-14.5778233
21
-10.9611037
0
LINE
8
layer1
10
-14.5778233
20
-10.9611037
11
-14.3261678
21
-10.604756
0
LINE
8
layer1
10
-14.3261678
20
-10.604756
11
-14.2518086
21
-10.4499196
0
LINE
8
layer1
10
-14.2518086
20
-10.4499196
11
-14.2287506
21
-10.3774571
0
LINE
8
layer1
10
-14.2287506
20
-10.3774571
11
-14.21488
21
-10.3087763
0
LINE
8
layer1
10
-14.21488
20
-10.3087763
11
-14.2100412
21
-10.2442179
0
LINE
8
layer1
10
-14.2100412
20
-10.2442179
11
-14.2140535
21
-10.1841425
0
LINE
8
layer1
10
-14.2140535
20
-10.1841425
11
-14.2267086
21
-10.1288798
0
LINE
8
layer1
10
-14.2267086
20
-10.1288798
11
-14.2690675
21
-10.0447678
0
LINE
8
layer1
10
-14.2690675
20
-10.0447678
11
-14.5091447
21
-9.6947006
0
LINE
8
layer1
10
-14.5091447
20
-9.6947006
11
-14.7406911
21
-9.3389332
0
LINE
8
layer1
10
-14.7406911
20
-9.3389332
11
-14.8021904
21
-9.2676104
0
LINE
8
layer1
10
-14.8021904
20
-9.2676104
11
-14.8484036
21
-9.2347705
0
LINE
8
layer1
10
-14.8484036
20
-9.2347705
11
-14.9023706
21
-9.2080738
0
LINE
8
layer1
10
-14.9023706
20
-9.2080738
11
-14.9638665
21
-9.1878388
0
LINE
8
layer1
10
-14.9638665
20
-9.1878388
11
-15.0326274
21
-9.1743705
0
LINE
8
layer1
10
-15.0326274
20
-9.1743705
11
-15.1083979
21
-9.1679431
0
LINE
8
layer1
10
-15.1083979
20
-9.1679431
11
-15.2799041
21
-9.1773888
0
LINE
8
layer1
10
-15.2799041
20
-9.1773888
11
-15.7054308
21
-9.2735197
0
LINE
8
layer1
10
-15.7054308
20
-9.2735197
11
-15.9564924
21
-9.3226404
0
LINE
8
layer1
10
-15.9564924
20
-9.3226404
11
-16.2359946
21
-9.3653035
0
LINE
8
layer1
10
-16.2359946
20
-9.3653035
11
-16.5500492
21
-9.3999042
0
LINE
8
layer1
10
-16.5500492
20
-9.3999042
11
-16.8952065
21
-9.4233436
0
LINE
8
layer1
10
-16.8952065
20
-9.4233436
11
-17.2709338
21
-9.4330888
0
LINE
8
layer1
10
-17.2709338
20
-9.4330888
11
-17.6784014
21
-9.4265785
0
LINE
8
layer1
10
-17.6784014
20
-9.4265785
11
-18.1148274
21
-9.4012803
0
LINE
8
layer1
10
-18.1148274
20
-9.4012803
11
-18.5783504
21
-9.354904
0
LINE
8
layer1
10
-18.5783504
20
-9.354904
11
-19.0721518
21
-9.2845243
0
LINE
8
layer1
10
-19.0721518
20
-9.2845243
11
-19.5911333
21
-9.1882137
0
LINE
8
layer1
10
-19.5911333
20
-9.1882137
11
-20.1354666
21
-9.0634291
0
LINE
8
layer1
10
-20.1354666
20
-9.0634291
11
-20.6554698
21
-8.9219324
0
ARC
8
layer1
10
0.000014
20
0.0000061
40
22.5
50
201.6385333
51
203.361468
0
LINE
8
layer1
10
-20.9143816
20
-8.2968638
11
-20.6467371
21
-7.8291128
0
LINE
8
layer1
10
-20.6467371
20
-7.8291128
11
-20.3500714
21
-7.355975
0
LINE
8
layer1
10
-20.3500714
20
-7.355975
11
-20.051198
21
-6.9208978
0
LINE
8
layer1
10
-20.051198
20
-6.9208978
11
-19.7517936
21
-6.5219614
0
LINE
8
layer1
10
-19.7517936
20
-6.5219614
11
-19.4568263
21
-6.1614082
0
LINE
8
layer1
10
-19.4568263
20
-6.1614082
11
-19.1661151
21
-5.8349199
0
LINE
8
layer1
10
-19.1661151
20
-5.8349199
11
-18.8825955
21
-5.5421933
0
LINE
8
layer1
10
-18.8825955
20
-5.5421933
11
-18.6100252
21
-5.283405
0
LINE
8
layer1
10
-18.6100252
20
-5.283405
11
-18.3493881
21
-5.055916
0
LINE
8
layer1
10
-18.3493881
20
-5.055916
11
-18.1028515
21
-4.8583122
0
LINE
8
layer1
10
-18.1028515
20
-4.8583122
11
-17.8750462
21
-4.6908417
0
LINE
8
layer1
10
-17.8750462
20
-4.6908417
11
-17.6627853
21
-4.5480479
0
LINE
8
layer1
10
-17.6627853
20
-4.5480479
11
-17.2939177
21
-4.31513
0
LINE
8
layer1
10
-17.2939177
20
-4.31513
11
-17.1659653
21
-4.2005358
0
LINE
8
layer1
10
-17.1659653
20
-4.2005358
11
-17.1169323
21
-4.1424131
0
LINE
8
layer1
10
-17.1169323
20
-4.1424131
11
-17.0778346
21
-4.0842683
0
LINE
8
layer1
10
-17.0778346
20
-4.0842683
11
-17.0486587
21
-4.0264759
0
LINE
8
layer1
10
-17.0486587
20
-4.0264759
11
-17.0293757
21
-3.969438
0
LINE
8
layer1
10
-17.0293757
20
-3.969438
11
-17.0199194
21
-3.9135391
0
LINE
8
layer1
10
-17.0199194
20
-3.9135391
11
-17.0268656
21
-3.8196196
0
LINE
8
layer1
10
-17.0268656
20
-3.8196196
11
-17.1147031
21
-3.4043261
0
LINE
8
layer1
10
-17.1147031
20
-3.4043261
11
-17.1924778
21
-2.987031
0
LINE
8
layer1
10
-17.1924778
20
-2.987031
11
-17.2220017
21
-2.8976025
0
LINE
8
layer1
10
-17.2220017
20
-2.8976025
11
-17.2521299
21
-2.8495774
0
LINE
8
layer1
10
-17.2521299
20
-2.8495774
11
-17.2917725
21
-2.8042605
0
LINE
8
layer1
10
-17.2917725
20
-2.8042605
11
-17.3408436
21
-2.7620325
0
LINE
8
layer1
10
-17.3408436
20
-2.7620325
11
-17.3992163
21
-2.7232757
0
LINE
8
layer1
10
-17.3992163
20
-2.7232757
11
-17.4667595
21
-2.6883415
0
LINE
8
layer1
10
-17.4667595
20
-2.6883415
11
-17.6288253
21
-2.6314355
0
LINE
8
layer1
10
-17.6288253
20
-2.6314355
11
-18.0587485
21
-2.5574069
0
LINE
8
layer1
10
-18.0587485
20
-2.5574069
11
-18.3094967
21
-2.5067114
0
LINE
8
layer1
10
-18.3094967
20
-2.5067114
11
-18.5840496
21
-2.4391661
0
LINE
8
layer1
10
-18.5840496
20
-2.4391661
11
-18.8874394
21
-2.3509495
0
LINE
8
layer1
10
-18.8874394
20
-2.3509495
11
-19.215293
21
-2.2405186
0
LINE
8
layer1
10
-19.215293
20
-2.2405186
11
-19.5661491
21
-2.1057375
0
LINE
8
layer1
10
-19.5661491
20
-2.1057375
11
-19.9401087
21
-1.9437916
0
LINE
8
layer1
10
-19.9401087
20
-1.9437916
11
-20.3336325
21
-1.7534061
0
LINE
8
layer1
10
-20.3336325
20
-1.7534061
11
-20.7441244
21
-1.5331775
0
LINE
8
layer1
10
-20.7441244
20
-1.5331775
11
-21.1734043
21
-1.2791855
0
LINE
8
layer1
10
-21.1734043
20
-1.2791855
11
-21.6160242
21
-0.9916004
0
LINE
8
layer1
10
-21.6160242
20
-0.9916004
11
-22.0711696
21
-0.6680072
0
LINE
8
layer1
10
-22.0711696
20
-0.6680072
11
-22.4974415
21
-0.3382847
0
ARC
8
layer1
10
0.0000153
20
0
40
22.5
50
179.1385326
51
180.8614674
0
LINE
8
layer1
10
-22.4974415
20
0.3382847
11
-22.0711696
21
0.6680072
0
LINE
8
layer1
10
-22.0711696
20
0.6680072
11
-21.6160242
21
0.9916004
0
LINE
8
layer1
10
-21.6160242
20
0.9916004
11
-21.1734043
21
1.2791855
0
LINE
8
layer1
10
-21.1734043
20
1.2791855
11
-20.7441244
21
1.5331775
0
LINE
8
layer1
10
-20.7441244
20
1.5331775
11
-20.3336325
21
1.7534061
0
LINE
8
layer1
10
-20.3336325
20
1.7534061
11
-19.9401087
21
1.9437916
0
LINE
8
layer1
10
-19.9401087
20
1.9437916
11
-19.5661491
21
2.1057375
0
LINE
8
layer1
10
-19.5661491
20
2.1057375
11
-19.215293
21
2.2405186
0
LINE
8
layer1
10
-19.215293
20
2.2405186
11
-18.8874394
21
2.3509495
0
LINE
8
layer1
10
-18.8874394
20
2.3509495
11
-18.5840496
21
2.4391661
0
LINE
8
layer1
10
-18.5840496
20
2.4391661
11
-18.3094967
21
2.5067114
0
LINE
8
layer1
10
-18.3094967
20
2.5067114
11
-18.0587485
21
2.5574069
0
LINE
8
layer1
10
-18.0587485
20
2.5574069
11
-17.6288253
21
2.6314355
0
LINE
8
layer1
10
-17.6288253
20
2.6314355
11
-17.4667595
21
2.6883415
0
LINE
8
layer1
10
-17.4667595
20
2.6883415
11
-17.3992163
21
2.7232757
0
LINE
8
layer1
10
-17.3992163
20
2.7232757
11
-17.3408436
21
2.7620325
0
LINE
8
layer1
10
-17.3408436
20
2.7620325
11
-17.2917725
21
2.8042605
0
LINE
8
layer1
10
-17.2917725
20
2.8042605
11
-17.2521299
21
2.8495774
0
LINE
8
layer1
10
-17.2521299
20
2.8495774
11
-17.2220017
21
2.8976025
0
LINE
8
layer1
10
-17.2220017
20
2.8976025
11
-17.1924778
21
2.987031
0
LINE
8
layer1
10
-17.1924778
20
2.987031
11
-17.1147031
21
3.4043261
0
LINE
8
layer1
10
-17.1147031
20
3.4043261
11
-17.0268656
21
3.8196196
0
LINE
8
layer1
10
-17.0268656
20
3.8196196
11
-17.0199194
21
3.9135391
0
LINE
8
layer1
10
-17.0199194
20
3.9135391
11
-17.0293757
21
3.969438
0
LINE
8
layer1
10
-17.0293757
20
3.969438
11
-17.0486587
21
4.0264759
0
LINE
8
layer1
10
-17.0486587
20
4.0264759
11
-17.0778346
21
4.0842683
0
LINE
8
layer1
10
-17.0778346
20
4.0842683
11
-17.1169323
21
4.1424131
0
LINE
8
layer1
10
-17.1169323
20
4.1424131
11
-17.1659653
21
4.2005358
0
LINE
8
layer1
10
-17.1659653
20
4.2005358
11
-17.2939177
21
4.31513
0
LINE
8
layer1
10
-17.2939177
20
4.31513
11
-17.6627853
21
4.5480479
0
LINE
8
layer1
10
-17.6627853
20
4.5480479
11
-17.8750462
21
4.6908417
0
LINE
8
layer1
10
-17.8750462
20
4.6908417
11
-18.1028515
21
4.8583122
0
LINE
8
layer1
10
-18.1028515
20
4.8583122
11
-18.3493881
21
5.055916
0
LINE
8
layer1
10
-18.3493881
20
5.055916
11
-18.6100252
21
5.283405
0
LINE
8
layer1
10
-18.6100252
20
5.283405
11
-18.8825955
21
5.5421933
0
LINE
8
layer1
10
-18.8825955
20
5.5421933
11
-19.1661151
21
5.8349199
0
LINE
8
layer1
10
-19.1661151
20
5.8349199
11
-19.4568263
21
6.1614082
0
LINE
8
layer1
10
-19.4568263
20
6.1614082
11
-19.7517936
21
6.5219614
0
LINE
8
layer1
10
-19.7517936
20
6.5219614
11
-20.051198
21
6.9208978
0
LINE
8
layer1
10
-20.051198
20
6.9208978
11
-20.3500714
21
7.355975
0
LINE
8
layer1
10
-20.3500714
20
7.355975
11
-20.6467371
21
7.8291128
0
LINE
8
layer1
10
-20.6467371
20
7.8291128
11
-20.9143816
21
8.2968638
0
ARC
8
layer1
10
0.0000141
20
-0.0000061
40
22.5
50
156.638532
51
158.3614667
0
LINE
8
layer1
10
-20.6554698
20
8.9219324
11
-20.1354666
21
9.0634291
0
LINE
8
layer1
10
-20.1354666
20
9.0634291
11
-19.5911333
21
9.1882137
0
LINE
8
layer1
10
-19.5911333
20
9.1882137
11
-19.0721518
21
9.2845243
0
LINE
8
layer1
10
-19.0721518
20
9.2845243
11
-18.5783504
21
9.354904
0
LINE
8
layer1
10
-18.5783504
20
9.354904
11
-18.1148274
21
9.4012803
0
LINE
8
layer1
10
-18.1148274
20
9.4012803
11
-17.6784014
21
9.4265785
0
LINE
8
layer1
10
-17.6784014
20
9.4265785
11
-17.2709338
21
9.4330888
0
LINE
8
layer1
10
-17.2709338
20
9.4330888
11
-16.8952065
21
9.4233436
0
LINE
8
layer1
10
-16.8952065
20
9.4233436
11
-16.5500492
21
9.3999042
0
LINE
8
layer1
10
-16.5500492
20
9.3999042
11
-16.2359946
21
9.3653035
0
LINE
8
layer1
10
-16.2359946
20
9.3653035
11
-15.9564924
21
9.3226404
0
LINE
8
layer1
10
-15.9564924
20
9.3226404
11
-15.7054308
21
9.2735197
0
LINE
8
layer1
10
-15.7054308
20
9.2735197
11
-15.2799041
21
9.1773888
0
LINE
8
layer1
10
-15.2799041
20
9.1773888
11
-15.1083979
21
9.1679431
0
LINE
8
layer1
10
-15.1083979
20
9.1679431
11
-15.0326274
21
9.1743705
0
LINE
8
layer1
10
-15.0326274
20
9.1743705
11
-14.9638665
21
9.1878388
0
LINE
8
layer1
10
-14.9638665
20
9.1878388
11
-14.9023706
21
9.2080738
0
LINE
8
layer1
10
-14.9023706
20
9.2080738
11
-14.8484036
21
9.2347705
0
LINE
8
layer1
10
-14.8484036
20
9.2347705
11
-14.8021904
21
9.2676104
0
LINE
8
layer1
10
-14.8021904
20
9.2676104
11
-14.7406911
21
9.3389332
0
LINE
8
layer1
10
-14.7406911
20
9.3389332
11
-14.5091447
21
9.6947006
0
LINE
8
layer1
10
-14.5091447
20
9.6947006
11
-14.2690675
21
10.0447678
0
LINE
8
layer1
10
-14.2690675
20
10.0447678
11
-14.2267086
21
10.1288798
0
LINE
8
layer1
10
-14.2267086
20
10.1288798
11
-14.2140535
21
10.1841425
0
LINE
8
layer1
10
-14.2140535
20
10.1841425
11
-14.2100412
21
10.2442179
0
LINE
8
layer1
10
-14.2100412
20
10.2442179
11
-14.21488
21
10.3087763
0
LINE
8
layer1
10
-14.21488
20
10.3087763
11
-14.2287506
21
10.3774571
0
LINE
8
layer1
10
-14.2287506
20
10.3774571
11
-14.2518086
21
10.4499196
0
LINE
8
layer1
10
-14.2518086
20
10.4499196
11
-14.3261678
21
10.604756
0
LINE
8
layer1
10
-14.3261678
20
10.604756
11
-14.5778233
21
10.9611037
0
LINE
8
layer1
10
-14.5778233
20
10.9611037
11
-14.7192819
21
11.1742567
0
LINE
8
layer1
10
-14.7192819
20
11.1742567
11
-14.8656584
21
11.4161566
0
LINE
8
layer1
10
-14.8656584
20
11.4161566
11
-15.0178088
21
11.6930641
0
LINE
8
layer1
10
-15.0178088
20
11.6930641
11
-15.1715499
21
12.002978
0
LINE
8
layer1
10
-15.1715499
20
12.002978
11
-15.3243379
21
12.3463754
0
LINE
8
layer1
10
-15.3243379
20
12.3463754
11
-15.4742543
21
12.7253178
0
LINE
8
layer1
10
-15.4742543
20
12.7253178
11
-15.6178948
21
13.1382041
0
LINE
8
layer1
10
-15.6178948
20
13.1382041
11
-15.7524313
21
13.5841909
0
LINE
8
layer1
10
-15.7524313
20
13.5841909
11
-15.8763785
21
14.0673371
0
LINE
8
layer1
10
-15.8763785
20
14.0673371
11
-15.9860047
21
14.5836699
0
LINE
8
layer1
10
-15.9860047
20
14.5836699
11
-16.0790261
21
15.1343213
0
LINE
8
layer1
10
-16.0790261
20
15.1343213
11
-16.1472968
21
15.66889
0
ARC
8
layer1
10
0.0000109
20
-0.0000109
40
22.5
50
134.1385326
51
135.8614674
0
LINE
8
layer1
10
-15.66889
20
16.1472968
11
-15.1343213
21
16.0790261
0
LINE
8
layer1
10
-15.1343213
20
16.0790261
11
-14.5836699
21
15.9860047
0
LINE
8
layer1
10
-14.5836699
20
15.9860047
11
-14.0673371
21
15.8763785
0
LINE
8
layer1
10
-14.0673371
20
15.8763785
11
-13.5841909
21
15.7524313
0
LINE
8
layer1
10
-13.5841909
20
15.7524313
11
-13.1382041
21
15.6178948
0
LINE
8
layer1
10
-13.1382041
20
15.6178948
11
-12.7253178
21
15.4742543
0
LINE
8
layer1
10
-12.7253178
20
15.4742543
11
-12.3463754
21
15.3243379
0
LINE
8
layer1
10
-12.3463754
20
15.3243379
11
-12.002978
21
15.1715499
0
LINE
8
layer1
10
-12.002978
20
15.1715499
11
-11.6930641
21
15.0178088
0
LINE
8
layer1
10
-11.6930641
20
15.0178088
11
-11.4161566
21
14.8656584
0
LINE
8
layer1
10
-11.4161566
20
14.8656584
11
-11.1742567
21
14.7192819
0
LINE
8
layer1
10
-11.1742567
20
14.7192819
11
-10.9611037
21
14.5778233
0
LINE
8
layer1
10
-10.9611037
20
14.5778233
11
-10.604756
21
14.3261678
0
LINE
8
layer1
10
-10.604756
20
14.3261678
11
-10.4499196
21
14.2518086
0
LINE
8
layer1
10
-10.4499196
20
14.2518086
11
-10.3774571
21
14.2287506
0
LINE
8
layer1
10
-10.3774571
20
14.2287506
11
-10.3087763
21
14.21488
0
LINE
8
layer1
10
-10.3087763
20
14.21488
11
-10.2442179
21
14.2100412
0
LINE
8
layer1
10
-10.2442179
20
14.2100412
11
-10.1841425
21
14.2140535
0
LINE
8
layer1
10
-10.1841425
20
14.2140535
11
-10.1288798
21
14.2267086
0
LINE
8
layer1
10
-10.1288798
20
14.2267086
11
-10.0447678
21
14.2690675
0
LINE
8
layer1
10
-10.0447678
20
14.2690675
11
-9.6947006
21
14.5091447
0
LINE
8
layer1
10
-9.6947006
20
14.5091447
11
-9.3389332
21
14.7406911
0
LINE
8
layer1
10
-9.3389332
20
14.7406911
11
-9.2676104
21
14.8021904
0
LINE
8
layer1
10
-9.2676104
20
14.8021904
11
-9.2347705
21
14.8484036
0
LINE
8
layer1
10
-9.2347705
20
14.8484036
11
-9.2080738
21
14.9023706
0
LINE
8
layer1
10
-9.2080738
20
14.9023706
11
-9.1878388
21
14.9638665
0
LINE
8
layer1
10
-9.1878388
20
14.9638665
11
-9.1743705
21
15.0326274
0
LINE
8
layer1
10
-9.1743705
20
15.0326274
11
-9.1679431
21
15.1083979
0
LINE
8
layer1
10
-9.1679431
20
15.1083979
11
-9.1773888
21
15.2799041
0
LINE
8
layer1
10
-9.1773888
20
15.2799041
11
-9.2735197
21
15.7054308
0
LINE
8
layer1
10
-9.2735197
20
15.7054308
11
-9.3226404
21
15.9564924
0
LINE
8
layer1
10
-9.3226404
20
15.9564924
11
-9.3653035
21
16.2359946
0
LINE
8
layer1
10
-9.3653035
20
16.2359946
11
-9.3999042
21
16.5500492
0
LINE
8
layer1
10
-9.3999042
20
16.5500492
11
-9.4233436
21
16.8952065
0
LINE
8
layer1
10
-9.4233436
20
16.8952065
11
-9.4330888
21
17.2709338
0
LINE
8
layer1
10
-9.4330888
20
17.2709338
11
-9.4265785
21
17.6784014
0
LINE
8
layer1
10
-9.4265785
20
17.6784014
11
-9.4012803
21
18.1148274
0
LINE
8
layer1
10
-9.4012803
20
18.1148274
11
-9.354904
21
18.5783504
0
LINE
8
layer1
10
-9.354904
20
18.5783504
11
-9.2845243
21
19.0721518
0
LINE
8
layer1
10
-9.2845243
20
19.0721518
11
-9.1882137
21
19.5911333
0
LINE
8
layer1
10
-9.1882137
20
19.5911333
11
-9.0634291
21
20.1354666
0
LINE
8
layer1
10
-9.0634291
20
20.1354666
11
-8.9219324
21
20.6554698
0
ARC
8
layer1
10
0.0000061
20
-0.000014
40
22.5
50
111.6385333
51
113.361468
0
LINE
8
layer1
10
-8.2968638
20
20.9143816
11
-7.8291128
21
20.6467371
0
LINE
8
layer1
10
-7.8291128
20
20.6467371
11
-7.355975
21
20.3500714
0
LINE
8
layer1
10
-7.355975
20
20.3500714
11
-6.9208978
21
20.051198
0
LINE
8
layer1
10
-6.9208978
20
20.051198
11
-6.5219614
21
19.7517936
0
LINE
8
layer1
10
-6.5219614
20
19.7517936
11
-6.1614082
21
19.4568263
0
LINE
8
layer1
10
-6.1614082
20
19.4568263
11
-5.8349199
21
19.1661151
0
LINE
8
layer1
10
-5.8349199
20
19.1661151
11
-5.5421933
21
18.8825955
0
LINE
8
layer1
10
-5.5421933
20
18.8825955
11
-5.283405
21
18.6100252
0
LINE
8
layer1
10
-5.283405
20
18.6100252
11
-5.055916
21
18.3493881
0
LINE
8
layer1
10
-5.055916
20
18.3493881
11
-4.8583122
21
18.1028515
0
LINE
8
layer1
10
-4.8583122
20
18.1028515
11
-4.6908417
21
17.8750462
0
LINE
8
layer1
10
-4.6908417
20
17.8750462
11
-4.5480479
21
17.6627853
0
LINE
8
layer1
10
-4.5480479
20
17.6627853
11
-4.31513
21
17.2939177
0
LINE
8
layer1
10
-4.31513
20
17.2939177
11
-4.2005358
21
17.1659653
0
LINE
8
layer1
10
-4.2005358
20
17.1659653
11
-4.1424131
21
17.1169323
0
LINE
8
layer1
10
-4.1424131
20
17.1169323
11
-4.0842683
21
17.0778346
0
LINE
8
layer1
10
-4.0842683
20
17.0778346
11
-4.0264759
21
17.0486587
0
LINE
8
layer1
10
-4.0264759
20
17.0486587
11
-3.969438
21
17.0293757
0
LINE
8
layer1
10
-3.969438
20
17.0293757
11
-3.9135391
21
17.0199194
0
LINE
8
layer1
10
-3.9135391
20
17.0199194
11
-3.8196196
21
17.0268656
0
LINE
8
layer1
10
-3.8196196
20
17.0268656
11
-3.4043261
21
17.1147031
0
LINE
8
layer1
10
-3.4043261
20
17.1147031
11
-2.987031
21
17.1924778
0
LINE
8
layer1
10
-2.987031
20
17.1924778
11
-2.8976025
21
17.2220017
0
LINE
8
layer1
10
-2.8976025
20
17.2220017
11
-2.8495774
21
17.2521299
0
LINE
8
layer1
10
-2.8495774
20
17.2521299
11
-2.8042605
21
17.2917725
0
LINE
8
layer1
10
-2.8042605
20
17.2917725
11
-2.7620325
21
17.3408436
0
LINE
8
layer1
10
-2.7620325
20
17.3408436
11
-2.7232757
21
17.3992163
0
LINE
8
layer1
10
-2.7232757
20
17.3992163
11
-2.6883415
21
17.4667595
0
LINE
8
layer1
10
-2.6883415
20
17.4667595
11
-2.6314355
21
17.6288253
0
LINE
8
layer1
10
-2.6314355
20
17.6288253
11
-2.5574069
21
18.0587485
0
LINE
8
layer1
10
-2.5574069
20
18.0587485
11
-2.5067114
21
18.3094967
0
LINE
8
layer1
10
-2.5067114
20
18.3094967
11
-2.4391661
21
18.5840496
0
LINE
8
layer1
10
-2.4391661
20
18.5840496
11
-2.3509495
21
18.8874394
0
LINE
8
layer1
10
-2.3509495
20
18.8874394
11
-2.2405186
21
19.215293
0
LINE
8
layer1
10
-2.2405186
20
19.215293
11
-2.1057375
21
19.5661491
0
LINE
8
layer1
10
-2.1057375
20
19.5661491
11
-1.9437916
21
19.9401087
0
LINE
8
layer1
10
-1.9437916
20
19.9401087
11
-1.7534061
21
20.3336325
0
LINE
8
layer1
10
-1.7534061
20
20.3336325
11
-1.5331775
21
20.7441244
0
LINE
8
layer1
10
-1.5331775
20
20.7441244
11
-1.2791855
21
21.1734043
0
LINE
8
layer1
10
-1.2791855
20
21.1734043
11
-0.9916004
21
21.6160242
0
LINE
8
layer1
10
-0.9916004
20
21.6160242
11
-0.6680072
21
22.0711696
0
LINE
8
layer1
10
-0.6680072
20
22.0711696
11
-0.3382847
21
22.4974415
0
ARC
8
layer1
10
0
20
-0.0000153
40
22.5
50
89.1385326
51
90.8614674
0
LINE
8
layer1
10
0.3382847
20
22.4974415
11
0.6680072
21
22.0711696
0
LINE
8
layer1
10
0.6680072
20
22.0711696
11
0.9916004
21
21.6160242
0
LINE
8
layer1
10
0.9916004
20
21.6160242
11
1.2791855
21
21.1734043
0
LINE
8
layer1
10
1.2791855
20
21.1734043
11
1.5331775
21
20.7441244
0
LINE
8
layer1
10
1.5331775
20
20.7441244
11
1.7534061
21
20.3336325
0
LINE
8
layer1
10
1.7534061
20
20.3336325
11
1.9437916
21
19.9401087
0
LINE
8
layer1
10
1.9437916
20
19.9401087
11
2.1057375
21
19.5661491
0
LINE
8
layer1
10
2.1057375
20
19.5661491
11
2.2405186
21
19.215293
0
LINE
8
layer1
10
2.2405186
20
19.215293
11
2.3509495
21
18.8874394
0
LINE
8
layer1
10
2.3509495
20
18.8874394
11
2.4391661
21
18.5840496
0
LINE
8
layer1
10
2.4391661
20
18.5840496
11
2.5067114
21
18.3094967
0
LINE
8
layer1
10
2.5067114
20
18.3094967
11
2.5574069
21
18.0587485
0
LINE
8
layer1
10
2.5574069
20
18.0587485
11
2.6314355
21
17.6288253
0
LINE
8
layer1
10
2.6314355
20
17.6288253
11
2.6883415
21
17.4667595
0
LINE
8
layer1
10
2.6883415
20
17.4667595
11
2.7232757
21
17.3992163
0
LINE
8
layer1
10
2.7232757
20
17.3992163
11
2.7620325
21
17.3408436
0
LINE
8
layer1
10
2.7620325
20
17.3408436
11
2.8042605
21
17.2917725
0
LINE
8
layer1
10
2.8042605
20
17.2917725
11
2.8495774
21
17.2521299
0
LINE
8
layer1
10
2.8495774
20
17.2521299
11
2.8976025
21
17.2220017
0
LINE
8
layer1
10
2.8976025
20
17.2220017
11
2.987031
21
17.1924778
0
LINE
8
layer1
10
2.987031
20
17.1924778
11
3.4043261
21
17.1147031
0
LINE
8
layer1
10
3.4043261
20
17.1147031
11
3.8196196
21
17.0268656
0
LINE
8
layer1
10
3.8196196
20
17.0268656
11
3.9135391
21
17.0199194
0
LINE
8
layer1
10
3.9135391
20
17.0199194
11
3.969438
21
17.0293757
0
LINE
8
layer1
10
3.969438
20
17.0293757
11
4.0264759
21
17.0486587
0
LINE
8
layer1
10
4.0264759
20
17.0486587
11
4.0842683
21
17.0778346
0
LINE
8
layer1
10
4.0842683
20
17.0778346
11
4.1424131
21
17.1169323
0
LINE
8
layer1
10
4.1424131
20
17.1169323
11
4.2005358
21
17.1659653
0
LINE
8
layer1
10
4.2005358
20
17.1659653
11
4.31513
21
17.2939177
0
LINE
8
layer1
10
4.31513
20
17.2939177
11
4.5480479
21
17.6627853
0
LINE
8
layer1
10
4.5480479
20
17.6627853
11
4.6908417
21
17.8750462
0
LINE
8
layer1
10
4.6908417
20
17.8750462
11
4.8583122
21
18.1028515
0
LINE
8
layer1
10
4.8583122
20
18.1028515
11
5.055916
21
18.3493881
0
LINE
8
layer1
10
5.055916
20
18.3493881
11
5.283405
21
18.6100252
0
LINE
8
layer1
10
5.283405
20
18.6100252
11
5.5421933
21
18.8825955
0
LINE
8
layer1
10
5.5421933
20
18.8825955
11
5.8349199
21
19.1661151
0
LINE
8
layer1
10
5.8349199
20
19.1661151
11
6.1614082
21
19.4568263
0
LINE
8
layer1
10
6.1614082
20
19.4568263
11
6.5219614
21
19.7517936
0
LINE
8
layer1
10
6.5219614
20
19.7517936
11
6.9208978
21
20.051198
0
LINE
8
layer1
10
6.9208978
20
20.051198
11
7.355975
21
20.3500714
0
LINE
8
layer1
10
7.355975
20
20.3500714
11
7.8291128
21
20.6467371
0
LINE
8
layer1
10
7.8291128
20
20.6467371
11
8.2968638
21
20.9143816
0
ARC
8
layer1
10
-0.0000061
20
-0.0000141
40
22.5
50
66.638532
51
68.3614667
0
LINE
8
layer1
10
8.9219324
20
20.6554698
11
9.0634291
21
20.1354666
0
LINE
8
layer1
10
9.0634291
20
20.1354666
11
9.1882137
21
19.5911333
0
LINE
8
layer1
10
9.1882137
20
19.5911333
11
9.2845243
21
19.0721518
0
LINE
8
layer1
10
9.2845243
20
19.0721518
11
9.354904
21
18.5783504
0
LINE
8
layer1
10
9.354904
20
18.5783504
11
9.4012803
21
18.1148274
0
LINE
8
layer1
10
9.4012803
20
18.1148274
11
9.4265785
21
17.6784014
0
LINE
8
layer1
10
9.4265785
20
17.6784014
11
9.4330888
21
17.2709338
0
LINE
8
layer1
10
9.4330888
20
17.2709338
11
9.4233436
21
16.8952065
0
LINE
8
layer1
10
9.4233436
20
16.8952065
11
9.3999042
21
16.5500492
0
LINE
8
layer1
10
9.3999042
20
16.5500492
11
9.3653035
21
16.2359946
0
LINE
8
layer1
10
9.3653035
20
16.2359946
11
9.3226404
21
15.9564924
0
LINE
8
layer1
10
9.3226404
20
15.9564924
11
9.2735197
21
15.7054308
0
LINE
8
layer1
10
9.2735197
20
15.7054308
11
9.1773888
21
15.2799041
0
LINE
8
layer1
10
9.1773888
20
15.2799041
11
9.1679431
21
15.1083979
0
LINE
8
layer1
10
9.1679431
20
15.1083979
11
9.1743705
21
15.0326274
0
LINE
8
layer1
10
9.1743705
20
15.0326274
11
9.1878388
21
14.9638665
0
LINE
8
layer1
10
9.1878388
20
14.9638665
11
9.2080738
21
14.9023706
0
LINE
8
layer1
10
9.2080738
20
14.9023706
11
9.2347705
21
14.8484036
0
LINE
8
layer1
10
9.2347705
20
14.8484036
11
9.2676104
21
14.8021904
0
LINE
8
layer1
10
9.2676104
20
14.8021904
11
9.3389332
21
14.7406911
0
LINE
8
layer1
10
9.3389332
20
14.7406911
11
9.6947006
21
14.5091447
0
LINE
8
layer1
10
9.6947006
20
14.5091447
11
10.0447678
21
14.2690675
0
LINE
8
layer1
10
10.0447678
20
14.2690675
11
10.1288798
21
14.2267086
0
LINE
8
layer1
10
10.1288798
20
14.2267086
11
10.1841425
21
14.2140535
0
LINE
8
layer1
10
10.1841425
20
14.2140535
11
10.2442179
21
14.2100412
0
LINE
8
layer1
10
10.2442179
20
14.2100412
11
10.3087763
21
14.21488
0
LINE
8
layer1
10
10.3087763
20
14.21488
11
10.3774571
21
14.2287506
0
LINE
8
layer1
10
10.3774571
20
14.2287506
11
10.4499196
21
14.2518086
0
LINE
8
layer1
10
10.4499196
20
14.2518086
11
10.604756
21
14.3261678
0
LINE
8
layer1
10
10.604756
20
14.3261678
11
10.9611037
21
14.5778233
0
LINE
8
layer1
10
10.9611037
20
14.5778233
11
11.1742567
21
14.7192819
0
LINE
8
layer1
10
11.1742567
20
14.7192819
11
11.4161566
21
14.8656584
0
LINE
8
layer1
10
11.4161566
20
14.8656584
11
11.6930641
21
15.0178088
0
LINE
8
layer1
10
11.6930641
20
15.0178088
11
12.002978
21
15.1715499
0
LINE
8
layer1
10
12.002978
20
15.1715499
11
12.3463754
21
15.3243379
0
LINE
8
layer1
10
12.3463754
20
15.3243379
11
12.7253178
21
15.4742543
0
LINE
8
layer1
10
12.7253178
20
15.4742543
11
13.1382041
21
15.6178948
0
LINE
8
layer1
10
13.1382041
20
15.6178948
11
13.5841909
21
15.7524313
0
LINE
8
layer1
10
13.5841909
20
15.7524313
11
14.0673371
21
15.8763785
0
LINE
8
layer1
10
14.0673371
20
15.8763785
11
14.5836699
21
15.9860047
0
LINE
8
layer1
10
14.5836699
20
15.9860047
11
15.1343213
21
16.0790261
0
LINE
8
layer1
10
15.1343213
20
16.0790261
11
15.66889
21
16.1472968
0
ARC
8
layer1
10
-0.0000109
20
-0.0000109
40
22.5
50
44.1385326
51
45.8614674
0
LINE
8
layer1
10
16.1472968
20
15.66889
11
16.0790261
21
15.1343213
0
LINE
8
layer1
10
16.0790261
20
15.1343213
11
15.9860047
21
14.5836699
0
LINE
8
layer1
10
15.9860047
20
14.5836699
11
15.8763785
21
14.0673371
0
LINE
8
layer1
10
15.8763785
20
14.0673371
11
15.7524313
21
13.5841909
0
LINE
8
layer1
10
15.7524313
20
13.5841909
11
15.6178948
21
13.1382041
0
LINE
8
layer1
10
15.6178948
20
13.1382041
11
15.4742543
21
12.7253178
0
LINE
8
layer1
10
15.4742543
20
12.7253178
11
15.3243379
21
12.3463754
0
LINE
8
layer1
10
15.3243379
20
12.3463754
11
15.1715499
21
12.002978
0
LINE
8
layer1
10
15.1715499
20
12.002978
11
15.0178088
21
11.6930641
0
LINE
8
layer1
10
15.0178088
20
11.6930641
11
14.8656584
21
11.4161566
0
LINE
8
layer1
10
14.8656584
20
11.4161566
11
14.7192819
21
11.1742567
0
LINE
8
layer1
10
14.7192819
20
11.1742567
11
14.5778233
21
10.9611037
0
LINE
8
layer1
10
14.5778233
20
10.9611037
11
14.3261678
21
10.604756
0
LINE
8
layer1
10
14.3261678
20
10.604756
11
14.2518086
21
10.4499196
0
LINE
8
layer1
10
14.2518086
20
10.4499196
11
14.2287506
21
10.3774571
0
LINE
8
layer1
10
14.2287506
20
10.3774571
11
14.21488
21
10.3087763
0
LINE
8
layer1
10
14.21488
20
10.3087763
11
14.2100412
21
10.2442179
0
LINE
8
layer1
10
14.2100412
20
10.2442179
11
14.2140535
21
10.1841425
0
LINE
8
layer1
10
14.2140535
20
10.1841425
11
14.2267086
21
10.1288798
0
LINE
8
layer1
10
14.2267086
20
10.1288798
11
14.2690675
21
10.0447678
0
LINE
8
layer1
10
14.2690675
20
10.0447678
11
14.5091447
21
9.6947006
0
LINE
8
layer1
10
14.5091447
20
9.6947006
11
14.7406911
21
9.3389332
0
LINE
8
layer1
10
14.7406911
20
9.3389332
11
14.8021904
21
9.2676104
0
LINE
8
layer1
10
14.8021904
20
9.2676104
11
14.8484036
21
9.2347705
0
LINE
8
layer1
10
14.8484036
20
9.2347705
11
14.9023706
21
9.2080738
0
LINE
8
layer1
10
14.9023706
20
9.2080738
11
14.9638665
21
9.1878388
0
LINE
8
layer1
10
14.9638665
20
9.1878388
11
15.0326274
21
9.1743705
0
LINE
8
layer1
10
15.0326274
20
9.1743705
11
15.1083979
21
9.1679431
0
LINE
8
layer1
10
15.1083979
20
9.1679431
11
15.2799041
21
9.1773888
0
LINE
8
layer1
10
15.2799041
20
9.1773888
11
15.7054308
21
9.2735197
0
LINE
8
layer1
10
15.7054308
20
9.2735197
11
15.9564924
21
9.3226404
0
LINE
8
layer1
10
15.9564924
20
9.3226404
11
16.2359946
21
9.3653035
0
LINE
8
layer1
10
16.2359946
20
9.3653035
11
16.5500492
21
9.3999042
0
LINE
8
layer1
10
16.5500492
20
9.3999042
11
16.8952065
21
9.4233436
0
LINE
8
layer1
10
16.8952065
20
9.4233436
11
17.2709338
21
9.4330888
0
LINE
8
layer1
10
17.2709338
20
9.4330888
11
17.6784014
21
9.4265785
0
LINE
8
layer1
10
17.6784014
20
9.4265785
11
18.1148274
21
9.4012803
0
LINE
8
layer1
10
18.1148274
20
9.4012803
11
18.5783504
21
9.354904
0
LINE
8
layer1
10
18.5783504
20
9.354904
11
19.0721518
21
9.2845243
0
LINE
8
layer1
10
19.0721518
20
9.2845243
11
19.5911333
21
9.1882137
0
LINE
8
layer1
10
19.5911333
20
9.1882137
11
20.1354666
21
9.0634291
0
LINE
8
layer1
10
20.1354666
20
9.0634291
11
20.6554698
21
8.9219324
0
ARC
8
layer1
10
-0.000014
20
-0.0000061
40
22.5
50
21.6385333
51
23.361468
0
LINE
8
layer1
10
20.9143816
20
8.2968638
11
20.6467371
21
7.8291128
0
ENDSEC
0
EOF