<?xml version="1.0" encoding="UTF-8"?>
<svg viewBox="-25.75 -25.75 71.5 51.5" height="51.5mm" width="71.5mm" xmlns:svgjs="http://svgjs.com/svgjs" xmlns:xlink="http://www.w3.org/1999/xlink" version="1.1" xmlns="http://www.w3.org/2000/svg" id="SvgjsSvg1751">
  <defs id="SvgjsDefs1752">
  </defs>
  <defs id="SvgjsDefs1752">
  </defs>
  <g id="SvgjsG1753">
    <g transform="matrix(1,0,0,1,0,0)" id="SvgjsG1754">
      <g fill="none" stroke-width="0.04" stroke="blue" id="SvgjsG1755">
      </g>
      <g fill="none" stroke-width="0.1" stroke="black" id="SvgjsG1756">
        <circle cy="0" cx="0" r="1.5" id="SvgjsCircle1757">
        </circle>
        <path d="M20.64673712686903 -7.829112801842103  L20.350071388542176 -7.355974976781603 L20.051197970230913 -6.920897779002932 L19.751793618853007 -6.521961437745361 L19.456826343151324 -6.161408248513692 L19.16611512149232 -5.8349199210017755 L18.882595496946884 -5.542193326723744 L18.610025241338448 -5.283404961920475 L18.34938805913839 -5.055916034157351 L18.102851516598314 -4.858312239172575 L17.8750461777678 -4.690841723259133 L17.662785329545095 -4.548047943591472 L17.293917681248374 -4.315129981982566 L17.165965324394627 -4.200535820806827 L17.116932340056707 -4.14241314926708 L17.077834581381065 -4.084268318314178 L17.048658712065386 -4.026475923921194 L17.029375735244873 -3.969438034716389 L17.01991937354675 -3.913539107862341 L17.02686562736816 -3.8196196180966453 L17.11470314303637 -3.404326119181437 L17.192477801727648 -2.9870309935623434 L17.222001732703937 -2.8976024830094587 L17.25212986492289 -2.849577401551981 L17.291772467749002 -2.804260538893905 L17.34084364810389 -2.7620324503913674 L17.399216330594726 -2.72327569564043 L17.466759484685532 -2.6883414597755184 L17.628825335247022 -2.631435506819949 L18.058748450721907 -2.557406907073859 L18.309496717671955 -2.506711366623571 L18.584049599463974 -2.4391661136467904 L18.887439363645996 -2.3509494622164575 L19.215292965393488 -2.240518629469452 L19.566149065420554 -2.105737476952513 L19.940108661446228 -1.9437916309412144 L20.333632482807733 -1.7534061156806287 L20.744124443594487 -1.5331774932687208 L21.173404324144965 -1.279185457656253 L21.616024193524154 -0.9916004451282157 L22.07116960403759 -0.6680071555059568 L22.497441460208215 -0.33828469473033795 A22.5 22.5 0 0 1 22.497441460208215 0.3382846947303406 L22.07116960403759 0.6680071555059603 L21.616024193524154 0.9916004451282183 L21.173404324144965 1.2791854576562556 L20.744124443594487 1.5331774932687234 L20.333632482807733 1.7534061156806313 L19.940108661446228 1.943791630941217 L19.566149065420554 2.1057374769525157 L19.215292965393488 2.2405186294694546 L18.887439363645996 2.35094946221646 L18.584049599463974 2.439166113646793 L18.309496717671955 2.506711366623574 L18.058748450721907 2.557406907073861 L17.628825335247022 2.6314355068199515 L17.466759484685532 2.688341459775521 L17.399216330594726 2.723275695640432 L17.34084364810389 2.76203245039137 L17.291772467749002 2.8042605388939075 L17.25212986492289 2.8495774015519837 L17.222001732703937 2.897602483009461 L17.192477801727648 2.987030993562346 L17.11470314303637 3.404326119181439 L17.02686562736816 3.819619618096648 L17.01991937354675 3.913539107862343 L17.029375735244873 3.969438034716392 L17.048658712065386 4.026475923921197 L17.077834581381065 4.084268318314181 L17.116932340056707 4.142413149267082 L17.165965324394627 4.20053582080683 L17.293917681248374 4.315129981982569 L17.662785329545095 4.548047943591474 L17.8750461777678 4.690841723259135 L18.102851516598314 4.858312239172577 L18.34938805913839 5.055916034157354 L18.610025241338448 5.283404961920477 L18.882595496946884 5.542193326723746 L19.16611512149232 5.834919921001777 L19.456826343151324 6.161408248513695 L19.751793618853007 6.521961437745363 L20.051197970230913 6.920897779002933 L20.350071388542176 7.355974976781605 L20.64673712686903 7.829112801842107 L20.91438164705319 8.29686381180197 A22.5 22.5 0 0 1 20.655469750861226 8.921932423048347 L20.13546658464211 9.063429078928184 L19.591133264789345 9.188213688147687 L19.072151807096105 9.28452430423233 L18.57835036775505 9.354904049221231 L18.11482740179412 9.401280293428599 L17.67840141523008 9.426578527588422 L17.2709338062669 9.433088838320518 L16.895206522531854 9.423343569874612 L16.55004924010268 9.39990421437776 L16.235994595640374 9.365303536759317 L15.956492358311614 9.322640374332964 L15.705430823238666 9.273519739088542 L15.279904137653919 9.177388793731403 L15.108397850002081 9.167943122983065 L15.032627359088492 9.174370502442343 L14.96386646454201 9.187838816411345 L14.902370615525593 9.208073755347499 L14.848403613613062 9.234770509917537 L14.802190445891416 9.26761036267499 L14.740691080973473 9.338933213954855 L14.509144734679413 9.69470056619206 L14.269067510163133 10.044767767838485 L14.22670857572039 10.128879845882459 L14.214053521551278 10.184142513244582 L14.210041213945884 10.24421792741444 L14.214880010598963 10.308776259540897 L14.228750566123109 10.377457143267389 L14.251808553327798 10.449919600623375 L14.326167830033828 10.604756047778935 L14.577823255492762 10.961103723002282 L14.7192818949956 11.17425668336175 L14.865658393088204 11.416156594288037 L15.017808760243938 11.693064146323689 L15.171549874588539 12.002978042043258 L15.324337935217477 12.34637543651393 L15.474254295557433 12.725317808653049 L15.617894769320142 13.138204060176665 L15.752431266096181 13.584190861590374 L15.87637848991143 14.067337066903521 L15.986004688511164 14.58366989055564 L16.079026085272787 15.13432130619399 L16.147296817476057 15.668890014245171 A22.5 22.5 0 0 1 15.668890014245168 16.147296817476057 L15.134321306193987 16.079026085272787 L14.58366989055564 15.986004688511164 L14.067337066903518 15.87637848991143 L13.58419086159037 15.752431266096181 L13.138204060176664 15.617894769320142 L12.725317808653045 15.474254295557433 L12.346375436513927 15.324337935217477 L12.002978042043257 15.171549874588539 L11.693064146323685 15.017808760243938 L11.416156594288035 14.865658393088204 L11.174256683361747 14.7192818949956 L10.961103723002278 14.577823255492762 L10.604756047778933 14.326167830033828 L10.449919600623373 14.251808553327798 L10.377457143267387 14.228750566123109 L10.308776259540895 14.214880010598963 L10.244217927414438 14.210041213945884 L10.18414251324458 14.214053521551278 L10.128879845882457 14.22670857572039 L10.044767767838483 14.269067510163133 L9.694700566192058 14.509144734679413 L9.338933213954853 14.740691080973473 L9.267610362674988 14.802190445891416 L9.234770509917535 14.848403613613062 L9.208073755347497 14.902370615525593 L9.187838816411343 14.96386646454201 L9.174370502442342 15.032627359088492 L9.167943122983063 15.108397850002081 L9.177388793731401 15.279904137653919 L9.273519739088538 15.705430823238666 L9.322640374332963 15.956492358311614 L9.365303536759315 16.235994595640374 L9.39990421437776 16.55004924010268 L9.42334356987461 16.895206522531854 L9.433088838320515 17.2709338062669 L9.426578527588418 17.67840141523008 L9.401280293428597 18.11482740179412 L9.354904049221227 18.57835036775505 L9.284524304232326 19.072151807096105 L9.188213688147684 19.591133264789345 L9.063429078928182 20.13546658464211 L8.921932423048347 20.655469750861226 A22.5 22.5 0 0 1 8.296863811801968 20.91438164705319 L7.829112801842104 20.64673712686903 L7.355974976781603 20.350071388542176 L6.920897779002933 20.051197970230913 L6.521961437745361 19.751793618853007 L6.161408248513693 19.456826343151324 L5.8349199210017755 19.16611512149232 L5.542193326723745 18.882595496946884 L5.283404961920475 18.610025241338448 L5.055916034157352 18.34938805913839 L4.858312239172576 18.102851516598314 L4.690841723259133 17.8750461777678 L4.548047943591473 17.662785329545095 L4.315129981982568 17.293917681248374 L4.200535820806828 17.165965324394627 L4.142413149267081 17.116932340056707 L4.084268318314179 17.077834581381065 L4.026475923921195 17.048658712065386 L3.96943803471639 17.029375735244873 L3.913539107862342 17.01991937354675 L3.8196196180966466 17.02686562736816 L3.404326119181438 17.11470314303637 L2.9870309935623447 17.192477801727648 L2.8976024830094596 17.222001732703937 L2.849577401551982 17.25212986492289 L2.8042605388939057 17.291772467749002 L2.7620324503913682 17.34084364810389 L2.7232756956404307 17.399216330594726 L2.6883414597755193 17.466759484685532 L2.63143550681995 17.628825335247022 L2.55740690707386 18.058748450721907 L2.506711366623572 18.309496717671955 L2.4391661136467917 18.584049599463974 L2.350949462216459 18.887439363645996 L2.240518629469453 19.215292965393488 L2.1057374769525143 19.566149065420554 L1.9437916309412153 19.940108661446228 L1.75340611568063 20.333632482807733 L1.5331774932687217 20.744124443594487 L1.2791854576562547 21.173404324144965 L0.9916004451282165 21.616024193524154 L0.6680071555059577 22.07116960403759 L0.33828469473033884 22.497441460208215 A22.5 22.5 0 0 1 -0.33828469473033884 22.497441460208215 L-0.6680071555059577 22.07116960403759 L-0.9916004451282165 21.616024193524154 L-1.2791854576562547 21.173404324144965 L-1.5331774932687217 20.744124443594487 L-1.75340611568063 20.333632482807733 L-1.9437916309412153 19.940108661446228 L-2.1057374769525143 19.566149065420554 L-2.240518629469453 19.215292965393488 L-2.350949462216459 18.887439363645996 L-2.4391661136467917 18.584049599463974 L-2.506711366623572 18.309496717671955 L-2.55740690707386 18.058748450721907 L-2.63143550681995 17.628825335247022 L-2.6883414597755193 17.466759484685532 L-2.7232756956404307 17.399216330594726 L-2.7620324503913682 17.34084364810389 L-2.8042605388939057 17.291772467749002 L-2.849577401551982 17.25212986492289 L-2.8976024830094596 17.222001732703937 L-2.9870309935623447 17.192477801727648 L-3.404326119181438 17.11470314303637 L-3.8196196180966466 17.02686562736816 L-3.913539107862342 17.01991937354675 L-3.96943803471639 17.029375735244873 L-4.026475923921195 17.048658712065386 L-4.084268318314179 17.077834581381065 L-4.142413149267081 17.116932340056707 L-4.200535820806828 17.165965324394627 L-4.315129981982568 17.293917681248374 L-4.548047943591473 17.662785329545095 L-4.690841723259133 17.8750461777678 L-4.858312239172576 18.102851516598314 L-5.055916034157352 18.34938805913839 L-5.283404961920475 18.610025241338448 L-5.542193326723745 18.882595496946884 L-5.8349199210017755 19.16611512149232 L-6.161408248513693 19.456826343151324 L-6.521961437745361 19.751793618853007 L-6.920897779002933 20.051197970230913 L-7.355974976781603 20.350071388542176 L-7.829112801842104 20.64673712686903 L-8.296863811801968 20.91438164705319 A22.5 22.5 0 0 1 -8.921932423048347 20.655469750861226 L-9.063429078928182 20.13546658464211 L-9.188213688147684 19.591133264789345 L-9.284524304232326 19.072151807096105 L-9.354904049221227 18.57835036775505 L-9.401280293428597 18.11482740179412 L-9.426578527588418 17.67840141523008 L-9.433088838320515 17.2709338062669 L-9.42334356987461 16.895206522531854 L-9.39990421437776 16.55004924010268 L-9.365303536759315 16.235994595640374 L-9.322640374332963 15.956492358311614 L-9.273519739088538 15.705430823238666 L-9.177388793731401 15.279904137653919 L-9.167943122983063 15.108397850002081 L-9.174370502442342 15.032627359088492 L-9.187838816411343 14.96386646454201 L-9.208073755347497 14.902370615525593 L-9.234770509917535 14.848403613613062 L-9.267610362674988 14.802190445891416 L-9.338933213954853 14.740691080973473 L-9.694700566192058 14.509144734679413 L-10.044767767838483 14.269067510163133 L-10.128879845882457 14.22670857572039 L-10.18414251324458 14.214053521551278 L-10.244217927414438 14.210041213945884 L-10.308776259540895 14.214880010598963 L-10.377457143267387 14.228750566123109 L-10.449919600623373 14.251808553327798 L-10.604756047778933 14.326167830033828 L-10.961103723002278 14.577823255492762 L-11.174256683361747 14.7192818949956 L-11.416156594288035 14.865658393088204 L-11.693064146323685 15.017808760243938 L-12.002978042043257 15.171549874588539 L-12.346375436513927 15.324337935217477 L-12.725317808653045 15.474254295557433 L-13.138204060176664 15.617894769320142 L-13.58419086159037 15.752431266096181 L-14.067337066903518 15.87637848991143 L-14.58366989055564 15.986004688511164 L-15.134321306193987 16.079026085272787 L-15.668890014245168 16.147296817476057 A22.5 22.5 0 0 1 -16.147296817476057 15.668890014245171 L-16.079026085272787 15.13432130619399 L-15.986004688511164 14.58366989055564 L-15.87637848991143 14.067337066903521 L-15.752431266096181 13.584190861590374 L-15.617894769320142 13.138204060176665 L-15.474254295557433 12.725317808653049 L-15.324337935217477 12.34637543651393 L-15.171549874588539 12.002978042043258 L-15.017808760243938 11.693064146323689 L-14.865658393088204 11.416156594288037 L-14.7192818949956 11.17425668336175 L-14.577823255492762 10.961103723002282 L-14.326167830033828 10.604756047778935 L-14.251808553327798 10.449919600623375 L-14.228750566123109 10.377457143267389 L-14.214880010598963 10.308776259540897 L-14.210041213945884 10.24421792741444 L-14.214053521551278 10.184142513244582 L-14.22670857572039 10.128879845882459 L-14.269067510163133 10.044767767838485 L-14.509144734679413 9.69470056619206 L-14.740691080973473 9.338933213954855 L-14.802190445891416 9.26761036267499 L-14.848403613613062 9.234770509917537 L-14.902370615525593 9.208073755347499 L-14.96386646454201 9.187838816411345 L-15.032627359088492 9.174370502442343 L-15.108397850002081 9.167943122983065 L-15.279904137653919 9.177388793731403 L-15.705430823238666 9.273519739088542 L-15.956492358311614 9.322640374332964 L-16.235994595640374 9.365303536759317 L-16.55004924010268 9.39990421437776 L-16.895206522531854 9.423343569874612 L-17.2709338062669 9.433088838320518 L-17.67840141523008 9.426578527588422 L-18.11482740179412 9.401280293428599 L-18.57835036775505 9.354904049221231 L-19.072151807096105 9.28452430423233 L-19.591133264789345 9.188213688147687 L-20.13546658464211 9.063429078928184 L-20.655469750861226 8.921932423048347 A22.5 22.5 0 0 1 -20.91438164705319 8.29686381180197 L-20.64673712686903 7.829112801842107 L-20.350071388542176 7.355974976781605 L-20.051197970230913 6.920897779002933 L-19.751793618853007 6.521961437745363 L-19.456826343151324 6.161408248513695 L-19.16611512149232 5.834919921001777 L-18.882595496946884 5.542193326723746 L-18.610025241338448 5.283404961920477 L-18.34938805913839 5.055916034157354 L-18.102851516598314 4.858312239172577 L-17.8750461777678 4.690841723259135 L-17.662785329545095 4.548047943591474 L-17.293917681248374 4.315129981982569 L-17.165965324394627 4.20053582080683 L-17.116932340056707 4.142413149267082 L-17.077834581381065 4.084268318314181 L-17.048658712065386 4.026475923921197 L-17.029375735244873 3.969438034716392 L-17.01991937354675 3.913539107862343 L-17.02686562736816 3.819619618096648 L-17.11470314303637 3.404326119181439 L-17.192477801727648 2.987030993562346 L-17.222001732703937 2.897602483009461 L-17.25212986492289 2.8495774015519837 L-17.291772467749002 2.8042605388939075 L-17.34084364810389 2.76203245039137 L-17.399216330594726 2.723275695640432 L-17.466759484685532 2.688341459775521 L-17.628825335247022 2.6314355068199515 L-18.058748450721907 2.557406907073861 L-18.309496717671955 2.506711366623574 L-18.584049599463974 2.439166113646793 L-18.887439363645996 2.35094946221646 L-19.215292965393488 2.2405186294694546 L-19.566149065420554 2.1057374769525157 L-19.940108661446228 1.943791630941217 L-20.333632482807733 1.7534061156806313 L-20.744124443594487 1.5331774932687234 L-21.173404324144965 1.2791854576562556 L-21.616024193524154 0.9916004451282183 L-22.07116960403759 0.6680071555059603 L-22.497441460208215 0.3382846947303406 A22.5 22.5 0 0 1 -22.497441460208215 -0.33828469473033795 L-22.07116960403759 -0.6680071555059568 L-21.616024193524154 -0.9916004451282157 L-21.173404324144965 -1.279185457656253 L-20.744124443594487 -1.5331774932687208 L-20.333632482807733 -1.7534061156806287 L-19.940108661446228 -1.9437916309412144 L-19.566149065420554 -2.105737476952513 L-19.215292965393488 -2.240518629469452 L-18.887439363645996 -2.3509494622164575 L-18.584049599463974 -2.4391661136467904 L-18.309496717671955 -2.506711366623571 L-18.058748450721907 -2.557406907073859 L-17.628825335247022 -2.631435506819949 L-17.466759484685532 -2.6883414597755184 L-17.399216330594726 -2.72327569564043 L-17.34084364810389 -2.7620324503913674 L-17.291772467749002 -2.804260538893905 L-17.25212986492289 -2.849577401551981 L-17.222001732703937 -2.8976024830094587 L-17.192477801727648 -2.9870309935623434 L-17.11470314303637 -3.404326119181437 L-17.02686562736816 -3.8196196180966453 L-17.01991937354675 -3.913539107862341 L-17.029375735244873 -3.969438034716389 L-17.048658712065386 -4.026475923921194 L-17.077834581381065 -4.084268318314178 L-17.116932340056707 -4.14241314926708 L-17.165965324394627 -4.200535820806827 L-17.293917681248374 -4.315129981982566 L-17.662785329545095 -4.548047943591472 L-17.8750461777678 -4.690841723259133 L-18.102851516598314 -4.858312239172575 L-18.34938805913839 -5.055916034157351 L-18.610025241338448 -5.283404961920475 L-18.882595496946884 -5.542193326723744 L-19.16611512149232 -5.8349199210017755 L-19.456826343151324 -6.161408248513692 L-19.751793618853007 -6.521961437745361 L-20.051197970230913 -6.920897779002932 L-20.350071388542176 -7.355974976781603 L-20.64673712686903 -7.829112801842103 L-20.91438164705319 -8.296863811801966 A22.5 22.5 0 0 1 -20.65546975086123 -8.92193242304834 L-20.135466584642113 -9.063429078928177 L-19.591133264789345 -9.188213688147679 L-19.07215180709611 -9.28452430423232 L-18.578350367755057 -9.354904049221224 L-18.114827401794123 -9.401280293428592 L-17.678401415230084 -9.426578527588415 L-17.270933806266903 -9.433088838320511 L-16.895206522531858 -9.423343569874605 L-16.550049240102684 -9.399904214377754 L-16.235994595640378 -9.365303536759312 L-15.956492358311616 -9.32264037433296 L-15.705430823238672 -9.273519739088535 L-15.279904137653922 -9.177388793731396 L-15.108397850002085 -9.16794312298306 L-15.032627359088496 -9.174370502442336 L-14.963866464542013 -9.187838816411338 L-14.902370615525594 -9.208073755347494 L-14.848403613613064 -9.234770509917531 L-14.802190445891421 -9.267610362674985 L-14.740691080973479 -9.33893321395485 L-14.509144734679417 -9.694700566192054 L-14.269067510163138 -10.04476776783848 L-14.226708575720396 -10.128879845882453 L-14.214053521551284 -10.184142513244577 L-14.210041213945889 -10.244217927414434 L-14.214880010598966 -10.30877625954089 L-14.228750566123113 -10.377457143267382 L-14.251808553327802 -10.44991960062337 L-14.326167830033832 -10.604756047778931 L-14.577823255492767 -10.961103723002275 L-14.719281894995605 -11.174256683361744 L-14.865658393088207 -11.416156594288031 L-15.017808760243941 -11.693064146323684 L-15.171549874588543 -12.002978042043251 L-15.324337935217484 -12.346375436513924 L-15.474254295557436 -12.725317808653042 L-15.617894769320145 -13.138204060176658 L-15.75243126609619 -13.584190861590367 L-15.876378489911435 -14.067337066903516 L-15.986004688511168 -14.583669890555635 L-16.07902608527279 -15.134321306193982 L-16.14729681747606 -15.668890014245164 A22.5 22.5 0 0 1 -15.668890014245182 -16.147296817476047 L-15.134321306194 -16.079026085272773 L-14.583669890555651 -15.986004688511152 L-14.06733706690353 -15.876378489911417 L-13.584190861590383 -15.752431266096174 L-13.138204060176678 -15.617894769320129 L-12.725317808653058 -15.47425429555742 L-12.34637543651394 -15.324337935217468 L-12.002978042043269 -15.171549874588527 L-11.693064146323698 -15.017808760243929 L-11.416156594288047 -14.865658393088195 L-11.174256683361758 -14.719281894995591 L-10.961103723002289 -14.577823255492753 L-10.604756047778945 -14.32616783003382 L-10.449919600623385 -14.251808553327791 L-10.377457143267398 -14.228750566123102 L-10.308776259540906 -14.214880010598954 L-10.244217927414448 -14.210041213945875 L-10.184142513244593 -14.21405352155127 L-10.12887984588247 -14.226708575720384 L-10.044767767838495 -14.269067510163126 L-9.694700566192068 -14.509144734679406 L-9.338933213954865 -14.740691080973466 L-9.267610362675 -14.802190445891409 L-9.234770509917547 -14.848403613613053 L-9.208073755347508 -14.902370615525584 L-9.187838816411354 -14.963866464542 L-9.174370502442352 -15.032627359088485 L-9.167943122983075 -15.108397850002074 L-9.177388793731414 -15.27990413765391 L-9.273519739088552 -15.705430823238661 L-9.322640374332977 -15.956492358311605 L-9.365303536759328 -16.235994595640367 L-9.399904214377772 -16.550049240102673 L-9.423343569874623 -16.895206522531844 L-9.433088838320531 -17.270933806266893 L-9.426578527588434 -17.678401415230073 L-9.401280293428611 -18.114827401794113 L-9.354904049221243 -18.578350367755043 L-9.284524304232342 -19.0721518070961 L-9.188213688147702 -19.591133264789335 L-9.063429078928198 -20.135466584642103 L-8.92193242304836 -20.655469750861215 A22.5 22.5 0 0 1 -8.296863811801977 -20.914381647053187 L-7.829112801842112 -20.64673712686903 L-7.355974976781612 -20.350071388542176 L-6.9208977790029405 -20.05119797023091 L-6.52196143774537 -19.751793618853007 L-6.1614082485137 -19.456826343151324 L-5.834919921001783 -19.16611512149232 L-5.542193326723752 -18.882595496946884 L-5.283404961920482 -18.610025241338448 L-5.0559160341573595 -18.34938805913839 L-4.858312239172582 -18.102851516598314 L-4.69084172325914 -17.8750461777678 L-4.548047943591479 -17.662785329545095 L-4.315129981982574 -17.293917681248374 L-4.200535820806834 -17.165965324394627 L-4.142413149267087 -17.116932340056707 L-4.0842683183141855 -17.077834581381065 L-4.026475923921202 -17.048658712065386 L-3.969438034716397 -17.029375735244873 L-3.913539107862348 -17.01991937354675 L-3.819619618096653 -17.02686562736816 L-3.404326119181444 -17.11470314303637 L-2.987030993562351 -17.192477801727648 L-2.8976024830094658 -17.222001732703937 L-2.849577401551988 -17.25212986492289 L-2.8042605388939124 -17.291772467749002 L-2.762032450391375 -17.34084364810389 L-2.723275695640437 -17.399216330594726 L-2.688341459775526 -17.466759484685532 L-2.6314355068199564 -17.628825335247022 L-2.5574069070738665 -18.058748450721907 L-2.5067113666235787 -18.309496717671955 L-2.4391661136467984 -18.584049599463974 L-2.3509494622164655 -18.887439363645996 L-2.24051862946946 -19.215292965393488 L-2.1057374769525214 -19.566149065420554 L-1.9437916309412224 -19.940108661446228 L-1.753406115680637 -20.333632482807733 L-1.5331774932687297 -20.744124443594487 L-1.2791854576562618 -21.17340432414497 L-0.9916004451282245 -21.616024193524154 L-0.6680071555059657 -22.07116960403759 L-0.33828469473034684 -22.49744146020822 A22.5 22.5 0 0 1 0.3382846947303415 -22.497441460208215 L0.6680071555059603 -22.07116960403759 L0.9916004451282192 -21.616024193524154 L1.2791854576562565 -21.173404324144965 L1.5331774932687243 -20.744124443594487 L1.7534061156806322 -20.333632482807733 L1.9437916309412175 -19.940108661446228 L2.1057374769525166 -19.566149065420554 L2.240518629469455 -19.215292965393488 L2.350949462216461 -18.887439363645996 L2.4391661136467935 -18.584049599463974 L2.5067113666235743 -18.309496717671955 L2.5574069070738616 -18.058748450721907 L2.631435506819952 -17.628825335247022 L2.6883414597755215 -17.466759484685532 L2.7232756956404325 -17.399216330594726 L2.7620324503913705 -17.34084364810389 L2.804260538893908 -17.291772467749002 L2.8495774015519837 -17.25212986492289 L2.8976024830094613 -17.222001732703937 L2.9870309935623465 -17.192477801727648 L3.4043261191814396 -17.11470314303637 L3.8196196180966484 -17.02686562736816 L3.9135391078623436 -17.01991937354675 L3.9694380347163927 -17.029375735244873 L4.026475923921198 -17.048658712065386 L4.084268318314182 -17.077834581381065 L4.142413149267083 -17.116932340056707 L4.20053582080683 -17.165965324394627 L4.31512998198257 -17.293917681248374 L4.548047943591475 -17.662785329545095 L4.690841723259136 -17.8750461777678 L4.8583122391725775 -18.102851516598314 L5.055916034157354 -18.34938805913839 L5.2834049619204775 -18.610025241338448 L5.542193326723748 -18.882595496946884 L5.834919921001778 -19.16611512149232 L6.161408248513696 -19.456826343151324 L6.5219614377453645 -19.751793618853007 L6.920897779002935 -20.051197970230913 L7.3559749767816065 -20.350071388542176 L7.829112801842107 -20.64673712686903 L8.29686381180197 -20.91438164705319 A22.5 22.5 0 0 1 8.92193242304834 -20.65546975086123 L9.063429078928177 -20.135466584642113 L9.188213688147679 -19.591133264789345 L9.28452430423232 -19.07215180709611 L9.354904049221224 -18.578350367755057 L9.401280293428592 -18.114827401794123 L9.426578527588415 -17.678401415230084 L9.433088838320511 -17.270933806266903 L9.423343569874605 -16.895206522531858 L9.399904214377754 -16.550049240102684 L9.365303536759312 -16.235994595640378 L9.32264037433296 -15.956492358311616 L9.273519739088535 -15.705430823238672 L9.177388793731396 -15.279904137653922 L9.16794312298306 -15.108397850002085 L9.174370502442336 -15.032627359088496 L9.187838816411338 -14.963866464542013 L9.208073755347494 -14.902370615525594 L9.234770509917531 -14.848403613613064 L9.267610362674985 -14.802190445891421 L9.33893321395485 -14.740691080973479 L9.694700566192054 -14.509144734679417 L10.04476776783848 -14.269067510163138 L10.128879845882453 -14.226708575720396 L10.184142513244577 -14.214053521551284 L10.244217927414434 -14.210041213945889 L10.30877625954089 -14.214880010598966 L10.377457143267382 -14.228750566123113 L10.44991960062337 -14.251808553327802 L10.604756047778931 -14.326167830033832 L10.961103723002275 -14.577823255492767 L11.174256683361744 -14.719281894995605 L11.416156594288031 -14.865658393088207 L11.693064146323684 -15.017808760243941 L12.002978042043251 -15.171549874588543 L12.346375436513924 -15.324337935217484 L12.725317808653042 -15.474254295557436 L13.138204060176658 -15.617894769320145 L13.584190861590367 -15.75243126609619 L14.067337066903516 -15.876378489911435 L14.583669890555635 -15.986004688511168 L15.134321306193982 -16.07902608527279 L15.668890014245164 -16.14729681747606 A22.5 22.5 0 0 1 16.147296817476043 -15.668890014245186 L16.079026085272773 -15.134321306194002 L15.986004688511152 -14.583669890555655 L15.876378489911417 -14.067337066903534 L15.752431266096172 -13.584190861590384 L15.617894769320129 -13.13820406017668 L15.47425429555742 -12.72531780865306 L15.324337935217468 -12.346375436513942 L15.171549874588527 -12.00297804204327 L15.017808760243929 -11.6930641463237 L14.865658393088195 -11.416156594288049 L14.719281894995591 -11.174256683361762 L14.577823255492753 -10.96110372300229 L14.32616783003382 -10.604756047778947 L14.251808553327791 -10.449919600623387 L14.228750566123102 -10.3774571432674 L14.214880010598954 -10.308776259540908 L14.210041213945875 -10.24421792741445 L14.21405352155127 -10.184142513244595 L14.226708575720384 -10.128879845882471 L14.269067510163126 -10.044767767838497 L14.509144734679406 -9.694700566192072 L14.740691080973466 -9.338933213954867 L14.802190445891409 -9.267610362675002 L14.848403613613053 -9.23477050991755 L14.902370615525584 -9.20807375534751 L14.963866464542 -9.187838816411356 L15.032627359088485 -9.174370502442354 L15.108397850002074 -9.167943122983077 L15.27990413765391 -9.177388793731415 L15.705430823238661 -9.273519739088554 L15.956492358311605 -9.322640374332977 L16.235994595640367 -9.36530353675933 L16.550049240102673 -9.399904214377774 L16.895206522531844 -9.423343569874625 L17.270933806266893 -9.433088838320533 L17.678401415230073 -9.426578527588436 L18.114827401794113 -9.401280293428613 L18.578350367755043 -9.354904049221245 L19.0721518070961 -9.284524304232342 L19.591133264789335 -9.188213688147702 L20.135466584642103 -9.0634290789282 L20.65546975086122 -8.921932423048364 A22.5 22.5 0 0 1 20.91438164705319 -8.296863811801966 Z" id="SvgjsPath1758">
        </path>
      </g>
    </g>
  </g>
</svg>
