0
SECTION
2
HEADER
0
ENDSEC
0
SECTION
2
TABLES
0
TABLE
2
LTYPE
0
LTYPE
72
65
70
64
2
CONTINUOUS
3
______
73
0
40
0
0
ENDTAB
0
TABLE
2
LAYER
0
ENDTAB
0
ENDSEC
0
SECTION
2
ENTITIES
0
CIRCLE
8
0
10
0
20
0
40
1.5
0
CIRCLE
8
0
10
0
20
0
40
1.5
0
LINE
8
layer0
10
11.9500749
20
11.1471521
11
11.9240749
21
10.6732378
0
LINE
8
layer0
10
11.9240749
20
10.6732378
11
11.8801268
21
10.2204426
0
LINE
8
layer0
10
11.8801268
20
10.2204426
11
11.8203355
21
9.7918898
0
LINE
8
layer0
10
11.8203355
20
9.7918898
11
11.746074
21
9.3849442
0
LINE
8
layer0
10
11.746074
20
9.3849442
11
11.6593964
21
9.0015717
0
LINE
8
layer0
10
11.6593964
20
9.0015717
11
11.5620573
21
8.6417953
0
LINE
8
layer0
10
11.5620573
20
8.6417953
11
11.4557138
21
8.3052732
0
LINE
8
layer0
10
11.4557138
20
8.3052732
11
11.3426786
21
7.9936343
0
LINE
8
layer0
10
11.3426786
20
7.9936343
11
11.2227618
21
7.7018754
0
LINE
8
layer0
10
11.2227618
20
7.7018754
11
11.1015923
21
7.4389844
0
LINE
8
layer0
10
11.1015923
20
7.4389844
11
10.9777458
21
7.1973468
0
LINE
8
layer0
10
10.9777458
20
7.1973468
11
10.7313766
21
6.7821613
0
LINE
8
layer0
10
10.7313766
20
6.7821613
11
10.4990493
21
6.4560497
0
LINE
8
layer0
10
10.4990493
20
6.4560497
11
10.2917865
21
6.2111628
0
LINE
8
layer0
10
10.2917865
20
6.2111628
11
10.1224721
21
6.0419266
0
LINE
8
layer0
10
10.1224721
20
6.0419266
11
9.9386122
21
5.8943748
0
LINE
8
layer0
10
9.9386122
20
5.8943748
11
9.6639947
21
5.7160382
0
LINE
8
layer0
10
9.6639947
20
5.7160382
11
9.4687133
21
5.5596856
0
LINE
8
layer0
10
9.4687133
20
5.5596856
11
9.303387
21
5.3979896
0
LINE
8
layer0
10
9.303387
20
5.3979896
11
9.1680834
21
5.2331646
0
LINE
8
layer0
10
9.1680834
20
5.2331646
11
9.0627326
21
5.0674438
0
LINE
8
layer0
10
9.0627326
20
5.0674438
11
8.9871332
21
4.9030385
0
LINE
8
layer0
10
8.9871332
20
4.9030385
11
8.9409426
21
4.7421341
0
LINE
8
layer0
10
8.9409426
20
4.7421341
11
8.9237055
21
4.5869013
0
LINE
8
layer0
10
8.9237055
20
4.5869013
11
8.934824
21
4.4394631
0
LINE
8
layer0
10
8.934824
20
4.4394631
11
8.9874766
21
4.2693103
0
LINE
8
layer0
10
8.9874766
20
4.2693103
11
9.192509
21
3.8076619
0
LINE
8
layer0
10
9.192509
20
3.8076619
11
9.3739639
21
3.3362474
0
LINE
8
layer0
10
9.3739639
20
3.3362474
11
9.4570491
21
3.1787002
0
LINE
8
layer0
10
9.4570491
20
3.1787002
11
9.5534417
21
3.0665836
0
LINE
8
layer0
10
9.5534417
20
3.0665836
11
9.6753963
21
2.969006
0
LINE
8
layer0
10
9.6753963
20
2.969006
11
9.8218346
21
2.887891
0
LINE
8
layer0
10
9.8218346
20
2.887891
11
9.9915436
21
2.8250958
0
LINE
8
layer0
10
9.9915436
20
2.8250958
11
10.1832201
21
2.7824078
0
LINE
8
layer0
10
10.1832201
20
2.7824078
11
10.3954431
21
2.761533
0
LINE
8
layer0
10
10.3954431
20
2.761533
11
10.6266828
21
2.7641
0
LINE
8
layer0
10
10.6266828
20
2.7641
11
10.8753255
21
2.7916268
0
LINE
8
layer0
10
10.8753255
20
2.7916268
11
11.1956125
21
2.8597077
0
LINE
8
layer0
10
11.1956125
20
2.8597077
11
11.429956
21
2.8853814
0
LINE
8
layer0
10
11.429956
20
2.8853814
11
11.6693474
21
2.8854367
0
LINE
8
layer0
10
11.6693474
20
2.8854367
11
11.9890655
21
2.8588324
0
LINE
8
layer0
10
11.9890655
20
2.8588324
11
12.3839415
21
2.7925169
0
LINE
8
layer0
10
12.3839415
20
2.7925169
11
12.8517312
21
2.6731457
0
LINE
8
layer0
10
12.8517312
20
2.6731457
11
13.1101675
21
2.5898549
0
LINE
8
layer0
10
13.1101675
20
2.5898549
11
13.3817392
21
2.4896427
0
LINE
8
layer0
10
13.3817392
20
2.4896427
11
13.672838
21
2.3681319
0
LINE
8
layer0
10
13.672838
20
2.3681319
11
13.9731279
21
2.227698
0
LINE
8
layer0
10
13.9731279
20
2.227698
11
14.2862812
21
2.0649371
0
LINE
8
layer0
10
14.2862812
20
2.0649371
11
14.6095106
21
1.8793659
0
LINE
8
layer0
10
14.6095106
20
1.8793659
11
14.9418863
21
1.6695708
0
LINE
8
layer0
10
14.9418863
20
1.6695708
11
15.282151
21
1.4343277
0
LINE
8
layer0
10
15.282151
20
1.4343277
11
15.6274624
21
1.173574
0
LINE
8
layer0
10
15.6274624
20
1.173574
11
15.978713
21
0.8844754
0
LINE
8
layer0
10
15.978713
20
0.8844754
11
16.3322058
21
0.5677521
0
LINE
8
layer0
10
16.3322058
20
0.5677521
11
16.6646893
21
0.2444525
0
ARC
8
layer0
10
-0.0000179
20
0
40
16.6665
50
359.1595957
51
360.8404043
0
LINE
8
layer0
10
16.6646893
20
-0.2444525
11
16.3322058
21
-0.5677521
0
LINE
8
layer0
10
16.3322058
20
-0.5677521
11
15.978713
21
-0.8844754
0
LINE
8
layer0
10
15.978713
20
-0.8844754
11
15.6274624
21
-1.173574
0
LINE
8
layer0
10
15.6274624
20
-1.173574
11
15.282151
21
-1.4343277
0
LINE
8
layer0
10
15.282151
20
-1.4343277
11
14.9418863
21
-1.6695708
0
LINE
8
layer0
10
14.9418863
20
-1.6695708
11
14.6095106
21
-1.8793659
0
LINE
8
layer0
10
14.6095106
20
-1.8793659
11
14.2862812
21
-2.0649371
0
LINE
8
layer0
10
14.2862812
20
-2.0649371
11
13.9731279
21
-2.227698
0
LINE
8
layer0
10
13.9731279
20
-2.227698
11
13.672838
21
-2.3681319
0
LINE
8
layer0
10
13.672838
20
-2.3681319
11
13.3817392
21
-2.4896427
0
LINE
8
layer0
10
13.3817392
20
-2.4896427
11
13.1101675
21
-2.5898549
0
LINE
8
layer0
10
13.1101675
20
-2.5898549
11
12.8517312
21
-2.6731457
0
LINE
8
layer0
10
12.8517312
20
-2.6731457
11
12.3839415
21
-2.7925169
0
LINE
8
layer0
10
12.3839415
20
-2.7925169
11
11.9890655
21
-2.8588324
0
LINE
8
layer0
10
11.9890655
20
-2.8588324
11
11.6693474
21
-2.8854367
0
LINE
8
layer0
10
11.6693474
20
-2.8854367
11
11.429956
21
-2.8853814
0
LINE
8
layer0
10
11.429956
20
-2.8853814
11
11.1956125
21
-2.8597077
0
LINE
8
layer0
10
11.1956125
20
-2.8597077
11
10.8753255
21
-2.7916268
0
LINE
8
layer0
10
10.8753255
20
-2.7916268
11
10.6266828
21
-2.7641
0
LINE
8
layer0
10
10.6266828
20
-2.7641
11
10.3954431
21
-2.761533
0
LINE
8
layer0
10
10.3954431
20
-2.761533
11
10.1832201
21
-2.7824078
0
LINE
8
layer0
10
10.1832201
20
-2.7824078
11
9.9915436
21
-2.8250958
0
LINE
8
layer0
10
9.9915436
20
-2.8250958
11
9.8218346
21
-2.887891
0
LINE
8
layer0
10
9.8218346
20
-2.887891
11
9.6753963
21
-2.969006
0
LINE
8
layer0
10
9.6753963
20
-2.969006
11
9.5534417
21
-3.0665836
0
LINE
8
layer0
10
9.5534417
20
-3.0665836
11
9.4570491
21
-3.1787002
0
LINE
8
layer0
10
9.4570491
20
-3.1787002
11
9.3739639
21
-3.3362474
0
LINE
8
layer0
10
9.3739639
20
-3.3362474
11
9.192509
21
-3.8076619
0
LINE
8
layer0
10
9.192509
20
-3.8076619
11
8.9874766
21
-4.2693103
0
LINE
8
layer0
10
8.9874766
20
-4.2693103
11
8.934824
21
-4.4394631
0
LINE
8
layer0
10
8.934824
20
-4.4394631
11
8.9237055
21
-4.5869013
0
LINE
8
layer0
10
8.9237055
20
-4.5869013
11
8.9409426
21
-4.7421341
0
LINE
8
layer0
10
8.9409426
20
-4.7421341
11
8.9871332
21
-4.9030385
0
LINE
8
layer0
10
8.9871332
20
-4.9030385
11
9.0627326
21
-5.0674438
0
LINE
8
layer0
10
9.0627326
20
-5.0674438
11
9.1680834
21
-5.2331646
0
LINE
8
layer0
10
9.1680834
20
-5.2331646
11
9.303387
21
-5.3979896
0
LINE
8
layer0
10
9.303387
20
-5.3979896
11
9.4687133
21
-5.5596856
0
LINE
8
layer0
10
9.4687133
20
-5.5596856
11
9.6639947
21
-5.7160382
0
LINE
8
layer0
10
9.6639947
20
-5.7160382
11
9.9386122
21
-5.8943748
0
LINE
8
layer0
10
9.9386122
20
-5.8943748
11
10.1224721
21
-6.0419266
0
LINE
8
layer0
10
10.1224721
20
-6.0419266
11
10.2917865
21
-6.2111628
0
LINE
8
layer0
10
10.2917865
20
-6.2111628
11
10.4990493
21
-6.4560497
0
LINE
8
layer0
10
10.4990493
20
-6.4560497
11
10.7313766
21
-6.7821613
0
LINE
8
layer0
10
10.7313766
20
-6.7821613
11
10.9777458
21
-7.1973468
0
LINE
8
layer0
10
10.9777458
20
-7.1973468
11
11.1015923
21
-7.4389844
0
LINE
8
layer0
10
11.1015923
20
-7.4389844
11
11.2227618
21
-7.7018754
0
LINE
8
layer0
10
11.2227618
20
-7.7018754
11
11.3426786
21
-7.9936343
0
LINE
8
layer0
10
11.3426786
20
-7.9936343
11
11.4557138
21
-8.3052732
0
LINE
8
layer0
10
11.4557138
20
-8.3052732
11
11.5620573
21
-8.6417953
0
LINE
8
layer0
10
11.5620573
20
-8.6417953
11
11.6593964
21
-9.0015717
0
LINE
8
layer0
10
11.6593964
20
-9.0015717
11
11.746074
21
-9.3849442
0
LINE
8
layer0
10
11.746074
20
-9.3849442
11
11.8203355
21
-9.7918898
0
LINE
8
layer0
10
11.8203355
20
-9.7918898
11
11.8801268
21
-10.2204426
0
LINE
8
layer0
10
11.8801268
20
-10.2204426
11
11.9240749
21
-10.6732378
0
LINE
8
layer0
10
11.9240749
20
-10.6732378
11
11.9500749
21
-11.1471521
0
LINE
8
layer0
10
11.9500749
20
-11.1471521
11
11.9565688
21
-11.6108608
0
ARC
8
layer0
10
-0.0000126
20
0.0000127
40
16.6665
50
314.1595955
51
315.840404
0
LINE
8
layer0
10
11.6108608
20
-11.9565688
11
11.1471521
21
-11.9500749
0
LINE
8
layer0
10
11.1471521
20
-11.9500749
11
10.6732378
21
-11.9240749
0
LINE
8
layer0
10
10.6732378
20
-11.9240749
11
10.2204426
21
-11.8801268
0
LINE
8
layer0
10
10.2204426
20
-11.8801268
11
9.7918898
21
-11.8203355
0
LINE
8
layer0
10
9.7918898
20
-11.8203355
11
9.3849442
21
-11.746074
0
LINE
8
layer0
10
9.3849442
20
-11.746074
11
9.0015717
21
-11.6593964
0
LINE
8
layer0
10
9.0015717
20
-11.6593964
11
8.6417953
21
-11.5620573
0
LINE
8
layer0
10
8.6417953
20
-11.5620573
11
8.3052732
21
-11.4557138
0
LINE
8
layer0
10
8.3052732
20
-11.4557138
11
7.9936343
21
-11.3426786
0
LINE
8
layer0
10
7.9936343
20
-11.3426786
11
7.7018754
21
-11.2227618
0
LINE
8
layer0
10
7.7018754
20
-11.2227618
11
7.4389844
21
-11.1015923
0
LINE
8
layer0
10
7.4389844
20
-11.1015923
11
7.1973468
21
-10.9777458
0
LINE
8
layer0
10
7.1973468
20
-10.9777458
11
6.7821613
21
-10.7313766
0
LINE
8
layer0
10
6.7821613
20
-10.7313766
11
6.4560497
21
-10.4990493
0
LINE
8
layer0
10
6.4560497
20
-10.4990493
11
6.2111628
21
-10.2917865
0
LINE
8
layer0
10
6.2111628
20
-10.2917865
11
6.0419266
21
-10.1224721
0
LINE
8
layer0
10
6.0419266
20
-10.1224721
11
5.8943748
21
-9.9386122
0
LINE
8
layer0
10
5.8943748
20
-9.9386122
11
5.7160382
21
-9.6639947
0
LINE
8
layer0
10
5.7160382
20
-9.6639947
11
5.5596856
21
-9.4687133
0
LINE
8
layer0
10
5.5596856
20
-9.4687133
11
5.3979896
21
-9.303387
0
LINE
8
layer0
10
5.3979896
20
-9.303387
11
5.2331646
21
-9.1680834
0
LINE
8
layer0
10
5.2331646
20
-9.1680834
11
5.0674438
21
-9.0627326
0
LINE
8
layer0
10
5.0674438
20
-9.0627326
11
4.9030385
21
-8.9871332
0
LINE
8
layer0
10
4.9030385
20
-8.9871332
11
4.7421341
21
-8.9409426
0
LINE
8
layer0
10
4.7421341
20
-8.9409426
11
4.5869013
21
-8.9237055
0
LINE
8
layer0
10
4.5869013
20
-8.9237055
11
4.4394631
21
-8.934824
0
LINE
8
layer0
10
4.4394631
20
-8.934824
11
4.2693103
21
-8.9874766
0
LINE
8
layer0
10
4.2693103
20
-8.9874766
11
3.8076619
21
-9.192509
0
LINE
8
layer0
10
3.8076619
20
-9.192509
11
3.3362474
21
-9.3739639
0
LINE
8
layer0
10
3.3362474
20
-9.3739639
11
3.1787002
21
-9.4570491
0
LINE
8
layer0
10
3.1787002
20
-9.4570491
11
3.0665836
21
-9.5534417
0
LINE
8
layer0
10
3.0665836
20
-9.5534417
11
2.969006
21
-9.6753963
0
LINE
8
layer0
10
2.969006
20
-9.6753963
11
2.887891
21
-9.8218346
0
LINE
8
layer0
10
2.887891
20
-9.8218346
11
2.8250958
21
-9.9915436
0
LINE
8
layer0
10
2.8250958
20
-9.9915436
11
2.7824078
21
-10.1832201
0
LINE
8
layer0
10
2.7824078
20
-10.1832201
11
2.761533
21
-10.3954431
0
LINE
8
layer0
10
2.761533
20
-10.3954431
11
2.7641
21
-10.6266828
0
LINE
8
layer0
10
2.7641
20
-10.6266828
11
2.7916268
21
-10.8753255
0
LINE
8
layer0
10
2.7916268
20
-10.8753255
11
2.8597077
21
-11.1956125
0
LINE
8
layer0
10
2.8597077
20
-11.1956125
11
2.8853814
21
-11.429956
0
LINE
8
layer0
10
2.8853814
20
-11.429956
11
2.8854367
21
-11.6693474
0
LINE
8
layer0
10
2.8854367
20
-11.6693474
11
2.8588324
21
-11.9890655
0
LINE
8
layer0
10
2.8588324
20
-11.9890655
11
2.7925169
21
-12.3839415
0
LINE
8
layer0
10
2.7925169
20
-12.3839415
11
2.6731457
21
-12.8517312
0
LINE
8
layer0
10
2.6731457
20
-12.8517312
11
2.5898549
21
-13.1101675
0
LINE
8
layer0
10
2.5898549
20
-13.1101675
11
2.4896427
21
-13.3817392
0
LINE
8
layer0
10
2.4896427
20
-13.3817392
11
2.3681319
21
-13.672838
0
LINE
8
layer0
10
2.3681319
20
-13.672838
11
2.227698
21
-13.9731279
0
LINE
8
layer0
10
2.227698
20
-13.9731279
11
2.0649371
21
-14.2862812
0
LINE
8
layer0
10
2.0649371
20
-14.2862812
11
1.8793659
21
-14.6095106
0
LINE
8
layer0
10
1.8793659
20
-14.6095106
11
1.6695708
21
-14.9418863
0
LINE
8
layer0
10
1.6695708
20
-14.9418863
11
1.4343277
21
-15.282151
0
LINE
8
layer0
10
1.4343277
20
-15.282151
11
1.173574
21
-15.6274624
0
LINE
8
layer0
10
1.173574
20
-15.6274624
11
0.8844754
21
-15.978713
0
LINE
8
layer0
10
0.8844754
20
-15.978713
11
0.5677521
21
-16.3322058
0
LINE
8
layer0
10
0.5677521
20
-16.3322058
11
0.2444525
21
-16.6646893
0
ARC
8
layer0
10
0
20
0.0000179
40
16.6665
50
269.1595957
51
270.8404043
0
LINE
8
layer0
10
-0.2444525
20
-16.6646893
11
-0.5677521
21
-16.3322058
0
LINE
8
layer0
10
-0.5677521
20
-16.3322058
11
-0.8844754
21
-15.978713
0
LINE
8
layer0
10
-0.8844754
20
-15.978713
11
-1.173574
21
-15.6274624
0
LINE
8
layer0
10
-1.173574
20
-15.6274624
11
-1.4343277
21
-15.282151
0
LINE
8
layer0
10
-1.4343277
20
-15.282151
11
-1.6695708
21
-14.9418863
0
LINE
8
layer0
10
-1.6695708
20
-14.9418863
11
-1.8793659
21
-14.6095106
0
LINE
8
layer0
10
-1.8793659
20
-14.6095106
11
-2.0649371
21
-14.2862812
0
LINE
8
layer0
10
-2.0649371
20
-14.2862812
11
-2.227698
21
-13.9731279
0
LINE
8
layer0
10
-2.227698
20
-13.9731279
11
-2.3681319
21
-13.672838
0
LINE
8
layer0
10
-2.3681319
20
-13.672838
11
-2.4896427
21
-13.3817392
0
LINE
8
layer0
10
-2.4896427
20
-13.3817392
11
-2.5898549
21
-13.1101675
0
LINE
8
layer0
10
-2.5898549
20
-13.1101675
11
-2.6731457
21
-12.8517312
0
LINE
8
layer0
10
-2.6731457
20
-12.8517312
11
-2.7925169
21
-12.3839415
0
LINE
8
layer0
10
-2.7925169
20
-12.3839415
11
-2.8588324
21
-11.9890655
0
LINE
8
layer0
10
-2.8588324
20
-11.9890655
11
-2.8854367
21
-11.6693474
0
LINE
8
layer0
10
-2.8854367
20
-11.6693474
11
-2.8853814
21
-11.429956
0
LINE
8
layer0
10
-2.8853814
20
-11.429956
11
-2.8597077
21
-11.1956125
0
LINE
8
layer0
10
-2.8597077
20
-11.1956125
11
-2.7916268
21
-10.8753255
0
LINE
8
layer0
10
-2.7916268
20
-10.8753255
11
-2.7641
21
-10.6266828
0
LINE
8
layer0
10
-2.7641
20
-10.6266828
11
-2.761533
21
-10.3954431
0
LINE
8
layer0
10
-2.761533
20
-10.3954431
11
-2.7824078
21
-10.1832201
0
LINE
8
layer0
10
-2.7824078
20
-10.1832201
11
-2.8250958
21
-9.9915436
0
LINE
8
layer0
10
-2.8250958
20
-9.9915436
11
-2.887891
21
-9.8218346
0
LINE
8
layer0
10
-2.887891
20
-9.8218346
11
-2.969006
21
-9.6753963
0
LINE
8
layer0
10
-2.969006
20
-9.6753963
11
-3.0665836
21
-9.5534417
0
LINE
8
layer0
10
-3.0665836
20
-9.5534417
11
-3.1787002
21
-9.4570491
0
LINE
8
layer0
10
-3.1787002
20
-9.4570491
11
-3.3362474
21
-9.3739639
0
LINE
8
layer0
10
-3.3362474
20
-9.3739639
11
-3.8076619
21
-9.192509
0
LINE
8
layer0
10
-3.8076619
20
-9.192509
11
-4.2693103
21
-8.9874766
0
LINE
8
layer0
10
-4.2693103
20
-8.9874766
11
-4.4394631
21
-8.934824
0
LINE
8
layer0
10
-4.4394631
20
-8.934824
11
-4.5869013
21
-8.9237055
0
LINE
8
layer0
10
-4.5869013
20
-8.9237055
11
-4.7421341
21
-8.9409426
0
LINE
8
layer0
10
-4.7421341
20
-8.9409426
11
-4.9030385
21
-8.9871332
0
LINE
8
layer0
10
-4.9030385
20
-8.9871332
11
-5.0674438
21
-9.0627326
0
LINE
8
layer0
10
-5.0674438
20
-9.0627326
11
-5.2331646
21
-9.1680834
0
LINE
8
layer0
10
-5.2331646
20
-9.1680834
11
-5.3979896
21
-9.303387
0
LINE
8
layer0
10
-5.3979896
20
-9.303387
11
-5.5596856
21
-9.4687133
0
LINE
8
layer0
10
-5.5596856
20
-9.4687133
11
-5.7160382
21
-9.6639947
0
LINE
8
layer0
10
-5.7160382
20
-9.6639947
11
-5.8943748
21
-9.9386122
0
LINE
8
layer0
10
-5.8943748
20
-9.9386122
11
-6.0419266
21
-10.1224721
0
LINE
8
layer0
10
-6.0419266
20
-10.1224721
11
-6.2111628
21
-10.2917865
0
LINE
8
layer0
10
-6.2111628
20
-10.2917865
11
-6.4560497
21
-10.4990493
0
LINE
8
layer0
10
-6.4560497
20
-10.4990493
11
-6.7821613
21
-10.7313766
0
LINE
8
layer0
10
-6.7821613
20
-10.7313766
11
-7.1973468
21
-10.9777458
0
LINE
8
layer0
10
-7.1973468
20
-10.9777458
11
-7.4389844
21
-11.1015923
0
LINE
8
layer0
10
-7.4389844
20
-11.1015923
11
-7.7018754
21
-11.2227618
0
LINE
8
layer0
10
-7.7018754
20
-11.2227618
11
-7.9936343
21
-11.3426786
0
LINE
8
layer0
10
-7.9936343
20
-11.3426786
11
-8.3052732
21
-11.4557138
0
LINE
8
layer0
10
-8.3052732
20
-11.4557138
11
-8.6417953
21
-11.5620573
0
LINE
8
layer0
10
-8.6417953
20
-11.5620573
11
-9.0015717
21
-11.6593964
0
LINE
8
layer0
10
-9.0015717
20
-11.6593964
11
-9.3849442
21
-11.746074
0
LINE
8
layer0
10
-9.3849442
20
-11.746074
11
-9.7918898
21
-11.8203355
0
LINE
8
layer0
10
-9.7918898
20
-11.8203355
11
-10.2204426
21
-11.8801268
0
LINE
8
layer0
10
-10.2204426
20
-11.8801268
11
-10.6732378
21
-11.9240749
0
LINE
8
layer0
10
-10.6732378
20
-11.9240749
11
-11.1471521
21
-11.9500749
0
LINE
8
layer0
10
-11.1471521
20
-11.9500749
11
-11.6108608
21
-11.9565688
0
ARC
8
layer0
10
0.0000127
20
0.0000126
40
16.6665
50
224.1595955
51
225.840404
0
LINE
8
layer0
10
-11.9565688
20
-11.6108608
11
-11.9500749
21
-11.1471521
0
LINE
8
layer0
10
-11.9500749
20
-11.1471521
11
-11.9240749
21
-10.6732378
0
LINE
8
layer0
10
-11.9240749
20
-10.6732378
11
-11.8801268
21
-10.2204426
0
LINE
8
layer0
10
-11.8801268
20
-10.2204426
11
-11.8203355
21
-9.7918898
0
LINE
8
layer0
10
-11.8203355
20
-9.7918898
11
-11.746074
21
-9.3849442
0
LINE
8
layer0
10
-11.746074
20
-9.3849442
11
-11.6593964
21
-9.0015717
0
LINE
8
layer0
10
-11.6593964
20
-9.0015717
11
-11.5620573
21
-8.6417953
0
LINE
8
layer0
10
-11.5620573
20
-8.6417953
11
-11.4557138
21
-8.3052732
0
LINE
8
layer0
10
-11.4557138
20
-8.3052732
11
-11.3426786
21
-7.9936343
0
LINE
8
layer0
10
-11.3426786
20
-7.9936343
11
-11.2227618
21
-7.7018754
0
LINE
8
layer0
10
-11.2227618
20
-7.7018754
11
-11.1015923
21
-7.4389844
0
LINE
8
layer0
10
-11.1015923
20
-7.4389844
11
-10.9777458
21
-7.1973468
0
LINE
8
layer0
10
-10.9777458
20
-7.1973468
11
-10.7313766
21
-6.7821613
0
LINE
8
layer0
10
-10.7313766
20
-6.7821613
11
-10.4990493
21
-6.4560497
0
LINE
8
layer0
10
-10.4990493
20
-6.4560497
11
-10.2917865
21
-6.2111628
0
LINE
8
layer0
10
-10.2917865
20
-6.2111628
11
-10.1224721
21
-6.0419266
0
LINE
8
layer0
10
-10.1224721
20
-6.0419266
11
-9.9386122
21
-5.8943748
0
LINE
8
layer0
10
-9.9386122
20
-5.8943748
11
-9.6639947
21
-5.7160382
0
LINE
8
layer0
10
-9.6639947
20
-5.7160382
11
-9.4687133
21
-5.5596856
0
LINE
8
layer0
10
-9.4687133
20
-5.5596856
11
-9.303387
21
-5.3979896
0
LINE
8
layer0
10
-9.303387
20
-5.3979896
11
-9.1680834
21
-5.2331646
0
LINE
8
layer0
10
-9.1680834
20
-5.2331646
11
-9.0627326
21
-5.0674438
0
LINE
8
layer0
10
-9.0627326
20
-5.0674438
11
-8.9871332
21
-4.9030385
0
LINE
8
layer0
10
-8.9871332
20
-4.9030385
11
-8.9409426
21
-4.7421341
0
LINE
8
layer0
10
-8.9409426
20
-4.7421341
11
-8.9237055
21
-4.5869013
0
LINE
8
layer0
10
-8.9237055
20
-4.5869013
11
-8.934824
21
-4.4394631
0
LINE
8
layer0
10
-8.934824
20
-4.4394631
11
-8.9874766
21
-4.2693103
0
LINE
8
layer0
10
-8.9874766
20
-4.2693103
11
-9.192509
21
-3.8076619
0
LINE
8
layer0
10
-9.192509
20
-3.8076619
11
-9.3739639
21
-3.3362474
0
LINE
8
layer0
10
-9.3739639
20
-3.3362474
11
-9.4570491
21
-3.1787002
0
LINE
8
layer0
10
-9.4570491
20
-3.1787002
11
-9.5534417
21
-3.0665836
0
LINE
8
layer0
10
-9.5534417
20
-3.0665836
11
-9.6753963
21
-2.969006
0
LINE
8
layer0
10
-9.6753963
20
-2.969006
11
-9.8218346
21
-2.887891
0
LINE
8
layer0
10
-9.8218346
20
-2.887891
11
-9.9915436
21
-2.8250958
0
LINE
8
layer0
10
-9.9915436
20
-2.8250958
11
-10.1832201
21
-2.7824078
0
LINE
8
layer0
10
-10.1832201
20
-2.7824078
11
-10.3954431
21
-2.761533
0
LINE
8
layer0
10
-10.3954431
20
-2.761533
11
-10.6266828
21
-2.7641
0
LINE
8
layer0
10
-10.6266828
20
-2.7641
11
-10.8753255
21
-2.7916268
0
LINE
8
layer0
10
-10.8753255
20
-2.7916268
11
-11.1956125
21
-2.8597077
0
LINE
8
layer0
10
-11.1956125
20
-2.8597077
11
-11.429956
21
-2.8853814
0
LINE
8
layer0
10
-11.429956
20
-2.8853814
11
-11.6693474
21
-2.8854367
0
LINE
8
layer0
10
-11.6693474
20
-2.8854367
11
-11.9890655
21
-2.8588324
0
LINE
8
layer0
10
-11.9890655
20
-2.8588324
11
-12.3839415
21
-2.7925169
0
LINE
8
layer0
10
-12.3839415
20
-2.7925169
11
-12.8517312
21
-2.6731457
0
LINE
8
layer0
10
-12.8517312
20
-2.6731457
11
-13.1101675
21
-2.5898549
0
LINE
8
layer0
10
-13.1101675
20
-2.5898549
11
-13.3817392
21
-2.4896427
0
LINE
8
layer0
10
-13.3817392
20
-2.4896427
11
-13.672838
21
-2.3681319
0
LINE
8
layer0
10
-13.672838
20
-2.3681319
11
-13.9731279
21
-2.227698
0
LINE
8
layer0
10
-13.9731279
20
-2.227698
11
-14.2862812
21
-2.0649371
0
LINE
8
layer0
10
-14.2862812
20
-2.0649371
11
-14.6095106
21
-1.8793659
0
LINE
8
layer0
10
-14.6095106
20
-1.8793659
11
-14.9418863
21
-1.6695708
0
LINE
8
layer0
10
-14.9418863
20
-1.6695708
11
-15.282151
21
-1.4343277
0
LINE
8
layer0
10
-15.282151
20
-1.4343277
11
-15.6274624
21
-1.173574
0
LINE
8
layer0
10
-15.6274624
20
-1.173574
11
-15.978713
21
-0.8844754
0
LINE
8
layer0
10
-15.978713
20
-0.8844754
11
-16.3322058
21
-0.5677521
0
LINE
8
layer0
10
-16.3322058
20
-0.5677521
11
-16.6646893
21
-0.2444525
0
ARC
8
layer0
10
0.0000179
20
0
40
16.6665
50
179.1595957
51
180.8404043
0
LINE
8
layer0
10
-16.6646893
20
0.2444525
11
-16.3322058
21
0.5677521
0
LINE
8
layer0
10
-16.3322058
20
0.5677521
11
-15.978713
21
0.8844754
0
LINE
8
layer0
10
-15.978713
20
0.8844754
11
-15.6274624
21
1.173574
0
LINE
8
layer0
10
-15.6274624
20
1.173574
11
-15.282151
21
1.4343277
0
LINE
8
layer0
10
-15.282151
20
1.4343277
11
-14.9418863
21
1.6695708
0
LINE
8
layer0
10
-14.9418863
20
1.6695708
11
-14.6095106
21
1.8793659
0
LINE
8
layer0
10
-14.6095106
20
1.8793659
11
-14.2862812
21
2.0649371
0
LINE
8
layer0
10
-14.2862812
20
2.0649371
11
-13.9731279
21
2.227698
0
LINE
8
layer0
10
-13.9731279
20
2.227698
11
-13.672838
21
2.3681319
0
LINE
8
layer0
10
-13.672838
20
2.3681319
11
-13.3817392
21
2.4896427
0
LINE
8
layer0
10
-13.3817392
20
2.4896427
11
-13.1101675
21
2.5898549
0
LINE
8
layer0
10
-13.1101675
20
2.5898549
11
-12.8517312
21
2.6731457
0
LINE
8
layer0
10
-12.8517312
20
2.6731457
11
-12.3839415
21
2.7925169
0
LINE
8
layer0
10
-12.3839415
20
2.7925169
11
-11.9890655
21
2.8588324
0
LINE
8
layer0
10
-11.9890655
20
2.8588324
11
-11.6693474
21
2.8854367
0
LINE
8
layer0
10
-11.6693474
20
2.8854367
11
-11.429956
21
2.8853814
0
LINE
8
layer0
10
-11.429956
20
2.8853814
11
-11.1956125
21
2.8597077
0
LINE
8
layer0
10
-11.1956125
20
2.8597077
11
-10.8753255
21
2.7916268
0
LINE
8
layer0
10
-10.8753255
20
2.7916268
11
-10.6266828
21
2.7641
0
LINE
8
layer0
10
-10.6266828
20
2.7641
11
-10.3954431
21
2.761533
0
LINE
8
layer0
10
-10.3954431
20
2.761533
11
-10.1832201
21
2.7824078
0
LINE
8
layer0
10
-10.1832201
20
2.7824078
11
-9.9915436
21
2.8250958
0
LINE
8
layer0
10
-9.9915436
20
2.8250958
11
-9.8218346
21
2.887891
0
LINE
8
layer0
10
-9.8218346
20
2.887891
11
-9.6753963
21
2.969006
0
LINE
8
layer0
10
-9.6753963
20
2.969006
11
-9.5534417
21
3.0665836
0
LINE
8
layer0
10
-9.5534417
20
3.0665836
11
-9.4570491
21
3.1787002
0
LINE
8
layer0
10
-9.4570491
20
3.1787002
11
-9.3739639
21
3.3362474
0
LINE
8
layer0
10
-9.3739639
20
3.3362474
11
-9.192509
21
3.8076619
0
LINE
8
layer0
10
-9.192509
20
3.8076619
11
-8.9874766
21
4.2693103
0
LINE
8
layer0
10
-8.9874766
20
4.2693103
11
-8.934824
21
4.4394631
0
LINE
8
layer0
10
-8.934824
20
4.4394631
11
-8.9237055
21
4.5869013
0
LINE
8
layer0
10
-8.9237055
20
4.5869013
11
-8.9409426
21
4.7421341
0
LINE
8
layer0
10
-8.9409426
20
4.7421341
11
-8.9871332
21
4.9030385
0
LINE
8
layer0
10
-8.9871332
20
4.9030385
11
-9.0627326
21
5.0674438
0
LINE
8
layer0
10
-9.0627326
20
5.0674438
11
-9.1680834
21
5.2331646
0
LINE
8
layer0
10
-9.1680834
20
5.2331646
11
-9.303387
21
5.3979896
0
LINE
8
layer0
10
-9.303387
20
5.3979896
11
-9.4687133
21
5.5596856
0
LINE
8
layer0
10
-9.4687133
20
5.5596856
11
-9.6639947
21
5.7160382
0
LINE
8
layer0
10
-9.6639947
20
5.7160382
11
-9.9386122
21
5.8943748
0
LINE
8
layer0
10
-9.9386122
20
5.8943748
11
-10.1224721
21
6.0419266
0
LINE
8
layer0
10
-10.1224721
20
6.0419266
11
-10.2917865
21
6.2111628
0
LINE
8
layer0
10
-10.2917865
20
6.2111628
11
-10.4990493
21
6.4560497
0
LINE
8
layer0
10
-10.4990493
20
6.4560497
11
-10.7313766
21
6.7821613
0
LINE
8
layer0
10
-10.7313766
20
6.7821613
11
-10.9777458
21
7.1973468
0
LINE
8
layer0
10
-10.9777458
20
7.1973468
11
-11.1015923
21
7.4389844
0
LINE
8
layer0
10
-11.1015923
20
7.4389844
11
-11.2227618
21
7.7018754
0
LINE
8
layer0
10
-11.2227618
20
7.7018754
11
-11.3426786
21
7.9936343
0
LINE
8
layer0
10
-11.3426786
20
7.9936343
11
-11.4557138
21
8.3052732
0
LINE
8
layer0
10
-11.4557138
20
8.3052732
11
-11.5620573
21
8.6417953
0
LINE
8
layer0
10
-11.5620573
20
8.6417953
11
-11.6593964
21
9.0015717
0
LINE
8
layer0
10
-11.6593964
20
9.0015717
11
-11.746074
21
9.3849442
0
LINE
8
layer0
10
-11.746074
20
9.3849442
11
-11.8203355
21
9.7918898
0
LINE
8
layer0
10
-11.8203355
20
9.7918898
11
-11.8801268
21
10.2204426
0
LINE
8
layer0
10
-11.8801268
20
10.2204426
11
-11.9240749
21
10.6732378
0
LINE
8
layer0
10
-11.9240749
20
10.6732378
11
-11.9500749
21
11.1471521
0
LINE
8
layer0
10
-11.9500749
20
11.1471521
11
-11.9565688
21
11.6108608
0
ARC
8
layer0
10
0.0000126
20
-0.0000127
40
16.6665
50
134.1595955
51
135.840404
0
LINE
8
layer0
10
-11.6108608
20
11.9565688
11
-11.1471521
21
11.9500749
0
LINE
8
layer0
10
-11.1471521
20
11.9500749
11
-10.6732378
21
11.9240749
0
LINE
8
layer0
10
-10.6732378
20
11.9240749
11
-10.2204426
21
11.8801268
0
LINE
8
layer0
10
-10.2204426
20
11.8801268
11
-9.7918898
21
11.8203355
0
LINE
8
layer0
10
-9.7918898
20
11.8203355
11
-9.3849442
21
11.746074
0
LINE
8
layer0
10
-9.3849442
20
11.746074
11
-9.0015717
21
11.6593964
0
LINE
8
layer0
10
-9.0015717
20
11.6593964
11
-8.6417953
21
11.5620573
0
LINE
8
layer0
10
-8.6417953
20
11.5620573
11
-8.3052732
21
11.4557138
0
LINE
8
layer0
10
-8.3052732
20
11.4557138
11
-7.9936343
21
11.3426786
0
LINE
8
layer0
10
-7.9936343
20
11.3426786
11
-7.7018754
21
11.2227618
0
LINE
8
layer0
10
-7.7018754
20
11.2227618
11
-7.4389844
21
11.1015923
0
LINE
8
layer0
10
-7.4389844
20
11.1015923
11
-7.1973468
21
10.9777458
0
LINE
8
layer0
10
-7.1973468
20
10.9777458
11
-6.7821613
21
10.7313766
0
LINE
8
layer0
10
-6.7821613
20
10.7313766
11
-6.4560497
21
10.4990493
0
LINE
8
layer0
10
-6.4560497
20
10.4990493
11
-6.2111628
21
10.2917865
0
LINE
8
layer0
10
-6.2111628
20
10.2917865
11
-6.0419266
21
10.1224721
0
LINE
8
layer0
10
-6.0419266
20
10.1224721
11
-5.8943748
21
9.9386122
0
LINE
8
layer0
10
-5.8943748
20
9.9386122
11
-5.7160382
21
9.6639947
0
LINE
8
layer0
10
-5.7160382
20
9.6639947
11
-5.5596856
21
9.4687133
0
LINE
8
layer0
10
-5.5596856
20
9.4687133
11
-5.3979896
21
9.303387
0
LINE
8
layer0
10
-5.3979896
20
9.303387
11
-5.2331646
21
9.1680834
0
LINE
8
layer0
10
-5.2331646
20
9.1680834
11
-5.0674438
21
9.0627326
0
LINE
8
layer0
10
-5.0674438
20
9.0627326
11
-4.9030385
21
8.9871332
0
LINE
8
layer0
10
-4.9030385
20
8.9871332
11
-4.7421341
21
8.9409426
0
LINE
8
layer0
10
-4.7421341
20
8.9409426
11
-4.5869013
21
8.9237055
0
LINE
8
layer0
10
-4.5869013
20
8.9237055
11
-4.4394631
21
8.934824
0
LINE
8
layer0
10
-4.4394631
20
8.934824
11
-4.2693103
21
8.9874766
0
LINE
8
layer0
10
-4.2693103
20
8.9874766
11
-3.8076619
21
9.192509
0
LINE
8
layer0
10
-3.8076619
20
9.192509
11
-3.3362474
21
9.3739639
0
LINE
8
layer0
10
-3.3362474
20
9.3739639
11
-3.1787002
21
9.4570491
0
LINE
8
layer0
10
-3.1787002
20
9.4570491
11
-3.0665836
21
9.5534417
0
LINE
8
layer0
10
-3.0665836
20
9.5534417
11
-2.969006
21
9.6753963
0
LINE
8
layer0
10
-2.969006
20
9.6753963
11
-2.887891
21
9.8218346
0
LINE
8
layer0
10
-2.887891
20
9.8218346
11
-2.8250958
21
9.9915436
0
LINE
8
layer0
10
-2.8250958
20
9.9915436
11
-2.7824078
21
10.1832201
0
LINE
8
layer0
10
-2.7824078
20
10.1832201
11
-2.761533
21
10.3954431
0
LINE
8
layer0
10
-2.761533
20
10.3954431
11
-2.7641
21
10.6266828
0
LINE
8
layer0
10
-2.7641
20
10.6266828
11
-2.7916268
21
10.8753255
0
LINE
8
layer0
10
-2.7916268
20
10.8753255
11
-2.8597077
21
11.1956125
0
LINE
8
layer0
10
-2.8597077
20
11.1956125
11
-2.8853814
21
11.429956
0
LINE
8
layer0
10
-2.8853814
20
11.429956
11
-2.8854367
21
11.6693474
0
LINE
8
layer0
10
-2.8854367
20
11.6693474
11
-2.8588324
21
11.9890655
0
LINE
8
layer0
10
-2.8588324
20
11.9890655
11
-2.7925169
21
12.3839415
0
LINE
8
layer0
10
-2.7925169
20
12.3839415
11
-2.6731457
21
12.8517312
0
LINE
8
layer0
10
-2.6731457
20
12.8517312
11
-2.5898549
21
13.1101675
0
LINE
8
layer0
10
-2.5898549
20
13.1101675
11
-2.4896427
21
13.3817392
0
LINE
8
layer0
10
-2.4896427
20
13.3817392
11
-2.3681319
21
13.672838
0
LINE
8
layer0
10
-2.3681319
20
13.672838
11
-2.227698
21
13.9731279
0
LINE
8
layer0
10
-2.227698
20
13.9731279
11
-2.0649371
21
14.2862812
0
LINE
8
layer0
10
-2.0649371
20
14.2862812
11
-1.8793659
21
14.6095106
0
LINE
8
layer0
10
-1.8793659
20
14.6095106
11
-1.6695708
21
14.9418863
0
LINE
8
layer0
10
-1.6695708
20
14.9418863
11
-1.4343277
21
15.282151
0
LINE
8
layer0
10
-1.4343277
20
15.282151
11
-1.173574
21
15.6274624
0
LINE
8
layer0
10
-1.173574
20
15.6274624
11
-0.8844754
21
15.978713
0
LINE
8
layer0
10
-0.8844754
20
15.978713
11
-0.5677521
21
16.3322058
0
LINE
8
layer0
10
-0.5677521
20
16.3322058
11
-0.2444525
21
16.6646893
0
ARC
8
layer0
10
0
20
-0.0000179
40
16.6665
50
89.1595957
51
90.8404043
0
LINE
8
layer0
10
0.2444525
20
16.6646893
11
0.5677521
21
16.3322058
0
LINE
8
layer0
10
0.5677521
20
16.3322058
11
0.8844754
21
15.978713
0
LINE
8
layer0
10
0.8844754
20
15.978713
11
1.173574
21
15.6274624
0
LINE
8
layer0
10
1.173574
20
15.6274624
11
1.4343277
21
15.282151
0
LINE
8
layer0
10
1.4343277
20
15.282151
11
1.6695708
21
14.9418863
0
LINE
8
layer0
10
1.6695708
20
14.9418863
11
1.8793659
21
14.6095106
0
LINE
8
layer0
10
1.8793659
20
14.6095106
11
2.0649371
21
14.2862812
0
LINE
8
layer0
10
2.0649371
20
14.2862812
11
2.227698
21
13.9731279
0
LINE
8
layer0
10
2.227698
20
13.9731279
11
2.3681319
21
13.672838
0
LINE
8
layer0
10
2.3681319
20
13.672838
11
2.4896427
21
13.3817392
0
LINE
8
layer0
10
2.4896427
20
13.3817392
11
2.5898549
21
13.1101675
0
LINE
8
layer0
10
2.5898549
20
13.1101675
11
2.6731457
21
12.8517312
0
LINE
8
layer0
10
2.6731457
20
12.8517312
11
2.7925169
21
12.3839415
0
LINE
8
layer0
10
2.7925169
20
12.3839415
11
2.8588324
21
11.9890655
0
LINE
8
layer0
10
2.8588324
20
11.9890655
11
2.8854367
21
11.6693474
0
LINE
8
layer0
10
2.8854367
20
11.6693474
11
2.8853814
21
11.429956
0
LINE
8
layer0
10
2.8853814
20
11.429956
11
2.8597077
21
11.1956125
0
LINE
8
layer0
10
2.8597077
20
11.1956125
11
2.7916268
21
10.8753255
0
LINE
8
layer0
10
2.7916268
20
10.8753255
11
2.7641
21
10.6266828
0
LINE
8
layer0
10
2.7641
20
10.6266828
11
2.761533
21
10.3954431
0
LINE
8
layer0
10
2.761533
20
10.3954431
11
2.7824078
21
10.1832201
0
LINE
8
layer0
10
2.7824078
20
10.1832201
11
2.8250958
21
9.9915436
0
LINE
8
layer0
10
2.8250958
20
9.9915436
11
2.887891
21
9.8218346
0
LINE
8
layer0
10
2.887891
20
9.8218346
11
2.969006
21
9.6753963
0
LINE
8
layer0
10
2.969006
20
9.6753963
11
3.0665836
21
9.5534417
0
LINE
8
layer0
10
3.0665836
20
9.5534417
11
3.1787002
21
9.4570491
0
LINE
8
layer0
10
3.1787002
20
9.4570491
11
3.3362474
21
9.3739639
0
LINE
8
layer0
10
3.3362474
20
9.3739639
11
3.8076619
21
9.192509
0
LINE
8
layer0
10
3.8076619
20
9.192509
11
4.2693103
21
8.9874766
0
LINE
8
layer0
10
4.2693103
20
8.9874766
11
4.4394631
21
8.934824
0
LINE
8
layer0
10
4.4394631
20
8.934824
11
4.5869013
21
8.9237055
0
LINE
8
layer0
10
4.5869013
20
8.9237055
11
4.7421341
21
8.9409426
0
LINE
8
layer0
10
4.7421341
20
8.9409426
11
4.9030385
21
8.9871332
0
LINE
8
layer0
10
4.9030385
20
8.9871332
11
5.0674438
21
9.0627326
0
LINE
8
layer0
10
5.0674438
20
9.0627326
11
5.2331646
21
9.1680834
0
LINE
8
layer0
10
5.2331646
20
9.1680834
11
5.3979896
21
9.303387
0
LINE
8
layer0
10
5.3979896
20
9.303387
11
5.5596856
21
9.4687133
0
LINE
8
layer0
10
5.5596856
20
9.4687133
11
5.7160382
21
9.6639947
0
LINE
8
layer0
10
5.7160382
20
9.6639947
11
5.8943748
21
9.9386122
0
LINE
8
layer0
10
5.8943748
20
9.9386122
11
6.0419266
21
10.1224721
0
LINE
8
layer0
10
6.0419266
20
10.1224721
11
6.2111628
21
10.2917865
0
LINE
8
layer0
10
6.2111628
20
10.2917865
11
6.4560497
21
10.4990493
0
LINE
8
layer0
10
6.4560497
20
10.4990493
11
6.7821613
21
10.7313766
0
LINE
8
layer0
10
6.7821613
20
10.7313766
11
7.1973468
21
10.9777458
0
LINE
8
layer0
10
7.1973468
20
10.9777458
11
7.4389844
21
11.1015923
0
LINE
8
layer0
10
7.4389844
20
11.1015923
11
7.7018754
21
11.2227618
0
LINE
8
layer0
10
7.7018754
20
11.2227618
11
7.9936343
21
11.3426786
0
LINE
8
layer0
10
7.9936343
20
11.3426786
11
8.3052732
21
11.4557138
0
LINE
8
layer0
10
8.3052732
20
11.4557138
11
8.6417953
21
11.5620573
0
LINE
8
layer0
10
8.6417953
20
11.5620573
11
9.0015717
21
11.6593964
0
LINE
8
layer0
10
9.0015717
20
11.6593964
11
9.3849442
21
11.746074
0
LINE
8
layer0
10
9.3849442
20
11.746074
11
9.7918898
21
11.8203355
0
LINE
8
layer0
10
9.7918898
20
11.8203355
11
10.2204426
21
11.8801268
0
LINE
8
layer0
10
10.2204426
20
11.8801268
11
10.6732378
21
11.9240749
0
LINE
8
layer0
10
10.6732378
20
11.9240749
11
11.1471521
21
11.9500749
0
LINE
8
layer0
10
11.1471521
20
11.9500749
11
11.6108608
21
11.9565688
0
ARC
8
layer0
10
-0.0000127
20
-0.0000126
40
16.6665
50
44.1595955
51
45.840404
0
LINE
8
layer0
10
11.9565688
20
11.6108608
11
11.9500749
21
11.1471521
0
LINE
8
layer1
10
11.9500749
20
11.1471521
11
11.9240749
21
10.6732378
0
LINE
8
layer1
10
11.9240749
20
10.6732378
11
11.8801268
21
10.2204426
0
LINE
8
layer1
10
11.8801268
20
10.2204426
11
11.8203355
21
9.7918898
0
LINE
8
layer1
10
11.8203355
20
9.7918898
11
11.746074
21
9.3849442
0
LINE
8
layer1
10
11.746074
20
9.3849442
11
11.6593964
21
9.0015717
0
LINE
8
layer1
10
11.6593964
20
9.0015717
11
11.5620573
21
8.6417953
0
LINE
8
layer1
10
11.5620573
20
8.6417953
11
11.4557138
21
8.3052732
0
LINE
8
layer1
10
11.4557138
20
8.3052732
11
11.3426786
21
7.9936343
0
LINE
8
layer1
10
11.3426786
20
7.9936343
11
11.2227618
21
7.7018754
0
LINE
8
layer1
10
11.2227618
20
7.7018754
11
11.1015923
21
7.4389844
0
LINE
8
layer1
10
11.1015923
20
7.4389844
11
10.9777458
21
7.1973468
0
LINE
8
layer1
10
10.9777458
20
7.1973468
11
10.7313766
21
6.7821613
0
LINE
8
layer1
10
10.7313766
20
6.7821613
11
10.4990493
21
6.4560497
0
LINE
8
layer1
10
10.4990493
20
6.4560497
11
10.2917865
21
6.2111628
0
LINE
8
layer1
10
10.2917865
20
6.2111628
11
10.1224721
21
6.0419266
0
LINE
8
layer1
10
10.1224721
20
6.0419266
11
9.9386122
21
5.8943748
0
LINE
8
layer1
10
9.9386122
20
5.8943748
11
9.6639947
21
5.7160382
0
LINE
8
layer1
10
9.6639947
20
5.7160382
11
9.4687133
21
5.5596856
0
LINE
8
layer1
10
9.4687133
20
5.5596856
11
9.303387
21
5.3979896
0
LINE
8
layer1
10
9.303387
20
5.3979896
11
9.1680834
21
5.2331646
0
LINE
8
layer1
10
9.1680834
20
5.2331646
11
9.0627326
21
5.0674438
0
LINE
8
layer1
10
9.0627326
20
5.0674438
11
8.9871332
21
4.9030385
0
LINE
8
layer1
10
8.9871332
20
4.9030385
11
8.9409426
21
4.7421341
0
LINE
8
layer1
10
8.9409426
20
4.7421341
11
8.9237055
21
4.5869013
0
LINE
8
layer1
10
8.9237055
20
4.5869013
11
8.934824
21
4.4394631
0
LINE
8
layer1
10
8.934824
20
4.4394631
11
8.9874766
21
4.2693103
0
LINE
8
layer1
10
8.9874766
20
4.2693103
11
9.192509
21
3.8076619
0
LINE
8
layer1
10
9.192509
20
3.8076619
11
9.3739639
21
3.3362474
0
LINE
8
layer1
10
9.3739639
20
3.3362474
11
9.4570491
21
3.1787002
0
LINE
8
layer1
10
9.4570491
20
3.1787002
11
9.5534417
21
3.0665836
0
LINE
8
layer1
10
9.5534417
20
3.0665836
11
9.6753963
21
2.969006
0
LINE
8
layer1
10
9.6753963
20
2.969006
11
9.8218346
21
2.887891
0
LINE
8
layer1
10
9.8218346
20
2.887891
11
9.9915436
21
2.8250958
0
LINE
8
layer1
10
9.9915436
20
2.8250958
11
10.1832201
21
2.7824078
0
LINE
8
layer1
10
10.1832201
20
2.7824078
11
10.3954431
21
2.761533
0
LINE
8
layer1
10
10.3954431
20
2.761533
11
10.6266828
21
2.7641
0
LINE
8
layer1
10
10.6266828
20
2.7641
11
10.8753255
21
2.7916268
0
LINE
8
layer1
10
10.8753255
20
2.7916268
11
11.1956125
21
2.8597077
0
LINE
8
layer1
10
11.1956125
20
2.8597077
11
11.429956
21
2.8853814
0
LINE
8
layer1
10
11.429956
20
2.8853814
11
11.6693474
21
2.8854367
0
LINE
8
layer1
10
11.6693474
20
2.8854367
11
11.9890655
21
2.8588324
0
LINE
8
layer1
10
11.9890655
20
2.8588324
11
12.3839415
21
2.7925169
0
LINE
8
layer1
10
12.3839415
20
2.7925169
11
12.8517312
21
2.6731457
0
LINE
8
layer1
10
12.8517312
20
2.6731457
11
13.1101675
21
2.5898549
0
LINE
8
layer1
10
13.1101675
20
2.5898549
11
13.3817392
21
2.4896427
0
LINE
8
layer1
10
13.3817392
20
2.4896427
11
13.672838
21
2.3681319
0
LINE
8
layer1
10
13.672838
20
2.3681319
11
13.9731279
21
2.227698
0
LINE
8
layer1
10
13.9731279
20
2.227698
11
14.2862812
21
2.0649371
0
LINE
8
layer1
10
14.2862812
20
2.0649371
11
14.6095106
21
1.8793659
0
LINE
8
layer1
10
14.6095106
20
1.8793659
11
14.9418863
21
1.6695708
0
LINE
8
layer1
10
14.9418863
20
1.6695708
11
15.282151
21
1.4343277
0
LINE
8
layer1
10
15.282151
20
1.4343277
11
15.6274624
21
1.173574
0
LINE
8
layer1
10
15.6274624
20
1.173574
11
15.978713
21
0.8844754
0
LINE
8
layer1
10
15.978713
20
0.8844754
11
16.3322058
21
0.5677521
0
LINE
8
layer1
10
16.3322058
20
0.5677521
11
16.6646893
21
0.2444525
0
ARC
8
layer1
10
-0.0000179
20
0
40
16.6665
50
359.1595957
51
360.8404043
0
LINE
8
layer1
10
16.6646893
20
-0.2444525
11
16.3322058
21
-0.5677521
0
LINE
8
layer1
10
16.3322058
20
-0.5677521
11
15.978713
21
-0.8844754
0
LINE
8
layer1
10
15.978713
20
-0.8844754
11
15.6274624
21
-1.173574
0
LINE
8
layer1
10
15.6274624
20
-1.173574
11
15.282151
21
-1.4343277
0
LINE
8
layer1
10
15.282151
20
-1.4343277
11
14.9418863
21
-1.6695708
0
LINE
8
layer1
10
14.9418863
20
-1.6695708
11
14.6095106
21
-1.8793659
0
LINE
8
layer1
10
14.6095106
20
-1.8793659
11
14.2862812
21
-2.0649371
0
LINE
8
layer1
10
14.2862812
20
-2.0649371
11
13.9731279
21
-2.227698
0
LINE
8
layer1
10
13.9731279
20
-2.227698
11
13.672838
21
-2.3681319
0
LINE
8
layer1
10
13.672838
20
-2.3681319
11
13.3817392
21
-2.4896427
0
LINE
8
layer1
10
13.3817392
20
-2.4896427
11
13.1101675
21
-2.5898549
0
LINE
8
layer1
10
13.1101675
20
-2.5898549
11
12.8517312
21
-2.6731457
0
LINE
8
layer1
10
12.8517312
20
-2.6731457
11
12.3839415
21
-2.7925169
0
LINE
8
layer1
10
12.3839415
20
-2.7925169
11
11.9890655
21
-2.8588324
0
LINE
8
layer1
10
11.9890655
20
-2.8588324
11
11.6693474
21
-2.8854367
0
LINE
8
layer1
10
11.6693474
20
-2.8854367
11
11.429956
21
-2.8853814
0
LINE
8
layer1
10
11.429956
20
-2.8853814
11
11.1956125
21
-2.8597077
0
LINE
8
layer1
10
11.1956125
20
-2.8597077
11
10.8753255
21
-2.7916268
0
LINE
8
layer1
10
10.8753255
20
-2.7916268
11
10.6266828
21
-2.7641
0
LINE
8
layer1
10
10.6266828
20
-2.7641
11
10.3954431
21
-2.761533
0
LINE
8
layer1
10
10.3954431
20
-2.761533
11
10.1832201
21
-2.7824078
0
LINE
8
layer1
10
10.1832201
20
-2.7824078
11
9.9915436
21
-2.8250958
0
LINE
8
layer1
10
9.9915436
20
-2.8250958
11
9.8218346
21
-2.887891
0
LINE
8
layer1
10
9.8218346
20
-2.887891
11
9.6753963
21
-2.969006
0
LINE
8
layer1
10
9.6753963
20
-2.969006
11
9.5534417
21
-3.0665836
0
LINE
8
layer1
10
9.5534417
20
-3.0665836
11
9.4570491
21
-3.1787002
0
LINE
8
layer1
10
9.4570491
20
-3.1787002
11
9.3739639
21
-3.3362474
0
LINE
8
layer1
10
9.3739639
20
-3.3362474
11
9.192509
21
-3.8076619
0
LINE
8
layer1
10
9.192509
20
-3.8076619
11
8.9874766
21
-4.2693103
0
LINE
8
layer1
10
8.9874766
20
-4.2693103
11
8.934824
21
-4.4394631
0
LINE
8
layer1
10
8.934824
20
-4.4394631
11
8.9237055
21
-4.5869013
0
LINE
8
layer1
10
8.9237055
20
-4.5869013
11
8.9409426
21
-4.7421341
0
LINE
8
layer1
10
8.9409426
20
-4.7421341
11
8.9871332
21
-4.9030385
0
LINE
8
layer1
10
8.9871332
20
-4.9030385
11
9.0627326
21
-5.0674438
0
LINE
8
layer1
10
9.0627326
20
-5.0674438
11
9.1680834
21
-5.2331646
0
LINE
8
layer1
10
9.1680834
20
-5.2331646
11
9.303387
21
-5.3979896
0
LINE
8
layer1
10
9.303387
20
-5.3979896
11
9.4687133
21
-5.5596856
0
LINE
8
layer1
10
9.4687133
20
-5.5596856
11
9.6639947
21
-5.7160382
0
LINE
8
layer1
10
9.6639947
20
-5.7160382
11
9.9386122
21
-5.8943748
0
LINE
8
layer1
10
9.9386122
20
-5.8943748
11
10.1224721
21
-6.0419266
0
LINE
8
layer1
10
10.1224721
20
-6.0419266
11
10.2917865
21
-6.2111628
0
LINE
8
layer1
10
10.2917865
20
-6.2111628
11
10.4990493
21
-6.4560497
0
LINE
8
layer1
10
10.4990493
20
-6.4560497
11
10.7313766
21
-6.7821613
0
LINE
8
layer1
10
10.7313766
20
-6.7821613
11
10.9777458
21
-7.1973468
0
LINE
8
layer1
10
10.9777458
20
-7.1973468
11
11.1015923
21
-7.4389844
0
LINE
8
layer1
10
11.1015923
20
-7.4389844
11
11.2227618
21
-7.7018754
0
LINE
8
layer1
10
11.2227618
20
-7.7018754
11
11.3426786
21
-7.9936343
0
LINE
8
layer1
10
11.3426786
20
-7.9936343
11
11.4557138
21
-8.3052732
0
LINE
8
layer1
10
11.4557138
20
-8.3052732
11
11.5620573
21
-8.6417953
0
LINE
8
layer1
10
11.5620573
20
-8.6417953
11
11.6593964
21
-9.0015717
0
LINE
8
layer1
10
11.6593964
20
-9.0015717
11
11.746074
21
-9.3849442
0
LINE
8
layer1
10
11.746074
20
-9.3849442
11
11.8203355
21
-9.7918898
0
LINE
8
layer1
10
11.8203355
20
-9.7918898
11
11.8801268
21
-10.2204426
0
LINE
8
layer1
10
11.8801268
20
-10.2204426
11
11.9240749
21
-10.6732378
0
LINE
8
layer1
10
11.9240749
20
-10.6732378
11
11.9500749
21
-11.1471521
0
LINE
8
layer1
10
11.9500749
20
-11.1471521
11
11.9565688
21
-11.6108608
0
ARC
8
layer1
10
-0.0000126
20
0.0000127
40
16.6665
50
314.1595955
51
315.840404
0
LINE
8
layer1
10
11.6108608
20
-11.9565688
11
11.1471521
21
-11.9500749
0
LINE
8
layer1
10
11.1471521
20
-11.9500749
11
10.6732378
21
-11.9240749
0
LINE
8
layer1
10
10.6732378
20
-11.9240749
11
10.2204426
21
-11.8801268
0
LINE
8
layer1
10
10.2204426
20
-11.8801268
11
9.7918898
21
-11.8203355
0
LINE
8
layer1
10
9.7918898
20
-11.8203355
11
9.3849442
21
-11.746074
0
LINE
8
layer1
10
9.3849442
20
-11.746074
11
9.0015717
21
-11.6593964
0
LINE
8
layer1
10
9.0015717
20
-11.6593964
11
8.6417953
21
-11.5620573
0
LINE
8
layer1
10
8.6417953
20
-11.5620573
11
8.3052732
21
-11.4557138
0
LINE
8
layer1
10
8.3052732
20
-11.4557138
11
7.9936343
21
-11.3426786
0
LINE
8
layer1
10
7.9936343
20
-11.3426786
11
7.7018754
21
-11.2227618
0
LINE
8
layer1
10
7.7018754
20
-11.2227618
11
7.4389844
21
-11.1015923
0
LINE
8
layer1
10
7.4389844
20
-11.1015923
11
7.1973468
21
-10.9777458
0
LINE
8
layer1
10
7.1973468
20
-10.9777458
11
6.7821613
21
-10.7313766
0
LINE
8
layer1
10
6.7821613
20
-10.7313766
11
6.4560497
21
-10.4990493
0
LINE
8
layer1
10
6.4560497
20
-10.4990493
11
6.2111628
21
-10.2917865
0
LINE
8
layer1
10
6.2111628
20
-10.2917865
11
6.0419266
21
-10.1224721
0
LINE
8
layer1
10
6.0419266
20
-10.1224721
11
5.8943748
21
-9.9386122
0
LINE
8
layer1
10
5.8943748
20
-9.9386122
11
5.7160382
21
-9.6639947
0
LINE
8
layer1
10
5.7160382
20
-9.6639947
11
5.5596856
21
-9.4687133
0
LINE
8
layer1
10
5.5596856
20
-9.4687133
11
5.3979896
21
-9.303387
0
LINE
8
layer1
10
5.3979896
20
-9.303387
11
5.2331646
21
-9.1680834
0
LINE
8
layer1
10
5.2331646
20
-9.1680834
11
5.0674438
21
-9.0627326
0
LINE
8
layer1
10
5.0674438
20
-9.0627326
11
4.9030385
21
-8.9871332
0
LINE
8
layer1
10
4.9030385
20
-8.9871332
11
4.7421341
21
-8.9409426
0
LINE
8
layer1
10
4.7421341
20
-8.9409426
11
4.5869013
21
-8.9237055
0
LINE
8
layer1
10
4.5869013
20
-8.9237055
11
4.4394631
21
-8.934824
0
LINE
8
layer1
10
4.4394631
20
-8.934824
11
4.2693103
21
-8.9874766
0
LINE
8
layer1
10
4.2693103
20
-8.9874766
11
3.8076619
21
-9.192509
0
LINE
8
layer1
10
3.8076619
20
-9.192509
11
3.3362474
21
-9.3739639
0
LINE
8
layer1
10
3.3362474
20
-9.3739639
11
3.1787002
21
-9.4570491
0
LINE
8
layer1
10
3.1787002
20
-9.4570491
11
3.0665836
21
-9.5534417
0
LINE
8
layer1
10
3.0665836
20
-9.5534417
11
2.969006
21
-9.6753963
0
LINE
8
layer1
10
2.969006
20
-9.6753963
11
2.887891
21
-9.8218346
0
LINE
8
layer1
10
2.887891
20
-9.8218346
11
2.8250958
21
-9.9915436
0
LINE
8
layer1
10
2.8250958
20
-9.9915436
11
2.7824078
21
-10.1832201
0
LINE
8
layer1
10
2.7824078
20
-10.1832201
11
2.761533
21
-10.3954431
0
LINE
8
layer1
10
2.761533
20
-10.3954431
11
2.7641
21
-10.6266828
0
LINE
8
layer1
10
2.7641
20
-10.6266828
11
2.7916268
21
-10.8753255
0
LINE
8
layer1
10
2.7916268
20
-10.8753255
11
2.8597077
21
-11.1956125
0
LINE
8
layer1
10
2.8597077
20
-11.1956125
11
2.8853814
21
-11.429956
0
LINE
8
layer1
10
2.8853814
20
-11.429956
11
2.8854367
21
-11.6693474
0
LINE
8
layer1
10
2.8854367
20
-11.6693474
11
2.8588324
21
-11.9890655
0
LINE
8
layer1
10
2.8588324
20
-11.9890655
11
2.7925169
21
-12.3839415
0
LINE
8
layer1
10
2.7925169
20
-12.3839415
11
2.6731457
21
-12.8517312
0
LINE
8
layer1
10
2.6731457
20
-12.8517312
11
2.5898549
21
-13.1101675
0
LINE
8
layer1
10
2.5898549
20
-13.1101675
11
2.4896427
21
-13.3817392
0
LINE
8
layer1
10
2.4896427
20
-13.3817392
11
2.3681319
21
-13.672838
0
LINE
8
layer1
10
2.3681319
20
-13.672838
11
2.227698
21
-13.9731279
0
LINE
8
layer1
10
2.227698
20
-13.9731279
11
2.0649371
21
-14.2862812
0
LINE
8
layer1
10
2.0649371
20
-14.2862812
11
1.8793659
21
-14.6095106
0
LINE
8
layer1
10
1.8793659
20
-14.6095106
11
1.6695708
21
-14.9418863
0
LINE
8
layer1
10
1.6695708
20
-14.9418863
11
1.4343277
21
-15.282151
0
LINE
8
layer1
10
1.4343277
20
-15.282151
11
1.173574
21
-15.6274624
0
LINE
8
layer1
10
1.173574
20
-15.6274624
11
0.8844754
21
-15.978713
0
LINE
8
layer1
10
0.8844754
20
-15.978713
11
0.5677521
21
-16.3322058
0
LINE
8
layer1
10
0.5677521
20
-16.3322058
11
0.2444525
21
-16.6646893
0
ARC
8
layer1
10
0
20
0.0000179
40
16.6665
50
269.1595957
51
270.8404043
0
LINE
8
layer1
10
-0.2444525
20
-16.6646893
11
-0.5677521
21
-16.3322058
0
LINE
8
layer1
10
-0.5677521
20
-16.3322058
11
-0.8844754
21
-15.978713
0
LINE
8
layer1
10
-0.8844754
20
-15.978713
11
-1.173574
21
-15.6274624
0
LINE
8
layer1
10
-1.173574
20
-15.6274624
11
-1.4343277
21
-15.282151
0
LINE
8
layer1
10
-1.4343277
20
-15.282151
11
-1.6695708
21
-14.9418863
0
LINE
8
layer1
10
-1.6695708
20
-14.9418863
11
-1.8793659
21
-14.6095106
0
LINE
8
layer1
10
-1.8793659
20
-14.6095106
11
-2.0649371
21
-14.2862812
0
LINE
8
layer1
10
-2.0649371
20
-14.2862812
11
-2.227698
21
-13.9731279
0
LINE
8
layer1
10
-2.227698
20
-13.9731279
11
-2.3681319
21
-13.672838
0
LINE
8
layer1
10
-2.3681319
20
-13.672838
11
-2.4896427
21
-13.3817392
0
LINE
8
layer1
10
-2.4896427
20
-13.3817392
11
-2.5898549
21
-13.1101675
0
LINE
8
layer1
10
-2.5898549
20
-13.1101675
11
-2.6731457
21
-12.8517312
0
LINE
8
layer1
10
-2.6731457
20
-12.8517312
11
-2.7925169
21
-12.3839415
0
LINE
8
layer1
10
-2.7925169
20
-12.3839415
11
-2.8588324
21
-11.9890655
0
LINE
8
layer1
10
-2.8588324
20
-11.9890655
11
-2.8854367
21
-11.6693474
0
LINE
8
layer1
10
-2.8854367
20
-11.6693474
11
-2.8853814
21
-11.429956
0
LINE
8
layer1
10
-2.8853814
20
-11.429956
11
-2.8597077
21
-11.1956125
0
LINE
8
layer1
10
-2.8597077
20
-11.1956125
11
-2.7916268
21
-10.8753255
0
LINE
8
layer1
10
-2.7916268
20
-10.8753255
11
-2.7641
21
-10.6266828
0
LINE
8
layer1
10
-2.7641
20
-10.6266828
11
-2.761533
21
-10.3954431
0
LINE
8
layer1
10
-2.761533
20
-10.3954431
11
-2.7824078
21
-10.1832201
0
LINE
8
layer1
10
-2.7824078
20
-10.1832201
11
-2.8250958
21
-9.9915436
0
LINE
8
layer1
10
-2.8250958
20
-9.9915436
11
-2.887891
21
-9.8218346
0
LINE
8
layer1
10
-2.887891
20
-9.8218346
11
-2.969006
21
-9.6753963
0
LINE
8
layer1
10
-2.969006
20
-9.6753963
11
-3.0665836
21
-9.5534417
0
LINE
8
layer1
10
-3.0665836
20
-9.5534417
11
-3.1787002
21
-9.4570491
0
LINE
8
layer1
10
-3.1787002
20
-9.4570491
11
-3.3362474
21
-9.3739639
0
LINE
8
layer1
10
-3.3362474
20
-9.3739639
11
-3.8076619
21
-9.192509
0
LINE
8
layer1
10
-3.8076619
20
-9.192509
11
-4.2693103
21
-8.9874766
0
LINE
8
layer1
10
-4.2693103
20
-8.9874766
11
-4.4394631
21
-8.934824
0
LINE
8
layer1
10
-4.4394631
20
-8.934824
11
-4.5869013
21
-8.9237055
0
LINE
8
layer1
10
-4.5869013
20
-8.9237055
11
-4.7421341
21
-8.9409426
0
LINE
8
layer1
10
-4.7421341
20
-8.9409426
11
-4.9030385
21
-8.9871332
0
LINE
8
layer1
10
-4.9030385
20
-8.9871332
11
-5.0674438
21
-9.0627326
0
LINE
8
layer1
10
-5.0674438
20
-9.0627326
11
-5.2331646
21
-9.1680834
0
LINE
8
layer1
10
-5.2331646
20
-9.1680834
11
-5.3979896
21
-9.303387
0
LINE
8
layer1
10
-5.3979896
20
-9.303387
11
-5.5596856
21
-9.4687133
0
LINE
8
layer1
10
-5.5596856
20
-9.4687133
11
-5.7160382
21
-9.6639947
0
LINE
8
layer1
10
-5.7160382
20
-9.6639947
11
-5.8943748
21
-9.9386122
0
LINE
8
layer1
10
-5.8943748
20
-9.9386122
11
-6.0419266
21
-10.1224721
0
LINE
8
layer1
10
-6.0419266
20
-10.1224721
11
-6.2111628
21
-10.2917865
0
LINE
8
layer1
10
-6.2111628
20
-10.2917865
11
-6.4560497
21
-10.4990493
0
LINE
8
layer1
10
-6.4560497
20
-10.4990493
11
-6.7821613
21
-10.7313766
0
LINE
8
layer1
10
-6.7821613
20
-10.7313766
11
-7.1973468
21
-10.9777458
0
LINE
8
layer1
10
-7.1973468
20
-10.9777458
11
-7.4389844
21
-11.1015923
0
LINE
8
layer1
10
-7.4389844
20
-11.1015923
11
-7.7018754
21
-11.2227618
0
LINE
8
layer1
10
-7.7018754
20
-11.2227618
11
-7.9936343
21
-11.3426786
0
LINE
8
layer1
10
-7.9936343
20
-11.3426786
11
-8.3052732
21
-11.4557138
0
LINE
8
layer1
10
-8.3052732
20
-11.4557138
11
-8.6417953
21
-11.5620573
0
LINE
8
layer1
10
-8.6417953
20
-11.5620573
11
-9.0015717
21
-11.6593964
0
LINE
8
layer1
10
-9.0015717
20
-11.6593964
11
-9.3849442
21
-11.746074
0
LINE
8
layer1
10
-9.3849442
20
-11.746074
11
-9.7918898
21
-11.8203355
0
LINE
8
layer1
10
-9.7918898
20
-11.8203355
11
-10.2204426
21
-11.8801268
0
LINE
8
layer1
10
-10.2204426
20
-11.8801268
11
-10.6732378
21
-11.9240749
0
LINE
8
layer1
10
-10.6732378
20
-11.9240749
11
-11.1471521
21
-11.9500749
0
LINE
8
layer1
10
-11.1471521
20
-11.9500749
11
-11.6108608
21
-11.9565688
0
ARC
8
layer1
10
0.0000127
20
0.0000126
40
16.6665
50
224.1595955
51
225.840404
0
LINE
8
layer1
10
-11.9565688
20
-11.6108608
11
-11.9500749
21
-11.1471521
0
LINE
8
layer1
10
-11.9500749
20
-11.1471521
11
-11.9240749
21
-10.6732378
0
LINE
8
layer1
10
-11.9240749
20
-10.6732378
11
-11.8801268
21
-10.2204426
0
LINE
8
layer1
10
-11.8801268
20
-10.2204426
11
-11.8203355
21
-9.7918898
0
LINE
8
layer1
10
-11.8203355
20
-9.7918898
11
-11.746074
21
-9.3849442
0
LINE
8
layer1
10
-11.746074
20
-9.3849442
11
-11.6593964
21
-9.0015717
0
LINE
8
layer1
10
-11.6593964
20
-9.0015717
11
-11.5620573
21
-8.6417953
0
LINE
8
layer1
10
-11.5620573
20
-8.6417953
11
-11.4557138
21
-8.3052732
0
LINE
8
layer1
10
-11.4557138
20
-8.3052732
11
-11.3426786
21
-7.9936343
0
LINE
8
layer1
10
-11.3426786
20
-7.9936343
11
-11.2227618
21
-7.7018754
0
LINE
8
layer1
10
-11.2227618
20
-7.7018754
11
-11.1015923
21
-7.4389844
0
LINE
8
layer1
10
-11.1015923
20
-7.4389844
11
-10.9777458
21
-7.1973468
0
LINE
8
layer1
10
-10.9777458
20
-7.1973468
11
-10.7313766
21
-6.7821613
0
LINE
8
layer1
10
-10.7313766
20
-6.7821613
11
-10.4990493
21
-6.4560497
0
LINE
8
layer1
10
-10.4990493
20
-6.4560497
11
-10.2917865
21
-6.2111628
0
LINE
8
layer1
10
-10.2917865
20
-6.2111628
11
-10.1224721
21
-6.0419266
0
LINE
8
layer1
10
-10.1224721
20
-6.0419266
11
-9.9386122
21
-5.8943748
0
LINE
8
layer1
10
-9.9386122
20
-5.8943748
11
-9.6639947
21
-5.7160382
0
LINE
8
layer1
10
-9.6639947
20
-5.7160382
11
-9.4687133
21
-5.5596856
0
LINE
8
layer1
10
-9.4687133
20
-5.5596856
11
-9.303387
21
-5.3979896
0
LINE
8
layer1
10
-9.303387
20
-5.3979896
11
-9.1680834
21
-5.2331646
0
LINE
8
layer1
10
-9.1680834
20
-5.2331646
11
-9.0627326
21
-5.0674438
0
LINE
8
layer1
10
-9.0627326
20
-5.0674438
11
-8.9871332
21
-4.9030385
0
LINE
8
layer1
10
-8.9871332
20
-4.9030385
11
-8.9409426
21
-4.7421341
0
LINE
8
layer1
10
-8.9409426
20
-4.7421341
11
-8.9237055
21
-4.5869013
0
LINE
8
layer1
10
-8.9237055
20
-4.5869013
11
-8.934824
21
-4.4394631
0
LINE
8
layer1
10
-8.934824
20
-4.4394631
11
-8.9874766
21
-4.2693103
0
LINE
8
layer1
10
-8.9874766
20
-4.2693103
11
-9.192509
21
-3.8076619
0
LINE
8
layer1
10
-9.192509
20
-3.8076619
11
-9.3739639
21
-3.3362474
0
LINE
8
layer1
10
-9.3739639
20
-3.3362474
11
-9.4570491
21
-3.1787002
0
LINE
8
layer1
10
-9.4570491
20
-3.1787002
11
-9.5534417
21
-3.0665836
0
LINE
8
layer1
10
-9.5534417
20
-3.0665836
11
-9.6753963
21
-2.969006
0
LINE
8
layer1
10
-9.6753963
20
-2.969006
11
-9.8218346
21
-2.887891
0
LINE
8
layer1
10
-9.8218346
20
-2.887891
11
-9.9915436
21
-2.8250958
0
LINE
8
layer1
10
-9.9915436
20
-2.8250958
11
-10.1832201
21
-2.7824078
0
LINE
8
layer1
10
-10.1832201
20
-2.7824078
11
-10.3954431
21
-2.761533
0
LINE
8
layer1
10
-10.3954431
20
-2.761533
11
-10.6266828
21
-2.7641
0
LINE
8
layer1
10
-10.6266828
20
-2.7641
11
-10.8753255
21
-2.7916268
0
LINE
8
layer1
10
-10.8753255
20
-2.7916268
11
-11.1956125
21
-2.8597077
0
LINE
8
layer1
10
-11.1956125
20
-2.8597077
11
-11.429956
21
-2.8853814
0
LINE
8
layer1
10
-11.429956
20
-2.8853814
11
-11.6693474
21
-2.8854367
0
LINE
8
layer1
10
-11.6693474
20
-2.8854367
11
-11.9890655
21
-2.8588324
0
LINE
8
layer1
10
-11.9890655
20
-2.8588324
11
-12.3839415
21
-2.7925169
0
LINE
8
layer1
10
-12.3839415
20
-2.7925169
11
-12.8517312
21
-2.6731457
0
LINE
8
layer1
10
-12.8517312
20
-2.6731457
11
-13.1101675
21
-2.5898549
0
LINE
8
layer1
10
-13.1101675
20
-2.5898549
11
-13.3817392
21
-2.4896427
0
LINE
8
layer1
10
-13.3817392
20
-2.4896427
11
-13.672838
21
-2.3681319
0
LINE
8
layer1
10
-13.672838
20
-2.3681319
11
-13.9731279
21
-2.227698
0
LINE
8
layer1
10
-13.9731279
20
-2.227698
11
-14.2862812
21
-2.0649371
0
LINE
8
layer1
10
-14.2862812
20
-2.0649371
11
-14.6095106
21
-1.8793659
0
LINE
8
layer1
10
-14.6095106
20
-1.8793659
11
-14.9418863
21
-1.6695708
0
LINE
8
layer1
10
-14.9418863
20
-1.6695708
11
-15.282151
21
-1.4343277
0
LINE
8
layer1
10
-15.282151
20
-1.4343277
11
-15.6274624
21
-1.173574
0
LINE
8
layer1
10
-15.6274624
20
-1.173574
11
-15.978713
21
-0.8844754
0
LINE
8
layer1
10
-15.978713
20
-0.8844754
11
-16.3322058
21
-0.5677521
0
LINE
8
layer1
10
-16.3322058
20
-0.5677521
11
-16.6646893
21
-0.2444525
0
ARC
8
layer1
10
0.0000179
20
0
40
16.6665
50
179.1595957
51
180.8404043
0
LINE
8
layer1
10
-16.6646893
20
0.2444525
11
-16.3322058
21
0.5677521
0
LINE
8
layer1
10
-16.3322058
20
0.5677521
11
-15.978713
21
0.8844754
0
LINE
8
layer1
10
-15.978713
20
0.8844754
11
-15.6274624
21
1.173574
0
LINE
8
layer1
10
-15.6274624
20
1.173574
11
-15.282151
21
1.4343277
0
LINE
8
layer1
10
-15.282151
20
1.4343277
11
-14.9418863
21
1.6695708
0
LINE
8
layer1
10
-14.9418863
20
1.6695708
11
-14.6095106
21
1.8793659
0
LINE
8
layer1
10
-14.6095106
20
1.8793659
11
-14.2862812
21
2.0649371
0
LINE
8
layer1
10
-14.2862812
20
2.0649371
11
-13.9731279
21
2.227698
0
LINE
8
layer1
10
-13.9731279
20
2.227698
11
-13.672838
21
2.3681319
0
LINE
8
layer1
10
-13.672838
20
2.3681319
11
-13.3817392
21
2.4896427
0
LINE
8
layer1
10
-13.3817392
20
2.4896427
11
-13.1101675
21
2.5898549
0
LINE
8
layer1
10
-13.1101675
20
2.5898549
11
-12.8517312
21
2.6731457
0
LINE
8
layer1
10
-12.8517312
20
2.6731457
11
-12.3839415
21
2.7925169
0
LINE
8
layer1
10
-12.3839415
20
2.7925169
11
-11.9890655
21
2.8588324
0
LINE
8
layer1
10
-11.9890655
20
2.8588324
11
-11.6693474
21
2.8854367
0
LINE
8
layer1
10
-11.6693474
20
2.8854367
11
-11.429956
21
2.8853814
0
LINE
8
layer1
10
-11.429956
20
2.8853814
11
-11.1956125
21
2.8597077
0
LINE
8
layer1
10
-11.1956125
20
2.8597077
11
-10.8753255
21
2.7916268
0
LINE
8
layer1
10
-10.8753255
20
2.7916268
11
-10.6266828
21
2.7641
0
LINE
8
layer1
10
-10.6266828
20
2.7641
11
-10.3954431
21
2.761533
0
LINE
8
layer1
10
-10.3954431
20
2.761533
11
-10.1832201
21
2.7824078
0
LINE
8
layer1
10
-10.1832201
20
2.7824078
11
-9.9915436
21
2.8250958
0
LINE
8
layer1
10
-9.9915436
20
2.8250958
11
-9.8218346
21
2.887891
0
LINE
8
layer1
10
-9.8218346
20
2.887891
11
-9.6753963
21
2.969006
0
LINE
8
layer1
10
-9.6753963
20
2.969006
11
-9.5534417
21
3.0665836
0
LINE
8
layer1
10
-9.5534417
20
3.0665836
11
-9.4570491
21
3.1787002
0
LINE
8
layer1
10
-9.4570491
20
3.1787002
11
-9.3739639
21
3.3362474
0
LINE
8
layer1
10
-9.3739639
20
3.3362474
11
-9.192509
21
3.8076619
0
LINE
8
layer1
10
-9.192509
20
3.8076619
11
-8.9874766
21
4.2693103
0
LINE
8
layer1
10
-8.9874766
20
4.2693103
11
-8.934824
21
4.4394631
0
LINE
8
layer1
10
-8.934824
20
4.4394631
11
-8.9237055
21
4.5869013
0
LINE
8
layer1
10
-8.9237055
20
4.5869013
11
-8.9409426
21
4.7421341
0
LINE
8
layer1
10
-8.9409426
20
4.7421341
11
-8.9871332
21
4.9030385
0
LINE
8
layer1
10
-8.9871332
20
4.9030385
11
-9.0627326
21
5.0674438
0
LINE
8
layer1
10
-9.0627326
20
5.0674438
11
-9.1680834
21
5.2331646
0
LINE
8
layer1
10
-9.1680834
20
5.2331646
11
-9.303387
21
5.3979896
0
LINE
8
layer1
10
-9.303387
20
5.3979896
11
-9.4687133
21
5.5596856
0
LINE
8
layer1
10
-9.4687133
20
5.5596856
11
-9.6639947
21
5.7160382
0
LINE
8
layer1
10
-9.6639947
20
5.7160382
11
-9.9386122
21
5.8943748
0
LINE
8
layer1
10
-9.9386122
20
5.8943748
11
-10.1224721
21
6.0419266
0
LINE
8
layer1
10
-10.1224721
20
6.0419266
11
-10.2917865
21
6.2111628
0
LINE
8
layer1
10
-10.2917865
20
6.2111628
11
-10.4990493
21
6.4560497
0
LINE
8
layer1
10
-10.4990493
20
6.4560497
11
-10.7313766
21
6.7821613
0
LINE
8
layer1
10
-10.7313766
20
6.7821613
11
-10.9777458
21
7.1973468
0
LINE
8
layer1
10
-10.9777458
20
7.1973468
11
-11.1015923
21
7.4389844
0
LINE
8
layer1
10
-11.1015923
20
7.4389844
11
-11.2227618
21
7.7018754
0
LINE
8
layer1
10
-11.2227618
20
7.7018754
11
-11.3426786
21
7.9936343
0
LINE
8
layer1
10
-11.3426786
20
7.9936343
11
-11.4557138
21
8.3052732
0
LINE
8
layer1
10
-11.4557138
20
8.3052732
11
-11.5620573
21
8.6417953
0
LINE
8
layer1
10
-11.5620573
20
8.6417953
11
-11.6593964
21
9.0015717
0
LINE
8
layer1
10
-11.6593964
20
9.0015717
11
-11.746074
21
9.3849442
0
LINE
8
layer1
10
-11.746074
20
9.3849442
11
-11.8203355
21
9.7918898
0
LINE
8
layer1
10
-11.8203355
20
9.7918898
11
-11.8801268
21
10.2204426
0
LINE
8
layer1
10
-11.8801268
20
10.2204426
11
-11.9240749
21
10.6732378
0
LINE
8
layer1
10
-11.9240749
20
10.6732378
11
-11.9500749
21
11.1471521
0
LINE
8
layer1
10
-11.9500749
20
11.1471521
11
-11.9565688
21
11.6108608
0
ARC
8
layer1
10
0.0000126
20
-0.0000127
40
16.6665
50
134.1595955
51
135.840404
0
LINE
8
layer1
10
-11.6108608
20
11.9565688
11
-11.1471521
21
11.9500749
0
LINE
8
layer1
10
-11.1471521
20
11.9500749
11
-10.6732378
21
11.9240749
0
LINE
8
layer1
10
-10.6732378
20
11.9240749
11
-10.2204426
21
11.8801268
0
LINE
8
layer1
10
-10.2204426
20
11.8801268
11
-9.7918898
21
11.8203355
0
LINE
8
layer1
10
-9.7918898
20
11.8203355
11
-9.3849442
21
11.746074
0
LINE
8
layer1
10
-9.3849442
20
11.746074
11
-9.0015717
21
11.6593964
0
LINE
8
layer1
10
-9.0015717
20
11.6593964
11
-8.6417953
21
11.5620573
0
LINE
8
layer1
10
-8.6417953
20
11.5620573
11
-8.3052732
21
11.4557138
0
LINE
8
layer1
10
-8.3052732
20
11.4557138
11
-7.9936343
21
11.3426786
0
LINE
8
layer1
10
-7.9936343
20
11.3426786
11
-7.7018754
21
11.2227618
0
LINE
8
layer1
10
-7.7018754
20
11.2227618
11
-7.4389844
21
11.1015923
0
LINE
8
layer1
10
-7.4389844
20
11.1015923
11
-7.1973468
21
10.9777458
0
LINE
8
layer1
10
-7.1973468
20
10.9777458
11
-6.7821613
21
10.7313766
0
LINE
8
layer1
10
-6.7821613
20
10.7313766
11
-6.4560497
21
10.4990493
0
LINE
8
layer1
10
-6.4560497
20
10.4990493
11
-6.2111628
21
10.2917865
0
LINE
8
layer1
10
-6.2111628
20
10.2917865
11
-6.0419266
21
10.1224721
0
LINE
8
layer1
10
-6.0419266
20
10.1224721
11
-5.8943748
21
9.9386122
0
LINE
8
layer1
10
-5.8943748
20
9.9386122
11
-5.7160382
21
9.6639947
0
LINE
8
layer1
10
-5.7160382
20
9.6639947
11
-5.5596856
21
9.4687133
0
LINE
8
layer1
10
-5.5596856
20
9.4687133
11
-5.3979896
21
9.303387
0
LINE
8
layer1
10
-5.3979896
20
9.303387
11
-5.2331646
21
9.1680834
0
LINE
8
layer1
10
-5.2331646
20
9.1680834
11
-5.0674438
21
9.0627326
0
LINE
8
layer1
10
-5.0674438
20
9.0627326
11
-4.9030385
21
8.9871332
0
LINE
8
layer1
10
-4.9030385
20
8.9871332
11
-4.7421341
21
8.9409426
0
LINE
8
layer1
10
-4.7421341
20
8.9409426
11
-4.5869013
21
8.9237055
0
LINE
8
layer1
10
-4.5869013
20
8.9237055
11
-4.4394631
21
8.934824
0
LINE
8
layer1
10
-4.4394631
20
8.934824
11
-4.2693103
21
8.9874766
0
LINE
8
layer1
10
-4.2693103
20
8.9874766
11
-3.8076619
21
9.192509
0
LINE
8
layer1
10
-3.8076619
20
9.192509
11
-3.3362474
21
9.3739639
0
LINE
8
layer1
10
-3.3362474
20
9.3739639
11
-3.1787002
21
9.4570491
0
LINE
8
layer1
10
-3.1787002
20
9.4570491
11
-3.0665836
21
9.5534417
0
LINE
8
layer1
10
-3.0665836
20
9.5534417
11
-2.969006
21
9.6753963
0
LINE
8
layer1
10
-2.969006
20
9.6753963
11
-2.887891
21
9.8218346
0
LINE
8
layer1
10
-2.887891
20
9.8218346
11
-2.8250958
21
9.9915436
0
LINE
8
layer1
10
-2.8250958
20
9.9915436
11
-2.7824078
21
10.1832201
0
LINE
8
layer1
10
-2.7824078
20
10.1832201
11
-2.761533
21
10.3954431
0
LINE
8
layer1
10
-2.761533
20
10.3954431
11
-2.7641
21
10.6266828
0
LINE
8
layer1
10
-2.7641
20
10.6266828
11
-2.7916268
21
10.8753255
0
LINE
8
layer1
10
-2.7916268
20
10.8753255
11
-2.8597077
21
11.1956125
0
LINE
8
layer1
10
-2.8597077
20
11.1956125
11
-2.8853814
21
11.429956
0
LINE
8
layer1
10
-2.8853814
20
11.429956
11
-2.8854367
21
11.6693474
0
LINE
8
layer1
10
-2.8854367
20
11.6693474
11
-2.8588324
21
11.9890655
0
LINE
8
layer1
10
-2.8588324
20
11.9890655
11
-2.7925169
21
12.3839415
0
LINE
8
layer1
10
-2.7925169
20
12.3839415
11
-2.6731457
21
12.8517312
0
LINE
8
layer1
10
-2.6731457
20
12.8517312
11
-2.5898549
21
13.1101675
0
LINE
8
layer1
10
-2.5898549
20
13.1101675
11
-2.4896427
21
13.3817392
0
LINE
8
layer1
10
-2.4896427
20
13.3817392
11
-2.3681319
21
13.672838
0
LINE
8
layer1
10
-2.3681319
20
13.672838
11
-2.227698
21
13.9731279
0
LINE
8
layer1
10
-2.227698
20
13.9731279
11
-2.0649371
21
14.2862812
0
LINE
8
layer1
10
-2.0649371
20
14.2862812
11
-1.8793659
21
14.6095106
0
LINE
8
layer1
10
-1.8793659
20
14.6095106
11
-1.6695708
21
14.9418863
0
LINE
8
layer1
10
-1.6695708
20
14.9418863
11
-1.4343277
21
15.282151
0
LINE
8
layer1
10
-1.4343277
20
15.282151
11
-1.173574
21
15.6274624
0
LINE
8
layer1
10
-1.173574
20
15.6274624
11
-0.8844754
21
15.978713
0
LINE
8
layer1
10
-0.8844754
20
15.978713
11
-0.5677521
21
16.3322058
0
LINE
8
layer1
10
-0.5677521
20
16.3322058
11
-0.2444525
21
16.6646893
0
ARC
8
layer1
10
0
20
-0.0000179
40
16.6665
50
89.1595957
51
90.8404043
0
LINE
8
layer1
10
0.2444525
20
16.6646893
11
0.5677521
21
16.3322058
0
LINE
8
layer1
10
0.5677521
20
16.3322058
11
0.8844754
21
15.978713
0
LINE
8
layer1
10
0.8844754
20
15.978713
11
1.173574
21
15.6274624
0
LINE
8
layer1
10
1.173574
20
15.6274624
11
1.4343277
21
15.282151
0
LINE
8
layer1
10
1.4343277
20
15.282151
11
1.6695708
21
14.9418863
0
LINE
8
layer1
10
1.6695708
20
14.9418863
11
1.8793659
21
14.6095106
0
LINE
8
layer1
10
1.8793659
20
14.6095106
11
2.0649371
21
14.2862812
0
LINE
8
layer1
10
2.0649371
20
14.2862812
11
2.227698
21
13.9731279
0
LINE
8
layer1
10
2.227698
20
13.9731279
11
2.3681319
21
13.672838
0
LINE
8
layer1
10
2.3681319
20
13.672838
11
2.4896427
21
13.3817392
0
LINE
8
layer1
10
2.4896427
20
13.3817392
11
2.5898549
21
13.1101675
0
LINE
8
layer1
10
2.5898549
20
13.1101675
11
2.6731457
21
12.8517312
0
LINE
8
layer1
10
2.6731457
20
12.8517312
11
2.7925169
21
12.3839415
0
LINE
8
layer1
10
2.7925169
20
12.3839415
11
2.8588324
21
11.9890655
0
LINE
8
layer1
10
2.8588324
20
11.9890655
11
2.8854367
21
11.6693474
0
LINE
8
layer1
10
2.8854367
20
11.6693474
11
2.8853814
21
11.429956
0
LINE
8
layer1
10
2.8853814
20
11.429956
11
2.8597077
21
11.1956125
0
LINE
8
layer1
10
2.8597077
20
11.1956125
11
2.7916268
21
10.8753255
0
LINE
8
layer1
10
2.7916268
20
10.8753255
11
2.7641
21
10.6266828
0
LINE
8
layer1
10
2.7641
20
10.6266828
11
2.761533
21
10.3954431
0
LINE
8
layer1
10
2.761533
20
10.3954431
11
2.7824078
21
10.1832201
0
LINE
8
layer1
10
2.7824078
20
10.1832201
11
2.8250958
21
9.9915436
0
LINE
8
layer1
10
2.8250958
20
9.9915436
11
2.887891
21
9.8218346
0
LINE
8
layer1
10
2.887891
20
9.8218346
11
2.969006
21
9.6753963
0
LINE
8
layer1
10
2.969006
20
9.6753963
11
3.0665836
21
9.5534417
0
LINE
8
layer1
10
3.0665836
20
9.5534417
11
3.1787002
21
9.4570491
0
LINE
8
layer1
10
3.1787002
20
9.4570491
11
3.3362474
21
9.3739639
0
LINE
8
layer1
10
3.3362474
20
9.3739639
11
3.8076619
21
9.192509
0
LINE
8
layer1
10
3.8076619
20
9.192509
11
4.2693103
21
8.9874766
0
LINE
8
layer1
10
4.2693103
20
8.9874766
11
4.4394631
21
8.934824
0
LINE
8
layer1
10
4.4394631
20
8.934824
11
4.5869013
21
8.9237055
0
LINE
8
layer1
10
4.5869013
20
8.9237055
11
4.7421341
21
8.9409426
0
LINE
8
layer1
10
4.7421341
20
8.9409426
11
4.9030385
21
8.9871332
0
LINE
8
layer1
10
4.9030385
20
8.9871332
11
5.0674438
21
9.0627326
0
LINE
8
layer1
10
5.0674438
20
9.0627326
11
5.2331646
21
9.1680834
0
LINE
8
layer1
10
5.2331646
20
9.1680834
11
5.3979896
21
9.303387
0
LINE
8
layer1
10
5.3979896
20
9.303387
11
5.5596856
21
9.4687133
0
LINE
8
layer1
10
5.5596856
20
9.4687133
11
5.7160382
21
9.6639947
0
LINE
8
layer1
10
5.7160382
20
9.6639947
11
5.8943748
21
9.9386122
0
LINE
8
layer1
10
5.8943748
20
9.9386122
11
6.0419266
21
10.1224721
0
LINE
8
layer1
10
6.0419266
20
10.1224721
11
6.2111628
21
10.2917865
0
LINE
8
layer1
10
6.2111628
20
10.2917865
11
6.4560497
21
10.4990493
0
LINE
8
layer1
10
6.4560497
20
10.4990493
11
6.7821613
21
10.7313766
0
LINE
8
layer1
10
6.7821613
20
10.7313766
11
7.1973468
21
10.9777458
0
LINE
8
layer1
10
7.1973468
20
10.9777458
11
7.4389844
21
11.1015923
0
LINE
8
layer1
10
7.4389844
20
11.1015923
11
7.7018754
21
11.2227618
0
LINE
8
layer1
10
7.7018754
20
11.2227618
11
7.9936343
21
11.3426786
0
LINE
8
layer1
10
7.9936343
20
11.3426786
11
8.3052732
21
11.4557138
0
LINE
8
layer1
10
8.3052732
20
11.4557138
11
8.6417953
21
11.5620573
0
LINE
8
layer1
10
8.6417953
20
11.5620573
11
9.0015717
21
11.6593964
0
LINE
8
layer1
10
9.0015717
20
11.6593964
11
9.3849442
21
11.746074
0
LINE
8
layer1
10
9.3849442
20
11.746074
11
9.7918898
21
11.8203355
0
LINE
8
layer1
10
9.7918898
20
11.8203355
11
10.2204426
21
11.8801268
0
LINE
8
layer1
10
10.2204426
20
11.8801268
11
10.6732378
21
11.9240749
0
LINE
8
layer1
10
10.6732378
20
11.9240749
11
11.1471521
21
11.9500749
0
LINE
8
layer1
10
11.1471521
20
11.9500749
11
11.6108608
21
11.9565688
0
ARC
8
layer1
10
-0.0000127
20
-0.0000126
40
16.6665
50
44.1595955
51
45.840404
0
LINE
8
layer1
10
11.9565688
20
11.6108608
11
11.9500749
21
11.1471521
0
ENDSEC
0
EOF