<?xml version="1.0" encoding="UTF-8"?>
<svg viewBox="-19.66647 -19.66647 65.99933999999999 39.33294" height="39.33294mm" width="65.99933999999999mm" xmlns:svgjs="http://svgjs.com/svgjs" xmlns:xlink="http://www.w3.org/1999/xlink" version="1.1" xmlns="http://www.w3.org/2000/svg" id="SvgjsSvg1913">
  <defs id="SvgjsDefs1914">
  </defs>
  <defs id="SvgjsDefs1914">
  </defs>
  <g id="SvgjsG1915">
    <g transform="matrix(1,0,0,1,0,0)" id="SvgjsG1916">
      <g fill="none" stroke-width="0.04" stroke="blue" id="SvgjsG1917">
      </g>
      <g fill="none" stroke-width="0.1" stroke="black" id="SvgjsG1918">
        <circle cy="0" cx="0" r="1.5" id="SvgjsCircle1919">
        </circle>
        <path d="M11.950074860786916 -11.147152093251826  L11.924074896274446 -10.67323775674643 L11.88012676678984 -10.220442553133577 L11.82033547252586 -9.791889777818518 L11.746073965120765 -9.384944245077438 L11.659396361400372 -9.001571661924586 L11.562057329233712 -8.641795280658586 L11.455713849227045 -8.305273172528866 L11.342678565162037 -7.993634349118906 L11.222761778433004 -7.701875350182142 L11.101592305091794 -7.43898441969915 L10.977745750191934 -7.197346828585026 L10.731376627859541 -6.782161333220403 L10.499049266709608 -6.45604973382365 L10.291786500754792 -6.211162799201243 L10.122472082025967 -6.041926640799675 L9.938612226631491 -5.89437480558804 L9.66399469275338 -5.716038155998828 L9.46871332397204 -5.559685580366428 L9.303386995899748 -5.397989556772361 L9.168083418377716 -5.23316456379575 L9.062732647862985 -5.067443829571113 L8.987133155970398 -4.903038549772736 L8.940942590677276 -4.742134060780348 L8.923705492709392 -4.586901320182092 L8.93482399402832 -4.439463121846582 L8.987476604857807 -4.269310290624652 L9.19250896053405 -3.807661883689406 L9.373963910540606 -3.336247395560203 L9.457049113171017 -3.178700156600379 L9.553441695340737 -3.066583639072168 L9.675396287741004 -2.9690059843940357 L9.821834604976484 -2.8878909910497685 L9.991543606556293 -2.82509581621297 L10.183220105743942 -2.78240780549371 L10.395443053171357 -2.7615330124355513 L10.626682775634212 -2.764100025349875 L10.875325522224543 -2.7916268389689014 L11.1956124969211 -2.859707705148217 L11.42995595071318 -2.885381352430963 L11.669347359576701 -2.8854366908390636 L11.989065478966321 -2.8588323860377036 L12.38394145484765 -2.792516915204963 L12.851731211146484 -2.6731457130585556 L13.110167529209145 -2.589854872588459 L13.381739245138483 -2.4896426692038656 L13.672837984833068 -2.3681318756576815 L13.973127926022961 -2.227697966219218 L14.28628118654837 -2.0649370973891887 L14.609510595171496 -1.8793658682044265 L14.941886269807572 -1.669570836303731 L15.282151031049642 -1.4343277059962167 L15.627462434201213 -1.1735739621046042 L15.978713013543635 -0.884475423520243 L16.3322058058055 -0.5677521336931308 L16.664689273579043 -0.24445248887842297 A16.6665 16.6665 0 0 1 16.664689273579043 0.24445248887842386 L16.3322058058055 0.5677521336931326 L15.978713013543635 0.8844754235202448 L15.627462434201213 1.173573962104606 L15.282151031049642 1.4343277059962185 L14.941886269807572 1.6695708363037327 L14.609510595171496 1.8793658682044274 L14.28628118654837 2.0649370973891905 L13.973127926022961 2.22769796621922 L13.67283798483307 2.3681318756576832 L13.381739245138483 2.4896426692038673 L13.110167529209146 2.58985487258846 L12.851731211146484 2.6731457130585565 L12.38394145484765 2.7925169152049647 L11.989065478966321 2.8588323860377054 L11.669347359576701 2.8854366908390654 L11.42995595071318 2.8853813524309646 L11.1956124969211 2.8597077051482187 L10.875325522224543 2.7916268389689023 L10.626682775634212 2.764100025349877 L10.395443053171357 2.761533012435553 L10.183220105743942 2.782407805493711 L9.991543606556293 2.8250958162129707 L9.821834604976484 2.8878909910497694 L9.675396287741004 2.9690059843940366 L9.553441695340737 3.066583639072169 L9.457049113171017 3.1787001566003803 L9.373963910540606 3.3362473955602043 L9.19250896053405 3.8076618836894074 L8.987476604857807 4.269310290624653 L8.93482399402832 4.4394631218465825 L8.923705492709392 4.5869013201820925 L8.940942590677276 4.742134060780349 L8.987133155970398 4.903038549772738 L9.062732647862985 5.067443829571115 L9.168083418377716 5.233164563795751 L9.303386995899748 5.397989556772362 L9.46871332397204 5.55968558036643 L9.66399469275338 5.716038155998829 L9.938612226631491 5.894374805588042 L10.122472082025967 6.041926640799677 L10.291786500754792 6.211162799201245 L10.499049266709608 6.456049733823652 L10.731376627859541 6.7821613332204045 L10.977745750191934 7.197346828585028 L11.101592305091792 7.438984419699151 L11.222761778433004 7.701875350182144 L11.342678565162036 7.993634349118908 L11.455713849227045 8.305273172528867 L11.562057329233712 8.641795280658588 L11.659396361400372 9.001571661924586 L11.746073965120765 9.38494424507744 L11.82033547252586 9.791889777818522 L11.88012676678984 10.22044255313358 L11.924074896274446 10.673237756746431 L11.950074860786916 11.147152093251826 L11.956568804278323 11.610860779150599 A16.6665 16.6665 0 0 1 11.610860779150599 11.956568804278323 L11.147152093251826 11.950074860786916 L10.673237756746431 11.924074896274446 L10.220442553133578 11.88012676678984 L9.79188977781852 11.82033547252586 L9.384944245077438 11.746073965120765 L9.001571661924586 11.659396361400372 L8.641795280658588 11.562057329233712 L8.305273172528866 11.455713849227045 L7.993634349118907 11.342678565162037 L7.701875350182143 11.222761778433004 L7.43898441969915 11.101592305091794 L7.197346828585028 10.977745750191934 L6.7821613332204045 10.731376627859541 L6.456049733823651 10.499049266709608 L6.211162799201244 10.291786500754792 L6.041926640799677 10.122472082025967 L5.894374805588042 9.938612226631491 L5.716038155998828 9.66399469275338 L5.559685580366429 9.46871332397204 L5.3979895567723615 9.303386995899748 L5.23316456379575 9.168083418377716 L5.067443829571114 9.062732647862985 L4.903038549772737 8.987133155970398 L4.742134060780348 8.940942590677276 L4.586901320182092 8.923705492709392 L4.4394631218465825 8.93482399402832 L4.269310290624652 8.987476604857807 L3.8076618836894065 9.19250896053405 L3.3362473955602034 9.373963910540606 L3.17870015660038 9.457049113171017 L3.0665836390721686 9.553441695340737 L2.9690059843940366 9.675396287741004 L2.887890991049769 9.821834604976484 L2.8250958162129702 9.991543606556293 L2.78240780549371 10.183220105743942 L2.761533012435552 10.395443053171357 L2.764100025349876 10.626682775634212 L2.7916268389689014 10.875325522224543 L2.859707705148218 11.1956124969211 L2.8853813524309637 11.42995595071318 L2.8854366908390645 11.669347359576701 L2.8588323860377045 11.989065478966321 L2.792516915204964 12.38394145484765 L2.6731457130585565 12.851731211146484 L2.589854872588459 13.110167529209145 L2.4896426692038665 13.381739245138483 L2.3681318756576824 13.672837984833068 L2.227697966219219 13.973127926022961 L2.0649370973891896 14.28628118654837 L1.8793658682044265 14.609510595171496 L1.6695708363037318 14.941886269807572 L1.4343277059962176 15.282151031049642 L1.173573962104605 15.627462434201213 L0.8844754235202439 15.978713013543635 L0.5677521336931317 16.3322058058055 L0.24445248887842386 16.664689273579043 A16.6665 16.6665 0 0 1 -0.24445248887842386 16.664689273579043 L-0.5677521336931317 16.3322058058055 L-0.8844754235202439 15.978713013543635 L-1.173573962104605 15.627462434201213 L-1.4343277059962176 15.282151031049642 L-1.6695708363037318 14.941886269807572 L-1.8793658682044265 14.609510595171496 L-2.0649370973891896 14.28628118654837 L-2.227697966219219 13.973127926022961 L-2.3681318756576824 13.672837984833068 L-2.4896426692038665 13.381739245138483 L-2.589854872588459 13.110167529209145 L-2.6731457130585565 12.851731211146484 L-2.792516915204964 12.38394145484765 L-2.8588323860377045 11.989065478966321 L-2.8854366908390645 11.669347359576701 L-2.8853813524309637 11.42995595071318 L-2.859707705148218 11.1956124969211 L-2.7916268389689014 10.875325522224543 L-2.764100025349876 10.626682775634212 L-2.761533012435552 10.395443053171357 L-2.78240780549371 10.183220105743942 L-2.8250958162129702 9.991543606556293 L-2.887890991049769 9.821834604976484 L-2.9690059843940366 9.675396287741004 L-3.0665836390721686 9.553441695340737 L-3.17870015660038 9.457049113171017 L-3.3362473955602034 9.373963910540606 L-3.8076618836894065 9.19250896053405 L-4.269310290624652 8.987476604857807 L-4.4394631218465825 8.93482399402832 L-4.586901320182092 8.923705492709392 L-4.742134060780348 8.940942590677276 L-4.903038549772737 8.987133155970398 L-5.067443829571114 9.062732647862985 L-5.23316456379575 9.168083418377716 L-5.3979895567723615 9.303386995899748 L-5.559685580366429 9.46871332397204 L-5.716038155998828 9.66399469275338 L-5.894374805588042 9.938612226631491 L-6.041926640799677 10.122472082025967 L-6.211162799201244 10.291786500754792 L-6.456049733823651 10.499049266709608 L-6.7821613332204045 10.731376627859541 L-7.197346828585028 10.977745750191934 L-7.43898441969915 11.101592305091794 L-7.701875350182143 11.222761778433004 L-7.993634349118907 11.342678565162037 L-8.305273172528866 11.455713849227045 L-8.641795280658588 11.562057329233712 L-9.001571661924586 11.659396361400372 L-9.384944245077438 11.746073965120765 L-9.79188977781852 11.82033547252586 L-10.220442553133578 11.88012676678984 L-10.673237756746431 11.924074896274446 L-11.147152093251826 11.950074860786916 L-11.610860779150599 11.956568804278323 A16.6665 16.6665 0 0 1 -11.956568804278323 11.610860779150599 L-11.950074860786916 11.147152093251826 L-11.924074896274446 10.673237756746431 L-11.88012676678984 10.22044255313358 L-11.82033547252586 9.791889777818522 L-11.746073965120765 9.38494424507744 L-11.659396361400372 9.001571661924586 L-11.562057329233712 8.641795280658588 L-11.455713849227045 8.305273172528867 L-11.342678565162036 7.993634349118908 L-11.222761778433004 7.701875350182144 L-11.101592305091792 7.438984419699151 L-10.977745750191934 7.197346828585028 L-10.731376627859541 6.7821613332204045 L-10.499049266709608 6.456049733823652 L-10.291786500754792 6.211162799201245 L-10.122472082025967 6.041926640799677 L-9.938612226631491 5.894374805588042 L-9.66399469275338 5.716038155998829 L-9.46871332397204 5.55968558036643 L-9.303386995899748 5.397989556772362 L-9.168083418377716 5.233164563795751 L-9.062732647862985 5.067443829571115 L-8.987133155970398 4.903038549772738 L-8.940942590677276 4.742134060780349 L-8.923705492709392 4.5869013201820925 L-8.93482399402832 4.4394631218465825 L-8.987476604857807 4.269310290624653 L-9.19250896053405 3.8076618836894074 L-9.373963910540606 3.3362473955602043 L-9.457049113171017 3.1787001566003803 L-9.553441695340737 3.066583639072169 L-9.675396287741004 2.9690059843940366 L-9.821834604976484 2.8878909910497694 L-9.991543606556293 2.8250958162129707 L-10.183220105743942 2.782407805493711 L-10.395443053171357 2.761533012435553 L-10.626682775634212 2.764100025349877 L-10.875325522224543 2.7916268389689023 L-11.1956124969211 2.8597077051482187 L-11.42995595071318 2.8853813524309646 L-11.669347359576701 2.8854366908390654 L-11.989065478966321 2.8588323860377054 L-12.38394145484765 2.7925169152049647 L-12.851731211146484 2.6731457130585565 L-13.110167529209146 2.58985487258846 L-13.381739245138483 2.4896426692038673 L-13.67283798483307 2.3681318756576832 L-13.973127926022961 2.22769796621922 L-14.28628118654837 2.0649370973891905 L-14.609510595171496 1.8793658682044274 L-14.941886269807572 1.6695708363037327 L-15.282151031049642 1.4343277059962185 L-15.627462434201213 1.173573962104606 L-15.978713013543635 0.8844754235202448 L-16.3322058058055 0.5677521336931326 L-16.664689273579043 0.24445248887842386 A16.6665 16.6665 0 0 1 -16.664689273579043 -0.24445248887842297 L-16.3322058058055 -0.5677521336931308 L-15.978713013543635 -0.884475423520243 L-15.627462434201213 -1.1735739621046042 L-15.282151031049642 -1.4343277059962167 L-14.941886269807572 -1.669570836303731 L-14.609510595171496 -1.8793658682044265 L-14.28628118654837 -2.0649370973891887 L-13.973127926022961 -2.227697966219218 L-13.672837984833068 -2.3681318756576815 L-13.381739245138483 -2.4896426692038656 L-13.110167529209145 -2.589854872588459 L-12.851731211146484 -2.6731457130585556 L-12.38394145484765 -2.792516915204963 L-11.989065478966321 -2.8588323860377036 L-11.669347359576701 -2.8854366908390636 L-11.42995595071318 -2.885381352430963 L-11.1956124969211 -2.859707705148217 L-10.875325522224543 -2.7916268389689014 L-10.626682775634212 -2.764100025349875 L-10.395443053171357 -2.7615330124355513 L-10.183220105743942 -2.78240780549371 L-9.991543606556293 -2.82509581621297 L-9.821834604976484 -2.8878909910497685 L-9.675396287741004 -2.9690059843940357 L-9.553441695340737 -3.066583639072168 L-9.457049113171017 -3.178700156600379 L-9.373963910540606 -3.336247395560203 L-9.19250896053405 -3.807661883689406 L-8.987476604857807 -4.269310290624652 L-8.93482399402832 -4.439463121846582 L-8.923705492709392 -4.586901320182092 L-8.940942590677276 -4.742134060780348 L-8.987133155970398 -4.903038549772736 L-9.062732647862985 -5.067443829571113 L-9.168083418377716 -5.23316456379575 L-9.303386995899748 -5.397989556772361 L-9.46871332397204 -5.559685580366428 L-9.66399469275338 -5.716038155998828 L-9.938612226631491 -5.89437480558804 L-10.122472082025967 -6.041926640799675 L-10.291786500754792 -6.211162799201243 L-10.499049266709608 -6.45604973382365 L-10.731376627859541 -6.782161333220403 L-10.977745750191934 -7.197346828585026 L-11.101592305091794 -7.43898441969915 L-11.222761778433004 -7.701875350182142 L-11.342678565162037 -7.993634349118906 L-11.455713849227045 -8.305273172528866 L-11.562057329233712 -8.641795280658586 L-11.659396361400372 -9.001571661924586 L-11.746073965120765 -9.384944245077438 L-11.82033547252586 -9.791889777818518 L-11.88012676678984 -10.220442553133577 L-11.924074896274446 -10.67323775674643 L-11.950074860786916 -11.147152093251826 L-11.956568804278323 -11.610860779150599 A16.6665 16.6665 0 0 1 -11.6108607791506 -11.956568804278323 L-11.147152093251828 -11.950074860786916 L-10.673237756746431 -11.924074896274446 L-10.22044255313358 -11.88012676678984 L-9.791889777818522 -11.82033547252586 L-9.38494424507744 -11.746073965120765 L-9.001571661924586 -11.659396361400372 L-8.641795280658588 -11.562057329233712 L-8.305273172528867 -11.455713849227044 L-7.993634349118909 -11.342678565162036 L-7.701875350182145 -11.222761778433004 L-7.4389844196991515 -11.101592305091792 L-7.197346828585028 -10.977745750191934 L-6.7821613332204045 -10.731376627859541 L-6.456049733823653 -10.499049266709608 L-6.2111627992012455 -10.291786500754792 L-6.041926640799678 -10.122472082025967 L-5.894374805588043 -9.938612226631491 L-5.71603815599883 -9.66399469275338 L-5.55968558036643 -9.46871332397204 L-5.397989556772362 -9.303386995899748 L-5.233164563795752 -9.168083418377716 L-5.067443829571115 -9.062732647862985 L-4.903038549772738 -8.987133155970398 L-4.742134060780349 -8.940942590677276 L-4.5869013201820925 -8.923705492709392 L-4.439463121846583 -8.93482399402832 L-4.269310290624654 -8.987476604857807 L-3.807661883689408 -9.19250896053405 L-3.3362473955602048 -9.373963910540606 L-3.1787001566003807 -9.457049113171017 L-3.0665836390721695 -9.553441695340737 L-2.9690059843940375 -9.675396287741004 L-2.88789099104977 -9.821834604976484 L-2.825095816212971 -9.991543606556293 L-2.782407805493712 -10.183220105743942 L-2.761533012435553 -10.395443053171357 L-2.764100025349877 -10.626682775634212 L-2.791626838968903 -10.875325522224543 L-2.8597077051482196 -11.1956124969211 L-2.8853813524309655 -11.42995595071318 L-2.8854366908390663 -11.669347359576701 L-2.8588323860377063 -11.989065478966321 L-2.7925169152049647 -12.38394145484765 L-2.6731457130585574 -12.851731211146484 L-2.589854872588461 -13.110167529209146 L-2.4896426692038682 -13.381739245138483 L-2.368131875657684 -13.67283798483307 L-2.22769796621922 -13.973127926022963 L-2.0649370973891914 -14.28628118654837 L-1.8793658682044283 -14.609510595171496 L-1.6695708363037327 -14.941886269807572 L-1.4343277059962194 -15.282151031049642 L-1.1735739621046068 -15.627462434201213 L-0.8844754235202457 -15.978713013543635 L-0.5677521336931335 -16.3322058058055 L-0.24445248887842475 -16.664689273579043 A16.6665 16.6665 0 0 1 0.2444524888784212 -16.664689273579043 L0.567752133693129 -16.3322058058055 L0.8844754235202412 -15.978713013543636 L1.1735739621046024 -15.627462434201215 L1.4343277059962158 -15.282151031049644 L1.6695708363037296 -14.941886269807574 L1.8793658682044252 -14.609510595171498 L2.0649370973891874 -14.286281186548372 L2.2276979662192167 -13.973127926022963 L2.36813187565768 -13.67283798483307 L2.4896426692038647 -13.381739245138485 L2.5898548725884583 -13.110167529209146 L2.6731457130585543 -12.851731211146486 L2.7925169152049616 -12.383941454847651 L2.8588323860377027 -11.989065478966323 L2.885436690839063 -11.669347359576701 L2.8853813524309624 -11.429955950713182 L2.8597077051482165 -11.195612496921102 L2.7916268389689005 -10.875325522224541 L2.764100025349875 -10.626682775634212 L2.7615330124355513 -10.395443053171359 L2.782407805493709 -10.183220105743944 L2.8250958162129685 -9.991543606556295 L2.887890991049767 -9.821834604976486 L2.969005984394035 -9.675396287741004 L3.0665836390721672 -9.553441695340739 L3.1787001566003785 -9.457049113171017 L3.3362473955602026 -9.373963910540608 L3.8076618836894056 -9.192508960534052 L4.269310290624651 -8.98747660485781 L4.439463121846581 -8.93482399402832 L4.586901320182091 -8.923705492709393 L4.742134060780347 -8.940942590677276 L4.903038549772736 -8.9871331559704 L5.067443829571113 -9.062732647862987 L5.233164563795749 -9.168083418377718 L5.397989556772361 -9.30338699589975 L5.559685580366428 -9.46871332397204 L5.716038155998827 -9.663994692753382 L5.894374805588041 -9.938612226631493 L6.041926640799676 -10.122472082025968 L6.211162799201244 -10.291786500754792 L6.456049733823649 -10.49904926670961 L6.782161333220403 -10.731376627859543 L7.197346828585026 -10.977745750191936 L7.438984419699149 -11.101592305091796 L7.701875350182141 -11.222761778433005 L7.993634349118906 -11.34267856516204 L8.305273172528864 -11.455713849227047 L8.641795280658586 -11.562057329233713 L9.001571661924585 -11.659396361400374 L9.384944245077438 -11.746073965120766 L9.791889777818518 -11.820335472525862 L10.220442553133577 -11.880126766789841 L10.67323775674643 -11.924074896274448 L11.147152093251826 -11.950074860786918 L11.610860779150599 -11.956568804278326 A16.6665 16.6665 0 0 1 11.956568804278323 -11.610860779150599 Z" id="SvgjsPath1920">
        </path>
      </g>
    </g>
  </g>
</svg>
